%TF.GenerationSoftware,KiCad,Pcbnew,8.0.8*%
%TF.CreationDate,2025-02-03T17:49:20-07:00*%
%TF.ProjectId,Thermo_Probe,54686572-6d6f-45f5-9072-6f62652e6b69,rev?*%
%TF.SameCoordinates,Original*%
%TF.FileFunction,Profile,NP*%
%FSLAX46Y46*%
G04 Gerber Fmt 4.6, Leading zero omitted, Abs format (unit mm)*
G04 Created by KiCad (PCBNEW 8.0.8) date 2025-02-03 17:49:20*
%MOMM*%
%LPD*%
G01*
G04 APERTURE LIST*
%ADD10C,0.150000*%
%TA.AperFunction,Profile*%
%ADD11C,0.150000*%
%TD*%
G04 APERTURE END LIST*
D10*
X131074605Y-118673920D02*
X130884317Y-118682377D01*
X130884317Y-118682377D02*
X130791287Y-118734178D01*
X130791287Y-118734178D02*
X130745829Y-118783864D01*
X130745829Y-118783864D02*
X130657028Y-118930809D01*
X130657028Y-118930809D02*
X130617913Y-119123211D01*
X130617913Y-119123211D02*
X130634828Y-119503788D01*
X130634828Y-119503788D02*
X130686629Y-119596818D01*
X130686629Y-119596818D02*
X130736315Y-119642276D01*
X130736315Y-119642276D02*
X130833574Y-119685619D01*
X130833574Y-119685619D02*
X131023862Y-119677162D01*
X131023862Y-119677162D02*
X131116892Y-119625361D01*
X131116892Y-119625361D02*
X131162350Y-119575675D01*
X131162350Y-119575675D02*
X131205693Y-119478416D01*
X131205693Y-119478416D02*
X131195121Y-119240556D01*
X131195121Y-119240556D02*
X131143321Y-119147526D01*
X131143321Y-119147526D02*
X131093634Y-119102068D01*
X131093634Y-119102068D02*
X130996376Y-119058725D01*
X130996376Y-119058725D02*
X130806087Y-119067182D01*
X130806087Y-119067182D02*
X130713058Y-119118983D01*
X130713058Y-119118983D02*
X130667600Y-119168669D01*
X130667600Y-119168669D02*
X130624256Y-119265928D01*
X131759644Y-119072468D02*
X131662385Y-119029124D01*
X131662385Y-119029124D02*
X131612699Y-118983667D01*
X131612699Y-118983667D02*
X131560898Y-118890637D01*
X131560898Y-118890637D02*
X131558784Y-118843065D01*
X131558784Y-118843065D02*
X131602127Y-118745806D01*
X131602127Y-118745806D02*
X131647585Y-118696120D01*
X131647585Y-118696120D02*
X131740615Y-118644319D01*
X131740615Y-118644319D02*
X131930903Y-118635862D01*
X131930903Y-118635862D02*
X132028162Y-118679205D01*
X132028162Y-118679205D02*
X132077848Y-118724663D01*
X132077848Y-118724663D02*
X132129649Y-118817693D01*
X132129649Y-118817693D02*
X132131763Y-118865265D01*
X132131763Y-118865265D02*
X132088420Y-118962524D01*
X132088420Y-118962524D02*
X132042962Y-119012210D01*
X132042962Y-119012210D02*
X131949932Y-119064011D01*
X131949932Y-119064011D02*
X131759644Y-119072468D01*
X131759644Y-119072468D02*
X131666614Y-119124269D01*
X131666614Y-119124269D02*
X131621156Y-119173955D01*
X131621156Y-119173955D02*
X131577812Y-119271214D01*
X131577812Y-119271214D02*
X131586270Y-119461502D01*
X131586270Y-119461502D02*
X131638070Y-119554532D01*
X131638070Y-119554532D02*
X131687757Y-119599990D01*
X131687757Y-119599990D02*
X131785015Y-119643333D01*
X131785015Y-119643333D02*
X131975304Y-119634876D01*
X131975304Y-119634876D02*
X132068334Y-119583075D01*
X132068334Y-119583075D02*
X132113791Y-119533389D01*
X132113791Y-119533389D02*
X132157135Y-119436130D01*
X132157135Y-119436130D02*
X132148677Y-119245842D01*
X132148677Y-119245842D02*
X132096877Y-119152812D01*
X132096877Y-119152812D02*
X132047190Y-119107354D01*
X132047190Y-119107354D02*
X131949932Y-119064011D01*
X132589512Y-119512245D02*
X132639199Y-119557703D01*
X132639199Y-119557703D02*
X132593741Y-119607390D01*
X132593741Y-119607390D02*
X132544054Y-119561932D01*
X132544054Y-119561932D02*
X132589512Y-119512245D01*
X132589512Y-119512245D02*
X132593741Y-119607390D01*
X133453209Y-118568204D02*
X133262921Y-118576661D01*
X133262921Y-118576661D02*
X133169891Y-118628462D01*
X133169891Y-118628462D02*
X133124433Y-118678148D01*
X133124433Y-118678148D02*
X133035632Y-118825093D01*
X133035632Y-118825093D02*
X132996517Y-119017496D01*
X132996517Y-119017496D02*
X133013432Y-119398072D01*
X133013432Y-119398072D02*
X133065233Y-119491102D01*
X133065233Y-119491102D02*
X133114919Y-119536560D01*
X133114919Y-119536560D02*
X133212177Y-119579904D01*
X133212177Y-119579904D02*
X133402466Y-119571446D01*
X133402466Y-119571446D02*
X133495496Y-119519646D01*
X133495496Y-119519646D02*
X133540953Y-119469959D01*
X133540953Y-119469959D02*
X133584297Y-119372701D01*
X133584297Y-119372701D02*
X133573725Y-119134840D01*
X133573725Y-119134840D02*
X133521925Y-119041810D01*
X133521925Y-119041810D02*
X133472238Y-118996353D01*
X133472238Y-118996353D02*
X133374980Y-118953009D01*
X133374980Y-118953009D02*
X133184691Y-118961466D01*
X133184691Y-118961466D02*
X133091662Y-119013267D01*
X133091662Y-119013267D02*
X133046204Y-119062954D01*
X133046204Y-119062954D02*
X133002860Y-119160212D01*
X134419451Y-118858922D02*
X134449052Y-119524931D01*
X134164676Y-118488917D02*
X133958531Y-119213070D01*
X133958531Y-119213070D02*
X134576968Y-119185584D01*
X134832800Y-118506889D02*
X135498809Y-118477288D01*
X135498809Y-118477288D02*
X135115061Y-119495331D01*
X135784242Y-118464602D02*
X136450251Y-118435002D01*
X136450251Y-118435002D02*
X136066503Y-119453045D01*
X137636382Y-119383272D02*
X137606781Y-118717263D01*
X137611010Y-118812407D02*
X137656468Y-118762721D01*
X137656468Y-118762721D02*
X137749498Y-118710920D01*
X137749498Y-118710920D02*
X137892214Y-118704577D01*
X137892214Y-118704577D02*
X137989472Y-118747921D01*
X137989472Y-118747921D02*
X138041273Y-118840950D01*
X138041273Y-118840950D02*
X138064531Y-119364243D01*
X138041273Y-118840950D02*
X138084617Y-118743692D01*
X138084617Y-118743692D02*
X138177647Y-118691891D01*
X138177647Y-118691891D02*
X138320363Y-118685548D01*
X138320363Y-118685548D02*
X138417621Y-118728892D01*
X138417621Y-118728892D02*
X138469422Y-118821922D01*
X138469422Y-118821922D02*
X138492679Y-119345215D01*
X138968400Y-119324071D02*
X138938800Y-118658062D01*
X138943028Y-118753206D02*
X138988486Y-118703520D01*
X138988486Y-118703520D02*
X139081516Y-118651719D01*
X139081516Y-118651719D02*
X139224232Y-118645376D01*
X139224232Y-118645376D02*
X139321491Y-118688720D01*
X139321491Y-118688720D02*
X139373291Y-118781750D01*
X139373291Y-118781750D02*
X139396549Y-119305043D01*
X139373291Y-118781750D02*
X139416635Y-118684491D01*
X139416635Y-118684491D02*
X139509665Y-118632690D01*
X139509665Y-118632690D02*
X139652381Y-118626347D01*
X139652381Y-118626347D02*
X139749639Y-118669691D01*
X139749639Y-118669691D02*
X139801440Y-118762721D01*
X139801440Y-118762721D02*
X139824698Y-119286014D01*
D11*
X100022200Y-99737507D02*
X101024681Y-122293326D01*
X168602200Y-96689507D02*
X169604681Y-119245326D01*
X100998644Y-121707484D02*
X169578644Y-118659484D01*
X100998644Y-121707484D02*
X169578644Y-118659484D01*
X100998644Y-121707484D02*
X102097999Y-121071624D01*
X100998644Y-121707484D02*
X102150074Y-122243309D01*
X169578644Y-118659484D02*
X168479289Y-119295344D01*
X169578644Y-118659484D02*
X168427214Y-118123659D01*
D10*
X84204820Y-77425237D02*
X84204820Y-77901427D01*
X84204820Y-77901427D02*
X84681010Y-77949046D01*
X84681010Y-77949046D02*
X84633391Y-77901427D01*
X84633391Y-77901427D02*
X84585772Y-77806189D01*
X84585772Y-77806189D02*
X84585772Y-77568094D01*
X84585772Y-77568094D02*
X84633391Y-77472856D01*
X84633391Y-77472856D02*
X84681010Y-77425237D01*
X84681010Y-77425237D02*
X84776248Y-77377618D01*
X84776248Y-77377618D02*
X85014343Y-77377618D01*
X85014343Y-77377618D02*
X85109581Y-77425237D01*
X85109581Y-77425237D02*
X85157201Y-77472856D01*
X85157201Y-77472856D02*
X85204820Y-77568094D01*
X85204820Y-77568094D02*
X85204820Y-77806189D01*
X85204820Y-77806189D02*
X85157201Y-77901427D01*
X85157201Y-77901427D02*
X85109581Y-77949046D01*
X84204820Y-77044284D02*
X84204820Y-76425237D01*
X84204820Y-76425237D02*
X84585772Y-76758570D01*
X84585772Y-76758570D02*
X84585772Y-76615713D01*
X84585772Y-76615713D02*
X84633391Y-76520475D01*
X84633391Y-76520475D02*
X84681010Y-76472856D01*
X84681010Y-76472856D02*
X84776248Y-76425237D01*
X84776248Y-76425237D02*
X85014343Y-76425237D01*
X85014343Y-76425237D02*
X85109581Y-76472856D01*
X85109581Y-76472856D02*
X85157201Y-76520475D01*
X85157201Y-76520475D02*
X85204820Y-76615713D01*
X85204820Y-76615713D02*
X85204820Y-76901427D01*
X85204820Y-76901427D02*
X85157201Y-76996665D01*
X85157201Y-76996665D02*
X85109581Y-77044284D01*
X85109581Y-75996665D02*
X85157201Y-75949046D01*
X85157201Y-75949046D02*
X85204820Y-75996665D01*
X85204820Y-75996665D02*
X85157201Y-76044284D01*
X85157201Y-76044284D02*
X85109581Y-75996665D01*
X85109581Y-75996665D02*
X85204820Y-75996665D01*
X84204820Y-75615713D02*
X84204820Y-74996666D01*
X84204820Y-74996666D02*
X84585772Y-75329999D01*
X84585772Y-75329999D02*
X84585772Y-75187142D01*
X84585772Y-75187142D02*
X84633391Y-75091904D01*
X84633391Y-75091904D02*
X84681010Y-75044285D01*
X84681010Y-75044285D02*
X84776248Y-74996666D01*
X84776248Y-74996666D02*
X85014343Y-74996666D01*
X85014343Y-74996666D02*
X85109581Y-75044285D01*
X85109581Y-75044285D02*
X85157201Y-75091904D01*
X85157201Y-75091904D02*
X85204820Y-75187142D01*
X85204820Y-75187142D02*
X85204820Y-75472856D01*
X85204820Y-75472856D02*
X85157201Y-75568094D01*
X85157201Y-75568094D02*
X85109581Y-75615713D01*
X84538153Y-74139523D02*
X85204820Y-74139523D01*
X84157201Y-74377618D02*
X84871486Y-74615713D01*
X84871486Y-74615713D02*
X84871486Y-73996666D01*
X84204820Y-73425237D02*
X84204820Y-73329999D01*
X84204820Y-73329999D02*
X84252439Y-73234761D01*
X84252439Y-73234761D02*
X84300058Y-73187142D01*
X84300058Y-73187142D02*
X84395296Y-73139523D01*
X84395296Y-73139523D02*
X84585772Y-73091904D01*
X84585772Y-73091904D02*
X84823867Y-73091904D01*
X84823867Y-73091904D02*
X85014343Y-73139523D01*
X85014343Y-73139523D02*
X85109581Y-73187142D01*
X85109581Y-73187142D02*
X85157201Y-73234761D01*
X85157201Y-73234761D02*
X85204820Y-73329999D01*
X85204820Y-73329999D02*
X85204820Y-73425237D01*
X85204820Y-73425237D02*
X85157201Y-73520475D01*
X85157201Y-73520475D02*
X85109581Y-73568094D01*
X85109581Y-73568094D02*
X85014343Y-73615713D01*
X85014343Y-73615713D02*
X84823867Y-73663332D01*
X84823867Y-73663332D02*
X84585772Y-73663332D01*
X84585772Y-73663332D02*
X84395296Y-73615713D01*
X84395296Y-73615713D02*
X84300058Y-73568094D01*
X84300058Y-73568094D02*
X84252439Y-73520475D01*
X84252439Y-73520475D02*
X84204820Y-73425237D01*
X84204820Y-72472856D02*
X84204820Y-72377618D01*
X84204820Y-72377618D02*
X84252439Y-72282380D01*
X84252439Y-72282380D02*
X84300058Y-72234761D01*
X84300058Y-72234761D02*
X84395296Y-72187142D01*
X84395296Y-72187142D02*
X84585772Y-72139523D01*
X84585772Y-72139523D02*
X84823867Y-72139523D01*
X84823867Y-72139523D02*
X85014343Y-72187142D01*
X85014343Y-72187142D02*
X85109581Y-72234761D01*
X85109581Y-72234761D02*
X85157201Y-72282380D01*
X85157201Y-72282380D02*
X85204820Y-72377618D01*
X85204820Y-72377618D02*
X85204820Y-72472856D01*
X85204820Y-72472856D02*
X85157201Y-72568094D01*
X85157201Y-72568094D02*
X85109581Y-72615713D01*
X85109581Y-72615713D02*
X85014343Y-72663332D01*
X85014343Y-72663332D02*
X84823867Y-72710951D01*
X84823867Y-72710951D02*
X84585772Y-72710951D01*
X84585772Y-72710951D02*
X84395296Y-72663332D01*
X84395296Y-72663332D02*
X84300058Y-72615713D01*
X84300058Y-72615713D02*
X84252439Y-72568094D01*
X84252439Y-72568094D02*
X84204820Y-72472856D01*
X85204820Y-70949046D02*
X84538153Y-70949046D01*
X84633391Y-70949046D02*
X84585772Y-70901427D01*
X84585772Y-70901427D02*
X84538153Y-70806189D01*
X84538153Y-70806189D02*
X84538153Y-70663332D01*
X84538153Y-70663332D02*
X84585772Y-70568094D01*
X84585772Y-70568094D02*
X84681010Y-70520475D01*
X84681010Y-70520475D02*
X85204820Y-70520475D01*
X84681010Y-70520475D02*
X84585772Y-70472856D01*
X84585772Y-70472856D02*
X84538153Y-70377618D01*
X84538153Y-70377618D02*
X84538153Y-70234761D01*
X84538153Y-70234761D02*
X84585772Y-70139522D01*
X84585772Y-70139522D02*
X84681010Y-70091903D01*
X84681010Y-70091903D02*
X85204820Y-70091903D01*
X85204820Y-69615713D02*
X84538153Y-69615713D01*
X84633391Y-69615713D02*
X84585772Y-69568094D01*
X84585772Y-69568094D02*
X84538153Y-69472856D01*
X84538153Y-69472856D02*
X84538153Y-69329999D01*
X84538153Y-69329999D02*
X84585772Y-69234761D01*
X84585772Y-69234761D02*
X84681010Y-69187142D01*
X84681010Y-69187142D02*
X85204820Y-69187142D01*
X84681010Y-69187142D02*
X84585772Y-69139523D01*
X84585772Y-69139523D02*
X84538153Y-69044285D01*
X84538153Y-69044285D02*
X84538153Y-68901428D01*
X84538153Y-68901428D02*
X84585772Y-68806189D01*
X84585772Y-68806189D02*
X84681010Y-68758570D01*
X84681010Y-68758570D02*
X85204820Y-68758570D01*
D11*
X100262000Y-46660000D02*
X85313581Y-46660000D01*
X100262000Y-100000000D02*
X85313581Y-100000000D01*
X85900001Y-46660000D02*
X85900001Y-100000000D01*
X85900001Y-46660000D02*
X85900001Y-100000000D01*
X85900001Y-46660000D02*
X86486422Y-47786504D01*
X85900001Y-46660000D02*
X85313580Y-47786504D01*
X85900001Y-100000000D02*
X85313580Y-98873496D01*
X85900001Y-100000000D02*
X86486422Y-98873496D01*
X166040000Y-59360000D02*
X168580000Y-61900000D01*
X100000000Y-99238000D02*
X100000000Y-47422000D01*
X168580000Y-61900000D02*
X168580000Y-96190000D01*
X165278000Y-100000000D02*
X100762000Y-100000000D01*
X100762000Y-46660000D02*
X163500000Y-46660000D01*
X100762000Y-100000000D02*
G75*
G02*
X100000000Y-99238000I0J762000D01*
G01*
X168580000Y-96190000D02*
X166040000Y-98730000D01*
X163500000Y-46660000D02*
X166040000Y-49200000D01*
X166040000Y-99238000D02*
G75*
G02*
X165278000Y-100000000I-762000J0D01*
G01*
X166040000Y-49200000D02*
X166040000Y-59360000D01*
X166040000Y-98730000D02*
X166040000Y-99238000D01*
X100000000Y-47422000D02*
G75*
G02*
X100762000Y-46660000I762000J0D01*
G01*
M02*
