%TF.GenerationSoftware,KiCad,Pcbnew,8.0.8*%
%TF.CreationDate,2025-02-03T17:12:05-07:00*%
%TF.ProjectId,Thermo_Probe,54686572-6d6f-45f5-9072-6f62652e6b69,rev?*%
%TF.SameCoordinates,Original*%
%TF.FileFunction,Legend,Top*%
%TF.FilePolarity,Positive*%
%FSLAX46Y46*%
G04 Gerber Fmt 4.6, Leading zero omitted, Abs format (unit mm)*
G04 Created by KiCad (PCBNEW 8.0.8) date 2025-02-03 17:12:05*
%MOMM*%
%LPD*%
G01*
G04 APERTURE LIST*
%ADD10C,0.150000*%
%ADD11C,0.120000*%
G04 APERTURE END LIST*
D10*
X137027255Y-76119819D02*
X137217731Y-76119819D01*
X137217731Y-76119819D02*
X137312969Y-76167438D01*
X137312969Y-76167438D02*
X137408207Y-76262676D01*
X137408207Y-76262676D02*
X137455826Y-76453152D01*
X137455826Y-76453152D02*
X137455826Y-76786485D01*
X137455826Y-76786485D02*
X137408207Y-76976961D01*
X137408207Y-76976961D02*
X137312969Y-77072200D01*
X137312969Y-77072200D02*
X137217731Y-77119819D01*
X137217731Y-77119819D02*
X137027255Y-77119819D01*
X137027255Y-77119819D02*
X136932017Y-77072200D01*
X136932017Y-77072200D02*
X136836779Y-76976961D01*
X136836779Y-76976961D02*
X136789160Y-76786485D01*
X136789160Y-76786485D02*
X136789160Y-76453152D01*
X136789160Y-76453152D02*
X136836779Y-76262676D01*
X136836779Y-76262676D02*
X136932017Y-76167438D01*
X136932017Y-76167438D02*
X137027255Y-76119819D01*
X137884398Y-76453152D02*
X137884398Y-77119819D01*
X137884398Y-76548390D02*
X137932017Y-76500771D01*
X137932017Y-76500771D02*
X138027255Y-76453152D01*
X138027255Y-76453152D02*
X138170112Y-76453152D01*
X138170112Y-76453152D02*
X138265350Y-76500771D01*
X138265350Y-76500771D02*
X138312969Y-76596009D01*
X138312969Y-76596009D02*
X138312969Y-77119819D01*
X139503445Y-76072200D02*
X138646303Y-77357914D01*
X140027255Y-76119819D02*
X140217731Y-76119819D01*
X140217731Y-76119819D02*
X140312969Y-76167438D01*
X140312969Y-76167438D02*
X140408207Y-76262676D01*
X140408207Y-76262676D02*
X140455826Y-76453152D01*
X140455826Y-76453152D02*
X140455826Y-76786485D01*
X140455826Y-76786485D02*
X140408207Y-76976961D01*
X140408207Y-76976961D02*
X140312969Y-77072200D01*
X140312969Y-77072200D02*
X140217731Y-77119819D01*
X140217731Y-77119819D02*
X140027255Y-77119819D01*
X140027255Y-77119819D02*
X139932017Y-77072200D01*
X139932017Y-77072200D02*
X139836779Y-76976961D01*
X139836779Y-76976961D02*
X139789160Y-76786485D01*
X139789160Y-76786485D02*
X139789160Y-76453152D01*
X139789160Y-76453152D02*
X139836779Y-76262676D01*
X139836779Y-76262676D02*
X139932017Y-76167438D01*
X139932017Y-76167438D02*
X140027255Y-76119819D01*
X140741541Y-76453152D02*
X141122493Y-76453152D01*
X140884398Y-77119819D02*
X140884398Y-76262676D01*
X140884398Y-76262676D02*
X140932017Y-76167438D01*
X140932017Y-76167438D02*
X141027255Y-76119819D01*
X141027255Y-76119819D02*
X141122493Y-76119819D01*
X141312970Y-76453152D02*
X141693922Y-76453152D01*
X141455827Y-77119819D02*
X141455827Y-76262676D01*
X141455827Y-76262676D02*
X141503446Y-76167438D01*
X141503446Y-76167438D02*
X141598684Y-76119819D01*
X141598684Y-76119819D02*
X141693922Y-76119819D01*
X154636779Y-59319819D02*
X154636779Y-60129342D01*
X154636779Y-60129342D02*
X154684398Y-60224580D01*
X154684398Y-60224580D02*
X154732017Y-60272200D01*
X154732017Y-60272200D02*
X154827255Y-60319819D01*
X154827255Y-60319819D02*
X155017731Y-60319819D01*
X155017731Y-60319819D02*
X155112969Y-60272200D01*
X155112969Y-60272200D02*
X155160588Y-60224580D01*
X155160588Y-60224580D02*
X155208207Y-60129342D01*
X155208207Y-60129342D02*
X155208207Y-59319819D01*
X155684398Y-59653152D02*
X155684398Y-60319819D01*
X155684398Y-59748390D02*
X155732017Y-59700771D01*
X155732017Y-59700771D02*
X155827255Y-59653152D01*
X155827255Y-59653152D02*
X155970112Y-59653152D01*
X155970112Y-59653152D02*
X156065350Y-59700771D01*
X156065350Y-59700771D02*
X156112969Y-59796009D01*
X156112969Y-59796009D02*
X156112969Y-60319819D01*
X156589160Y-60319819D02*
X156589160Y-59653152D01*
X156589160Y-59319819D02*
X156541541Y-59367438D01*
X156541541Y-59367438D02*
X156589160Y-59415057D01*
X156589160Y-59415057D02*
X156636779Y-59367438D01*
X156636779Y-59367438D02*
X156589160Y-59319819D01*
X156589160Y-59319819D02*
X156589160Y-59415057D01*
X156922493Y-59653152D02*
X157303445Y-59653152D01*
X157065350Y-59319819D02*
X157065350Y-60176961D01*
X157065350Y-60176961D02*
X157112969Y-60272200D01*
X157112969Y-60272200D02*
X157208207Y-60319819D01*
X157208207Y-60319819D02*
X157303445Y-60319819D01*
X152658207Y-71124580D02*
X152610588Y-71172200D01*
X152610588Y-71172200D02*
X152467731Y-71219819D01*
X152467731Y-71219819D02*
X152372493Y-71219819D01*
X152372493Y-71219819D02*
X152229636Y-71172200D01*
X152229636Y-71172200D02*
X152134398Y-71076961D01*
X152134398Y-71076961D02*
X152086779Y-70981723D01*
X152086779Y-70981723D02*
X152039160Y-70791247D01*
X152039160Y-70791247D02*
X152039160Y-70648390D01*
X152039160Y-70648390D02*
X152086779Y-70457914D01*
X152086779Y-70457914D02*
X152134398Y-70362676D01*
X152134398Y-70362676D02*
X152229636Y-70267438D01*
X152229636Y-70267438D02*
X152372493Y-70219819D01*
X152372493Y-70219819D02*
X152467731Y-70219819D01*
X152467731Y-70219819D02*
X152610588Y-70267438D01*
X152610588Y-70267438D02*
X152658207Y-70315057D01*
X153515350Y-71219819D02*
X153515350Y-70696009D01*
X153515350Y-70696009D02*
X153467731Y-70600771D01*
X153467731Y-70600771D02*
X153372493Y-70553152D01*
X153372493Y-70553152D02*
X153182017Y-70553152D01*
X153182017Y-70553152D02*
X153086779Y-70600771D01*
X153515350Y-71172200D02*
X153420112Y-71219819D01*
X153420112Y-71219819D02*
X153182017Y-71219819D01*
X153182017Y-71219819D02*
X153086779Y-71172200D01*
X153086779Y-71172200D02*
X153039160Y-71076961D01*
X153039160Y-71076961D02*
X153039160Y-70981723D01*
X153039160Y-70981723D02*
X153086779Y-70886485D01*
X153086779Y-70886485D02*
X153182017Y-70838866D01*
X153182017Y-70838866D02*
X153420112Y-70838866D01*
X153420112Y-70838866D02*
X153515350Y-70791247D01*
X154134398Y-71219819D02*
X154039160Y-71172200D01*
X154039160Y-71172200D02*
X153991541Y-71076961D01*
X153991541Y-71076961D02*
X153991541Y-70219819D01*
X154515351Y-71219819D02*
X154515351Y-70553152D01*
X154515351Y-70219819D02*
X154467732Y-70267438D01*
X154467732Y-70267438D02*
X154515351Y-70315057D01*
X154515351Y-70315057D02*
X154562970Y-70267438D01*
X154562970Y-70267438D02*
X154515351Y-70219819D01*
X154515351Y-70219819D02*
X154515351Y-70315057D01*
X154991541Y-71219819D02*
X154991541Y-70219819D01*
X154991541Y-70600771D02*
X155086779Y-70553152D01*
X155086779Y-70553152D02*
X155277255Y-70553152D01*
X155277255Y-70553152D02*
X155372493Y-70600771D01*
X155372493Y-70600771D02*
X155420112Y-70648390D01*
X155420112Y-70648390D02*
X155467731Y-70743628D01*
X155467731Y-70743628D02*
X155467731Y-71029342D01*
X155467731Y-71029342D02*
X155420112Y-71124580D01*
X155420112Y-71124580D02*
X155372493Y-71172200D01*
X155372493Y-71172200D02*
X155277255Y-71219819D01*
X155277255Y-71219819D02*
X155086779Y-71219819D01*
X155086779Y-71219819D02*
X154991541Y-71172200D01*
X155896303Y-71219819D02*
X155896303Y-70553152D01*
X155896303Y-70743628D02*
X155943922Y-70648390D01*
X155943922Y-70648390D02*
X155991541Y-70600771D01*
X155991541Y-70600771D02*
X156086779Y-70553152D01*
X156086779Y-70553152D02*
X156182017Y-70553152D01*
X156943922Y-71219819D02*
X156943922Y-70696009D01*
X156943922Y-70696009D02*
X156896303Y-70600771D01*
X156896303Y-70600771D02*
X156801065Y-70553152D01*
X156801065Y-70553152D02*
X156610589Y-70553152D01*
X156610589Y-70553152D02*
X156515351Y-70600771D01*
X156943922Y-71172200D02*
X156848684Y-71219819D01*
X156848684Y-71219819D02*
X156610589Y-71219819D01*
X156610589Y-71219819D02*
X156515351Y-71172200D01*
X156515351Y-71172200D02*
X156467732Y-71076961D01*
X156467732Y-71076961D02*
X156467732Y-70981723D01*
X156467732Y-70981723D02*
X156515351Y-70886485D01*
X156515351Y-70886485D02*
X156610589Y-70838866D01*
X156610589Y-70838866D02*
X156848684Y-70838866D01*
X156848684Y-70838866D02*
X156943922Y-70791247D01*
X157277256Y-70553152D02*
X157658208Y-70553152D01*
X157420113Y-70219819D02*
X157420113Y-71076961D01*
X157420113Y-71076961D02*
X157467732Y-71172200D01*
X157467732Y-71172200D02*
X157562970Y-71219819D01*
X157562970Y-71219819D02*
X157658208Y-71219819D01*
X157991542Y-71219819D02*
X157991542Y-70553152D01*
X157991542Y-70219819D02*
X157943923Y-70267438D01*
X157943923Y-70267438D02*
X157991542Y-70315057D01*
X157991542Y-70315057D02*
X158039161Y-70267438D01*
X158039161Y-70267438D02*
X157991542Y-70219819D01*
X157991542Y-70219819D02*
X157991542Y-70315057D01*
X158610589Y-71219819D02*
X158515351Y-71172200D01*
X158515351Y-71172200D02*
X158467732Y-71124580D01*
X158467732Y-71124580D02*
X158420113Y-71029342D01*
X158420113Y-71029342D02*
X158420113Y-70743628D01*
X158420113Y-70743628D02*
X158467732Y-70648390D01*
X158467732Y-70648390D02*
X158515351Y-70600771D01*
X158515351Y-70600771D02*
X158610589Y-70553152D01*
X158610589Y-70553152D02*
X158753446Y-70553152D01*
X158753446Y-70553152D02*
X158848684Y-70600771D01*
X158848684Y-70600771D02*
X158896303Y-70648390D01*
X158896303Y-70648390D02*
X158943922Y-70743628D01*
X158943922Y-70743628D02*
X158943922Y-71029342D01*
X158943922Y-71029342D02*
X158896303Y-71124580D01*
X158896303Y-71124580D02*
X158848684Y-71172200D01*
X158848684Y-71172200D02*
X158753446Y-71219819D01*
X158753446Y-71219819D02*
X158610589Y-71219819D01*
X159372494Y-70553152D02*
X159372494Y-71219819D01*
X159372494Y-70648390D02*
X159420113Y-70600771D01*
X159420113Y-70600771D02*
X159515351Y-70553152D01*
X159515351Y-70553152D02*
X159658208Y-70553152D01*
X159658208Y-70553152D02*
X159753446Y-70600771D01*
X159753446Y-70600771D02*
X159801065Y-70696009D01*
X159801065Y-70696009D02*
X159801065Y-71219819D01*
X152220112Y-81146009D02*
X152362969Y-81193628D01*
X152362969Y-81193628D02*
X152410588Y-81241247D01*
X152410588Y-81241247D02*
X152458207Y-81336485D01*
X152458207Y-81336485D02*
X152458207Y-81479342D01*
X152458207Y-81479342D02*
X152410588Y-81574580D01*
X152410588Y-81574580D02*
X152362969Y-81622200D01*
X152362969Y-81622200D02*
X152267731Y-81669819D01*
X152267731Y-81669819D02*
X151886779Y-81669819D01*
X151886779Y-81669819D02*
X151886779Y-80669819D01*
X151886779Y-80669819D02*
X152220112Y-80669819D01*
X152220112Y-80669819D02*
X152315350Y-80717438D01*
X152315350Y-80717438D02*
X152362969Y-80765057D01*
X152362969Y-80765057D02*
X152410588Y-80860295D01*
X152410588Y-80860295D02*
X152410588Y-80955533D01*
X152410588Y-80955533D02*
X152362969Y-81050771D01*
X152362969Y-81050771D02*
X152315350Y-81098390D01*
X152315350Y-81098390D02*
X152220112Y-81146009D01*
X152220112Y-81146009D02*
X151886779Y-81146009D01*
X153029636Y-81669819D02*
X152934398Y-81622200D01*
X152934398Y-81622200D02*
X152886779Y-81574580D01*
X152886779Y-81574580D02*
X152839160Y-81479342D01*
X152839160Y-81479342D02*
X152839160Y-81193628D01*
X152839160Y-81193628D02*
X152886779Y-81098390D01*
X152886779Y-81098390D02*
X152934398Y-81050771D01*
X152934398Y-81050771D02*
X153029636Y-81003152D01*
X153029636Y-81003152D02*
X153172493Y-81003152D01*
X153172493Y-81003152D02*
X153267731Y-81050771D01*
X153267731Y-81050771D02*
X153315350Y-81098390D01*
X153315350Y-81098390D02*
X153362969Y-81193628D01*
X153362969Y-81193628D02*
X153362969Y-81479342D01*
X153362969Y-81479342D02*
X153315350Y-81574580D01*
X153315350Y-81574580D02*
X153267731Y-81622200D01*
X153267731Y-81622200D02*
X153172493Y-81669819D01*
X153172493Y-81669819D02*
X153029636Y-81669819D01*
X153648684Y-81003152D02*
X154029636Y-81003152D01*
X153791541Y-80669819D02*
X153791541Y-81526961D01*
X153791541Y-81526961D02*
X153839160Y-81622200D01*
X153839160Y-81622200D02*
X153934398Y-81669819D01*
X153934398Y-81669819D02*
X154029636Y-81669819D01*
X154220113Y-81003152D02*
X154601065Y-81003152D01*
X154362970Y-80669819D02*
X154362970Y-81526961D01*
X154362970Y-81526961D02*
X154410589Y-81622200D01*
X154410589Y-81622200D02*
X154505827Y-81669819D01*
X154505827Y-81669819D02*
X154601065Y-81669819D01*
X155077256Y-81669819D02*
X154982018Y-81622200D01*
X154982018Y-81622200D02*
X154934399Y-81574580D01*
X154934399Y-81574580D02*
X154886780Y-81479342D01*
X154886780Y-81479342D02*
X154886780Y-81193628D01*
X154886780Y-81193628D02*
X154934399Y-81098390D01*
X154934399Y-81098390D02*
X154982018Y-81050771D01*
X154982018Y-81050771D02*
X155077256Y-81003152D01*
X155077256Y-81003152D02*
X155220113Y-81003152D01*
X155220113Y-81003152D02*
X155315351Y-81050771D01*
X155315351Y-81050771D02*
X155362970Y-81098390D01*
X155362970Y-81098390D02*
X155410589Y-81193628D01*
X155410589Y-81193628D02*
X155410589Y-81479342D01*
X155410589Y-81479342D02*
X155362970Y-81574580D01*
X155362970Y-81574580D02*
X155315351Y-81622200D01*
X155315351Y-81622200D02*
X155220113Y-81669819D01*
X155220113Y-81669819D02*
X155077256Y-81669819D01*
X155839161Y-81003152D02*
X155839161Y-81669819D01*
X155839161Y-81098390D02*
X155886780Y-81050771D01*
X155886780Y-81050771D02*
X155982018Y-81003152D01*
X155982018Y-81003152D02*
X156124875Y-81003152D01*
X156124875Y-81003152D02*
X156220113Y-81050771D01*
X156220113Y-81050771D02*
X156267732Y-81146009D01*
X156267732Y-81146009D02*
X156267732Y-81669819D01*
X157982018Y-81669819D02*
X157505828Y-81669819D01*
X157505828Y-81669819D02*
X157505828Y-80669819D01*
X158458209Y-81669819D02*
X158362971Y-81622200D01*
X158362971Y-81622200D02*
X158315352Y-81574580D01*
X158315352Y-81574580D02*
X158267733Y-81479342D01*
X158267733Y-81479342D02*
X158267733Y-81193628D01*
X158267733Y-81193628D02*
X158315352Y-81098390D01*
X158315352Y-81098390D02*
X158362971Y-81050771D01*
X158362971Y-81050771D02*
X158458209Y-81003152D01*
X158458209Y-81003152D02*
X158601066Y-81003152D01*
X158601066Y-81003152D02*
X158696304Y-81050771D01*
X158696304Y-81050771D02*
X158743923Y-81098390D01*
X158743923Y-81098390D02*
X158791542Y-81193628D01*
X158791542Y-81193628D02*
X158791542Y-81479342D01*
X158791542Y-81479342D02*
X158743923Y-81574580D01*
X158743923Y-81574580D02*
X158696304Y-81622200D01*
X158696304Y-81622200D02*
X158601066Y-81669819D01*
X158601066Y-81669819D02*
X158458209Y-81669819D01*
X159648685Y-81622200D02*
X159553447Y-81669819D01*
X159553447Y-81669819D02*
X159362971Y-81669819D01*
X159362971Y-81669819D02*
X159267733Y-81622200D01*
X159267733Y-81622200D02*
X159220114Y-81574580D01*
X159220114Y-81574580D02*
X159172495Y-81479342D01*
X159172495Y-81479342D02*
X159172495Y-81193628D01*
X159172495Y-81193628D02*
X159220114Y-81098390D01*
X159220114Y-81098390D02*
X159267733Y-81050771D01*
X159267733Y-81050771D02*
X159362971Y-81003152D01*
X159362971Y-81003152D02*
X159553447Y-81003152D01*
X159553447Y-81003152D02*
X159648685Y-81050771D01*
X160077257Y-81669819D02*
X160077257Y-80669819D01*
X160172495Y-81288866D02*
X160458209Y-81669819D01*
X160458209Y-81003152D02*
X160077257Y-81384104D01*
X150489160Y-94584104D02*
X150965350Y-94584104D01*
X150393922Y-94869819D02*
X150727255Y-93869819D01*
X150727255Y-93869819D02*
X151060588Y-94869819D01*
X151393922Y-94203152D02*
X151393922Y-94869819D01*
X151393922Y-94298390D02*
X151441541Y-94250771D01*
X151441541Y-94250771D02*
X151536779Y-94203152D01*
X151536779Y-94203152D02*
X151679636Y-94203152D01*
X151679636Y-94203152D02*
X151774874Y-94250771D01*
X151774874Y-94250771D02*
X151822493Y-94346009D01*
X151822493Y-94346009D02*
X151822493Y-94869819D01*
X152727255Y-94869819D02*
X152727255Y-94346009D01*
X152727255Y-94346009D02*
X152679636Y-94250771D01*
X152679636Y-94250771D02*
X152584398Y-94203152D01*
X152584398Y-94203152D02*
X152393922Y-94203152D01*
X152393922Y-94203152D02*
X152298684Y-94250771D01*
X152727255Y-94822200D02*
X152632017Y-94869819D01*
X152632017Y-94869819D02*
X152393922Y-94869819D01*
X152393922Y-94869819D02*
X152298684Y-94822200D01*
X152298684Y-94822200D02*
X152251065Y-94726961D01*
X152251065Y-94726961D02*
X152251065Y-94631723D01*
X152251065Y-94631723D02*
X152298684Y-94536485D01*
X152298684Y-94536485D02*
X152393922Y-94488866D01*
X152393922Y-94488866D02*
X152632017Y-94488866D01*
X152632017Y-94488866D02*
X152727255Y-94441247D01*
X153346303Y-94869819D02*
X153251065Y-94822200D01*
X153251065Y-94822200D02*
X153203446Y-94726961D01*
X153203446Y-94726961D02*
X153203446Y-93869819D01*
X153870113Y-94869819D02*
X153774875Y-94822200D01*
X153774875Y-94822200D02*
X153727256Y-94774580D01*
X153727256Y-94774580D02*
X153679637Y-94679342D01*
X153679637Y-94679342D02*
X153679637Y-94393628D01*
X153679637Y-94393628D02*
X153727256Y-94298390D01*
X153727256Y-94298390D02*
X153774875Y-94250771D01*
X153774875Y-94250771D02*
X153870113Y-94203152D01*
X153870113Y-94203152D02*
X154012970Y-94203152D01*
X154012970Y-94203152D02*
X154108208Y-94250771D01*
X154108208Y-94250771D02*
X154155827Y-94298390D01*
X154155827Y-94298390D02*
X154203446Y-94393628D01*
X154203446Y-94393628D02*
X154203446Y-94679342D01*
X154203446Y-94679342D02*
X154155827Y-94774580D01*
X154155827Y-94774580D02*
X154108208Y-94822200D01*
X154108208Y-94822200D02*
X154012970Y-94869819D01*
X154012970Y-94869819D02*
X153870113Y-94869819D01*
X155060589Y-94203152D02*
X155060589Y-95012676D01*
X155060589Y-95012676D02*
X155012970Y-95107914D01*
X155012970Y-95107914D02*
X154965351Y-95155533D01*
X154965351Y-95155533D02*
X154870113Y-95203152D01*
X154870113Y-95203152D02*
X154727256Y-95203152D01*
X154727256Y-95203152D02*
X154632018Y-95155533D01*
X155060589Y-94822200D02*
X154965351Y-94869819D01*
X154965351Y-94869819D02*
X154774875Y-94869819D01*
X154774875Y-94869819D02*
X154679637Y-94822200D01*
X154679637Y-94822200D02*
X154632018Y-94774580D01*
X154632018Y-94774580D02*
X154584399Y-94679342D01*
X154584399Y-94679342D02*
X154584399Y-94393628D01*
X154584399Y-94393628D02*
X154632018Y-94298390D01*
X154632018Y-94298390D02*
X154679637Y-94250771D01*
X154679637Y-94250771D02*
X154774875Y-94203152D01*
X154774875Y-94203152D02*
X154965351Y-94203152D01*
X154965351Y-94203152D02*
X155060589Y-94250771D01*
X156251066Y-94822200D02*
X156393923Y-94869819D01*
X156393923Y-94869819D02*
X156632018Y-94869819D01*
X156632018Y-94869819D02*
X156727256Y-94822200D01*
X156727256Y-94822200D02*
X156774875Y-94774580D01*
X156774875Y-94774580D02*
X156822494Y-94679342D01*
X156822494Y-94679342D02*
X156822494Y-94584104D01*
X156822494Y-94584104D02*
X156774875Y-94488866D01*
X156774875Y-94488866D02*
X156727256Y-94441247D01*
X156727256Y-94441247D02*
X156632018Y-94393628D01*
X156632018Y-94393628D02*
X156441542Y-94346009D01*
X156441542Y-94346009D02*
X156346304Y-94298390D01*
X156346304Y-94298390D02*
X156298685Y-94250771D01*
X156298685Y-94250771D02*
X156251066Y-94155533D01*
X156251066Y-94155533D02*
X156251066Y-94060295D01*
X156251066Y-94060295D02*
X156298685Y-93965057D01*
X156298685Y-93965057D02*
X156346304Y-93917438D01*
X156346304Y-93917438D02*
X156441542Y-93869819D01*
X156441542Y-93869819D02*
X156679637Y-93869819D01*
X156679637Y-93869819D02*
X156822494Y-93917438D01*
X157632018Y-94822200D02*
X157536780Y-94869819D01*
X157536780Y-94869819D02*
X157346304Y-94869819D01*
X157346304Y-94869819D02*
X157251066Y-94822200D01*
X157251066Y-94822200D02*
X157203447Y-94726961D01*
X157203447Y-94726961D02*
X157203447Y-94346009D01*
X157203447Y-94346009D02*
X157251066Y-94250771D01*
X157251066Y-94250771D02*
X157346304Y-94203152D01*
X157346304Y-94203152D02*
X157536780Y-94203152D01*
X157536780Y-94203152D02*
X157632018Y-94250771D01*
X157632018Y-94250771D02*
X157679637Y-94346009D01*
X157679637Y-94346009D02*
X157679637Y-94441247D01*
X157679637Y-94441247D02*
X157203447Y-94536485D01*
X158108209Y-94203152D02*
X158108209Y-94869819D01*
X158108209Y-94298390D02*
X158155828Y-94250771D01*
X158155828Y-94250771D02*
X158251066Y-94203152D01*
X158251066Y-94203152D02*
X158393923Y-94203152D01*
X158393923Y-94203152D02*
X158489161Y-94250771D01*
X158489161Y-94250771D02*
X158536780Y-94346009D01*
X158536780Y-94346009D02*
X158536780Y-94869819D01*
X158965352Y-94822200D02*
X159060590Y-94869819D01*
X159060590Y-94869819D02*
X159251066Y-94869819D01*
X159251066Y-94869819D02*
X159346304Y-94822200D01*
X159346304Y-94822200D02*
X159393923Y-94726961D01*
X159393923Y-94726961D02*
X159393923Y-94679342D01*
X159393923Y-94679342D02*
X159346304Y-94584104D01*
X159346304Y-94584104D02*
X159251066Y-94536485D01*
X159251066Y-94536485D02*
X159108209Y-94536485D01*
X159108209Y-94536485D02*
X159012971Y-94488866D01*
X159012971Y-94488866D02*
X158965352Y-94393628D01*
X158965352Y-94393628D02*
X158965352Y-94346009D01*
X158965352Y-94346009D02*
X159012971Y-94250771D01*
X159012971Y-94250771D02*
X159108209Y-94203152D01*
X159108209Y-94203152D02*
X159251066Y-94203152D01*
X159251066Y-94203152D02*
X159346304Y-94250771D01*
X159965352Y-94869819D02*
X159870114Y-94822200D01*
X159870114Y-94822200D02*
X159822495Y-94774580D01*
X159822495Y-94774580D02*
X159774876Y-94679342D01*
X159774876Y-94679342D02*
X159774876Y-94393628D01*
X159774876Y-94393628D02*
X159822495Y-94298390D01*
X159822495Y-94298390D02*
X159870114Y-94250771D01*
X159870114Y-94250771D02*
X159965352Y-94203152D01*
X159965352Y-94203152D02*
X160108209Y-94203152D01*
X160108209Y-94203152D02*
X160203447Y-94250771D01*
X160203447Y-94250771D02*
X160251066Y-94298390D01*
X160251066Y-94298390D02*
X160298685Y-94393628D01*
X160298685Y-94393628D02*
X160298685Y-94679342D01*
X160298685Y-94679342D02*
X160251066Y-94774580D01*
X160251066Y-94774580D02*
X160203447Y-94822200D01*
X160203447Y-94822200D02*
X160108209Y-94869819D01*
X160108209Y-94869819D02*
X159965352Y-94869819D01*
X160727257Y-94869819D02*
X160727257Y-94203152D01*
X160727257Y-94393628D02*
X160774876Y-94298390D01*
X160774876Y-94298390D02*
X160822495Y-94250771D01*
X160822495Y-94250771D02*
X160917733Y-94203152D01*
X160917733Y-94203152D02*
X161012971Y-94203152D01*
X124593922Y-87949931D02*
X124927255Y-88949931D01*
X124927255Y-88949931D02*
X125260588Y-87949931D01*
X125974874Y-88902312D02*
X125879636Y-88949931D01*
X125879636Y-88949931D02*
X125689160Y-88949931D01*
X125689160Y-88949931D02*
X125593922Y-88902312D01*
X125593922Y-88902312D02*
X125546303Y-88807073D01*
X125546303Y-88807073D02*
X125546303Y-88426121D01*
X125546303Y-88426121D02*
X125593922Y-88330883D01*
X125593922Y-88330883D02*
X125689160Y-88283264D01*
X125689160Y-88283264D02*
X125879636Y-88283264D01*
X125879636Y-88283264D02*
X125974874Y-88330883D01*
X125974874Y-88330883D02*
X126022493Y-88426121D01*
X126022493Y-88426121D02*
X126022493Y-88521359D01*
X126022493Y-88521359D02*
X125546303Y-88616597D01*
X126451065Y-88949931D02*
X126451065Y-88283264D01*
X126451065Y-88473740D02*
X126498684Y-88378502D01*
X126498684Y-88378502D02*
X126546303Y-88330883D01*
X126546303Y-88330883D02*
X126641541Y-88283264D01*
X126641541Y-88283264D02*
X126736779Y-88283264D01*
X127022494Y-88902312D02*
X127117732Y-88949931D01*
X127117732Y-88949931D02*
X127308208Y-88949931D01*
X127308208Y-88949931D02*
X127403446Y-88902312D01*
X127403446Y-88902312D02*
X127451065Y-88807073D01*
X127451065Y-88807073D02*
X127451065Y-88759454D01*
X127451065Y-88759454D02*
X127403446Y-88664216D01*
X127403446Y-88664216D02*
X127308208Y-88616597D01*
X127308208Y-88616597D02*
X127165351Y-88616597D01*
X127165351Y-88616597D02*
X127070113Y-88568978D01*
X127070113Y-88568978D02*
X127022494Y-88473740D01*
X127022494Y-88473740D02*
X127022494Y-88426121D01*
X127022494Y-88426121D02*
X127070113Y-88330883D01*
X127070113Y-88330883D02*
X127165351Y-88283264D01*
X127165351Y-88283264D02*
X127308208Y-88283264D01*
X127308208Y-88283264D02*
X127403446Y-88330883D01*
X127879637Y-88949931D02*
X127879637Y-88283264D01*
X127879637Y-87949931D02*
X127832018Y-87997550D01*
X127832018Y-87997550D02*
X127879637Y-88045169D01*
X127879637Y-88045169D02*
X127927256Y-87997550D01*
X127927256Y-87997550D02*
X127879637Y-87949931D01*
X127879637Y-87949931D02*
X127879637Y-88045169D01*
X128498684Y-88949931D02*
X128403446Y-88902312D01*
X128403446Y-88902312D02*
X128355827Y-88854692D01*
X128355827Y-88854692D02*
X128308208Y-88759454D01*
X128308208Y-88759454D02*
X128308208Y-88473740D01*
X128308208Y-88473740D02*
X128355827Y-88378502D01*
X128355827Y-88378502D02*
X128403446Y-88330883D01*
X128403446Y-88330883D02*
X128498684Y-88283264D01*
X128498684Y-88283264D02*
X128641541Y-88283264D01*
X128641541Y-88283264D02*
X128736779Y-88330883D01*
X128736779Y-88330883D02*
X128784398Y-88378502D01*
X128784398Y-88378502D02*
X128832017Y-88473740D01*
X128832017Y-88473740D02*
X128832017Y-88759454D01*
X128832017Y-88759454D02*
X128784398Y-88854692D01*
X128784398Y-88854692D02*
X128736779Y-88902312D01*
X128736779Y-88902312D02*
X128641541Y-88949931D01*
X128641541Y-88949931D02*
X128498684Y-88949931D01*
X129260589Y-88283264D02*
X129260589Y-88949931D01*
X129260589Y-88378502D02*
X129308208Y-88330883D01*
X129308208Y-88330883D02*
X129403446Y-88283264D01*
X129403446Y-88283264D02*
X129546303Y-88283264D01*
X129546303Y-88283264D02*
X129641541Y-88330883D01*
X129641541Y-88330883D02*
X129689160Y-88426121D01*
X129689160Y-88426121D02*
X129689160Y-88949931D01*
X130879637Y-88283264D02*
X131593922Y-88283264D01*
X131165351Y-87854692D02*
X130879637Y-89140407D01*
X131498684Y-88711835D02*
X130784399Y-88711835D01*
X131212970Y-89140407D02*
X131498684Y-87854692D01*
X132451065Y-88949931D02*
X131879637Y-88949931D01*
X132165351Y-88949931D02*
X132165351Y-87949931D01*
X132165351Y-87949931D02*
X132070113Y-88092788D01*
X132070113Y-88092788D02*
X131974875Y-88188026D01*
X131974875Y-88188026D02*
X131879637Y-88235645D01*
X124689160Y-90512256D02*
X124832017Y-90559875D01*
X124832017Y-90559875D02*
X125070112Y-90559875D01*
X125070112Y-90559875D02*
X125165350Y-90512256D01*
X125165350Y-90512256D02*
X125212969Y-90464636D01*
X125212969Y-90464636D02*
X125260588Y-90369398D01*
X125260588Y-90369398D02*
X125260588Y-90274160D01*
X125260588Y-90274160D02*
X125212969Y-90178922D01*
X125212969Y-90178922D02*
X125165350Y-90131303D01*
X125165350Y-90131303D02*
X125070112Y-90083684D01*
X125070112Y-90083684D02*
X124879636Y-90036065D01*
X124879636Y-90036065D02*
X124784398Y-89988446D01*
X124784398Y-89988446D02*
X124736779Y-89940827D01*
X124736779Y-89940827D02*
X124689160Y-89845589D01*
X124689160Y-89845589D02*
X124689160Y-89750351D01*
X124689160Y-89750351D02*
X124736779Y-89655113D01*
X124736779Y-89655113D02*
X124784398Y-89607494D01*
X124784398Y-89607494D02*
X124879636Y-89559875D01*
X124879636Y-89559875D02*
X125117731Y-89559875D01*
X125117731Y-89559875D02*
X125260588Y-89607494D01*
X126070112Y-90512256D02*
X125974874Y-90559875D01*
X125974874Y-90559875D02*
X125784398Y-90559875D01*
X125784398Y-90559875D02*
X125689160Y-90512256D01*
X125689160Y-90512256D02*
X125641541Y-90417017D01*
X125641541Y-90417017D02*
X125641541Y-90036065D01*
X125641541Y-90036065D02*
X125689160Y-89940827D01*
X125689160Y-89940827D02*
X125784398Y-89893208D01*
X125784398Y-89893208D02*
X125974874Y-89893208D01*
X125974874Y-89893208D02*
X126070112Y-89940827D01*
X126070112Y-89940827D02*
X126117731Y-90036065D01*
X126117731Y-90036065D02*
X126117731Y-90131303D01*
X126117731Y-90131303D02*
X125641541Y-90226541D01*
X126546303Y-90559875D02*
X126546303Y-89559875D01*
X126546303Y-89940827D02*
X126641541Y-89893208D01*
X126641541Y-89893208D02*
X126832017Y-89893208D01*
X126832017Y-89893208D02*
X126927255Y-89940827D01*
X126927255Y-89940827D02*
X126974874Y-89988446D01*
X126974874Y-89988446D02*
X127022493Y-90083684D01*
X127022493Y-90083684D02*
X127022493Y-90369398D01*
X127022493Y-90369398D02*
X126974874Y-90464636D01*
X126974874Y-90464636D02*
X126927255Y-90512256D01*
X126927255Y-90512256D02*
X126832017Y-90559875D01*
X126832017Y-90559875D02*
X126641541Y-90559875D01*
X126641541Y-90559875D02*
X126546303Y-90512256D01*
X127879636Y-90559875D02*
X127879636Y-90036065D01*
X127879636Y-90036065D02*
X127832017Y-89940827D01*
X127832017Y-89940827D02*
X127736779Y-89893208D01*
X127736779Y-89893208D02*
X127546303Y-89893208D01*
X127546303Y-89893208D02*
X127451065Y-89940827D01*
X127879636Y-90512256D02*
X127784398Y-90559875D01*
X127784398Y-90559875D02*
X127546303Y-90559875D01*
X127546303Y-90559875D02*
X127451065Y-90512256D01*
X127451065Y-90512256D02*
X127403446Y-90417017D01*
X127403446Y-90417017D02*
X127403446Y-90321779D01*
X127403446Y-90321779D02*
X127451065Y-90226541D01*
X127451065Y-90226541D02*
X127546303Y-90178922D01*
X127546303Y-90178922D02*
X127784398Y-90178922D01*
X127784398Y-90178922D02*
X127879636Y-90131303D01*
X128308208Y-90512256D02*
X128403446Y-90559875D01*
X128403446Y-90559875D02*
X128593922Y-90559875D01*
X128593922Y-90559875D02*
X128689160Y-90512256D01*
X128689160Y-90512256D02*
X128736779Y-90417017D01*
X128736779Y-90417017D02*
X128736779Y-90369398D01*
X128736779Y-90369398D02*
X128689160Y-90274160D01*
X128689160Y-90274160D02*
X128593922Y-90226541D01*
X128593922Y-90226541D02*
X128451065Y-90226541D01*
X128451065Y-90226541D02*
X128355827Y-90178922D01*
X128355827Y-90178922D02*
X128308208Y-90083684D01*
X128308208Y-90083684D02*
X128308208Y-90036065D01*
X128308208Y-90036065D02*
X128355827Y-89940827D01*
X128355827Y-89940827D02*
X128451065Y-89893208D01*
X128451065Y-89893208D02*
X128593922Y-89893208D01*
X128593922Y-89893208D02*
X128689160Y-89940827D01*
X129022494Y-89893208D02*
X129403446Y-89893208D01*
X129165351Y-89559875D02*
X129165351Y-90417017D01*
X129165351Y-90417017D02*
X129212970Y-90512256D01*
X129212970Y-90512256D02*
X129308208Y-90559875D01*
X129308208Y-90559875D02*
X129403446Y-90559875D01*
X129736780Y-90559875D02*
X129736780Y-89893208D01*
X129736780Y-89559875D02*
X129689161Y-89607494D01*
X129689161Y-89607494D02*
X129736780Y-89655113D01*
X129736780Y-89655113D02*
X129784399Y-89607494D01*
X129784399Y-89607494D02*
X129736780Y-89559875D01*
X129736780Y-89559875D02*
X129736780Y-89655113D01*
X130641541Y-90559875D02*
X130641541Y-90036065D01*
X130641541Y-90036065D02*
X130593922Y-89940827D01*
X130593922Y-89940827D02*
X130498684Y-89893208D01*
X130498684Y-89893208D02*
X130308208Y-89893208D01*
X130308208Y-89893208D02*
X130212970Y-89940827D01*
X130641541Y-90512256D02*
X130546303Y-90559875D01*
X130546303Y-90559875D02*
X130308208Y-90559875D01*
X130308208Y-90559875D02*
X130212970Y-90512256D01*
X130212970Y-90512256D02*
X130165351Y-90417017D01*
X130165351Y-90417017D02*
X130165351Y-90321779D01*
X130165351Y-90321779D02*
X130212970Y-90226541D01*
X130212970Y-90226541D02*
X130308208Y-90178922D01*
X130308208Y-90178922D02*
X130546303Y-90178922D01*
X130546303Y-90178922D02*
X130641541Y-90131303D01*
X131117732Y-89893208D02*
X131117732Y-90559875D01*
X131117732Y-89988446D02*
X131165351Y-89940827D01*
X131165351Y-89940827D02*
X131260589Y-89893208D01*
X131260589Y-89893208D02*
X131403446Y-89893208D01*
X131403446Y-89893208D02*
X131498684Y-89940827D01*
X131498684Y-89940827D02*
X131546303Y-90036065D01*
X131546303Y-90036065D02*
X131546303Y-90559875D01*
X132784399Y-90559875D02*
X132784399Y-89559875D01*
X132784399Y-89559875D02*
X133165351Y-89559875D01*
X133165351Y-89559875D02*
X133260589Y-89607494D01*
X133260589Y-89607494D02*
X133308208Y-89655113D01*
X133308208Y-89655113D02*
X133355827Y-89750351D01*
X133355827Y-89750351D02*
X133355827Y-89893208D01*
X133355827Y-89893208D02*
X133308208Y-89988446D01*
X133308208Y-89988446D02*
X133260589Y-90036065D01*
X133260589Y-90036065D02*
X133165351Y-90083684D01*
X133165351Y-90083684D02*
X132784399Y-90083684D01*
X133927256Y-90559875D02*
X133832018Y-90512256D01*
X133832018Y-90512256D02*
X133784399Y-90464636D01*
X133784399Y-90464636D02*
X133736780Y-90369398D01*
X133736780Y-90369398D02*
X133736780Y-90083684D01*
X133736780Y-90083684D02*
X133784399Y-89988446D01*
X133784399Y-89988446D02*
X133832018Y-89940827D01*
X133832018Y-89940827D02*
X133927256Y-89893208D01*
X133927256Y-89893208D02*
X134070113Y-89893208D01*
X134070113Y-89893208D02*
X134165351Y-89940827D01*
X134165351Y-89940827D02*
X134212970Y-89988446D01*
X134212970Y-89988446D02*
X134260589Y-90083684D01*
X134260589Y-90083684D02*
X134260589Y-90369398D01*
X134260589Y-90369398D02*
X134212970Y-90464636D01*
X134212970Y-90464636D02*
X134165351Y-90512256D01*
X134165351Y-90512256D02*
X134070113Y-90559875D01*
X134070113Y-90559875D02*
X133927256Y-90559875D01*
X134641542Y-90512256D02*
X134736780Y-90559875D01*
X134736780Y-90559875D02*
X134927256Y-90559875D01*
X134927256Y-90559875D02*
X135022494Y-90512256D01*
X135022494Y-90512256D02*
X135070113Y-90417017D01*
X135070113Y-90417017D02*
X135070113Y-90369398D01*
X135070113Y-90369398D02*
X135022494Y-90274160D01*
X135022494Y-90274160D02*
X134927256Y-90226541D01*
X134927256Y-90226541D02*
X134784399Y-90226541D01*
X134784399Y-90226541D02*
X134689161Y-90178922D01*
X134689161Y-90178922D02*
X134641542Y-90083684D01*
X134641542Y-90083684D02*
X134641542Y-90036065D01*
X134641542Y-90036065D02*
X134689161Y-89940827D01*
X134689161Y-89940827D02*
X134784399Y-89893208D01*
X134784399Y-89893208D02*
X134927256Y-89893208D01*
X134927256Y-89893208D02*
X135022494Y-89940827D01*
X135927256Y-90559875D02*
X135927256Y-90036065D01*
X135927256Y-90036065D02*
X135879637Y-89940827D01*
X135879637Y-89940827D02*
X135784399Y-89893208D01*
X135784399Y-89893208D02*
X135593923Y-89893208D01*
X135593923Y-89893208D02*
X135498685Y-89940827D01*
X135927256Y-90512256D02*
X135832018Y-90559875D01*
X135832018Y-90559875D02*
X135593923Y-90559875D01*
X135593923Y-90559875D02*
X135498685Y-90512256D01*
X135498685Y-90512256D02*
X135451066Y-90417017D01*
X135451066Y-90417017D02*
X135451066Y-90321779D01*
X135451066Y-90321779D02*
X135498685Y-90226541D01*
X135498685Y-90226541D02*
X135593923Y-90178922D01*
X135593923Y-90178922D02*
X135832018Y-90178922D01*
X135832018Y-90178922D02*
X135927256Y-90131303D01*
X136832018Y-90559875D02*
X136832018Y-89559875D01*
X136832018Y-90512256D02*
X136736780Y-90559875D01*
X136736780Y-90559875D02*
X136546304Y-90559875D01*
X136546304Y-90559875D02*
X136451066Y-90512256D01*
X136451066Y-90512256D02*
X136403447Y-90464636D01*
X136403447Y-90464636D02*
X136355828Y-90369398D01*
X136355828Y-90369398D02*
X136355828Y-90083684D01*
X136355828Y-90083684D02*
X136403447Y-89988446D01*
X136403447Y-89988446D02*
X136451066Y-89940827D01*
X136451066Y-89940827D02*
X136546304Y-89893208D01*
X136546304Y-89893208D02*
X136736780Y-89893208D01*
X136736780Y-89893208D02*
X136832018Y-89940827D01*
X137736780Y-90559875D02*
X137736780Y-90036065D01*
X137736780Y-90036065D02*
X137689161Y-89940827D01*
X137689161Y-89940827D02*
X137593923Y-89893208D01*
X137593923Y-89893208D02*
X137403447Y-89893208D01*
X137403447Y-89893208D02*
X137308209Y-89940827D01*
X137736780Y-90512256D02*
X137641542Y-90559875D01*
X137641542Y-90559875D02*
X137403447Y-90559875D01*
X137403447Y-90559875D02*
X137308209Y-90512256D01*
X137308209Y-90512256D02*
X137260590Y-90417017D01*
X137260590Y-90417017D02*
X137260590Y-90321779D01*
X137260590Y-90321779D02*
X137308209Y-90226541D01*
X137308209Y-90226541D02*
X137403447Y-90178922D01*
X137403447Y-90178922D02*
X137641542Y-90178922D01*
X137641542Y-90178922D02*
X137736780Y-90131303D01*
X124689160Y-91265057D02*
X124736779Y-91217438D01*
X124736779Y-91217438D02*
X124832017Y-91169819D01*
X124832017Y-91169819D02*
X125070112Y-91169819D01*
X125070112Y-91169819D02*
X125165350Y-91217438D01*
X125165350Y-91217438D02*
X125212969Y-91265057D01*
X125212969Y-91265057D02*
X125260588Y-91360295D01*
X125260588Y-91360295D02*
X125260588Y-91455533D01*
X125260588Y-91455533D02*
X125212969Y-91598390D01*
X125212969Y-91598390D02*
X124641541Y-92169819D01*
X124641541Y-92169819D02*
X125260588Y-92169819D01*
X125689160Y-91788866D02*
X126451065Y-91788866D01*
X126832017Y-91169819D02*
X127451064Y-91169819D01*
X127451064Y-91169819D02*
X127117731Y-91550771D01*
X127117731Y-91550771D02*
X127260588Y-91550771D01*
X127260588Y-91550771D02*
X127355826Y-91598390D01*
X127355826Y-91598390D02*
X127403445Y-91646009D01*
X127403445Y-91646009D02*
X127451064Y-91741247D01*
X127451064Y-91741247D02*
X127451064Y-91979342D01*
X127451064Y-91979342D02*
X127403445Y-92074580D01*
X127403445Y-92074580D02*
X127355826Y-92122200D01*
X127355826Y-92122200D02*
X127260588Y-92169819D01*
X127260588Y-92169819D02*
X126974874Y-92169819D01*
X126974874Y-92169819D02*
X126879636Y-92122200D01*
X126879636Y-92122200D02*
X126832017Y-92074580D01*
X127879636Y-91788866D02*
X128641541Y-91788866D01*
X129070112Y-91265057D02*
X129117731Y-91217438D01*
X129117731Y-91217438D02*
X129212969Y-91169819D01*
X129212969Y-91169819D02*
X129451064Y-91169819D01*
X129451064Y-91169819D02*
X129546302Y-91217438D01*
X129546302Y-91217438D02*
X129593921Y-91265057D01*
X129593921Y-91265057D02*
X129641540Y-91360295D01*
X129641540Y-91360295D02*
X129641540Y-91455533D01*
X129641540Y-91455533D02*
X129593921Y-91598390D01*
X129593921Y-91598390D02*
X129022493Y-92169819D01*
X129022493Y-92169819D02*
X129641540Y-92169819D01*
X130260588Y-91169819D02*
X130355826Y-91169819D01*
X130355826Y-91169819D02*
X130451064Y-91217438D01*
X130451064Y-91217438D02*
X130498683Y-91265057D01*
X130498683Y-91265057D02*
X130546302Y-91360295D01*
X130546302Y-91360295D02*
X130593921Y-91550771D01*
X130593921Y-91550771D02*
X130593921Y-91788866D01*
X130593921Y-91788866D02*
X130546302Y-91979342D01*
X130546302Y-91979342D02*
X130498683Y-92074580D01*
X130498683Y-92074580D02*
X130451064Y-92122200D01*
X130451064Y-92122200D02*
X130355826Y-92169819D01*
X130355826Y-92169819D02*
X130260588Y-92169819D01*
X130260588Y-92169819D02*
X130165350Y-92122200D01*
X130165350Y-92122200D02*
X130117731Y-92074580D01*
X130117731Y-92074580D02*
X130070112Y-91979342D01*
X130070112Y-91979342D02*
X130022493Y-91788866D01*
X130022493Y-91788866D02*
X130022493Y-91550771D01*
X130022493Y-91550771D02*
X130070112Y-91360295D01*
X130070112Y-91360295D02*
X130117731Y-91265057D01*
X130117731Y-91265057D02*
X130165350Y-91217438D01*
X130165350Y-91217438D02*
X130260588Y-91169819D01*
X130974874Y-91265057D02*
X131022493Y-91217438D01*
X131022493Y-91217438D02*
X131117731Y-91169819D01*
X131117731Y-91169819D02*
X131355826Y-91169819D01*
X131355826Y-91169819D02*
X131451064Y-91217438D01*
X131451064Y-91217438D02*
X131498683Y-91265057D01*
X131498683Y-91265057D02*
X131546302Y-91360295D01*
X131546302Y-91360295D02*
X131546302Y-91455533D01*
X131546302Y-91455533D02*
X131498683Y-91598390D01*
X131498683Y-91598390D02*
X130927255Y-92169819D01*
X130927255Y-92169819D02*
X131546302Y-92169819D01*
X132451064Y-91169819D02*
X131974874Y-91169819D01*
X131974874Y-91169819D02*
X131927255Y-91646009D01*
X131927255Y-91646009D02*
X131974874Y-91598390D01*
X131974874Y-91598390D02*
X132070112Y-91550771D01*
X132070112Y-91550771D02*
X132308207Y-91550771D01*
X132308207Y-91550771D02*
X132403445Y-91598390D01*
X132403445Y-91598390D02*
X132451064Y-91646009D01*
X132451064Y-91646009D02*
X132498683Y-91741247D01*
X132498683Y-91741247D02*
X132498683Y-91979342D01*
X132498683Y-91979342D02*
X132451064Y-92074580D01*
X132451064Y-92074580D02*
X132403445Y-92122200D01*
X132403445Y-92122200D02*
X132308207Y-92169819D01*
X132308207Y-92169819D02*
X132070112Y-92169819D01*
X132070112Y-92169819D02*
X131974874Y-92122200D01*
X131974874Y-92122200D02*
X131927255Y-92074580D01*
X103930000Y-80200000D02*
X123930000Y-80200000D01*
X123930000Y-95200000D01*
X103930000Y-95200000D01*
X103930000Y-80200000D01*
X102391668Y-51238332D02*
X130191668Y-51238332D01*
X130191668Y-78538332D01*
X102391668Y-78538332D01*
X102391668Y-51238332D01*
X130191668Y-78538332D02*
X120351668Y-78538332D01*
X163654819Y-70386666D02*
X163178628Y-70719999D01*
X163654819Y-70958094D02*
X162654819Y-70958094D01*
X162654819Y-70958094D02*
X162654819Y-70577142D01*
X162654819Y-70577142D02*
X162702438Y-70481904D01*
X162702438Y-70481904D02*
X162750057Y-70434285D01*
X162750057Y-70434285D02*
X162845295Y-70386666D01*
X162845295Y-70386666D02*
X162988152Y-70386666D01*
X162988152Y-70386666D02*
X163083390Y-70434285D01*
X163083390Y-70434285D02*
X163131009Y-70481904D01*
X163131009Y-70481904D02*
X163178628Y-70577142D01*
X163178628Y-70577142D02*
X163178628Y-70958094D01*
X162750057Y-70005713D02*
X162702438Y-69958094D01*
X162702438Y-69958094D02*
X162654819Y-69862856D01*
X162654819Y-69862856D02*
X162654819Y-69624761D01*
X162654819Y-69624761D02*
X162702438Y-69529523D01*
X162702438Y-69529523D02*
X162750057Y-69481904D01*
X162750057Y-69481904D02*
X162845295Y-69434285D01*
X162845295Y-69434285D02*
X162940533Y-69434285D01*
X162940533Y-69434285D02*
X163083390Y-69481904D01*
X163083390Y-69481904D02*
X163654819Y-70053332D01*
X163654819Y-70053332D02*
X163654819Y-69434285D01*
X124944819Y-81783333D02*
X125659104Y-81783333D01*
X125659104Y-81783333D02*
X125801961Y-81830952D01*
X125801961Y-81830952D02*
X125897200Y-81926190D01*
X125897200Y-81926190D02*
X125944819Y-82069047D01*
X125944819Y-82069047D02*
X125944819Y-82164285D01*
X124944819Y-80830952D02*
X124944819Y-81307142D01*
X124944819Y-81307142D02*
X125421009Y-81354761D01*
X125421009Y-81354761D02*
X125373390Y-81307142D01*
X125373390Y-81307142D02*
X125325771Y-81211904D01*
X125325771Y-81211904D02*
X125325771Y-80973809D01*
X125325771Y-80973809D02*
X125373390Y-80878571D01*
X125373390Y-80878571D02*
X125421009Y-80830952D01*
X125421009Y-80830952D02*
X125516247Y-80783333D01*
X125516247Y-80783333D02*
X125754342Y-80783333D01*
X125754342Y-80783333D02*
X125849580Y-80830952D01*
X125849580Y-80830952D02*
X125897200Y-80878571D01*
X125897200Y-80878571D02*
X125944819Y-80973809D01*
X125944819Y-80973809D02*
X125944819Y-81211904D01*
X125944819Y-81211904D02*
X125897200Y-81307142D01*
X125897200Y-81307142D02*
X125849580Y-81354761D01*
X154366667Y-55607200D02*
X154509524Y-55654819D01*
X154509524Y-55654819D02*
X154747619Y-55654819D01*
X154747619Y-55654819D02*
X154842857Y-55607200D01*
X154842857Y-55607200D02*
X154890476Y-55559580D01*
X154890476Y-55559580D02*
X154938095Y-55464342D01*
X154938095Y-55464342D02*
X154938095Y-55369104D01*
X154938095Y-55369104D02*
X154890476Y-55273866D01*
X154890476Y-55273866D02*
X154842857Y-55226247D01*
X154842857Y-55226247D02*
X154747619Y-55178628D01*
X154747619Y-55178628D02*
X154557143Y-55131009D01*
X154557143Y-55131009D02*
X154461905Y-55083390D01*
X154461905Y-55083390D02*
X154414286Y-55035771D01*
X154414286Y-55035771D02*
X154366667Y-54940533D01*
X154366667Y-54940533D02*
X154366667Y-54845295D01*
X154366667Y-54845295D02*
X154414286Y-54750057D01*
X154414286Y-54750057D02*
X154461905Y-54702438D01*
X154461905Y-54702438D02*
X154557143Y-54654819D01*
X154557143Y-54654819D02*
X154795238Y-54654819D01*
X154795238Y-54654819D02*
X154938095Y-54702438D01*
X155271429Y-54654819D02*
X155509524Y-55654819D01*
X155509524Y-55654819D02*
X155700000Y-54940533D01*
X155700000Y-54940533D02*
X155890476Y-55654819D01*
X155890476Y-55654819D02*
X156128572Y-54654819D01*
X157033333Y-55654819D02*
X156461905Y-55654819D01*
X156747619Y-55654819D02*
X156747619Y-54654819D01*
X156747619Y-54654819D02*
X156652381Y-54797676D01*
X156652381Y-54797676D02*
X156557143Y-54892914D01*
X156557143Y-54892914D02*
X156461905Y-54940533D01*
X132704819Y-75066666D02*
X132228628Y-75399999D01*
X132704819Y-75638094D02*
X131704819Y-75638094D01*
X131704819Y-75638094D02*
X131704819Y-75257142D01*
X131704819Y-75257142D02*
X131752438Y-75161904D01*
X131752438Y-75161904D02*
X131800057Y-75114285D01*
X131800057Y-75114285D02*
X131895295Y-75066666D01*
X131895295Y-75066666D02*
X132038152Y-75066666D01*
X132038152Y-75066666D02*
X132133390Y-75114285D01*
X132133390Y-75114285D02*
X132181009Y-75161904D01*
X132181009Y-75161904D02*
X132228628Y-75257142D01*
X132228628Y-75257142D02*
X132228628Y-75638094D01*
X132038152Y-74209523D02*
X132704819Y-74209523D01*
X131657200Y-74447618D02*
X132371485Y-74685713D01*
X132371485Y-74685713D02*
X132371485Y-74066666D01*
X149054819Y-78816666D02*
X148578628Y-79149999D01*
X149054819Y-79388094D02*
X148054819Y-79388094D01*
X148054819Y-79388094D02*
X148054819Y-79007142D01*
X148054819Y-79007142D02*
X148102438Y-78911904D01*
X148102438Y-78911904D02*
X148150057Y-78864285D01*
X148150057Y-78864285D02*
X148245295Y-78816666D01*
X148245295Y-78816666D02*
X148388152Y-78816666D01*
X148388152Y-78816666D02*
X148483390Y-78864285D01*
X148483390Y-78864285D02*
X148531009Y-78911904D01*
X148531009Y-78911904D02*
X148578628Y-79007142D01*
X148578628Y-79007142D02*
X148578628Y-79388094D01*
X148054819Y-78483332D02*
X148054819Y-77864285D01*
X148054819Y-77864285D02*
X148435771Y-78197618D01*
X148435771Y-78197618D02*
X148435771Y-78054761D01*
X148435771Y-78054761D02*
X148483390Y-77959523D01*
X148483390Y-77959523D02*
X148531009Y-77911904D01*
X148531009Y-77911904D02*
X148626247Y-77864285D01*
X148626247Y-77864285D02*
X148864342Y-77864285D01*
X148864342Y-77864285D02*
X148959580Y-77911904D01*
X148959580Y-77911904D02*
X149007200Y-77959523D01*
X149007200Y-77959523D02*
X149054819Y-78054761D01*
X149054819Y-78054761D02*
X149054819Y-78340475D01*
X149054819Y-78340475D02*
X149007200Y-78435713D01*
X149007200Y-78435713D02*
X148959580Y-78483332D01*
X143204819Y-57133333D02*
X143919104Y-57133333D01*
X143919104Y-57133333D02*
X144061961Y-57180952D01*
X144061961Y-57180952D02*
X144157200Y-57276190D01*
X144157200Y-57276190D02*
X144204819Y-57419047D01*
X144204819Y-57419047D02*
X144204819Y-57514285D01*
X143204819Y-56752380D02*
X143204819Y-56085714D01*
X143204819Y-56085714D02*
X144204819Y-56514285D01*
X163704819Y-57366666D02*
X163228628Y-57699999D01*
X163704819Y-57938094D02*
X162704819Y-57938094D01*
X162704819Y-57938094D02*
X162704819Y-57557142D01*
X162704819Y-57557142D02*
X162752438Y-57461904D01*
X162752438Y-57461904D02*
X162800057Y-57414285D01*
X162800057Y-57414285D02*
X162895295Y-57366666D01*
X162895295Y-57366666D02*
X163038152Y-57366666D01*
X163038152Y-57366666D02*
X163133390Y-57414285D01*
X163133390Y-57414285D02*
X163181009Y-57461904D01*
X163181009Y-57461904D02*
X163228628Y-57557142D01*
X163228628Y-57557142D02*
X163228628Y-57938094D01*
X163704819Y-56414285D02*
X163704819Y-56985713D01*
X163704819Y-56699999D02*
X162704819Y-56699999D01*
X162704819Y-56699999D02*
X162847676Y-56795237D01*
X162847676Y-56795237D02*
X162942914Y-56890475D01*
X162942914Y-56890475D02*
X162990533Y-56985713D01*
X136763333Y-66354819D02*
X136430000Y-65878628D01*
X136191905Y-66354819D02*
X136191905Y-65354819D01*
X136191905Y-65354819D02*
X136572857Y-65354819D01*
X136572857Y-65354819D02*
X136668095Y-65402438D01*
X136668095Y-65402438D02*
X136715714Y-65450057D01*
X136715714Y-65450057D02*
X136763333Y-65545295D01*
X136763333Y-65545295D02*
X136763333Y-65688152D01*
X136763333Y-65688152D02*
X136715714Y-65783390D01*
X136715714Y-65783390D02*
X136668095Y-65831009D01*
X136668095Y-65831009D02*
X136572857Y-65878628D01*
X136572857Y-65878628D02*
X136191905Y-65878628D01*
X137620476Y-65354819D02*
X137430000Y-65354819D01*
X137430000Y-65354819D02*
X137334762Y-65402438D01*
X137334762Y-65402438D02*
X137287143Y-65450057D01*
X137287143Y-65450057D02*
X137191905Y-65592914D01*
X137191905Y-65592914D02*
X137144286Y-65783390D01*
X137144286Y-65783390D02*
X137144286Y-66164342D01*
X137144286Y-66164342D02*
X137191905Y-66259580D01*
X137191905Y-66259580D02*
X137239524Y-66307200D01*
X137239524Y-66307200D02*
X137334762Y-66354819D01*
X137334762Y-66354819D02*
X137525238Y-66354819D01*
X137525238Y-66354819D02*
X137620476Y-66307200D01*
X137620476Y-66307200D02*
X137668095Y-66259580D01*
X137668095Y-66259580D02*
X137715714Y-66164342D01*
X137715714Y-66164342D02*
X137715714Y-65926247D01*
X137715714Y-65926247D02*
X137668095Y-65831009D01*
X137668095Y-65831009D02*
X137620476Y-65783390D01*
X137620476Y-65783390D02*
X137525238Y-65735771D01*
X137525238Y-65735771D02*
X137334762Y-65735771D01*
X137334762Y-65735771D02*
X137239524Y-65783390D01*
X137239524Y-65783390D02*
X137191905Y-65831009D01*
X137191905Y-65831009D02*
X137144286Y-65926247D01*
X141516667Y-90507200D02*
X141659524Y-90554819D01*
X141659524Y-90554819D02*
X141897619Y-90554819D01*
X141897619Y-90554819D02*
X141992857Y-90507200D01*
X141992857Y-90507200D02*
X142040476Y-90459580D01*
X142040476Y-90459580D02*
X142088095Y-90364342D01*
X142088095Y-90364342D02*
X142088095Y-90269104D01*
X142088095Y-90269104D02*
X142040476Y-90173866D01*
X142040476Y-90173866D02*
X141992857Y-90126247D01*
X141992857Y-90126247D02*
X141897619Y-90078628D01*
X141897619Y-90078628D02*
X141707143Y-90031009D01*
X141707143Y-90031009D02*
X141611905Y-89983390D01*
X141611905Y-89983390D02*
X141564286Y-89935771D01*
X141564286Y-89935771D02*
X141516667Y-89840533D01*
X141516667Y-89840533D02*
X141516667Y-89745295D01*
X141516667Y-89745295D02*
X141564286Y-89650057D01*
X141564286Y-89650057D02*
X141611905Y-89602438D01*
X141611905Y-89602438D02*
X141707143Y-89554819D01*
X141707143Y-89554819D02*
X141945238Y-89554819D01*
X141945238Y-89554819D02*
X142088095Y-89602438D01*
X142421429Y-89554819D02*
X142659524Y-90554819D01*
X142659524Y-90554819D02*
X142850000Y-89840533D01*
X142850000Y-89840533D02*
X143040476Y-90554819D01*
X143040476Y-90554819D02*
X143278572Y-89554819D01*
X144135714Y-89554819D02*
X143659524Y-89554819D01*
X143659524Y-89554819D02*
X143611905Y-90031009D01*
X143611905Y-90031009D02*
X143659524Y-89983390D01*
X143659524Y-89983390D02*
X143754762Y-89935771D01*
X143754762Y-89935771D02*
X143992857Y-89935771D01*
X143992857Y-89935771D02*
X144088095Y-89983390D01*
X144088095Y-89983390D02*
X144135714Y-90031009D01*
X144135714Y-90031009D02*
X144183333Y-90126247D01*
X144183333Y-90126247D02*
X144183333Y-90364342D01*
X144183333Y-90364342D02*
X144135714Y-90459580D01*
X144135714Y-90459580D02*
X144088095Y-90507200D01*
X144088095Y-90507200D02*
X143992857Y-90554819D01*
X143992857Y-90554819D02*
X143754762Y-90554819D01*
X143754762Y-90554819D02*
X143659524Y-90507200D01*
X143659524Y-90507200D02*
X143611905Y-90459580D01*
X122576487Y-77371665D02*
X123290772Y-77371665D01*
X123290772Y-77371665D02*
X123433629Y-77419284D01*
X123433629Y-77419284D02*
X123528868Y-77514522D01*
X123528868Y-77514522D02*
X123576487Y-77657379D01*
X123576487Y-77657379D02*
X123576487Y-77752617D01*
X122576487Y-76466903D02*
X122576487Y-76657379D01*
X122576487Y-76657379D02*
X122624106Y-76752617D01*
X122624106Y-76752617D02*
X122671725Y-76800236D01*
X122671725Y-76800236D02*
X122814582Y-76895474D01*
X122814582Y-76895474D02*
X123005058Y-76943093D01*
X123005058Y-76943093D02*
X123386010Y-76943093D01*
X123386010Y-76943093D02*
X123481248Y-76895474D01*
X123481248Y-76895474D02*
X123528868Y-76847855D01*
X123528868Y-76847855D02*
X123576487Y-76752617D01*
X123576487Y-76752617D02*
X123576487Y-76562141D01*
X123576487Y-76562141D02*
X123528868Y-76466903D01*
X123528868Y-76466903D02*
X123481248Y-76419284D01*
X123481248Y-76419284D02*
X123386010Y-76371665D01*
X123386010Y-76371665D02*
X123147915Y-76371665D01*
X123147915Y-76371665D02*
X123052677Y-76419284D01*
X123052677Y-76419284D02*
X123005058Y-76466903D01*
X123005058Y-76466903D02*
X122957439Y-76562141D01*
X122957439Y-76562141D02*
X122957439Y-76752617D01*
X122957439Y-76752617D02*
X123005058Y-76847855D01*
X123005058Y-76847855D02*
X123052677Y-76895474D01*
X123052677Y-76895474D02*
X123147915Y-76943093D01*
X134041905Y-56744819D02*
X134041905Y-55744819D01*
X134041905Y-55744819D02*
X134280000Y-55744819D01*
X134280000Y-55744819D02*
X134422857Y-55792438D01*
X134422857Y-55792438D02*
X134518095Y-55887676D01*
X134518095Y-55887676D02*
X134565714Y-55982914D01*
X134565714Y-55982914D02*
X134613333Y-56173390D01*
X134613333Y-56173390D02*
X134613333Y-56316247D01*
X134613333Y-56316247D02*
X134565714Y-56506723D01*
X134565714Y-56506723D02*
X134518095Y-56601961D01*
X134518095Y-56601961D02*
X134422857Y-56697200D01*
X134422857Y-56697200D02*
X134280000Y-56744819D01*
X134280000Y-56744819D02*
X134041905Y-56744819D01*
X135565714Y-56744819D02*
X134994286Y-56744819D01*
X135280000Y-56744819D02*
X135280000Y-55744819D01*
X135280000Y-55744819D02*
X135184762Y-55887676D01*
X135184762Y-55887676D02*
X135089524Y-55982914D01*
X135089524Y-55982914D02*
X134994286Y-56030533D01*
X154466667Y-66357200D02*
X154609524Y-66404819D01*
X154609524Y-66404819D02*
X154847619Y-66404819D01*
X154847619Y-66404819D02*
X154942857Y-66357200D01*
X154942857Y-66357200D02*
X154990476Y-66309580D01*
X154990476Y-66309580D02*
X155038095Y-66214342D01*
X155038095Y-66214342D02*
X155038095Y-66119104D01*
X155038095Y-66119104D02*
X154990476Y-66023866D01*
X154990476Y-66023866D02*
X154942857Y-65976247D01*
X154942857Y-65976247D02*
X154847619Y-65928628D01*
X154847619Y-65928628D02*
X154657143Y-65881009D01*
X154657143Y-65881009D02*
X154561905Y-65833390D01*
X154561905Y-65833390D02*
X154514286Y-65785771D01*
X154514286Y-65785771D02*
X154466667Y-65690533D01*
X154466667Y-65690533D02*
X154466667Y-65595295D01*
X154466667Y-65595295D02*
X154514286Y-65500057D01*
X154514286Y-65500057D02*
X154561905Y-65452438D01*
X154561905Y-65452438D02*
X154657143Y-65404819D01*
X154657143Y-65404819D02*
X154895238Y-65404819D01*
X154895238Y-65404819D02*
X155038095Y-65452438D01*
X155371429Y-65404819D02*
X155609524Y-66404819D01*
X155609524Y-66404819D02*
X155800000Y-65690533D01*
X155800000Y-65690533D02*
X155990476Y-66404819D01*
X155990476Y-66404819D02*
X156228572Y-65404819D01*
X156561905Y-65500057D02*
X156609524Y-65452438D01*
X156609524Y-65452438D02*
X156704762Y-65404819D01*
X156704762Y-65404819D02*
X156942857Y-65404819D01*
X156942857Y-65404819D02*
X157038095Y-65452438D01*
X157038095Y-65452438D02*
X157085714Y-65500057D01*
X157085714Y-65500057D02*
X157133333Y-65595295D01*
X157133333Y-65595295D02*
X157133333Y-65690533D01*
X157133333Y-65690533D02*
X157085714Y-65833390D01*
X157085714Y-65833390D02*
X156514286Y-66404819D01*
X156514286Y-66404819D02*
X157133333Y-66404819D01*
X163704819Y-84716666D02*
X163228628Y-85049999D01*
X163704819Y-85288094D02*
X162704819Y-85288094D01*
X162704819Y-85288094D02*
X162704819Y-84907142D01*
X162704819Y-84907142D02*
X162752438Y-84811904D01*
X162752438Y-84811904D02*
X162800057Y-84764285D01*
X162800057Y-84764285D02*
X162895295Y-84716666D01*
X162895295Y-84716666D02*
X163038152Y-84716666D01*
X163038152Y-84716666D02*
X163133390Y-84764285D01*
X163133390Y-84764285D02*
X163181009Y-84811904D01*
X163181009Y-84811904D02*
X163228628Y-84907142D01*
X163228628Y-84907142D02*
X163228628Y-85288094D01*
X162704819Y-83811904D02*
X162704819Y-84288094D01*
X162704819Y-84288094D02*
X163181009Y-84335713D01*
X163181009Y-84335713D02*
X163133390Y-84288094D01*
X163133390Y-84288094D02*
X163085771Y-84192856D01*
X163085771Y-84192856D02*
X163085771Y-83954761D01*
X163085771Y-83954761D02*
X163133390Y-83859523D01*
X163133390Y-83859523D02*
X163181009Y-83811904D01*
X163181009Y-83811904D02*
X163276247Y-83764285D01*
X163276247Y-83764285D02*
X163514342Y-83764285D01*
X163514342Y-83764285D02*
X163609580Y-83811904D01*
X163609580Y-83811904D02*
X163657200Y-83859523D01*
X163657200Y-83859523D02*
X163704819Y-83954761D01*
X163704819Y-83954761D02*
X163704819Y-84192856D01*
X163704819Y-84192856D02*
X163657200Y-84288094D01*
X163657200Y-84288094D02*
X163609580Y-84335713D01*
X137666667Y-72207200D02*
X137809524Y-72254819D01*
X137809524Y-72254819D02*
X138047619Y-72254819D01*
X138047619Y-72254819D02*
X138142857Y-72207200D01*
X138142857Y-72207200D02*
X138190476Y-72159580D01*
X138190476Y-72159580D02*
X138238095Y-72064342D01*
X138238095Y-72064342D02*
X138238095Y-71969104D01*
X138238095Y-71969104D02*
X138190476Y-71873866D01*
X138190476Y-71873866D02*
X138142857Y-71826247D01*
X138142857Y-71826247D02*
X138047619Y-71778628D01*
X138047619Y-71778628D02*
X137857143Y-71731009D01*
X137857143Y-71731009D02*
X137761905Y-71683390D01*
X137761905Y-71683390D02*
X137714286Y-71635771D01*
X137714286Y-71635771D02*
X137666667Y-71540533D01*
X137666667Y-71540533D02*
X137666667Y-71445295D01*
X137666667Y-71445295D02*
X137714286Y-71350057D01*
X137714286Y-71350057D02*
X137761905Y-71302438D01*
X137761905Y-71302438D02*
X137857143Y-71254819D01*
X137857143Y-71254819D02*
X138095238Y-71254819D01*
X138095238Y-71254819D02*
X138238095Y-71302438D01*
X138571429Y-71254819D02*
X138809524Y-72254819D01*
X138809524Y-72254819D02*
X139000000Y-71540533D01*
X139000000Y-71540533D02*
X139190476Y-72254819D01*
X139190476Y-72254819D02*
X139428572Y-71254819D01*
X140238095Y-71588152D02*
X140238095Y-72254819D01*
X140000000Y-71207200D02*
X139761905Y-71921485D01*
X139761905Y-71921485D02*
X140380952Y-71921485D01*
X155254761Y-86454819D02*
X154921428Y-85978628D01*
X154683333Y-86454819D02*
X154683333Y-85454819D01*
X154683333Y-85454819D02*
X155064285Y-85454819D01*
X155064285Y-85454819D02*
X155159523Y-85502438D01*
X155159523Y-85502438D02*
X155207142Y-85550057D01*
X155207142Y-85550057D02*
X155254761Y-85645295D01*
X155254761Y-85645295D02*
X155254761Y-85788152D01*
X155254761Y-85788152D02*
X155207142Y-85883390D01*
X155207142Y-85883390D02*
X155159523Y-85931009D01*
X155159523Y-85931009D02*
X155064285Y-85978628D01*
X155064285Y-85978628D02*
X154683333Y-85978628D01*
X155540476Y-85454819D02*
X155873809Y-86454819D01*
X155873809Y-86454819D02*
X156207142Y-85454819D01*
X157064285Y-86454819D02*
X156492857Y-86454819D01*
X156778571Y-86454819D02*
X156778571Y-85454819D01*
X156778571Y-85454819D02*
X156683333Y-85597676D01*
X156683333Y-85597676D02*
X156588095Y-85692914D01*
X156588095Y-85692914D02*
X156492857Y-85740533D01*
X154466667Y-77107200D02*
X154609524Y-77154819D01*
X154609524Y-77154819D02*
X154847619Y-77154819D01*
X154847619Y-77154819D02*
X154942857Y-77107200D01*
X154942857Y-77107200D02*
X154990476Y-77059580D01*
X154990476Y-77059580D02*
X155038095Y-76964342D01*
X155038095Y-76964342D02*
X155038095Y-76869104D01*
X155038095Y-76869104D02*
X154990476Y-76773866D01*
X154990476Y-76773866D02*
X154942857Y-76726247D01*
X154942857Y-76726247D02*
X154847619Y-76678628D01*
X154847619Y-76678628D02*
X154657143Y-76631009D01*
X154657143Y-76631009D02*
X154561905Y-76583390D01*
X154561905Y-76583390D02*
X154514286Y-76535771D01*
X154514286Y-76535771D02*
X154466667Y-76440533D01*
X154466667Y-76440533D02*
X154466667Y-76345295D01*
X154466667Y-76345295D02*
X154514286Y-76250057D01*
X154514286Y-76250057D02*
X154561905Y-76202438D01*
X154561905Y-76202438D02*
X154657143Y-76154819D01*
X154657143Y-76154819D02*
X154895238Y-76154819D01*
X154895238Y-76154819D02*
X155038095Y-76202438D01*
X155371429Y-76154819D02*
X155609524Y-77154819D01*
X155609524Y-77154819D02*
X155800000Y-76440533D01*
X155800000Y-76440533D02*
X155990476Y-77154819D01*
X155990476Y-77154819D02*
X156228572Y-76154819D01*
X156514286Y-76154819D02*
X157133333Y-76154819D01*
X157133333Y-76154819D02*
X156800000Y-76535771D01*
X156800000Y-76535771D02*
X156942857Y-76535771D01*
X156942857Y-76535771D02*
X157038095Y-76583390D01*
X157038095Y-76583390D02*
X157085714Y-76631009D01*
X157085714Y-76631009D02*
X157133333Y-76726247D01*
X157133333Y-76726247D02*
X157133333Y-76964342D01*
X157133333Y-76964342D02*
X157085714Y-77059580D01*
X157085714Y-77059580D02*
X157038095Y-77107200D01*
X157038095Y-77107200D02*
X156942857Y-77154819D01*
X156942857Y-77154819D02*
X156657143Y-77154819D01*
X156657143Y-77154819D02*
X156561905Y-77107200D01*
X156561905Y-77107200D02*
X156514286Y-77059580D01*
D11*
%TO.C,J1*%
X126610000Y-96130000D02*
X127940000Y-96130000D01*
X126610000Y-97460000D02*
X126610000Y-96130000D01*
X129210000Y-96130000D02*
X147050000Y-96130000D01*
X129210000Y-98790000D02*
X129210000Y-96130000D01*
X129210000Y-98790000D02*
X147050000Y-98790000D01*
X147050000Y-98790000D02*
X147050000Y-96130000D01*
%TO.C,J3*%
X149470000Y-96130000D02*
X150800000Y-96130000D01*
X149470000Y-97460000D02*
X149470000Y-96130000D01*
X152070000Y-96130000D02*
X164830000Y-96130000D01*
X152070000Y-98790000D02*
X152070000Y-96130000D01*
X152070000Y-98790000D02*
X164830000Y-98790000D01*
X164830000Y-98790000D02*
X164830000Y-96130000D01*
%TO.C,J2*%
X117466000Y-47870000D02*
X118796000Y-47870000D01*
X117466000Y-49200000D02*
X117466000Y-47870000D01*
X120066000Y-47870000D02*
X142986000Y-47870000D01*
X120066000Y-50530000D02*
X120066000Y-47870000D01*
X120066000Y-50530000D02*
X142986000Y-50530000D01*
X142986000Y-50530000D02*
X142986000Y-47870000D01*
%TO.C,J4*%
X144390000Y-47870000D02*
X145720000Y-47870000D01*
X144390000Y-49200000D02*
X144390000Y-47870000D01*
X146990000Y-47870000D02*
X164830000Y-47870000D01*
X146990000Y-50530000D02*
X146990000Y-47870000D01*
X146990000Y-50530000D02*
X164830000Y-50530000D01*
X164830000Y-50530000D02*
X164830000Y-47870000D01*
%TO.C,R2*%
X161830000Y-67030000D02*
X161830000Y-73570000D01*
X161830000Y-73570000D02*
X164570000Y-73570000D01*
X163200000Y-66260000D02*
X163200000Y-67030000D01*
X163200000Y-74340000D02*
X163200000Y-73570000D01*
X164570000Y-67030000D02*
X161830000Y-67030000D01*
X164570000Y-73570000D02*
X164570000Y-67030000D01*
%TO.C,J5*%
X124050000Y-82780000D02*
X122720000Y-82780000D01*
X124050000Y-81450000D02*
X124050000Y-82780000D01*
X121450000Y-82780000D02*
X103610000Y-82780000D01*
X121450000Y-80120000D02*
X121450000Y-82780000D01*
X121450000Y-80120000D02*
X103610000Y-80120000D01*
X103610000Y-80120000D02*
X103610000Y-82780000D01*
%TO.C,SW1*%
X152200000Y-54450000D02*
X152200000Y-55950000D01*
X153450000Y-58450000D02*
X157950000Y-58450000D01*
X157950000Y-51950000D02*
X153450000Y-51950000D01*
X159200000Y-55950000D02*
X159200000Y-54450000D01*
%TO.C,R4*%
X130880000Y-71630000D02*
X130880000Y-78170000D01*
X130880000Y-78170000D02*
X133620000Y-78170000D01*
X132250000Y-70860000D02*
X132250000Y-71630000D01*
X132250000Y-78940000D02*
X132250000Y-78170000D01*
X133620000Y-71630000D02*
X130880000Y-71630000D01*
X133620000Y-78170000D02*
X133620000Y-71630000D01*
%TO.C,R3*%
X147230000Y-75380000D02*
X147230000Y-81920000D01*
X147230000Y-81920000D02*
X149970000Y-81920000D01*
X148600000Y-74610000D02*
X148600000Y-75380000D01*
X148600000Y-82690000D02*
X148600000Y-81920000D01*
X149970000Y-75380000D02*
X147230000Y-75380000D01*
X149970000Y-81920000D02*
X149970000Y-75380000D01*
%TO.C,J7*%
X138800000Y-60900000D02*
X138800000Y-62150000D01*
X138800000Y-62150000D02*
X140050000Y-62150000D01*
X139090000Y-51740000D02*
X139090000Y-61860000D01*
X139090000Y-61860000D02*
X145060000Y-61860000D01*
X139100000Y-51750000D02*
X139100000Y-53550000D01*
X139100000Y-53550000D02*
X139850000Y-53550000D01*
X139100000Y-55050000D02*
X139100000Y-58550000D01*
X139100000Y-58550000D02*
X139850000Y-58550000D01*
X139100000Y-60050000D02*
X139100000Y-61850000D01*
X139100000Y-61850000D02*
X139850000Y-61850000D01*
X139850000Y-51750000D02*
X139100000Y-51750000D01*
X139850000Y-53550000D02*
X139850000Y-51750000D01*
X139850000Y-55050000D02*
X139100000Y-55050000D01*
X139850000Y-58550000D02*
X139850000Y-55050000D01*
X139850000Y-60050000D02*
X139100000Y-60050000D01*
X139850000Y-61850000D02*
X139850000Y-60050000D01*
X141350000Y-51750000D02*
X141350000Y-52500000D01*
X141350000Y-52500000D02*
X144300000Y-52500000D01*
X141350000Y-61100000D02*
X144300000Y-61100000D01*
X141350000Y-61850000D02*
X141350000Y-61100000D01*
X144300000Y-52500000D02*
X144300000Y-56800000D01*
X144300000Y-61100000D02*
X144300000Y-56800000D01*
X145060000Y-51740000D02*
X139090000Y-51740000D01*
X145060000Y-61860000D02*
X145060000Y-51740000D01*
%TO.C,R1*%
X161880000Y-53930000D02*
X161880000Y-60470000D01*
X161880000Y-60470000D02*
X164620000Y-60470000D01*
X163250000Y-53160000D02*
X163250000Y-53930000D01*
X163250000Y-61240000D02*
X163250000Y-60470000D01*
X164620000Y-53930000D02*
X161880000Y-53930000D01*
X164620000Y-60470000D02*
X164620000Y-53930000D01*
%TO.C,R6*%
X132890000Y-65900000D02*
X133660000Y-65900000D01*
X133660000Y-64530000D02*
X133660000Y-67270000D01*
X133660000Y-67270000D02*
X140200000Y-67270000D01*
X140200000Y-64530000D02*
X133660000Y-64530000D01*
X140200000Y-67270000D02*
X140200000Y-64530000D01*
X140970000Y-65900000D02*
X140200000Y-65900000D01*
%TO.C,SW5*%
X139350000Y-89350000D02*
X139350000Y-90850000D01*
X140600000Y-93350000D02*
X145100000Y-93350000D01*
X145100000Y-86850000D02*
X140600000Y-86850000D01*
X146350000Y-90850000D02*
X146350000Y-89350000D01*
%TO.C,J6*%
X111401668Y-75708332D02*
X111401668Y-78368332D01*
X119081668Y-75708332D02*
X111401668Y-75708332D01*
X119081668Y-75708332D02*
X119081668Y-78368332D01*
X119081668Y-78368332D02*
X111401668Y-78368332D01*
X121681668Y-77038332D02*
X121681668Y-78368332D01*
X121681668Y-78368332D02*
X120351668Y-78368332D01*
%TO.C,D1*%
X132220000Y-58705000D02*
X132220000Y-61795000D01*
X132220000Y-58705170D02*
G75*
G02*
X137770000Y-60249952I2560000J-1544830D01*
G01*
X137770000Y-60250048D02*
G75*
G02*
X132220000Y-61794830I-2990000J48D01*
G01*
X137280000Y-60250000D02*
G75*
G02*
X132280000Y-60250000I-2500000J0D01*
G01*
X132280000Y-60250000D02*
G75*
G02*
X137280000Y-60250000I2500000J0D01*
G01*
%TO.C,SW2*%
X152300000Y-65200000D02*
X152300000Y-66700000D01*
X153550000Y-69200000D02*
X158050000Y-69200000D01*
X158050000Y-62700000D02*
X153550000Y-62700000D01*
X159300000Y-66700000D02*
X159300000Y-65200000D01*
%TO.C,R5*%
X161880000Y-81280000D02*
X161880000Y-87820000D01*
X161880000Y-87820000D02*
X164620000Y-87820000D01*
X163250000Y-80510000D02*
X163250000Y-81280000D01*
X163250000Y-88590000D02*
X163250000Y-87820000D01*
X164620000Y-81280000D02*
X161880000Y-81280000D01*
X164620000Y-87820000D02*
X164620000Y-81280000D01*
%TO.C,SW4*%
X135500000Y-71050000D02*
X135500000Y-72550000D01*
X136750000Y-75050000D02*
X141250000Y-75050000D01*
X141250000Y-68550000D02*
X136750000Y-68550000D01*
X142500000Y-72550000D02*
X142500000Y-71050000D01*
%TO.C,RV1*%
X150765000Y-82915000D02*
X150765000Y-92685000D01*
X160535000Y-82915000D02*
X150765000Y-82915000D01*
X160535000Y-82915000D02*
X160535000Y-92685000D01*
X160535000Y-92685000D02*
X150765000Y-92685000D01*
%TO.C,SW3*%
X152300000Y-75950000D02*
X152300000Y-77450000D01*
X153550000Y-79950000D02*
X158050000Y-79950000D01*
X158050000Y-73450000D02*
X153550000Y-73450000D01*
X159300000Y-77450000D02*
X159300000Y-75950000D01*
%TD*%
M02*
