%TF.GenerationSoftware,KiCad,Pcbnew,8.0.8*%
%TF.CreationDate,2025-02-03T17:03:17-07:00*%
%TF.ProjectId,Thermo_Probe,54686572-6d6f-45f5-9072-6f62652e6b69,rev?*%
%TF.SameCoordinates,Original*%
%TF.FileFunction,Copper,L1,Top*%
%TF.FilePolarity,Positive*%
%FSLAX46Y46*%
G04 Gerber Fmt 4.6, Leading zero omitted, Abs format (unit mm)*
G04 Created by KiCad (PCBNEW 8.0.8) date 2025-02-03 17:03:17*
%MOMM*%
%LPD*%
G01*
G04 APERTURE LIST*
G04 Aperture macros list*
%AMRoundRect*
0 Rectangle with rounded corners*
0 $1 Rounding radius*
0 $2 $3 $4 $5 $6 $7 $8 $9 X,Y pos of 4 corners*
0 Add a 4 corners polygon primitive as box body*
4,1,4,$2,$3,$4,$5,$6,$7,$8,$9,$2,$3,0*
0 Add four circle primitives for the rounded corners*
1,1,$1+$1,$2,$3*
1,1,$1+$1,$4,$5*
1,1,$1+$1,$6,$7*
1,1,$1+$1,$8,$9*
0 Add four rect primitives between the rounded corners*
20,1,$1+$1,$2,$3,$4,$5,0*
20,1,$1+$1,$4,$5,$6,$7,0*
20,1,$1+$1,$6,$7,$8,$9,0*
20,1,$1+$1,$8,$9,$2,$3,0*%
G04 Aperture macros list end*
%TA.AperFunction,ComponentPad*%
%ADD10R,1.700000X1.700000*%
%TD*%
%TA.AperFunction,ComponentPad*%
%ADD11O,1.700000X1.700000*%
%TD*%
%TA.AperFunction,ComponentPad*%
%ADD12C,1.600000*%
%TD*%
%TA.AperFunction,ComponentPad*%
%ADD13O,1.600000X1.600000*%
%TD*%
%TA.AperFunction,ComponentPad*%
%ADD14C,2.000000*%
%TD*%
%TA.AperFunction,ComponentPad*%
%ADD15RoundRect,0.250000X0.725000X-0.600000X0.725000X0.600000X-0.725000X0.600000X-0.725000X-0.600000X0*%
%TD*%
%TA.AperFunction,ComponentPad*%
%ADD16O,1.950000X1.700000*%
%TD*%
%TA.AperFunction,ComponentPad*%
%ADD17R,1.800000X1.800000*%
%TD*%
%TA.AperFunction,ComponentPad*%
%ADD18C,1.800000*%
%TD*%
%TA.AperFunction,ComponentPad*%
%ADD19C,1.440000*%
%TD*%
%TA.AperFunction,Conductor*%
%ADD20C,0.508000*%
%TD*%
G04 APERTURE END LIST*
D10*
%TO.P,J1,1,Pin_1*%
%TO.N,unconnected-(J1-Pin_1-Pad1)*%
X127940000Y-97460000D03*
D11*
%TO.P,J1,2,Pin_2*%
%TO.N,/IOREF*%
X130480000Y-97460000D03*
%TO.P,J1,3,Pin_3*%
%TO.N,/~{RESET}*%
X133020000Y-97460000D03*
%TO.P,J1,4,Pin_4*%
%TO.N,+3V3*%
X135560000Y-97460000D03*
%TO.P,J1,5,Pin_5*%
%TO.N,+5V*%
X138100000Y-97460000D03*
%TO.P,J1,6,Pin_6*%
%TO.N,GND*%
X140640000Y-97460000D03*
%TO.P,J1,7,Pin_7*%
X143180000Y-97460000D03*
%TO.P,J1,8,Pin_8*%
%TO.N,VCC*%
X145720000Y-97460000D03*
%TD*%
D10*
%TO.P,J3,1,Pin_1*%
%TO.N,/Temp_sensor*%
X150800000Y-97460000D03*
D11*
%TO.P,J3,2,Pin_2*%
%TO.N,/A1*%
X153340000Y-97460000D03*
%TO.P,J3,3,Pin_3*%
%TO.N,/A2*%
X155880000Y-97460000D03*
%TO.P,J3,4,Pin_4*%
%TO.N,/A3*%
X158420000Y-97460000D03*
%TO.P,J3,5,Pin_5*%
%TO.N,/SDA{slash}A4*%
X160960000Y-97460000D03*
%TO.P,J3,6,Pin_6*%
%TO.N,/SCL{slash}A5*%
X163500000Y-97460000D03*
%TD*%
D10*
%TO.P,J2,1,Pin_1*%
%TO.N,/I2C_SDA*%
X118796000Y-49200000D03*
D11*
%TO.P,J2,2,Pin_2*%
%TO.N,/I2C_SCL*%
X121336000Y-49200000D03*
%TO.P,J2,3,Pin_3*%
%TO.N,/AREF*%
X123876000Y-49200000D03*
%TO.P,J2,4,Pin_4*%
%TO.N,GND*%
X126416000Y-49200000D03*
%TO.P,J2,5,Pin_5*%
%TO.N,/button_on{slash}off*%
X128956000Y-49200000D03*
%TO.P,J2,6,Pin_6*%
%TO.N,/12*%
X131496000Y-49200000D03*
%TO.P,J2,7,Pin_7*%
%TO.N,/\u002A11*%
X134036000Y-49200000D03*
%TO.P,J2,8,Pin_8*%
%TO.N,/LED_light*%
X136576000Y-49200000D03*
%TO.P,J2,9,Pin_9*%
%TO.N,unconnected-(J2-Pin_9-Pad9)*%
X139116000Y-49200000D03*
%TO.P,J2,10,Pin_10*%
%TO.N,/temp_digital*%
X141656000Y-49200000D03*
%TD*%
D10*
%TO.P,J4,1,Pin_1*%
%TO.N,unconnected-(J4-Pin_1-Pad1)*%
X145720000Y-49200000D03*
D11*
%TO.P,J4,2,Pin_2*%
%TO.N,/button_light*%
X148260000Y-49200000D03*
%TO.P,J4,3,Pin_3*%
%TO.N,/button_lock*%
X150800000Y-49200000D03*
%TO.P,J4,4,Pin_4*%
%TO.N,/button_cal*%
X153340000Y-49200000D03*
%TO.P,J4,5,Pin_5*%
%TO.N,/button_unit*%
X155880000Y-49200000D03*
%TO.P,J4,6,Pin_6*%
%TO.N,/2*%
X158420000Y-49200000D03*
%TO.P,J4,7,Pin_7*%
%TO.N,/TX{slash}1*%
X160960000Y-49200000D03*
%TO.P,J4,8,Pin_8*%
%TO.N,/RX{slash}0*%
X163500000Y-49200000D03*
%TD*%
D12*
%TO.P,R2,1*%
%TO.N,/button_cal*%
X163200000Y-65220000D03*
D13*
%TO.P,R2,2*%
%TO.N,GND*%
X163200000Y-75380000D03*
%TD*%
D11*
%TO.P,J5,8,Pin_8*%
%TO.N,unconnected-(J5-Pin_8-Pad8)*%
X104940000Y-81450000D03*
%TO.P,J5,7,Pin_7*%
%TO.N,unconnected-(J5-Pin_7-Pad7)*%
X107480000Y-81450000D03*
%TO.P,J5,6,Pin_6*%
%TO.N,unconnected-(J5-Pin_6-Pad6)*%
X110020000Y-81450000D03*
%TO.P,J5,5,Pin_5*%
%TO.N,unconnected-(J5-Pin_5-Pad5)*%
X112560000Y-81450000D03*
%TO.P,J5,4,Pin_4*%
%TO.N,/I2C_SDA*%
X115100000Y-81450000D03*
%TO.P,J5,3,Pin_3*%
%TO.N,/I2C_SCL*%
X117640000Y-81450000D03*
%TO.P,J5,2,Pin_2*%
%TO.N,GND*%
X120180000Y-81450000D03*
D10*
%TO.P,J5,1,Pin_1*%
%TO.N,+5V*%
X122720000Y-81450000D03*
%TD*%
D14*
%TO.P,SW1,1,A*%
%TO.N,/button_unit*%
X152450000Y-52950000D03*
X158950000Y-52950000D03*
%TO.P,SW1,2,B*%
%TO.N,+5V*%
X152450000Y-57450000D03*
X158950000Y-57450000D03*
%TD*%
D12*
%TO.P,R4,1*%
%TO.N,/button_on{slash}off*%
X132250000Y-69820000D03*
D13*
%TO.P,R4,2*%
%TO.N,GND*%
X132250000Y-79980000D03*
%TD*%
D12*
%TO.P,R3,1*%
%TO.N,/button_lock*%
X148600000Y-73570000D03*
D13*
%TO.P,R3,2*%
%TO.N,GND*%
X148600000Y-83730000D03*
%TD*%
D15*
%TO.P,J7,1,Pin_1*%
%TO.N,+5V*%
X141550000Y-59300000D03*
D16*
%TO.P,J7,2,Pin_2*%
%TO.N,/temp_digital*%
X141550000Y-56800000D03*
%TO.P,J7,3,Pin_3*%
%TO.N,GND*%
X141550000Y-54300000D03*
%TD*%
D12*
%TO.P,R1,1*%
%TO.N,/button_unit*%
X163250000Y-52120000D03*
D13*
%TO.P,R1,2*%
%TO.N,GND*%
X163250000Y-62280000D03*
%TD*%
D12*
%TO.P,R6,1*%
%TO.N,/LED_light*%
X131850000Y-65900000D03*
D13*
%TO.P,R6,2*%
%TO.N,Net-(D1-A)*%
X142010000Y-65900000D03*
%TD*%
D14*
%TO.P,SW5,1,A*%
%TO.N,/button_light*%
X139600000Y-87850000D03*
X146100000Y-87850000D03*
%TO.P,SW5,2,B*%
%TO.N,+5V*%
X139600000Y-92350000D03*
X146100000Y-92350000D03*
%TD*%
D10*
%TO.P,J6,1,Pin_1*%
%TO.N,GND*%
X120351668Y-77038332D03*
D11*
%TO.P,J6,2,Pin_2*%
%TO.N,+5V*%
X117811668Y-77038332D03*
%TO.P,J6,3,Pin_3*%
%TO.N,/I2C_SCL*%
X115271668Y-77038332D03*
%TO.P,J6,4,Pin_4*%
%TO.N,/I2C_SDA*%
X112731668Y-77038332D03*
%TD*%
D17*
%TO.P,D1,1,K*%
%TO.N,GND*%
X133510000Y-60250000D03*
D18*
%TO.P,D1,2,A*%
%TO.N,Net-(D1-A)*%
X136050000Y-60250000D03*
%TD*%
D14*
%TO.P,SW2,1,A*%
%TO.N,/button_cal*%
X152550000Y-63700000D03*
X159050000Y-63700000D03*
%TO.P,SW2,2,B*%
%TO.N,+5V*%
X152550000Y-68200000D03*
X159050000Y-68200000D03*
%TD*%
D12*
%TO.P,R5,1*%
%TO.N,/button_light*%
X163250000Y-79470000D03*
D13*
%TO.P,R5,2*%
%TO.N,GND*%
X163250000Y-89630000D03*
%TD*%
D14*
%TO.P,SW4,1,A*%
%TO.N,/button_on{slash}off*%
X135750000Y-69550000D03*
X142250000Y-69550000D03*
%TO.P,SW4,2,B*%
%TO.N,+5V*%
X135750000Y-74050000D03*
X142250000Y-74050000D03*
%TD*%
D19*
%TO.P,RV1,1,1*%
%TO.N,+5V*%
X153110000Y-87815000D03*
%TO.P,RV1,2,2*%
%TO.N,/Temp_sensor*%
X155650000Y-90355000D03*
%TO.P,RV1,3,3*%
%TO.N,GND*%
X158190000Y-87815000D03*
%TD*%
D14*
%TO.P,SW3,1,A*%
%TO.N,/button_lock*%
X152550000Y-74450000D03*
X159050000Y-74450000D03*
%TO.P,SW3,2,B*%
%TO.N,+5V*%
X152550000Y-78950000D03*
X159050000Y-78950000D03*
%TD*%
D20*
%TO.N,/temp_digital*%
X144550000Y-54348500D02*
G75*
G02*
X143877183Y-55972807I-2297100J0D01*
G01*
X143580330Y-56269669D02*
G75*
G02*
X142300000Y-56799988I-1280330J1280369D01*
G01*
%TO.N,+5V*%
X166900000Y-74125000D02*
X166900000Y-74675000D01*
X166900000Y-74812500D02*
X166900000Y-75087500D01*
X148981250Y-91943750D02*
X148818750Y-92106250D01*
X148778125Y-92146875D02*
X148696875Y-92228125D01*
X166900000Y-66440258D02*
X166900000Y-69680085D01*
X166900000Y-70490042D02*
X166900000Y-72109956D01*
%TO.N,/temp_digital*%
X143628639Y-51172639D02*
X141656000Y-49200000D01*
X144550000Y-54348500D02*
X144550000Y-53397000D01*
X143877187Y-55972811D02*
X143580330Y-56269669D01*
X142300000Y-56800000D02*
X141550000Y-56800000D01*
X143628639Y-51172639D02*
G75*
G02*
X144550006Y-53397000I-2224339J-2224361D01*
G01*
%TO.N,+5V*%
X159425000Y-78575000D02*
G75*
G02*
X158519669Y-78949988I-905300J905300D01*
G01*
X148818750Y-92106250D02*
X148778125Y-92146875D01*
X166900000Y-74675000D02*
X166900000Y-74812500D01*
X166900000Y-69680085D02*
X166900000Y-70490042D01*
%TO.N,/Temp_sensor*%
X154852737Y-93407262D02*
G75*
G03*
X155650007Y-91482500I-1924737J1924762D01*
G01*
%TO.N,/LED_light*%
X131600000Y-51850000D02*
G75*
G03*
X130799988Y-53781370I1931400J-1931400D01*
G01*
X133563000Y-51050000D02*
G75*
G03*
X135548359Y-50227628I0J2807700D01*
G01*
X131600000Y-51850000D02*
G75*
G02*
X133531370Y-51049988I1931400J-1931400D01*
G01*
X130800000Y-64107537D02*
G75*
G03*
X131325011Y-65374989I1792500J37D01*
G01*
%TO.N,/button_cal*%
X160946619Y-63700000D02*
G75*
G02*
X162539994Y-64360006I-19J-2253400D01*
G01*
X151049999Y-51299999D02*
G75*
G03*
X150299982Y-53110660I1810701J-1810701D01*
G01*
X152003535Y-50536464D02*
G75*
G03*
X152000008Y-50545000I8565J-8536D01*
G01*
X151995000Y-50550000D02*
G75*
G03*
X152000000Y-50545000I0J5000D01*
G01*
X151729289Y-50620710D02*
G75*
G02*
X151900000Y-50549993I170711J-170690D01*
G01*
X150300000Y-59859009D02*
G75*
G03*
X151425003Y-62574997I3841000J9D01*
G01*
%TO.N,/button_unit*%
X162835000Y-52535000D02*
G75*
G02*
X161833101Y-52950001I-1001900J1001900D01*
G01*
%TO.N,/button_light*%
X146100000Y-52887350D02*
G75*
G02*
X147179985Y-50279985I3687300J50D01*
G01*
X159843792Y-81706206D02*
G75*
G02*
X155996036Y-83300010I-3847792J3847806D01*
G01*
X147600000Y-87850000D02*
G75*
G03*
X150160656Y-86789336I0J3621300D01*
G01*
X152056207Y-84893792D02*
G75*
G02*
X155903963Y-83299959I3847793J-3847708D01*
G01*
X162665000Y-79470000D02*
G75*
G03*
X161666346Y-79883661I0J-1412300D01*
G01*
%TO.N,/button_lock*%
X149700000Y-50300000D02*
G75*
G03*
X148600014Y-52955634I2655600J-2655600D01*
G01*
X149040000Y-74010000D02*
G75*
G02*
X148599981Y-72947746I1062300J1062300D01*
G01*
X150102253Y-74450000D02*
G75*
G02*
X149040013Y-74009987I47J1502300D01*
G01*
%TO.N,/button_on{slash}off*%
X135615000Y-69685000D02*
G75*
G02*
X135289081Y-69819992I-325900J325900D01*
G01*
X135615000Y-69685000D02*
G75*
G02*
X135940918Y-69550008I325900J-325900D01*
G01*
X128956000Y-64272036D02*
G75*
G03*
X130549800Y-68119784I5441600J36D01*
G01*
%TO.N,/I2C_SDA*%
X113967668Y-76093800D02*
G75*
G03*
X113913828Y-75963840I-183768J0D01*
G01*
X113806166Y-75963834D02*
G75*
G02*
X113913834Y-75963834I53834J-53833D01*
G01*
X113913833Y-75856165D02*
G75*
G03*
X113913833Y-75963835I53867J-53835D01*
G01*
X118796000Y-68720036D02*
G75*
G02*
X117202200Y-72567785I-5441600J36D01*
G01*
X113967668Y-79516988D02*
G75*
G03*
X114533824Y-80883844I1933032J-12D01*
G01*
X113913833Y-75856165D02*
X113806166Y-75963834D01*
%TO.N,/I2C_SCL*%
X116507668Y-79516988D02*
G75*
G03*
X117073824Y-80883844I1933032J-12D01*
G01*
X116507668Y-76080265D02*
G75*
G03*
X116456317Y-75956351I-175268J-35D01*
G01*
X119742207Y-72567792D02*
G75*
G03*
X121336010Y-68720036I-3847807J3847792D01*
G01*
X116456334Y-75956334D02*
G75*
G03*
X116353666Y-75956334I-51334J-51331D01*
G01*
X116456334Y-75956334D02*
G75*
G02*
X116456334Y-75853666I51366J51334D01*
G01*
X116353666Y-75956334D02*
X116456334Y-75853666D01*
%TO.N,+5V*%
X165306207Y-60156207D02*
G75*
G02*
X166900011Y-64003963I-3847807J-3847793D01*
G01*
X143356207Y-61106207D02*
G75*
G02*
X144950011Y-64953963I-3847807J-3847793D01*
G01*
X143600000Y-72700000D02*
G75*
G03*
X144950005Y-69440811I-3259200J3259200D01*
G01*
X164793792Y-83706206D02*
G75*
G02*
X160946036Y-85300010I-3847792J3847806D01*
G01*
X165350000Y-69750000D02*
G75*
G03*
X161607968Y-68200013I-3742000J-3742000D01*
G01*
X159800000Y-78200000D02*
G75*
G02*
X161610660Y-77449954I1810700J-1810600D01*
G01*
X165754548Y-70154548D02*
G75*
G02*
X166899995Y-72919913I-2765348J-2765352D01*
G01*
X124210000Y-81450000D02*
G75*
G02*
X126753594Y-82503584I0J-3597200D01*
G01*
X138850000Y-93100000D02*
G75*
G02*
X140660660Y-92349954I1810700J-1810600D01*
G01*
X166705545Y-75694454D02*
G75*
G03*
X166900002Y-75225000I-469445J469454D01*
G01*
X166900000Y-75775000D02*
G75*
G03*
X166705556Y-75694465I-113900J0D01*
G01*
X132850000Y-76150000D02*
G75*
G03*
X131484308Y-76715679I0J-1931400D01*
G01*
X160775000Y-57450000D02*
G75*
G02*
X163890461Y-58740477I0J-4405900D01*
G01*
X124735000Y-81450000D02*
G75*
G03*
X128174812Y-80025171I0J4864600D01*
G01*
X132850000Y-76150000D02*
G75*
G03*
X134215692Y-75584321I0J1931400D01*
G01*
X165306207Y-83193792D02*
G75*
G03*
X166900010Y-79346036I-3847807J3847792D01*
G01*
X154367500Y-86557500D02*
G75*
G02*
X157403373Y-85299989I3035900J-3035900D01*
G01*
X138100000Y-94910660D02*
G75*
G03*
X137349988Y-93100012I-2560700J-40D01*
G01*
X138850000Y-93100000D02*
G75*
G03*
X138099954Y-94910660I1810600J-1810700D01*
G01*
X138850000Y-93100000D02*
G75*
G02*
X137350000Y-93100000I-750000J750001D01*
G01*
X165925000Y-76475000D02*
G75*
G02*
X163571141Y-77450017I-2353900J2353900D01*
G01*
X148656250Y-92268750D02*
G75*
G02*
X148460095Y-92349998I-196150J196150D01*
G01*
X166900000Y-72109956D02*
X166900000Y-72919913D01*
X166900000Y-75087500D02*
X166900000Y-75225000D01*
X166900000Y-75775000D02*
X166900000Y-75225000D01*
X148656250Y-92268750D02*
X148696875Y-92228125D01*
%TO.N,/button_cal*%
X152550000Y-63700000D02*
X151425000Y-62575000D01*
X150300000Y-53110660D02*
X150300000Y-59859009D01*
X151049999Y-51299999D02*
X151729289Y-50620710D01*
X151900000Y-50550000D02*
X151995000Y-50550000D01*
X152003535Y-50536464D02*
X153340000Y-49200000D01*
%TO.N,+5V*%
X128174820Y-80025179D02*
X131484314Y-76715685D01*
X134215685Y-75584314D02*
X135750000Y-74050000D01*
X124735000Y-81450000D02*
X122720000Y-81450000D01*
X124210000Y-81450000D02*
X122720000Y-81450000D01*
X126753589Y-82503589D02*
X137350000Y-93100000D01*
%TO.N,/button_on{slash}off*%
X128956000Y-64272036D02*
X128956000Y-49200000D01*
X132250000Y-69820000D02*
X130549792Y-68119792D01*
X135289081Y-69820000D02*
X132250000Y-69820000D01*
%TO.N,+5V*%
X166900000Y-64003963D02*
X166900000Y-66440258D01*
X160775000Y-57450000D02*
X158950000Y-57450000D01*
X165306207Y-60156207D02*
X163890469Y-58740469D01*
X165925000Y-76475000D02*
X166705545Y-75694454D01*
X163571141Y-77450000D02*
X161610660Y-77450000D01*
X159425000Y-78575000D02*
X159800000Y-78200000D01*
X166900000Y-75775000D02*
X166900000Y-79346036D01*
X164793792Y-83706206D02*
X165306207Y-83193792D01*
X160946036Y-85300000D02*
X157403373Y-85300000D01*
X154367500Y-86557500D02*
X153110000Y-87815000D01*
%TO.N,/button_light*%
X155996036Y-83300000D02*
X155903963Y-83300000D01*
X152056207Y-84893792D02*
X150160659Y-86789339D01*
X162665000Y-79470000D02*
X163250000Y-79470000D01*
X147600000Y-87850000D02*
X146100000Y-87850000D01*
X159843792Y-81706206D02*
X161666342Y-79883657D01*
%TO.N,+5V*%
X166900000Y-74125000D02*
X166900000Y-72919913D01*
%TO.N,/Temp_sensor*%
X154852737Y-93407262D02*
X150800000Y-97460000D01*
X155650000Y-91482500D02*
X155650000Y-90355000D01*
%TO.N,/button_lock*%
X149700000Y-50300000D02*
X150800000Y-49200000D01*
X148600000Y-52955634D02*
X148600000Y-72947746D01*
%TO.N,+5V*%
X158950000Y-57450000D02*
X152450000Y-57450000D01*
%TO.N,/button_unit*%
X158950000Y-52950000D02*
X152450000Y-52950000D01*
X158950000Y-52270000D02*
X155880000Y-49200000D01*
X162835000Y-52535000D02*
X163250000Y-52120000D01*
X161833101Y-52950000D02*
X158950000Y-52950000D01*
%TO.N,/button_cal*%
X162540000Y-64360000D02*
X163200000Y-65020000D01*
X160946619Y-63700000D02*
X159050000Y-63700000D01*
X159050000Y-63700000D02*
X152550000Y-63700000D01*
%TO.N,+5V*%
X159050000Y-68200000D02*
X152550000Y-68200000D01*
%TO.N,/button_lock*%
X150102253Y-74450000D02*
X152550000Y-74450000D01*
X152550000Y-74450000D02*
X159050000Y-74450000D01*
%TO.N,+5V*%
X158519669Y-78950000D02*
X152550000Y-78950000D01*
X165754548Y-70154548D02*
X165350000Y-69750000D01*
X159050000Y-68200000D02*
X161607968Y-68200000D01*
X148981250Y-91943750D02*
X153110000Y-87815000D01*
X148460095Y-92350000D02*
X146100000Y-92350000D01*
%TO.N,/button_light*%
X147180000Y-50280000D02*
X148260000Y-49200000D01*
X146100000Y-52887350D02*
X146100000Y-87850000D01*
%TO.N,Net-(D1-A)*%
X142010000Y-65900000D02*
X136360000Y-60250000D01*
%TO.N,+5V*%
X143356207Y-61106207D02*
X141550000Y-59300000D01*
X143600000Y-72700000D02*
X142250000Y-74050000D01*
X144950000Y-69440811D02*
X144950000Y-64953963D01*
X138100000Y-94910660D02*
X138100000Y-97460000D01*
X140660660Y-92350000D02*
X146100000Y-92350000D01*
X142250000Y-74050000D02*
X135750000Y-74050000D01*
X117811668Y-77038332D02*
X122223336Y-81450000D01*
%TO.N,/I2C_SCL*%
X116353666Y-75956334D02*
X115271668Y-77038332D01*
X117073834Y-80883834D02*
X117640000Y-81450000D01*
X119742207Y-72567792D02*
X116456334Y-75853666D01*
X116507668Y-79516988D02*
X116507668Y-76080265D01*
X121336000Y-68720036D02*
X121336000Y-49200000D01*
%TO.N,/I2C_SDA*%
X113967668Y-76093800D02*
X113967668Y-79516988D01*
X113806166Y-75963834D02*
X112731668Y-77038332D01*
X114533834Y-80883834D02*
X115100000Y-81450000D01*
X113913833Y-75856165D02*
X117202207Y-72567792D01*
X118796000Y-68720036D02*
X118796000Y-49200000D01*
%TO.N,/button_on{slash}off*%
X135940918Y-69550000D02*
X142250000Y-69550000D01*
%TO.N,/button_light*%
X146100000Y-87850000D02*
X139600000Y-87850000D01*
%TO.N,/LED_light*%
X131325000Y-65375000D02*
X131850000Y-65900000D01*
X130800000Y-53781370D02*
X130800000Y-64107537D01*
X135548365Y-50227634D02*
X136576000Y-49200000D01*
X133531370Y-51050000D02*
X133563000Y-51050000D01*
%TD*%
M02*
