M48
; DRILL file {KiCad 8.0.8} date 2025-02-03T17:03:33-0700
; FORMAT={-:-/ absolute / inch / decimal}
; #@! TF.CreationDate,2025-02-03T17:03:33-07:00
; #@! TF.GenerationSoftware,Kicad,Pcbnew,8.0.8
; #@! TF.FileFunction,Plated,1,2,PTH
FMAT,2
INCH
; #@! TA.AperFunction,Plated,PTH,ComponentDrill
T1C0.0315
; #@! TA.AperFunction,Plated,PTH,ComponentDrill
T2C0.0354
; #@! TA.AperFunction,Plated,PTH,ComponentDrill
T3C0.0374
; #@! TA.AperFunction,Plated,PTH,ComponentDrill
T4C0.0394
; #@! TA.AperFunction,Plated,PTH,ComponentDrill
T5C0.0433
%
G90
G05
T1
X5.1909Y-2.5945
X5.2067Y-2.7488
X5.2067Y-3.1488
X5.5909Y-2.5945
X5.8504Y-2.8965
X5.8504Y-3.2965
X6.028Y-3.4573
X6.128Y-3.5573
X6.228Y-3.4573
X6.4252Y-2.5677
X6.4252Y-2.9677
X6.4272Y-2.052
X6.4272Y-2.452
X6.4272Y-3.1287
X6.4272Y-3.5287
T2
X5.2563Y-2.372
X5.3563Y-2.372
T3
X5.5728Y-2.1378
X5.5728Y-2.2362
X5.5728Y-2.3346
T4
X4.1315Y-3.2067
X4.2315Y-3.2067
X4.3315Y-3.2067
X4.4315Y-3.2067
X4.4383Y-3.033
X4.5315Y-3.2067
X4.5383Y-3.033
X4.6315Y-3.2067
X4.6383Y-3.033
X4.677Y-1.937
X4.7315Y-3.2067
X4.7383Y-3.033
X4.777Y-1.937
X4.8315Y-3.2067
X4.877Y-1.937
X4.977Y-1.937
X5.037Y-3.837
X5.077Y-1.937
X5.137Y-3.837
X5.177Y-1.937
X5.237Y-3.837
X5.277Y-1.937
X5.337Y-3.837
X5.377Y-1.937
X5.437Y-3.837
X5.477Y-1.937
X5.537Y-3.837
X5.577Y-1.937
X5.637Y-3.837
X5.737Y-1.937
X5.737Y-3.837
X5.837Y-1.937
X5.937Y-1.937
X5.937Y-3.837
X6.037Y-1.937
X6.037Y-3.837
X6.137Y-1.937
X6.137Y-3.837
X6.237Y-1.937
X6.237Y-3.837
X6.337Y-1.937
X6.337Y-3.837
X6.437Y-1.937
X6.437Y-3.837
T5
X5.3445Y-2.7382
X5.3445Y-2.9154
X5.4961Y-3.4587
X5.4961Y-3.6358
X5.6004Y-2.7382
X5.6004Y-2.9154
X5.752Y-3.4587
X5.752Y-3.6358
X6.002Y-2.0846
X6.002Y-2.2618
X6.0059Y-2.5079
X6.0059Y-2.685
X6.0059Y-2.9311
X6.0059Y-3.1083
X6.2579Y-2.0846
X6.2579Y-2.2618
X6.2618Y-2.5079
X6.2618Y-2.685
X6.2618Y-2.9311
X6.2618Y-3.1083
M30
