%TF.GenerationSoftware,KiCad,Pcbnew,8.0.8*%
%TF.CreationDate,2025-02-03T17:49:20-07:00*%
%TF.ProjectId,Thermo_Probe,54686572-6d6f-45f5-9072-6f62652e6b69,rev?*%
%TF.SameCoordinates,Original*%
%TF.FileFunction,Legend,Top*%
%TF.FilePolarity,Positive*%
%FSLAX46Y46*%
G04 Gerber Fmt 4.6, Leading zero omitted, Abs format (unit mm)*
G04 Created by KiCad (PCBNEW 8.0.8) date 2025-02-03 17:49:20*
%MOMM*%
%LPD*%
G01*
G04 APERTURE LIST*
%ADD10C,0.150000*%
%ADD11C,0.000000*%
%ADD12C,0.120000*%
G04 APERTURE END LIST*
D10*
X137027255Y-76119819D02*
X137217731Y-76119819D01*
X137217731Y-76119819D02*
X137312969Y-76167438D01*
X137312969Y-76167438D02*
X137408207Y-76262676D01*
X137408207Y-76262676D02*
X137455826Y-76453152D01*
X137455826Y-76453152D02*
X137455826Y-76786485D01*
X137455826Y-76786485D02*
X137408207Y-76976961D01*
X137408207Y-76976961D02*
X137312969Y-77072200D01*
X137312969Y-77072200D02*
X137217731Y-77119819D01*
X137217731Y-77119819D02*
X137027255Y-77119819D01*
X137027255Y-77119819D02*
X136932017Y-77072200D01*
X136932017Y-77072200D02*
X136836779Y-76976961D01*
X136836779Y-76976961D02*
X136789160Y-76786485D01*
X136789160Y-76786485D02*
X136789160Y-76453152D01*
X136789160Y-76453152D02*
X136836779Y-76262676D01*
X136836779Y-76262676D02*
X136932017Y-76167438D01*
X136932017Y-76167438D02*
X137027255Y-76119819D01*
X137884398Y-76453152D02*
X137884398Y-77119819D01*
X137884398Y-76548390D02*
X137932017Y-76500771D01*
X137932017Y-76500771D02*
X138027255Y-76453152D01*
X138027255Y-76453152D02*
X138170112Y-76453152D01*
X138170112Y-76453152D02*
X138265350Y-76500771D01*
X138265350Y-76500771D02*
X138312969Y-76596009D01*
X138312969Y-76596009D02*
X138312969Y-77119819D01*
X139503445Y-76072200D02*
X138646303Y-77357914D01*
X140027255Y-76119819D02*
X140217731Y-76119819D01*
X140217731Y-76119819D02*
X140312969Y-76167438D01*
X140312969Y-76167438D02*
X140408207Y-76262676D01*
X140408207Y-76262676D02*
X140455826Y-76453152D01*
X140455826Y-76453152D02*
X140455826Y-76786485D01*
X140455826Y-76786485D02*
X140408207Y-76976961D01*
X140408207Y-76976961D02*
X140312969Y-77072200D01*
X140312969Y-77072200D02*
X140217731Y-77119819D01*
X140217731Y-77119819D02*
X140027255Y-77119819D01*
X140027255Y-77119819D02*
X139932017Y-77072200D01*
X139932017Y-77072200D02*
X139836779Y-76976961D01*
X139836779Y-76976961D02*
X139789160Y-76786485D01*
X139789160Y-76786485D02*
X139789160Y-76453152D01*
X139789160Y-76453152D02*
X139836779Y-76262676D01*
X139836779Y-76262676D02*
X139932017Y-76167438D01*
X139932017Y-76167438D02*
X140027255Y-76119819D01*
X140741541Y-76453152D02*
X141122493Y-76453152D01*
X140884398Y-77119819D02*
X140884398Y-76262676D01*
X140884398Y-76262676D02*
X140932017Y-76167438D01*
X140932017Y-76167438D02*
X141027255Y-76119819D01*
X141027255Y-76119819D02*
X141122493Y-76119819D01*
X141312970Y-76453152D02*
X141693922Y-76453152D01*
X141455827Y-77119819D02*
X141455827Y-76262676D01*
X141455827Y-76262676D02*
X141503446Y-76167438D01*
X141503446Y-76167438D02*
X141598684Y-76119819D01*
X141598684Y-76119819D02*
X141693922Y-76119819D01*
X154636779Y-59319819D02*
X154636779Y-60129342D01*
X154636779Y-60129342D02*
X154684398Y-60224580D01*
X154684398Y-60224580D02*
X154732017Y-60272200D01*
X154732017Y-60272200D02*
X154827255Y-60319819D01*
X154827255Y-60319819D02*
X155017731Y-60319819D01*
X155017731Y-60319819D02*
X155112969Y-60272200D01*
X155112969Y-60272200D02*
X155160588Y-60224580D01*
X155160588Y-60224580D02*
X155208207Y-60129342D01*
X155208207Y-60129342D02*
X155208207Y-59319819D01*
X155684398Y-59653152D02*
X155684398Y-60319819D01*
X155684398Y-59748390D02*
X155732017Y-59700771D01*
X155732017Y-59700771D02*
X155827255Y-59653152D01*
X155827255Y-59653152D02*
X155970112Y-59653152D01*
X155970112Y-59653152D02*
X156065350Y-59700771D01*
X156065350Y-59700771D02*
X156112969Y-59796009D01*
X156112969Y-59796009D02*
X156112969Y-60319819D01*
X156589160Y-60319819D02*
X156589160Y-59653152D01*
X156589160Y-59319819D02*
X156541541Y-59367438D01*
X156541541Y-59367438D02*
X156589160Y-59415057D01*
X156589160Y-59415057D02*
X156636779Y-59367438D01*
X156636779Y-59367438D02*
X156589160Y-59319819D01*
X156589160Y-59319819D02*
X156589160Y-59415057D01*
X156922493Y-59653152D02*
X157303445Y-59653152D01*
X157065350Y-59319819D02*
X157065350Y-60176961D01*
X157065350Y-60176961D02*
X157112969Y-60272200D01*
X157112969Y-60272200D02*
X157208207Y-60319819D01*
X157208207Y-60319819D02*
X157303445Y-60319819D01*
X152658207Y-71124580D02*
X152610588Y-71172200D01*
X152610588Y-71172200D02*
X152467731Y-71219819D01*
X152467731Y-71219819D02*
X152372493Y-71219819D01*
X152372493Y-71219819D02*
X152229636Y-71172200D01*
X152229636Y-71172200D02*
X152134398Y-71076961D01*
X152134398Y-71076961D02*
X152086779Y-70981723D01*
X152086779Y-70981723D02*
X152039160Y-70791247D01*
X152039160Y-70791247D02*
X152039160Y-70648390D01*
X152039160Y-70648390D02*
X152086779Y-70457914D01*
X152086779Y-70457914D02*
X152134398Y-70362676D01*
X152134398Y-70362676D02*
X152229636Y-70267438D01*
X152229636Y-70267438D02*
X152372493Y-70219819D01*
X152372493Y-70219819D02*
X152467731Y-70219819D01*
X152467731Y-70219819D02*
X152610588Y-70267438D01*
X152610588Y-70267438D02*
X152658207Y-70315057D01*
X153515350Y-71219819D02*
X153515350Y-70696009D01*
X153515350Y-70696009D02*
X153467731Y-70600771D01*
X153467731Y-70600771D02*
X153372493Y-70553152D01*
X153372493Y-70553152D02*
X153182017Y-70553152D01*
X153182017Y-70553152D02*
X153086779Y-70600771D01*
X153515350Y-71172200D02*
X153420112Y-71219819D01*
X153420112Y-71219819D02*
X153182017Y-71219819D01*
X153182017Y-71219819D02*
X153086779Y-71172200D01*
X153086779Y-71172200D02*
X153039160Y-71076961D01*
X153039160Y-71076961D02*
X153039160Y-70981723D01*
X153039160Y-70981723D02*
X153086779Y-70886485D01*
X153086779Y-70886485D02*
X153182017Y-70838866D01*
X153182017Y-70838866D02*
X153420112Y-70838866D01*
X153420112Y-70838866D02*
X153515350Y-70791247D01*
X154134398Y-71219819D02*
X154039160Y-71172200D01*
X154039160Y-71172200D02*
X153991541Y-71076961D01*
X153991541Y-71076961D02*
X153991541Y-70219819D01*
X154515351Y-71219819D02*
X154515351Y-70553152D01*
X154515351Y-70219819D02*
X154467732Y-70267438D01*
X154467732Y-70267438D02*
X154515351Y-70315057D01*
X154515351Y-70315057D02*
X154562970Y-70267438D01*
X154562970Y-70267438D02*
X154515351Y-70219819D01*
X154515351Y-70219819D02*
X154515351Y-70315057D01*
X154991541Y-71219819D02*
X154991541Y-70219819D01*
X154991541Y-70600771D02*
X155086779Y-70553152D01*
X155086779Y-70553152D02*
X155277255Y-70553152D01*
X155277255Y-70553152D02*
X155372493Y-70600771D01*
X155372493Y-70600771D02*
X155420112Y-70648390D01*
X155420112Y-70648390D02*
X155467731Y-70743628D01*
X155467731Y-70743628D02*
X155467731Y-71029342D01*
X155467731Y-71029342D02*
X155420112Y-71124580D01*
X155420112Y-71124580D02*
X155372493Y-71172200D01*
X155372493Y-71172200D02*
X155277255Y-71219819D01*
X155277255Y-71219819D02*
X155086779Y-71219819D01*
X155086779Y-71219819D02*
X154991541Y-71172200D01*
X155896303Y-71219819D02*
X155896303Y-70553152D01*
X155896303Y-70743628D02*
X155943922Y-70648390D01*
X155943922Y-70648390D02*
X155991541Y-70600771D01*
X155991541Y-70600771D02*
X156086779Y-70553152D01*
X156086779Y-70553152D02*
X156182017Y-70553152D01*
X156943922Y-71219819D02*
X156943922Y-70696009D01*
X156943922Y-70696009D02*
X156896303Y-70600771D01*
X156896303Y-70600771D02*
X156801065Y-70553152D01*
X156801065Y-70553152D02*
X156610589Y-70553152D01*
X156610589Y-70553152D02*
X156515351Y-70600771D01*
X156943922Y-71172200D02*
X156848684Y-71219819D01*
X156848684Y-71219819D02*
X156610589Y-71219819D01*
X156610589Y-71219819D02*
X156515351Y-71172200D01*
X156515351Y-71172200D02*
X156467732Y-71076961D01*
X156467732Y-71076961D02*
X156467732Y-70981723D01*
X156467732Y-70981723D02*
X156515351Y-70886485D01*
X156515351Y-70886485D02*
X156610589Y-70838866D01*
X156610589Y-70838866D02*
X156848684Y-70838866D01*
X156848684Y-70838866D02*
X156943922Y-70791247D01*
X157277256Y-70553152D02*
X157658208Y-70553152D01*
X157420113Y-70219819D02*
X157420113Y-71076961D01*
X157420113Y-71076961D02*
X157467732Y-71172200D01*
X157467732Y-71172200D02*
X157562970Y-71219819D01*
X157562970Y-71219819D02*
X157658208Y-71219819D01*
X157991542Y-71219819D02*
X157991542Y-70553152D01*
X157991542Y-70219819D02*
X157943923Y-70267438D01*
X157943923Y-70267438D02*
X157991542Y-70315057D01*
X157991542Y-70315057D02*
X158039161Y-70267438D01*
X158039161Y-70267438D02*
X157991542Y-70219819D01*
X157991542Y-70219819D02*
X157991542Y-70315057D01*
X158610589Y-71219819D02*
X158515351Y-71172200D01*
X158515351Y-71172200D02*
X158467732Y-71124580D01*
X158467732Y-71124580D02*
X158420113Y-71029342D01*
X158420113Y-71029342D02*
X158420113Y-70743628D01*
X158420113Y-70743628D02*
X158467732Y-70648390D01*
X158467732Y-70648390D02*
X158515351Y-70600771D01*
X158515351Y-70600771D02*
X158610589Y-70553152D01*
X158610589Y-70553152D02*
X158753446Y-70553152D01*
X158753446Y-70553152D02*
X158848684Y-70600771D01*
X158848684Y-70600771D02*
X158896303Y-70648390D01*
X158896303Y-70648390D02*
X158943922Y-70743628D01*
X158943922Y-70743628D02*
X158943922Y-71029342D01*
X158943922Y-71029342D02*
X158896303Y-71124580D01*
X158896303Y-71124580D02*
X158848684Y-71172200D01*
X158848684Y-71172200D02*
X158753446Y-71219819D01*
X158753446Y-71219819D02*
X158610589Y-71219819D01*
X159372494Y-70553152D02*
X159372494Y-71219819D01*
X159372494Y-70648390D02*
X159420113Y-70600771D01*
X159420113Y-70600771D02*
X159515351Y-70553152D01*
X159515351Y-70553152D02*
X159658208Y-70553152D01*
X159658208Y-70553152D02*
X159753446Y-70600771D01*
X159753446Y-70600771D02*
X159801065Y-70696009D01*
X159801065Y-70696009D02*
X159801065Y-71219819D01*
X152220112Y-81146009D02*
X152362969Y-81193628D01*
X152362969Y-81193628D02*
X152410588Y-81241247D01*
X152410588Y-81241247D02*
X152458207Y-81336485D01*
X152458207Y-81336485D02*
X152458207Y-81479342D01*
X152458207Y-81479342D02*
X152410588Y-81574580D01*
X152410588Y-81574580D02*
X152362969Y-81622200D01*
X152362969Y-81622200D02*
X152267731Y-81669819D01*
X152267731Y-81669819D02*
X151886779Y-81669819D01*
X151886779Y-81669819D02*
X151886779Y-80669819D01*
X151886779Y-80669819D02*
X152220112Y-80669819D01*
X152220112Y-80669819D02*
X152315350Y-80717438D01*
X152315350Y-80717438D02*
X152362969Y-80765057D01*
X152362969Y-80765057D02*
X152410588Y-80860295D01*
X152410588Y-80860295D02*
X152410588Y-80955533D01*
X152410588Y-80955533D02*
X152362969Y-81050771D01*
X152362969Y-81050771D02*
X152315350Y-81098390D01*
X152315350Y-81098390D02*
X152220112Y-81146009D01*
X152220112Y-81146009D02*
X151886779Y-81146009D01*
X153029636Y-81669819D02*
X152934398Y-81622200D01*
X152934398Y-81622200D02*
X152886779Y-81574580D01*
X152886779Y-81574580D02*
X152839160Y-81479342D01*
X152839160Y-81479342D02*
X152839160Y-81193628D01*
X152839160Y-81193628D02*
X152886779Y-81098390D01*
X152886779Y-81098390D02*
X152934398Y-81050771D01*
X152934398Y-81050771D02*
X153029636Y-81003152D01*
X153029636Y-81003152D02*
X153172493Y-81003152D01*
X153172493Y-81003152D02*
X153267731Y-81050771D01*
X153267731Y-81050771D02*
X153315350Y-81098390D01*
X153315350Y-81098390D02*
X153362969Y-81193628D01*
X153362969Y-81193628D02*
X153362969Y-81479342D01*
X153362969Y-81479342D02*
X153315350Y-81574580D01*
X153315350Y-81574580D02*
X153267731Y-81622200D01*
X153267731Y-81622200D02*
X153172493Y-81669819D01*
X153172493Y-81669819D02*
X153029636Y-81669819D01*
X153648684Y-81003152D02*
X154029636Y-81003152D01*
X153791541Y-80669819D02*
X153791541Y-81526961D01*
X153791541Y-81526961D02*
X153839160Y-81622200D01*
X153839160Y-81622200D02*
X153934398Y-81669819D01*
X153934398Y-81669819D02*
X154029636Y-81669819D01*
X154220113Y-81003152D02*
X154601065Y-81003152D01*
X154362970Y-80669819D02*
X154362970Y-81526961D01*
X154362970Y-81526961D02*
X154410589Y-81622200D01*
X154410589Y-81622200D02*
X154505827Y-81669819D01*
X154505827Y-81669819D02*
X154601065Y-81669819D01*
X155077256Y-81669819D02*
X154982018Y-81622200D01*
X154982018Y-81622200D02*
X154934399Y-81574580D01*
X154934399Y-81574580D02*
X154886780Y-81479342D01*
X154886780Y-81479342D02*
X154886780Y-81193628D01*
X154886780Y-81193628D02*
X154934399Y-81098390D01*
X154934399Y-81098390D02*
X154982018Y-81050771D01*
X154982018Y-81050771D02*
X155077256Y-81003152D01*
X155077256Y-81003152D02*
X155220113Y-81003152D01*
X155220113Y-81003152D02*
X155315351Y-81050771D01*
X155315351Y-81050771D02*
X155362970Y-81098390D01*
X155362970Y-81098390D02*
X155410589Y-81193628D01*
X155410589Y-81193628D02*
X155410589Y-81479342D01*
X155410589Y-81479342D02*
X155362970Y-81574580D01*
X155362970Y-81574580D02*
X155315351Y-81622200D01*
X155315351Y-81622200D02*
X155220113Y-81669819D01*
X155220113Y-81669819D02*
X155077256Y-81669819D01*
X155839161Y-81003152D02*
X155839161Y-81669819D01*
X155839161Y-81098390D02*
X155886780Y-81050771D01*
X155886780Y-81050771D02*
X155982018Y-81003152D01*
X155982018Y-81003152D02*
X156124875Y-81003152D01*
X156124875Y-81003152D02*
X156220113Y-81050771D01*
X156220113Y-81050771D02*
X156267732Y-81146009D01*
X156267732Y-81146009D02*
X156267732Y-81669819D01*
X157982018Y-81669819D02*
X157505828Y-81669819D01*
X157505828Y-81669819D02*
X157505828Y-80669819D01*
X158458209Y-81669819D02*
X158362971Y-81622200D01*
X158362971Y-81622200D02*
X158315352Y-81574580D01*
X158315352Y-81574580D02*
X158267733Y-81479342D01*
X158267733Y-81479342D02*
X158267733Y-81193628D01*
X158267733Y-81193628D02*
X158315352Y-81098390D01*
X158315352Y-81098390D02*
X158362971Y-81050771D01*
X158362971Y-81050771D02*
X158458209Y-81003152D01*
X158458209Y-81003152D02*
X158601066Y-81003152D01*
X158601066Y-81003152D02*
X158696304Y-81050771D01*
X158696304Y-81050771D02*
X158743923Y-81098390D01*
X158743923Y-81098390D02*
X158791542Y-81193628D01*
X158791542Y-81193628D02*
X158791542Y-81479342D01*
X158791542Y-81479342D02*
X158743923Y-81574580D01*
X158743923Y-81574580D02*
X158696304Y-81622200D01*
X158696304Y-81622200D02*
X158601066Y-81669819D01*
X158601066Y-81669819D02*
X158458209Y-81669819D01*
X159648685Y-81622200D02*
X159553447Y-81669819D01*
X159553447Y-81669819D02*
X159362971Y-81669819D01*
X159362971Y-81669819D02*
X159267733Y-81622200D01*
X159267733Y-81622200D02*
X159220114Y-81574580D01*
X159220114Y-81574580D02*
X159172495Y-81479342D01*
X159172495Y-81479342D02*
X159172495Y-81193628D01*
X159172495Y-81193628D02*
X159220114Y-81098390D01*
X159220114Y-81098390D02*
X159267733Y-81050771D01*
X159267733Y-81050771D02*
X159362971Y-81003152D01*
X159362971Y-81003152D02*
X159553447Y-81003152D01*
X159553447Y-81003152D02*
X159648685Y-81050771D01*
X160077257Y-81669819D02*
X160077257Y-80669819D01*
X160172495Y-81288866D02*
X160458209Y-81669819D01*
X160458209Y-81003152D02*
X160077257Y-81384104D01*
X150489160Y-94584104D02*
X150965350Y-94584104D01*
X150393922Y-94869819D02*
X150727255Y-93869819D01*
X150727255Y-93869819D02*
X151060588Y-94869819D01*
X151393922Y-94203152D02*
X151393922Y-94869819D01*
X151393922Y-94298390D02*
X151441541Y-94250771D01*
X151441541Y-94250771D02*
X151536779Y-94203152D01*
X151536779Y-94203152D02*
X151679636Y-94203152D01*
X151679636Y-94203152D02*
X151774874Y-94250771D01*
X151774874Y-94250771D02*
X151822493Y-94346009D01*
X151822493Y-94346009D02*
X151822493Y-94869819D01*
X152727255Y-94869819D02*
X152727255Y-94346009D01*
X152727255Y-94346009D02*
X152679636Y-94250771D01*
X152679636Y-94250771D02*
X152584398Y-94203152D01*
X152584398Y-94203152D02*
X152393922Y-94203152D01*
X152393922Y-94203152D02*
X152298684Y-94250771D01*
X152727255Y-94822200D02*
X152632017Y-94869819D01*
X152632017Y-94869819D02*
X152393922Y-94869819D01*
X152393922Y-94869819D02*
X152298684Y-94822200D01*
X152298684Y-94822200D02*
X152251065Y-94726961D01*
X152251065Y-94726961D02*
X152251065Y-94631723D01*
X152251065Y-94631723D02*
X152298684Y-94536485D01*
X152298684Y-94536485D02*
X152393922Y-94488866D01*
X152393922Y-94488866D02*
X152632017Y-94488866D01*
X152632017Y-94488866D02*
X152727255Y-94441247D01*
X153346303Y-94869819D02*
X153251065Y-94822200D01*
X153251065Y-94822200D02*
X153203446Y-94726961D01*
X153203446Y-94726961D02*
X153203446Y-93869819D01*
X153870113Y-94869819D02*
X153774875Y-94822200D01*
X153774875Y-94822200D02*
X153727256Y-94774580D01*
X153727256Y-94774580D02*
X153679637Y-94679342D01*
X153679637Y-94679342D02*
X153679637Y-94393628D01*
X153679637Y-94393628D02*
X153727256Y-94298390D01*
X153727256Y-94298390D02*
X153774875Y-94250771D01*
X153774875Y-94250771D02*
X153870113Y-94203152D01*
X153870113Y-94203152D02*
X154012970Y-94203152D01*
X154012970Y-94203152D02*
X154108208Y-94250771D01*
X154108208Y-94250771D02*
X154155827Y-94298390D01*
X154155827Y-94298390D02*
X154203446Y-94393628D01*
X154203446Y-94393628D02*
X154203446Y-94679342D01*
X154203446Y-94679342D02*
X154155827Y-94774580D01*
X154155827Y-94774580D02*
X154108208Y-94822200D01*
X154108208Y-94822200D02*
X154012970Y-94869819D01*
X154012970Y-94869819D02*
X153870113Y-94869819D01*
X155060589Y-94203152D02*
X155060589Y-95012676D01*
X155060589Y-95012676D02*
X155012970Y-95107914D01*
X155012970Y-95107914D02*
X154965351Y-95155533D01*
X154965351Y-95155533D02*
X154870113Y-95203152D01*
X154870113Y-95203152D02*
X154727256Y-95203152D01*
X154727256Y-95203152D02*
X154632018Y-95155533D01*
X155060589Y-94822200D02*
X154965351Y-94869819D01*
X154965351Y-94869819D02*
X154774875Y-94869819D01*
X154774875Y-94869819D02*
X154679637Y-94822200D01*
X154679637Y-94822200D02*
X154632018Y-94774580D01*
X154632018Y-94774580D02*
X154584399Y-94679342D01*
X154584399Y-94679342D02*
X154584399Y-94393628D01*
X154584399Y-94393628D02*
X154632018Y-94298390D01*
X154632018Y-94298390D02*
X154679637Y-94250771D01*
X154679637Y-94250771D02*
X154774875Y-94203152D01*
X154774875Y-94203152D02*
X154965351Y-94203152D01*
X154965351Y-94203152D02*
X155060589Y-94250771D01*
X156251066Y-94822200D02*
X156393923Y-94869819D01*
X156393923Y-94869819D02*
X156632018Y-94869819D01*
X156632018Y-94869819D02*
X156727256Y-94822200D01*
X156727256Y-94822200D02*
X156774875Y-94774580D01*
X156774875Y-94774580D02*
X156822494Y-94679342D01*
X156822494Y-94679342D02*
X156822494Y-94584104D01*
X156822494Y-94584104D02*
X156774875Y-94488866D01*
X156774875Y-94488866D02*
X156727256Y-94441247D01*
X156727256Y-94441247D02*
X156632018Y-94393628D01*
X156632018Y-94393628D02*
X156441542Y-94346009D01*
X156441542Y-94346009D02*
X156346304Y-94298390D01*
X156346304Y-94298390D02*
X156298685Y-94250771D01*
X156298685Y-94250771D02*
X156251066Y-94155533D01*
X156251066Y-94155533D02*
X156251066Y-94060295D01*
X156251066Y-94060295D02*
X156298685Y-93965057D01*
X156298685Y-93965057D02*
X156346304Y-93917438D01*
X156346304Y-93917438D02*
X156441542Y-93869819D01*
X156441542Y-93869819D02*
X156679637Y-93869819D01*
X156679637Y-93869819D02*
X156822494Y-93917438D01*
X157632018Y-94822200D02*
X157536780Y-94869819D01*
X157536780Y-94869819D02*
X157346304Y-94869819D01*
X157346304Y-94869819D02*
X157251066Y-94822200D01*
X157251066Y-94822200D02*
X157203447Y-94726961D01*
X157203447Y-94726961D02*
X157203447Y-94346009D01*
X157203447Y-94346009D02*
X157251066Y-94250771D01*
X157251066Y-94250771D02*
X157346304Y-94203152D01*
X157346304Y-94203152D02*
X157536780Y-94203152D01*
X157536780Y-94203152D02*
X157632018Y-94250771D01*
X157632018Y-94250771D02*
X157679637Y-94346009D01*
X157679637Y-94346009D02*
X157679637Y-94441247D01*
X157679637Y-94441247D02*
X157203447Y-94536485D01*
X158108209Y-94203152D02*
X158108209Y-94869819D01*
X158108209Y-94298390D02*
X158155828Y-94250771D01*
X158155828Y-94250771D02*
X158251066Y-94203152D01*
X158251066Y-94203152D02*
X158393923Y-94203152D01*
X158393923Y-94203152D02*
X158489161Y-94250771D01*
X158489161Y-94250771D02*
X158536780Y-94346009D01*
X158536780Y-94346009D02*
X158536780Y-94869819D01*
X158965352Y-94822200D02*
X159060590Y-94869819D01*
X159060590Y-94869819D02*
X159251066Y-94869819D01*
X159251066Y-94869819D02*
X159346304Y-94822200D01*
X159346304Y-94822200D02*
X159393923Y-94726961D01*
X159393923Y-94726961D02*
X159393923Y-94679342D01*
X159393923Y-94679342D02*
X159346304Y-94584104D01*
X159346304Y-94584104D02*
X159251066Y-94536485D01*
X159251066Y-94536485D02*
X159108209Y-94536485D01*
X159108209Y-94536485D02*
X159012971Y-94488866D01*
X159012971Y-94488866D02*
X158965352Y-94393628D01*
X158965352Y-94393628D02*
X158965352Y-94346009D01*
X158965352Y-94346009D02*
X159012971Y-94250771D01*
X159012971Y-94250771D02*
X159108209Y-94203152D01*
X159108209Y-94203152D02*
X159251066Y-94203152D01*
X159251066Y-94203152D02*
X159346304Y-94250771D01*
X159965352Y-94869819D02*
X159870114Y-94822200D01*
X159870114Y-94822200D02*
X159822495Y-94774580D01*
X159822495Y-94774580D02*
X159774876Y-94679342D01*
X159774876Y-94679342D02*
X159774876Y-94393628D01*
X159774876Y-94393628D02*
X159822495Y-94298390D01*
X159822495Y-94298390D02*
X159870114Y-94250771D01*
X159870114Y-94250771D02*
X159965352Y-94203152D01*
X159965352Y-94203152D02*
X160108209Y-94203152D01*
X160108209Y-94203152D02*
X160203447Y-94250771D01*
X160203447Y-94250771D02*
X160251066Y-94298390D01*
X160251066Y-94298390D02*
X160298685Y-94393628D01*
X160298685Y-94393628D02*
X160298685Y-94679342D01*
X160298685Y-94679342D02*
X160251066Y-94774580D01*
X160251066Y-94774580D02*
X160203447Y-94822200D01*
X160203447Y-94822200D02*
X160108209Y-94869819D01*
X160108209Y-94869819D02*
X159965352Y-94869819D01*
X160727257Y-94869819D02*
X160727257Y-94203152D01*
X160727257Y-94393628D02*
X160774876Y-94298390D01*
X160774876Y-94298390D02*
X160822495Y-94250771D01*
X160822495Y-94250771D02*
X160917733Y-94203152D01*
X160917733Y-94203152D02*
X161012971Y-94203152D01*
X124043922Y-82099931D02*
X124377255Y-83099931D01*
X124377255Y-83099931D02*
X124710588Y-82099931D01*
X125424874Y-83052312D02*
X125329636Y-83099931D01*
X125329636Y-83099931D02*
X125139160Y-83099931D01*
X125139160Y-83099931D02*
X125043922Y-83052312D01*
X125043922Y-83052312D02*
X124996303Y-82957073D01*
X124996303Y-82957073D02*
X124996303Y-82576121D01*
X124996303Y-82576121D02*
X125043922Y-82480883D01*
X125043922Y-82480883D02*
X125139160Y-82433264D01*
X125139160Y-82433264D02*
X125329636Y-82433264D01*
X125329636Y-82433264D02*
X125424874Y-82480883D01*
X125424874Y-82480883D02*
X125472493Y-82576121D01*
X125472493Y-82576121D02*
X125472493Y-82671359D01*
X125472493Y-82671359D02*
X124996303Y-82766597D01*
X125901065Y-83099931D02*
X125901065Y-82433264D01*
X125901065Y-82623740D02*
X125948684Y-82528502D01*
X125948684Y-82528502D02*
X125996303Y-82480883D01*
X125996303Y-82480883D02*
X126091541Y-82433264D01*
X126091541Y-82433264D02*
X126186779Y-82433264D01*
X126472494Y-83052312D02*
X126567732Y-83099931D01*
X126567732Y-83099931D02*
X126758208Y-83099931D01*
X126758208Y-83099931D02*
X126853446Y-83052312D01*
X126853446Y-83052312D02*
X126901065Y-82957073D01*
X126901065Y-82957073D02*
X126901065Y-82909454D01*
X126901065Y-82909454D02*
X126853446Y-82814216D01*
X126853446Y-82814216D02*
X126758208Y-82766597D01*
X126758208Y-82766597D02*
X126615351Y-82766597D01*
X126615351Y-82766597D02*
X126520113Y-82718978D01*
X126520113Y-82718978D02*
X126472494Y-82623740D01*
X126472494Y-82623740D02*
X126472494Y-82576121D01*
X126472494Y-82576121D02*
X126520113Y-82480883D01*
X126520113Y-82480883D02*
X126615351Y-82433264D01*
X126615351Y-82433264D02*
X126758208Y-82433264D01*
X126758208Y-82433264D02*
X126853446Y-82480883D01*
X127329637Y-83099931D02*
X127329637Y-82433264D01*
X127329637Y-82099931D02*
X127282018Y-82147550D01*
X127282018Y-82147550D02*
X127329637Y-82195169D01*
X127329637Y-82195169D02*
X127377256Y-82147550D01*
X127377256Y-82147550D02*
X127329637Y-82099931D01*
X127329637Y-82099931D02*
X127329637Y-82195169D01*
X127948684Y-83099931D02*
X127853446Y-83052312D01*
X127853446Y-83052312D02*
X127805827Y-83004692D01*
X127805827Y-83004692D02*
X127758208Y-82909454D01*
X127758208Y-82909454D02*
X127758208Y-82623740D01*
X127758208Y-82623740D02*
X127805827Y-82528502D01*
X127805827Y-82528502D02*
X127853446Y-82480883D01*
X127853446Y-82480883D02*
X127948684Y-82433264D01*
X127948684Y-82433264D02*
X128091541Y-82433264D01*
X128091541Y-82433264D02*
X128186779Y-82480883D01*
X128186779Y-82480883D02*
X128234398Y-82528502D01*
X128234398Y-82528502D02*
X128282017Y-82623740D01*
X128282017Y-82623740D02*
X128282017Y-82909454D01*
X128282017Y-82909454D02*
X128234398Y-83004692D01*
X128234398Y-83004692D02*
X128186779Y-83052312D01*
X128186779Y-83052312D02*
X128091541Y-83099931D01*
X128091541Y-83099931D02*
X127948684Y-83099931D01*
X128710589Y-82433264D02*
X128710589Y-83099931D01*
X128710589Y-82528502D02*
X128758208Y-82480883D01*
X128758208Y-82480883D02*
X128853446Y-82433264D01*
X128853446Y-82433264D02*
X128996303Y-82433264D01*
X128996303Y-82433264D02*
X129091541Y-82480883D01*
X129091541Y-82480883D02*
X129139160Y-82576121D01*
X129139160Y-82576121D02*
X129139160Y-83099931D01*
X130329637Y-82433264D02*
X131043922Y-82433264D01*
X130615351Y-82004692D02*
X130329637Y-83290407D01*
X130948684Y-82861835D02*
X130234399Y-82861835D01*
X130662970Y-83290407D02*
X130948684Y-82004692D01*
X131901065Y-83099931D02*
X131329637Y-83099931D01*
X131615351Y-83099931D02*
X131615351Y-82099931D01*
X131615351Y-82099931D02*
X131520113Y-82242788D01*
X131520113Y-82242788D02*
X131424875Y-82338026D01*
X131424875Y-82338026D02*
X131329637Y-82385645D01*
X124139160Y-84662256D02*
X124282017Y-84709875D01*
X124282017Y-84709875D02*
X124520112Y-84709875D01*
X124520112Y-84709875D02*
X124615350Y-84662256D01*
X124615350Y-84662256D02*
X124662969Y-84614636D01*
X124662969Y-84614636D02*
X124710588Y-84519398D01*
X124710588Y-84519398D02*
X124710588Y-84424160D01*
X124710588Y-84424160D02*
X124662969Y-84328922D01*
X124662969Y-84328922D02*
X124615350Y-84281303D01*
X124615350Y-84281303D02*
X124520112Y-84233684D01*
X124520112Y-84233684D02*
X124329636Y-84186065D01*
X124329636Y-84186065D02*
X124234398Y-84138446D01*
X124234398Y-84138446D02*
X124186779Y-84090827D01*
X124186779Y-84090827D02*
X124139160Y-83995589D01*
X124139160Y-83995589D02*
X124139160Y-83900351D01*
X124139160Y-83900351D02*
X124186779Y-83805113D01*
X124186779Y-83805113D02*
X124234398Y-83757494D01*
X124234398Y-83757494D02*
X124329636Y-83709875D01*
X124329636Y-83709875D02*
X124567731Y-83709875D01*
X124567731Y-83709875D02*
X124710588Y-83757494D01*
X125520112Y-84662256D02*
X125424874Y-84709875D01*
X125424874Y-84709875D02*
X125234398Y-84709875D01*
X125234398Y-84709875D02*
X125139160Y-84662256D01*
X125139160Y-84662256D02*
X125091541Y-84567017D01*
X125091541Y-84567017D02*
X125091541Y-84186065D01*
X125091541Y-84186065D02*
X125139160Y-84090827D01*
X125139160Y-84090827D02*
X125234398Y-84043208D01*
X125234398Y-84043208D02*
X125424874Y-84043208D01*
X125424874Y-84043208D02*
X125520112Y-84090827D01*
X125520112Y-84090827D02*
X125567731Y-84186065D01*
X125567731Y-84186065D02*
X125567731Y-84281303D01*
X125567731Y-84281303D02*
X125091541Y-84376541D01*
X125996303Y-84709875D02*
X125996303Y-83709875D01*
X125996303Y-84090827D02*
X126091541Y-84043208D01*
X126091541Y-84043208D02*
X126282017Y-84043208D01*
X126282017Y-84043208D02*
X126377255Y-84090827D01*
X126377255Y-84090827D02*
X126424874Y-84138446D01*
X126424874Y-84138446D02*
X126472493Y-84233684D01*
X126472493Y-84233684D02*
X126472493Y-84519398D01*
X126472493Y-84519398D02*
X126424874Y-84614636D01*
X126424874Y-84614636D02*
X126377255Y-84662256D01*
X126377255Y-84662256D02*
X126282017Y-84709875D01*
X126282017Y-84709875D02*
X126091541Y-84709875D01*
X126091541Y-84709875D02*
X125996303Y-84662256D01*
X127329636Y-84709875D02*
X127329636Y-84186065D01*
X127329636Y-84186065D02*
X127282017Y-84090827D01*
X127282017Y-84090827D02*
X127186779Y-84043208D01*
X127186779Y-84043208D02*
X126996303Y-84043208D01*
X126996303Y-84043208D02*
X126901065Y-84090827D01*
X127329636Y-84662256D02*
X127234398Y-84709875D01*
X127234398Y-84709875D02*
X126996303Y-84709875D01*
X126996303Y-84709875D02*
X126901065Y-84662256D01*
X126901065Y-84662256D02*
X126853446Y-84567017D01*
X126853446Y-84567017D02*
X126853446Y-84471779D01*
X126853446Y-84471779D02*
X126901065Y-84376541D01*
X126901065Y-84376541D02*
X126996303Y-84328922D01*
X126996303Y-84328922D02*
X127234398Y-84328922D01*
X127234398Y-84328922D02*
X127329636Y-84281303D01*
X127758208Y-84662256D02*
X127853446Y-84709875D01*
X127853446Y-84709875D02*
X128043922Y-84709875D01*
X128043922Y-84709875D02*
X128139160Y-84662256D01*
X128139160Y-84662256D02*
X128186779Y-84567017D01*
X128186779Y-84567017D02*
X128186779Y-84519398D01*
X128186779Y-84519398D02*
X128139160Y-84424160D01*
X128139160Y-84424160D02*
X128043922Y-84376541D01*
X128043922Y-84376541D02*
X127901065Y-84376541D01*
X127901065Y-84376541D02*
X127805827Y-84328922D01*
X127805827Y-84328922D02*
X127758208Y-84233684D01*
X127758208Y-84233684D02*
X127758208Y-84186065D01*
X127758208Y-84186065D02*
X127805827Y-84090827D01*
X127805827Y-84090827D02*
X127901065Y-84043208D01*
X127901065Y-84043208D02*
X128043922Y-84043208D01*
X128043922Y-84043208D02*
X128139160Y-84090827D01*
X128472494Y-84043208D02*
X128853446Y-84043208D01*
X128615351Y-83709875D02*
X128615351Y-84567017D01*
X128615351Y-84567017D02*
X128662970Y-84662256D01*
X128662970Y-84662256D02*
X128758208Y-84709875D01*
X128758208Y-84709875D02*
X128853446Y-84709875D01*
X129186780Y-84709875D02*
X129186780Y-84043208D01*
X129186780Y-83709875D02*
X129139161Y-83757494D01*
X129139161Y-83757494D02*
X129186780Y-83805113D01*
X129186780Y-83805113D02*
X129234399Y-83757494D01*
X129234399Y-83757494D02*
X129186780Y-83709875D01*
X129186780Y-83709875D02*
X129186780Y-83805113D01*
X130091541Y-84709875D02*
X130091541Y-84186065D01*
X130091541Y-84186065D02*
X130043922Y-84090827D01*
X130043922Y-84090827D02*
X129948684Y-84043208D01*
X129948684Y-84043208D02*
X129758208Y-84043208D01*
X129758208Y-84043208D02*
X129662970Y-84090827D01*
X130091541Y-84662256D02*
X129996303Y-84709875D01*
X129996303Y-84709875D02*
X129758208Y-84709875D01*
X129758208Y-84709875D02*
X129662970Y-84662256D01*
X129662970Y-84662256D02*
X129615351Y-84567017D01*
X129615351Y-84567017D02*
X129615351Y-84471779D01*
X129615351Y-84471779D02*
X129662970Y-84376541D01*
X129662970Y-84376541D02*
X129758208Y-84328922D01*
X129758208Y-84328922D02*
X129996303Y-84328922D01*
X129996303Y-84328922D02*
X130091541Y-84281303D01*
X130567732Y-84043208D02*
X130567732Y-84709875D01*
X130567732Y-84138446D02*
X130615351Y-84090827D01*
X130615351Y-84090827D02*
X130710589Y-84043208D01*
X130710589Y-84043208D02*
X130853446Y-84043208D01*
X130853446Y-84043208D02*
X130948684Y-84090827D01*
X130948684Y-84090827D02*
X130996303Y-84186065D01*
X130996303Y-84186065D02*
X130996303Y-84709875D01*
X132234399Y-84709875D02*
X132234399Y-83709875D01*
X132234399Y-83709875D02*
X132615351Y-83709875D01*
X132615351Y-83709875D02*
X132710589Y-83757494D01*
X132710589Y-83757494D02*
X132758208Y-83805113D01*
X132758208Y-83805113D02*
X132805827Y-83900351D01*
X132805827Y-83900351D02*
X132805827Y-84043208D01*
X132805827Y-84043208D02*
X132758208Y-84138446D01*
X132758208Y-84138446D02*
X132710589Y-84186065D01*
X132710589Y-84186065D02*
X132615351Y-84233684D01*
X132615351Y-84233684D02*
X132234399Y-84233684D01*
X133377256Y-84709875D02*
X133282018Y-84662256D01*
X133282018Y-84662256D02*
X133234399Y-84614636D01*
X133234399Y-84614636D02*
X133186780Y-84519398D01*
X133186780Y-84519398D02*
X133186780Y-84233684D01*
X133186780Y-84233684D02*
X133234399Y-84138446D01*
X133234399Y-84138446D02*
X133282018Y-84090827D01*
X133282018Y-84090827D02*
X133377256Y-84043208D01*
X133377256Y-84043208D02*
X133520113Y-84043208D01*
X133520113Y-84043208D02*
X133615351Y-84090827D01*
X133615351Y-84090827D02*
X133662970Y-84138446D01*
X133662970Y-84138446D02*
X133710589Y-84233684D01*
X133710589Y-84233684D02*
X133710589Y-84519398D01*
X133710589Y-84519398D02*
X133662970Y-84614636D01*
X133662970Y-84614636D02*
X133615351Y-84662256D01*
X133615351Y-84662256D02*
X133520113Y-84709875D01*
X133520113Y-84709875D02*
X133377256Y-84709875D01*
X134091542Y-84662256D02*
X134186780Y-84709875D01*
X134186780Y-84709875D02*
X134377256Y-84709875D01*
X134377256Y-84709875D02*
X134472494Y-84662256D01*
X134472494Y-84662256D02*
X134520113Y-84567017D01*
X134520113Y-84567017D02*
X134520113Y-84519398D01*
X134520113Y-84519398D02*
X134472494Y-84424160D01*
X134472494Y-84424160D02*
X134377256Y-84376541D01*
X134377256Y-84376541D02*
X134234399Y-84376541D01*
X134234399Y-84376541D02*
X134139161Y-84328922D01*
X134139161Y-84328922D02*
X134091542Y-84233684D01*
X134091542Y-84233684D02*
X134091542Y-84186065D01*
X134091542Y-84186065D02*
X134139161Y-84090827D01*
X134139161Y-84090827D02*
X134234399Y-84043208D01*
X134234399Y-84043208D02*
X134377256Y-84043208D01*
X134377256Y-84043208D02*
X134472494Y-84090827D01*
X135377256Y-84709875D02*
X135377256Y-84186065D01*
X135377256Y-84186065D02*
X135329637Y-84090827D01*
X135329637Y-84090827D02*
X135234399Y-84043208D01*
X135234399Y-84043208D02*
X135043923Y-84043208D01*
X135043923Y-84043208D02*
X134948685Y-84090827D01*
X135377256Y-84662256D02*
X135282018Y-84709875D01*
X135282018Y-84709875D02*
X135043923Y-84709875D01*
X135043923Y-84709875D02*
X134948685Y-84662256D01*
X134948685Y-84662256D02*
X134901066Y-84567017D01*
X134901066Y-84567017D02*
X134901066Y-84471779D01*
X134901066Y-84471779D02*
X134948685Y-84376541D01*
X134948685Y-84376541D02*
X135043923Y-84328922D01*
X135043923Y-84328922D02*
X135282018Y-84328922D01*
X135282018Y-84328922D02*
X135377256Y-84281303D01*
X136282018Y-84709875D02*
X136282018Y-83709875D01*
X136282018Y-84662256D02*
X136186780Y-84709875D01*
X136186780Y-84709875D02*
X135996304Y-84709875D01*
X135996304Y-84709875D02*
X135901066Y-84662256D01*
X135901066Y-84662256D02*
X135853447Y-84614636D01*
X135853447Y-84614636D02*
X135805828Y-84519398D01*
X135805828Y-84519398D02*
X135805828Y-84233684D01*
X135805828Y-84233684D02*
X135853447Y-84138446D01*
X135853447Y-84138446D02*
X135901066Y-84090827D01*
X135901066Y-84090827D02*
X135996304Y-84043208D01*
X135996304Y-84043208D02*
X136186780Y-84043208D01*
X136186780Y-84043208D02*
X136282018Y-84090827D01*
X137186780Y-84709875D02*
X137186780Y-84186065D01*
X137186780Y-84186065D02*
X137139161Y-84090827D01*
X137139161Y-84090827D02*
X137043923Y-84043208D01*
X137043923Y-84043208D02*
X136853447Y-84043208D01*
X136853447Y-84043208D02*
X136758209Y-84090827D01*
X137186780Y-84662256D02*
X137091542Y-84709875D01*
X137091542Y-84709875D02*
X136853447Y-84709875D01*
X136853447Y-84709875D02*
X136758209Y-84662256D01*
X136758209Y-84662256D02*
X136710590Y-84567017D01*
X136710590Y-84567017D02*
X136710590Y-84471779D01*
X136710590Y-84471779D02*
X136758209Y-84376541D01*
X136758209Y-84376541D02*
X136853447Y-84328922D01*
X136853447Y-84328922D02*
X137091542Y-84328922D01*
X137091542Y-84328922D02*
X137186780Y-84281303D01*
X124139160Y-85415057D02*
X124186779Y-85367438D01*
X124186779Y-85367438D02*
X124282017Y-85319819D01*
X124282017Y-85319819D02*
X124520112Y-85319819D01*
X124520112Y-85319819D02*
X124615350Y-85367438D01*
X124615350Y-85367438D02*
X124662969Y-85415057D01*
X124662969Y-85415057D02*
X124710588Y-85510295D01*
X124710588Y-85510295D02*
X124710588Y-85605533D01*
X124710588Y-85605533D02*
X124662969Y-85748390D01*
X124662969Y-85748390D02*
X124091541Y-86319819D01*
X124091541Y-86319819D02*
X124710588Y-86319819D01*
X125139160Y-85938866D02*
X125901065Y-85938866D01*
X126282017Y-85319819D02*
X126901064Y-85319819D01*
X126901064Y-85319819D02*
X126567731Y-85700771D01*
X126567731Y-85700771D02*
X126710588Y-85700771D01*
X126710588Y-85700771D02*
X126805826Y-85748390D01*
X126805826Y-85748390D02*
X126853445Y-85796009D01*
X126853445Y-85796009D02*
X126901064Y-85891247D01*
X126901064Y-85891247D02*
X126901064Y-86129342D01*
X126901064Y-86129342D02*
X126853445Y-86224580D01*
X126853445Y-86224580D02*
X126805826Y-86272200D01*
X126805826Y-86272200D02*
X126710588Y-86319819D01*
X126710588Y-86319819D02*
X126424874Y-86319819D01*
X126424874Y-86319819D02*
X126329636Y-86272200D01*
X126329636Y-86272200D02*
X126282017Y-86224580D01*
X127329636Y-85938866D02*
X128091541Y-85938866D01*
X128520112Y-85415057D02*
X128567731Y-85367438D01*
X128567731Y-85367438D02*
X128662969Y-85319819D01*
X128662969Y-85319819D02*
X128901064Y-85319819D01*
X128901064Y-85319819D02*
X128996302Y-85367438D01*
X128996302Y-85367438D02*
X129043921Y-85415057D01*
X129043921Y-85415057D02*
X129091540Y-85510295D01*
X129091540Y-85510295D02*
X129091540Y-85605533D01*
X129091540Y-85605533D02*
X129043921Y-85748390D01*
X129043921Y-85748390D02*
X128472493Y-86319819D01*
X128472493Y-86319819D02*
X129091540Y-86319819D01*
X129710588Y-85319819D02*
X129805826Y-85319819D01*
X129805826Y-85319819D02*
X129901064Y-85367438D01*
X129901064Y-85367438D02*
X129948683Y-85415057D01*
X129948683Y-85415057D02*
X129996302Y-85510295D01*
X129996302Y-85510295D02*
X130043921Y-85700771D01*
X130043921Y-85700771D02*
X130043921Y-85938866D01*
X130043921Y-85938866D02*
X129996302Y-86129342D01*
X129996302Y-86129342D02*
X129948683Y-86224580D01*
X129948683Y-86224580D02*
X129901064Y-86272200D01*
X129901064Y-86272200D02*
X129805826Y-86319819D01*
X129805826Y-86319819D02*
X129710588Y-86319819D01*
X129710588Y-86319819D02*
X129615350Y-86272200D01*
X129615350Y-86272200D02*
X129567731Y-86224580D01*
X129567731Y-86224580D02*
X129520112Y-86129342D01*
X129520112Y-86129342D02*
X129472493Y-85938866D01*
X129472493Y-85938866D02*
X129472493Y-85700771D01*
X129472493Y-85700771D02*
X129520112Y-85510295D01*
X129520112Y-85510295D02*
X129567731Y-85415057D01*
X129567731Y-85415057D02*
X129615350Y-85367438D01*
X129615350Y-85367438D02*
X129710588Y-85319819D01*
X130424874Y-85415057D02*
X130472493Y-85367438D01*
X130472493Y-85367438D02*
X130567731Y-85319819D01*
X130567731Y-85319819D02*
X130805826Y-85319819D01*
X130805826Y-85319819D02*
X130901064Y-85367438D01*
X130901064Y-85367438D02*
X130948683Y-85415057D01*
X130948683Y-85415057D02*
X130996302Y-85510295D01*
X130996302Y-85510295D02*
X130996302Y-85605533D01*
X130996302Y-85605533D02*
X130948683Y-85748390D01*
X130948683Y-85748390D02*
X130377255Y-86319819D01*
X130377255Y-86319819D02*
X130996302Y-86319819D01*
X131901064Y-85319819D02*
X131424874Y-85319819D01*
X131424874Y-85319819D02*
X131377255Y-85796009D01*
X131377255Y-85796009D02*
X131424874Y-85748390D01*
X131424874Y-85748390D02*
X131520112Y-85700771D01*
X131520112Y-85700771D02*
X131758207Y-85700771D01*
X131758207Y-85700771D02*
X131853445Y-85748390D01*
X131853445Y-85748390D02*
X131901064Y-85796009D01*
X131901064Y-85796009D02*
X131948683Y-85891247D01*
X131948683Y-85891247D02*
X131948683Y-86129342D01*
X131948683Y-86129342D02*
X131901064Y-86224580D01*
X131901064Y-86224580D02*
X131853445Y-86272200D01*
X131853445Y-86272200D02*
X131758207Y-86319819D01*
X131758207Y-86319819D02*
X131520112Y-86319819D01*
X131520112Y-86319819D02*
X131424874Y-86272200D01*
X131424874Y-86272200D02*
X131377255Y-86224580D01*
X130191668Y-78738332D02*
X102391668Y-78738332D01*
X102391668Y-51438332D01*
X130191668Y-51438332D01*
X130191668Y-78738332D01*
X102391668Y-51438332D02*
X112231668Y-51438332D01*
X122515000Y-94475000D02*
X102515000Y-94475000D01*
X102515000Y-79475000D01*
X122515000Y-79475000D01*
X122515000Y-94475000D01*
X163654819Y-70386666D02*
X163178628Y-70719999D01*
X163654819Y-70958094D02*
X162654819Y-70958094D01*
X162654819Y-70958094D02*
X162654819Y-70577142D01*
X162654819Y-70577142D02*
X162702438Y-70481904D01*
X162702438Y-70481904D02*
X162750057Y-70434285D01*
X162750057Y-70434285D02*
X162845295Y-70386666D01*
X162845295Y-70386666D02*
X162988152Y-70386666D01*
X162988152Y-70386666D02*
X163083390Y-70434285D01*
X163083390Y-70434285D02*
X163131009Y-70481904D01*
X163131009Y-70481904D02*
X163178628Y-70577142D01*
X163178628Y-70577142D02*
X163178628Y-70958094D01*
X162750057Y-70005713D02*
X162702438Y-69958094D01*
X162702438Y-69958094D02*
X162654819Y-69862856D01*
X162654819Y-69862856D02*
X162654819Y-69624761D01*
X162654819Y-69624761D02*
X162702438Y-69529523D01*
X162702438Y-69529523D02*
X162750057Y-69481904D01*
X162750057Y-69481904D02*
X162845295Y-69434285D01*
X162845295Y-69434285D02*
X162940533Y-69434285D01*
X162940533Y-69434285D02*
X163083390Y-69481904D01*
X163083390Y-69481904D02*
X163654819Y-70053332D01*
X163654819Y-70053332D02*
X163654819Y-69434285D01*
X154366667Y-55607200D02*
X154509524Y-55654819D01*
X154509524Y-55654819D02*
X154747619Y-55654819D01*
X154747619Y-55654819D02*
X154842857Y-55607200D01*
X154842857Y-55607200D02*
X154890476Y-55559580D01*
X154890476Y-55559580D02*
X154938095Y-55464342D01*
X154938095Y-55464342D02*
X154938095Y-55369104D01*
X154938095Y-55369104D02*
X154890476Y-55273866D01*
X154890476Y-55273866D02*
X154842857Y-55226247D01*
X154842857Y-55226247D02*
X154747619Y-55178628D01*
X154747619Y-55178628D02*
X154557143Y-55131009D01*
X154557143Y-55131009D02*
X154461905Y-55083390D01*
X154461905Y-55083390D02*
X154414286Y-55035771D01*
X154414286Y-55035771D02*
X154366667Y-54940533D01*
X154366667Y-54940533D02*
X154366667Y-54845295D01*
X154366667Y-54845295D02*
X154414286Y-54750057D01*
X154414286Y-54750057D02*
X154461905Y-54702438D01*
X154461905Y-54702438D02*
X154557143Y-54654819D01*
X154557143Y-54654819D02*
X154795238Y-54654819D01*
X154795238Y-54654819D02*
X154938095Y-54702438D01*
X155271429Y-54654819D02*
X155509524Y-55654819D01*
X155509524Y-55654819D02*
X155700000Y-54940533D01*
X155700000Y-54940533D02*
X155890476Y-55654819D01*
X155890476Y-55654819D02*
X156128572Y-54654819D01*
X157033333Y-55654819D02*
X156461905Y-55654819D01*
X156747619Y-55654819D02*
X156747619Y-54654819D01*
X156747619Y-54654819D02*
X156652381Y-54797676D01*
X156652381Y-54797676D02*
X156557143Y-54892914D01*
X156557143Y-54892914D02*
X156461905Y-54940533D01*
X132704819Y-75066666D02*
X132228628Y-75399999D01*
X132704819Y-75638094D02*
X131704819Y-75638094D01*
X131704819Y-75638094D02*
X131704819Y-75257142D01*
X131704819Y-75257142D02*
X131752438Y-75161904D01*
X131752438Y-75161904D02*
X131800057Y-75114285D01*
X131800057Y-75114285D02*
X131895295Y-75066666D01*
X131895295Y-75066666D02*
X132038152Y-75066666D01*
X132038152Y-75066666D02*
X132133390Y-75114285D01*
X132133390Y-75114285D02*
X132181009Y-75161904D01*
X132181009Y-75161904D02*
X132228628Y-75257142D01*
X132228628Y-75257142D02*
X132228628Y-75638094D01*
X132038152Y-74209523D02*
X132704819Y-74209523D01*
X131657200Y-74447618D02*
X132371485Y-74685713D01*
X132371485Y-74685713D02*
X132371485Y-74066666D01*
X149054819Y-78816666D02*
X148578628Y-79149999D01*
X149054819Y-79388094D02*
X148054819Y-79388094D01*
X148054819Y-79388094D02*
X148054819Y-79007142D01*
X148054819Y-79007142D02*
X148102438Y-78911904D01*
X148102438Y-78911904D02*
X148150057Y-78864285D01*
X148150057Y-78864285D02*
X148245295Y-78816666D01*
X148245295Y-78816666D02*
X148388152Y-78816666D01*
X148388152Y-78816666D02*
X148483390Y-78864285D01*
X148483390Y-78864285D02*
X148531009Y-78911904D01*
X148531009Y-78911904D02*
X148578628Y-79007142D01*
X148578628Y-79007142D02*
X148578628Y-79388094D01*
X148054819Y-78483332D02*
X148054819Y-77864285D01*
X148054819Y-77864285D02*
X148435771Y-78197618D01*
X148435771Y-78197618D02*
X148435771Y-78054761D01*
X148435771Y-78054761D02*
X148483390Y-77959523D01*
X148483390Y-77959523D02*
X148531009Y-77911904D01*
X148531009Y-77911904D02*
X148626247Y-77864285D01*
X148626247Y-77864285D02*
X148864342Y-77864285D01*
X148864342Y-77864285D02*
X148959580Y-77911904D01*
X148959580Y-77911904D02*
X149007200Y-77959523D01*
X149007200Y-77959523D02*
X149054819Y-78054761D01*
X149054819Y-78054761D02*
X149054819Y-78340475D01*
X149054819Y-78340475D02*
X149007200Y-78435713D01*
X149007200Y-78435713D02*
X148959580Y-78483332D01*
X143204819Y-57133333D02*
X143919104Y-57133333D01*
X143919104Y-57133333D02*
X144061961Y-57180952D01*
X144061961Y-57180952D02*
X144157200Y-57276190D01*
X144157200Y-57276190D02*
X144204819Y-57419047D01*
X144204819Y-57419047D02*
X144204819Y-57514285D01*
X143204819Y-56752380D02*
X143204819Y-56085714D01*
X143204819Y-56085714D02*
X144204819Y-56514285D01*
X163704819Y-57366666D02*
X163228628Y-57699999D01*
X163704819Y-57938094D02*
X162704819Y-57938094D01*
X162704819Y-57938094D02*
X162704819Y-57557142D01*
X162704819Y-57557142D02*
X162752438Y-57461904D01*
X162752438Y-57461904D02*
X162800057Y-57414285D01*
X162800057Y-57414285D02*
X162895295Y-57366666D01*
X162895295Y-57366666D02*
X163038152Y-57366666D01*
X163038152Y-57366666D02*
X163133390Y-57414285D01*
X163133390Y-57414285D02*
X163181009Y-57461904D01*
X163181009Y-57461904D02*
X163228628Y-57557142D01*
X163228628Y-57557142D02*
X163228628Y-57938094D01*
X163704819Y-56414285D02*
X163704819Y-56985713D01*
X163704819Y-56699999D02*
X162704819Y-56699999D01*
X162704819Y-56699999D02*
X162847676Y-56795237D01*
X162847676Y-56795237D02*
X162942914Y-56890475D01*
X162942914Y-56890475D02*
X162990533Y-56985713D01*
X136763333Y-66354819D02*
X136430000Y-65878628D01*
X136191905Y-66354819D02*
X136191905Y-65354819D01*
X136191905Y-65354819D02*
X136572857Y-65354819D01*
X136572857Y-65354819D02*
X136668095Y-65402438D01*
X136668095Y-65402438D02*
X136715714Y-65450057D01*
X136715714Y-65450057D02*
X136763333Y-65545295D01*
X136763333Y-65545295D02*
X136763333Y-65688152D01*
X136763333Y-65688152D02*
X136715714Y-65783390D01*
X136715714Y-65783390D02*
X136668095Y-65831009D01*
X136668095Y-65831009D02*
X136572857Y-65878628D01*
X136572857Y-65878628D02*
X136191905Y-65878628D01*
X137620476Y-65354819D02*
X137430000Y-65354819D01*
X137430000Y-65354819D02*
X137334762Y-65402438D01*
X137334762Y-65402438D02*
X137287143Y-65450057D01*
X137287143Y-65450057D02*
X137191905Y-65592914D01*
X137191905Y-65592914D02*
X137144286Y-65783390D01*
X137144286Y-65783390D02*
X137144286Y-66164342D01*
X137144286Y-66164342D02*
X137191905Y-66259580D01*
X137191905Y-66259580D02*
X137239524Y-66307200D01*
X137239524Y-66307200D02*
X137334762Y-66354819D01*
X137334762Y-66354819D02*
X137525238Y-66354819D01*
X137525238Y-66354819D02*
X137620476Y-66307200D01*
X137620476Y-66307200D02*
X137668095Y-66259580D01*
X137668095Y-66259580D02*
X137715714Y-66164342D01*
X137715714Y-66164342D02*
X137715714Y-65926247D01*
X137715714Y-65926247D02*
X137668095Y-65831009D01*
X137668095Y-65831009D02*
X137620476Y-65783390D01*
X137620476Y-65783390D02*
X137525238Y-65735771D01*
X137525238Y-65735771D02*
X137334762Y-65735771D01*
X137334762Y-65735771D02*
X137239524Y-65783390D01*
X137239524Y-65783390D02*
X137191905Y-65831009D01*
X137191905Y-65831009D02*
X137144286Y-65926247D01*
X141516667Y-90507200D02*
X141659524Y-90554819D01*
X141659524Y-90554819D02*
X141897619Y-90554819D01*
X141897619Y-90554819D02*
X141992857Y-90507200D01*
X141992857Y-90507200D02*
X142040476Y-90459580D01*
X142040476Y-90459580D02*
X142088095Y-90364342D01*
X142088095Y-90364342D02*
X142088095Y-90269104D01*
X142088095Y-90269104D02*
X142040476Y-90173866D01*
X142040476Y-90173866D02*
X141992857Y-90126247D01*
X141992857Y-90126247D02*
X141897619Y-90078628D01*
X141897619Y-90078628D02*
X141707143Y-90031009D01*
X141707143Y-90031009D02*
X141611905Y-89983390D01*
X141611905Y-89983390D02*
X141564286Y-89935771D01*
X141564286Y-89935771D02*
X141516667Y-89840533D01*
X141516667Y-89840533D02*
X141516667Y-89745295D01*
X141516667Y-89745295D02*
X141564286Y-89650057D01*
X141564286Y-89650057D02*
X141611905Y-89602438D01*
X141611905Y-89602438D02*
X141707143Y-89554819D01*
X141707143Y-89554819D02*
X141945238Y-89554819D01*
X141945238Y-89554819D02*
X142088095Y-89602438D01*
X142421429Y-89554819D02*
X142659524Y-90554819D01*
X142659524Y-90554819D02*
X142850000Y-89840533D01*
X142850000Y-89840533D02*
X143040476Y-90554819D01*
X143040476Y-90554819D02*
X143278572Y-89554819D01*
X144135714Y-89554819D02*
X143659524Y-89554819D01*
X143659524Y-89554819D02*
X143611905Y-90031009D01*
X143611905Y-90031009D02*
X143659524Y-89983390D01*
X143659524Y-89983390D02*
X143754762Y-89935771D01*
X143754762Y-89935771D02*
X143992857Y-89935771D01*
X143992857Y-89935771D02*
X144088095Y-89983390D01*
X144088095Y-89983390D02*
X144135714Y-90031009D01*
X144135714Y-90031009D02*
X144183333Y-90126247D01*
X144183333Y-90126247D02*
X144183333Y-90364342D01*
X144183333Y-90364342D02*
X144135714Y-90459580D01*
X144135714Y-90459580D02*
X144088095Y-90507200D01*
X144088095Y-90507200D02*
X143992857Y-90554819D01*
X143992857Y-90554819D02*
X143754762Y-90554819D01*
X143754762Y-90554819D02*
X143659524Y-90507200D01*
X143659524Y-90507200D02*
X143611905Y-90459580D01*
X108916487Y-53271665D02*
X109630772Y-53271665D01*
X109630772Y-53271665D02*
X109773629Y-53319284D01*
X109773629Y-53319284D02*
X109868868Y-53414522D01*
X109868868Y-53414522D02*
X109916487Y-53557379D01*
X109916487Y-53557379D02*
X109916487Y-53652617D01*
X108916487Y-52366903D02*
X108916487Y-52557379D01*
X108916487Y-52557379D02*
X108964106Y-52652617D01*
X108964106Y-52652617D02*
X109011725Y-52700236D01*
X109011725Y-52700236D02*
X109154582Y-52795474D01*
X109154582Y-52795474D02*
X109345058Y-52843093D01*
X109345058Y-52843093D02*
X109726010Y-52843093D01*
X109726010Y-52843093D02*
X109821248Y-52795474D01*
X109821248Y-52795474D02*
X109868868Y-52747855D01*
X109868868Y-52747855D02*
X109916487Y-52652617D01*
X109916487Y-52652617D02*
X109916487Y-52462141D01*
X109916487Y-52462141D02*
X109868868Y-52366903D01*
X109868868Y-52366903D02*
X109821248Y-52319284D01*
X109821248Y-52319284D02*
X109726010Y-52271665D01*
X109726010Y-52271665D02*
X109487915Y-52271665D01*
X109487915Y-52271665D02*
X109392677Y-52319284D01*
X109392677Y-52319284D02*
X109345058Y-52366903D01*
X109345058Y-52366903D02*
X109297439Y-52462141D01*
X109297439Y-52462141D02*
X109297439Y-52652617D01*
X109297439Y-52652617D02*
X109345058Y-52747855D01*
X109345058Y-52747855D02*
X109392677Y-52795474D01*
X109392677Y-52795474D02*
X109487915Y-52843093D01*
X134041905Y-56744819D02*
X134041905Y-55744819D01*
X134041905Y-55744819D02*
X134280000Y-55744819D01*
X134280000Y-55744819D02*
X134422857Y-55792438D01*
X134422857Y-55792438D02*
X134518095Y-55887676D01*
X134518095Y-55887676D02*
X134565714Y-55982914D01*
X134565714Y-55982914D02*
X134613333Y-56173390D01*
X134613333Y-56173390D02*
X134613333Y-56316247D01*
X134613333Y-56316247D02*
X134565714Y-56506723D01*
X134565714Y-56506723D02*
X134518095Y-56601961D01*
X134518095Y-56601961D02*
X134422857Y-56697200D01*
X134422857Y-56697200D02*
X134280000Y-56744819D01*
X134280000Y-56744819D02*
X134041905Y-56744819D01*
X135565714Y-56744819D02*
X134994286Y-56744819D01*
X135280000Y-56744819D02*
X135280000Y-55744819D01*
X135280000Y-55744819D02*
X135184762Y-55887676D01*
X135184762Y-55887676D02*
X135089524Y-55982914D01*
X135089524Y-55982914D02*
X134994286Y-56030533D01*
X154466667Y-66357200D02*
X154609524Y-66404819D01*
X154609524Y-66404819D02*
X154847619Y-66404819D01*
X154847619Y-66404819D02*
X154942857Y-66357200D01*
X154942857Y-66357200D02*
X154990476Y-66309580D01*
X154990476Y-66309580D02*
X155038095Y-66214342D01*
X155038095Y-66214342D02*
X155038095Y-66119104D01*
X155038095Y-66119104D02*
X154990476Y-66023866D01*
X154990476Y-66023866D02*
X154942857Y-65976247D01*
X154942857Y-65976247D02*
X154847619Y-65928628D01*
X154847619Y-65928628D02*
X154657143Y-65881009D01*
X154657143Y-65881009D02*
X154561905Y-65833390D01*
X154561905Y-65833390D02*
X154514286Y-65785771D01*
X154514286Y-65785771D02*
X154466667Y-65690533D01*
X154466667Y-65690533D02*
X154466667Y-65595295D01*
X154466667Y-65595295D02*
X154514286Y-65500057D01*
X154514286Y-65500057D02*
X154561905Y-65452438D01*
X154561905Y-65452438D02*
X154657143Y-65404819D01*
X154657143Y-65404819D02*
X154895238Y-65404819D01*
X154895238Y-65404819D02*
X155038095Y-65452438D01*
X155371429Y-65404819D02*
X155609524Y-66404819D01*
X155609524Y-66404819D02*
X155800000Y-65690533D01*
X155800000Y-65690533D02*
X155990476Y-66404819D01*
X155990476Y-66404819D02*
X156228572Y-65404819D01*
X156561905Y-65500057D02*
X156609524Y-65452438D01*
X156609524Y-65452438D02*
X156704762Y-65404819D01*
X156704762Y-65404819D02*
X156942857Y-65404819D01*
X156942857Y-65404819D02*
X157038095Y-65452438D01*
X157038095Y-65452438D02*
X157085714Y-65500057D01*
X157085714Y-65500057D02*
X157133333Y-65595295D01*
X157133333Y-65595295D02*
X157133333Y-65690533D01*
X157133333Y-65690533D02*
X157085714Y-65833390D01*
X157085714Y-65833390D02*
X156514286Y-66404819D01*
X156514286Y-66404819D02*
X157133333Y-66404819D01*
X163704819Y-84716666D02*
X163228628Y-85049999D01*
X163704819Y-85288094D02*
X162704819Y-85288094D01*
X162704819Y-85288094D02*
X162704819Y-84907142D01*
X162704819Y-84907142D02*
X162752438Y-84811904D01*
X162752438Y-84811904D02*
X162800057Y-84764285D01*
X162800057Y-84764285D02*
X162895295Y-84716666D01*
X162895295Y-84716666D02*
X163038152Y-84716666D01*
X163038152Y-84716666D02*
X163133390Y-84764285D01*
X163133390Y-84764285D02*
X163181009Y-84811904D01*
X163181009Y-84811904D02*
X163228628Y-84907142D01*
X163228628Y-84907142D02*
X163228628Y-85288094D01*
X162704819Y-83811904D02*
X162704819Y-84288094D01*
X162704819Y-84288094D02*
X163181009Y-84335713D01*
X163181009Y-84335713D02*
X163133390Y-84288094D01*
X163133390Y-84288094D02*
X163085771Y-84192856D01*
X163085771Y-84192856D02*
X163085771Y-83954761D01*
X163085771Y-83954761D02*
X163133390Y-83859523D01*
X163133390Y-83859523D02*
X163181009Y-83811904D01*
X163181009Y-83811904D02*
X163276247Y-83764285D01*
X163276247Y-83764285D02*
X163514342Y-83764285D01*
X163514342Y-83764285D02*
X163609580Y-83811904D01*
X163609580Y-83811904D02*
X163657200Y-83859523D01*
X163657200Y-83859523D02*
X163704819Y-83954761D01*
X163704819Y-83954761D02*
X163704819Y-84192856D01*
X163704819Y-84192856D02*
X163657200Y-84288094D01*
X163657200Y-84288094D02*
X163609580Y-84335713D01*
X137666667Y-72207200D02*
X137809524Y-72254819D01*
X137809524Y-72254819D02*
X138047619Y-72254819D01*
X138047619Y-72254819D02*
X138142857Y-72207200D01*
X138142857Y-72207200D02*
X138190476Y-72159580D01*
X138190476Y-72159580D02*
X138238095Y-72064342D01*
X138238095Y-72064342D02*
X138238095Y-71969104D01*
X138238095Y-71969104D02*
X138190476Y-71873866D01*
X138190476Y-71873866D02*
X138142857Y-71826247D01*
X138142857Y-71826247D02*
X138047619Y-71778628D01*
X138047619Y-71778628D02*
X137857143Y-71731009D01*
X137857143Y-71731009D02*
X137761905Y-71683390D01*
X137761905Y-71683390D02*
X137714286Y-71635771D01*
X137714286Y-71635771D02*
X137666667Y-71540533D01*
X137666667Y-71540533D02*
X137666667Y-71445295D01*
X137666667Y-71445295D02*
X137714286Y-71350057D01*
X137714286Y-71350057D02*
X137761905Y-71302438D01*
X137761905Y-71302438D02*
X137857143Y-71254819D01*
X137857143Y-71254819D02*
X138095238Y-71254819D01*
X138095238Y-71254819D02*
X138238095Y-71302438D01*
X138571429Y-71254819D02*
X138809524Y-72254819D01*
X138809524Y-72254819D02*
X139000000Y-71540533D01*
X139000000Y-71540533D02*
X139190476Y-72254819D01*
X139190476Y-72254819D02*
X139428572Y-71254819D01*
X140238095Y-71588152D02*
X140238095Y-72254819D01*
X140000000Y-71207200D02*
X139761905Y-71921485D01*
X139761905Y-71921485D02*
X140380952Y-71921485D01*
X155254761Y-86454819D02*
X154921428Y-85978628D01*
X154683333Y-86454819D02*
X154683333Y-85454819D01*
X154683333Y-85454819D02*
X155064285Y-85454819D01*
X155064285Y-85454819D02*
X155159523Y-85502438D01*
X155159523Y-85502438D02*
X155207142Y-85550057D01*
X155207142Y-85550057D02*
X155254761Y-85645295D01*
X155254761Y-85645295D02*
X155254761Y-85788152D01*
X155254761Y-85788152D02*
X155207142Y-85883390D01*
X155207142Y-85883390D02*
X155159523Y-85931009D01*
X155159523Y-85931009D02*
X155064285Y-85978628D01*
X155064285Y-85978628D02*
X154683333Y-85978628D01*
X155540476Y-85454819D02*
X155873809Y-86454819D01*
X155873809Y-86454819D02*
X156207142Y-85454819D01*
X157064285Y-86454819D02*
X156492857Y-86454819D01*
X156778571Y-86454819D02*
X156778571Y-85454819D01*
X156778571Y-85454819D02*
X156683333Y-85597676D01*
X156683333Y-85597676D02*
X156588095Y-85692914D01*
X156588095Y-85692914D02*
X156492857Y-85740533D01*
X154466667Y-77107200D02*
X154609524Y-77154819D01*
X154609524Y-77154819D02*
X154847619Y-77154819D01*
X154847619Y-77154819D02*
X154942857Y-77107200D01*
X154942857Y-77107200D02*
X154990476Y-77059580D01*
X154990476Y-77059580D02*
X155038095Y-76964342D01*
X155038095Y-76964342D02*
X155038095Y-76869104D01*
X155038095Y-76869104D02*
X154990476Y-76773866D01*
X154990476Y-76773866D02*
X154942857Y-76726247D01*
X154942857Y-76726247D02*
X154847619Y-76678628D01*
X154847619Y-76678628D02*
X154657143Y-76631009D01*
X154657143Y-76631009D02*
X154561905Y-76583390D01*
X154561905Y-76583390D02*
X154514286Y-76535771D01*
X154514286Y-76535771D02*
X154466667Y-76440533D01*
X154466667Y-76440533D02*
X154466667Y-76345295D01*
X154466667Y-76345295D02*
X154514286Y-76250057D01*
X154514286Y-76250057D02*
X154561905Y-76202438D01*
X154561905Y-76202438D02*
X154657143Y-76154819D01*
X154657143Y-76154819D02*
X154895238Y-76154819D01*
X154895238Y-76154819D02*
X155038095Y-76202438D01*
X155371429Y-76154819D02*
X155609524Y-77154819D01*
X155609524Y-77154819D02*
X155800000Y-76440533D01*
X155800000Y-76440533D02*
X155990476Y-77154819D01*
X155990476Y-77154819D02*
X156228572Y-76154819D01*
X156514286Y-76154819D02*
X157133333Y-76154819D01*
X157133333Y-76154819D02*
X156800000Y-76535771D01*
X156800000Y-76535771D02*
X156942857Y-76535771D01*
X156942857Y-76535771D02*
X157038095Y-76583390D01*
X157038095Y-76583390D02*
X157085714Y-76631009D01*
X157085714Y-76631009D02*
X157133333Y-76726247D01*
X157133333Y-76726247D02*
X157133333Y-76964342D01*
X157133333Y-76964342D02*
X157085714Y-77059580D01*
X157085714Y-77059580D02*
X157038095Y-77107200D01*
X157038095Y-77107200D02*
X156942857Y-77154819D01*
X156942857Y-77154819D02*
X156657143Y-77154819D01*
X156657143Y-77154819D02*
X156561905Y-77107200D01*
X156561905Y-77107200D02*
X156514286Y-77059580D01*
X100409819Y-93558333D02*
X101124104Y-93558333D01*
X101124104Y-93558333D02*
X101266961Y-93605952D01*
X101266961Y-93605952D02*
X101362200Y-93701190D01*
X101362200Y-93701190D02*
X101409819Y-93844047D01*
X101409819Y-93844047D02*
X101409819Y-93939285D01*
X100409819Y-92605952D02*
X100409819Y-93082142D01*
X100409819Y-93082142D02*
X100886009Y-93129761D01*
X100886009Y-93129761D02*
X100838390Y-93082142D01*
X100838390Y-93082142D02*
X100790771Y-92986904D01*
X100790771Y-92986904D02*
X100790771Y-92748809D01*
X100790771Y-92748809D02*
X100838390Y-92653571D01*
X100838390Y-92653571D02*
X100886009Y-92605952D01*
X100886009Y-92605952D02*
X100981247Y-92558333D01*
X100981247Y-92558333D02*
X101219342Y-92558333D01*
X101219342Y-92558333D02*
X101314580Y-92605952D01*
X101314580Y-92605952D02*
X101362200Y-92653571D01*
X101362200Y-92653571D02*
X101409819Y-92748809D01*
X101409819Y-92748809D02*
X101409819Y-92986904D01*
X101409819Y-92986904D02*
X101362200Y-93082142D01*
X101362200Y-93082142D02*
X101314580Y-93129761D01*
D11*
%TO.C,G\u002A\u002A\u002A*%
G36*
X132535585Y-88422283D02*
G01*
X132531407Y-88555779D01*
X132466018Y-88593972D01*
X132400629Y-88632166D01*
X132392980Y-89859075D01*
X132385330Y-91085984D01*
X132344442Y-91202231D01*
X132266747Y-91383608D01*
X132168510Y-91544740D01*
X132050064Y-91685238D01*
X131911741Y-91804715D01*
X131753877Y-91902784D01*
X131732208Y-91913805D01*
X131626503Y-91961840D01*
X131526561Y-91996458D01*
X131420346Y-92021208D01*
X131312292Y-92037622D01*
X131276367Y-92040212D01*
X131214248Y-92042502D01*
X131128800Y-92044492D01*
X131022888Y-92046188D01*
X130899380Y-92047591D01*
X130761139Y-92048705D01*
X130611033Y-92049533D01*
X130451927Y-92050078D01*
X130286687Y-92050343D01*
X130118177Y-92050332D01*
X129949265Y-92050048D01*
X129782815Y-92049493D01*
X129621694Y-92048670D01*
X129468767Y-92047584D01*
X129326900Y-92046236D01*
X129198959Y-92044631D01*
X129087809Y-92042771D01*
X128996316Y-92040659D01*
X128927346Y-92038299D01*
X128883764Y-92035693D01*
X128876887Y-92034969D01*
X128703930Y-91999051D01*
X128537065Y-91936152D01*
X128379420Y-91848200D01*
X128234124Y-91737123D01*
X128104305Y-91604851D01*
X128034968Y-91515870D01*
X128015054Y-91485829D01*
X128005247Y-91466966D01*
X128005034Y-91465696D01*
X128019192Y-91464337D01*
X128060177Y-91462932D01*
X128125753Y-91461507D01*
X128213685Y-91460088D01*
X128321738Y-91458701D01*
X128447677Y-91457370D01*
X128589266Y-91456122D01*
X128744271Y-91454983D01*
X128910455Y-91453977D01*
X129085584Y-91453131D01*
X129105749Y-91453047D01*
X129316624Y-91452207D01*
X129500615Y-91451420D01*
X129659895Y-91450524D01*
X129796643Y-91449354D01*
X129913033Y-91447746D01*
X130011241Y-91445536D01*
X130093444Y-91442559D01*
X130161816Y-91438651D01*
X130218535Y-91433649D01*
X130265775Y-91427388D01*
X130305712Y-91419704D01*
X130340523Y-91410433D01*
X130372384Y-91399410D01*
X130403469Y-91386472D01*
X130435956Y-91371454D01*
X130472019Y-91354193D01*
X130482551Y-91349174D01*
X130630824Y-91262991D01*
X130761818Y-91154208D01*
X130874036Y-91024629D01*
X130965984Y-90876056D01*
X131036163Y-90710294D01*
X131050663Y-90664588D01*
X131055524Y-90646251D01*
X131059784Y-90624810D01*
X131063501Y-90598201D01*
X131066734Y-90564361D01*
X131069542Y-90521225D01*
X131071984Y-90466730D01*
X131074118Y-90398812D01*
X131076004Y-90315407D01*
X131077699Y-90214451D01*
X131079264Y-90093880D01*
X131080756Y-89951631D01*
X131082235Y-89785639D01*
X131083760Y-89593840D01*
X131084683Y-89470579D01*
X131092849Y-88363757D01*
X131128076Y-88326272D01*
X131163303Y-88288787D01*
X131851533Y-88288787D01*
X132539763Y-88288787D01*
X132535585Y-88422283D01*
G37*
G36*
X128059525Y-87565625D02*
G01*
X130061155Y-87569508D01*
X130163743Y-87606021D01*
X130318113Y-87675400D01*
X130453580Y-87766819D01*
X130569899Y-87880037D01*
X130666822Y-88014809D01*
X130744102Y-88170893D01*
X130748321Y-88181470D01*
X130787700Y-88281521D01*
X130787700Y-89400400D01*
X130787700Y-90519279D01*
X130746537Y-90620995D01*
X130668808Y-90780182D01*
X130573988Y-90915961D01*
X130462199Y-91028224D01*
X130333565Y-91116864D01*
X130188210Y-91181771D01*
X130063485Y-91215819D01*
X130044998Y-91219101D01*
X130021952Y-91222058D01*
X129992850Y-91224705D01*
X129956193Y-91227059D01*
X129910484Y-91229137D01*
X129854225Y-91230956D01*
X129785920Y-91232531D01*
X129704070Y-91233880D01*
X129607179Y-91235019D01*
X129493748Y-91235964D01*
X129362281Y-91236733D01*
X129211279Y-91237341D01*
X129039245Y-91237805D01*
X128844683Y-91238142D01*
X128626093Y-91238368D01*
X128381979Y-91238500D01*
X128110844Y-91238554D01*
X128005647Y-91238558D01*
X126057894Y-91238558D01*
X126057894Y-91100379D01*
X126057894Y-90962200D01*
X126152345Y-90915624D01*
X126246796Y-90869048D01*
X126246796Y-89400400D01*
X126246796Y-89376182D01*
X126246796Y-88056293D01*
X127496453Y-88056293D01*
X127496453Y-89376182D01*
X127496557Y-89569539D01*
X127496860Y-89754579D01*
X127497346Y-89929242D01*
X127498002Y-90091466D01*
X127498810Y-90239190D01*
X127499758Y-90370352D01*
X127500828Y-90482893D01*
X127502008Y-90574749D01*
X127503281Y-90643861D01*
X127504632Y-90688167D01*
X127506047Y-90705605D01*
X127506140Y-90705759D01*
X127522045Y-90707523D01*
X127564422Y-90709184D01*
X127630680Y-90710711D01*
X127718230Y-90712077D01*
X127824480Y-90713250D01*
X127946841Y-90714203D01*
X128082723Y-90714906D01*
X128229535Y-90715328D01*
X128360857Y-90715446D01*
X129205887Y-90715446D01*
X129284780Y-90675486D01*
X129364336Y-90619927D01*
X129423268Y-90546139D01*
X129458504Y-90458456D01*
X129465199Y-90421101D01*
X129466662Y-90394001D01*
X129467927Y-90340393D01*
X129468983Y-90262828D01*
X129469818Y-90163858D01*
X129470423Y-90046036D01*
X129470786Y-89911914D01*
X129470896Y-89764044D01*
X129470742Y-89604978D01*
X129470314Y-89437268D01*
X129469865Y-89320480D01*
X129465389Y-88296052D01*
X129433116Y-88235701D01*
X129388195Y-88172499D01*
X129328949Y-88117707D01*
X129264848Y-88079427D01*
X129240160Y-88070606D01*
X129214988Y-88067674D01*
X129162768Y-88065009D01*
X129085510Y-88062642D01*
X128985227Y-88060605D01*
X128863930Y-88058931D01*
X128723631Y-88057650D01*
X128566342Y-88056795D01*
X128394074Y-88056398D01*
X128342877Y-88056374D01*
X127496453Y-88056293D01*
X126246796Y-88056293D01*
X126246796Y-87931752D01*
X126152345Y-87885176D01*
X126057894Y-87838600D01*
X126057894Y-87700171D01*
X126057894Y-87561741D01*
X128059525Y-87565625D01*
G37*
G36*
X129099994Y-88324420D02*
G01*
X129138444Y-88360054D01*
X129138444Y-89369961D01*
X129138266Y-89590300D01*
X129137723Y-89782479D01*
X129136802Y-89947395D01*
X129135489Y-90085947D01*
X129133769Y-90199035D01*
X129131630Y-90287555D01*
X129129056Y-90352408D01*
X129126034Y-90394491D01*
X129122550Y-90414704D01*
X129122310Y-90415276D01*
X129096394Y-90448978D01*
X129070768Y-90466818D01*
X129047064Y-90471451D01*
X128997674Y-90475279D01*
X128921990Y-90478317D01*
X128819405Y-90480580D01*
X128689312Y-90482084D01*
X128531104Y-90482845D01*
X128433119Y-90482952D01*
X127830878Y-90482952D01*
X127827138Y-89557563D01*
X127823398Y-88632175D01*
X127758009Y-88593977D01*
X127692620Y-88555779D01*
X127688442Y-88422283D01*
X127684264Y-88288787D01*
X128372905Y-88288787D01*
X129061545Y-88288787D01*
X129099994Y-88324420D01*
G37*
D12*
%TO.C,J1*%
X126610000Y-96130000D02*
X127940000Y-96130000D01*
X126610000Y-97460000D02*
X126610000Y-96130000D01*
X129210000Y-96130000D02*
X147050000Y-96130000D01*
X129210000Y-98790000D02*
X129210000Y-96130000D01*
X129210000Y-98790000D02*
X147050000Y-98790000D01*
X147050000Y-98790000D02*
X147050000Y-96130000D01*
%TO.C,J3*%
X149470000Y-96130000D02*
X150800000Y-96130000D01*
X149470000Y-97460000D02*
X149470000Y-96130000D01*
X152070000Y-96130000D02*
X164830000Y-96130000D01*
X152070000Y-98790000D02*
X152070000Y-96130000D01*
X152070000Y-98790000D02*
X164830000Y-98790000D01*
X164830000Y-98790000D02*
X164830000Y-96130000D01*
%TO.C,J2*%
X117466000Y-47870000D02*
X118796000Y-47870000D01*
X117466000Y-49200000D02*
X117466000Y-47870000D01*
X120066000Y-47870000D02*
X142986000Y-47870000D01*
X120066000Y-50530000D02*
X120066000Y-47870000D01*
X120066000Y-50530000D02*
X142986000Y-50530000D01*
X142986000Y-50530000D02*
X142986000Y-47870000D01*
%TO.C,J4*%
X144390000Y-47870000D02*
X145720000Y-47870000D01*
X144390000Y-49200000D02*
X144390000Y-47870000D01*
X146990000Y-47870000D02*
X164830000Y-47870000D01*
X146990000Y-50530000D02*
X146990000Y-47870000D01*
X146990000Y-50530000D02*
X164830000Y-50530000D01*
X164830000Y-50530000D02*
X164830000Y-47870000D01*
%TO.C,R2*%
X161830000Y-67030000D02*
X161830000Y-73570000D01*
X161830000Y-73570000D02*
X164570000Y-73570000D01*
X163200000Y-66260000D02*
X163200000Y-67030000D01*
X163200000Y-74340000D02*
X163200000Y-73570000D01*
X164570000Y-67030000D02*
X161830000Y-67030000D01*
X164570000Y-73570000D02*
X164570000Y-67030000D01*
%TO.C,SW1*%
X152200000Y-54450000D02*
X152200000Y-55950000D01*
X153450000Y-58450000D02*
X157950000Y-58450000D01*
X157950000Y-51950000D02*
X153450000Y-51950000D01*
X159200000Y-55950000D02*
X159200000Y-54450000D01*
%TO.C,R4*%
X130880000Y-71630000D02*
X130880000Y-78170000D01*
X130880000Y-78170000D02*
X133620000Y-78170000D01*
X132250000Y-70860000D02*
X132250000Y-71630000D01*
X132250000Y-78940000D02*
X132250000Y-78170000D01*
X133620000Y-71630000D02*
X130880000Y-71630000D01*
X133620000Y-78170000D02*
X133620000Y-71630000D01*
%TO.C,R3*%
X147230000Y-75380000D02*
X147230000Y-81920000D01*
X147230000Y-81920000D02*
X149970000Y-81920000D01*
X148600000Y-74610000D02*
X148600000Y-75380000D01*
X148600000Y-82690000D02*
X148600000Y-81920000D01*
X149970000Y-75380000D02*
X147230000Y-75380000D01*
X149970000Y-81920000D02*
X149970000Y-75380000D01*
%TO.C,J7*%
X138800000Y-60900000D02*
X138800000Y-62150000D01*
X138800000Y-62150000D02*
X140050000Y-62150000D01*
X139090000Y-51740000D02*
X139090000Y-61860000D01*
X139090000Y-61860000D02*
X145060000Y-61860000D01*
X139100000Y-51750000D02*
X139100000Y-53550000D01*
X139100000Y-53550000D02*
X139850000Y-53550000D01*
X139100000Y-55050000D02*
X139100000Y-58550000D01*
X139100000Y-58550000D02*
X139850000Y-58550000D01*
X139100000Y-60050000D02*
X139100000Y-61850000D01*
X139100000Y-61850000D02*
X139850000Y-61850000D01*
X139850000Y-51750000D02*
X139100000Y-51750000D01*
X139850000Y-53550000D02*
X139850000Y-51750000D01*
X139850000Y-55050000D02*
X139100000Y-55050000D01*
X139850000Y-58550000D02*
X139850000Y-55050000D01*
X139850000Y-60050000D02*
X139100000Y-60050000D01*
X139850000Y-61850000D02*
X139850000Y-60050000D01*
X141350000Y-51750000D02*
X141350000Y-52500000D01*
X141350000Y-52500000D02*
X144300000Y-52500000D01*
X141350000Y-61100000D02*
X144300000Y-61100000D01*
X141350000Y-61850000D02*
X141350000Y-61100000D01*
X144300000Y-52500000D02*
X144300000Y-56800000D01*
X144300000Y-61100000D02*
X144300000Y-56800000D01*
X145060000Y-51740000D02*
X139090000Y-51740000D01*
X145060000Y-61860000D02*
X145060000Y-51740000D01*
%TO.C,R1*%
X161880000Y-53930000D02*
X161880000Y-60470000D01*
X161880000Y-60470000D02*
X164620000Y-60470000D01*
X163250000Y-53160000D02*
X163250000Y-53930000D01*
X163250000Y-61240000D02*
X163250000Y-60470000D01*
X164620000Y-53930000D02*
X161880000Y-53930000D01*
X164620000Y-60470000D02*
X164620000Y-53930000D01*
%TO.C,R6*%
X132890000Y-65900000D02*
X133660000Y-65900000D01*
X133660000Y-64530000D02*
X133660000Y-67270000D01*
X133660000Y-67270000D02*
X140200000Y-67270000D01*
X140200000Y-64530000D02*
X133660000Y-64530000D01*
X140200000Y-67270000D02*
X140200000Y-64530000D01*
X140970000Y-65900000D02*
X140200000Y-65900000D01*
%TO.C,SW5*%
X139350000Y-89350000D02*
X139350000Y-90850000D01*
X140600000Y-93350000D02*
X145100000Y-93350000D01*
X145100000Y-86850000D02*
X140600000Y-86850000D01*
X146350000Y-90850000D02*
X146350000Y-89350000D01*
%TO.C,J6*%
X121181668Y-54268332D02*
X121181668Y-51608332D01*
X113501668Y-54268332D02*
X121181668Y-54268332D01*
X113501668Y-54268332D02*
X113501668Y-51608332D01*
X113501668Y-51608332D02*
X121181668Y-51608332D01*
X110901668Y-52938332D02*
X110901668Y-51608332D01*
X110901668Y-51608332D02*
X112231668Y-51608332D01*
%TO.C,D1*%
X132220000Y-58705000D02*
X132220000Y-61795000D01*
X132220000Y-58705170D02*
G75*
G02*
X137770000Y-60249952I2560000J-1544830D01*
G01*
X137770000Y-60250048D02*
G75*
G02*
X132220000Y-61794830I-2990000J48D01*
G01*
X137280000Y-60250000D02*
G75*
G02*
X132280000Y-60250000I-2500000J0D01*
G01*
X132280000Y-60250000D02*
G75*
G02*
X137280000Y-60250000I2500000J0D01*
G01*
%TO.C,SW2*%
X152300000Y-65200000D02*
X152300000Y-66700000D01*
X153550000Y-69200000D02*
X158050000Y-69200000D01*
X158050000Y-62700000D02*
X153550000Y-62700000D01*
X159300000Y-66700000D02*
X159300000Y-65200000D01*
%TO.C,R5*%
X161880000Y-81280000D02*
X161880000Y-87820000D01*
X161880000Y-87820000D02*
X164620000Y-87820000D01*
X163250000Y-80510000D02*
X163250000Y-81280000D01*
X163250000Y-88590000D02*
X163250000Y-87820000D01*
X164620000Y-81280000D02*
X161880000Y-81280000D01*
X164620000Y-87820000D02*
X164620000Y-81280000D01*
%TO.C,SW4*%
X135500000Y-71050000D02*
X135500000Y-72550000D01*
X136750000Y-75050000D02*
X141250000Y-75050000D01*
X141250000Y-68550000D02*
X136750000Y-68550000D01*
X142500000Y-72550000D02*
X142500000Y-71050000D01*
%TO.C,RV1*%
X150765000Y-82915000D02*
X150765000Y-92685000D01*
X160535000Y-82915000D02*
X150765000Y-82915000D01*
X160535000Y-82915000D02*
X160535000Y-92685000D01*
X160535000Y-92685000D02*
X150765000Y-92685000D01*
%TO.C,SW3*%
X152300000Y-75950000D02*
X152300000Y-77450000D01*
X153550000Y-79950000D02*
X158050000Y-79950000D01*
X158050000Y-73450000D02*
X153550000Y-73450000D01*
X159300000Y-77450000D02*
X159300000Y-75950000D01*
%TO.C,J5*%
X102395000Y-91895000D02*
X103725000Y-91895000D01*
X102395000Y-93225000D02*
X102395000Y-91895000D01*
X104995000Y-91895000D02*
X122835000Y-91895000D01*
X104995000Y-94555000D02*
X104995000Y-91895000D01*
X104995000Y-94555000D02*
X122835000Y-94555000D01*
X122835000Y-94555000D02*
X122835000Y-91895000D01*
%TD*%
M02*
