%TF.GenerationSoftware,KiCad,Pcbnew,8.0.8*%
%TF.CreationDate,2025-02-03T15:41:03-07:00*%
%TF.ProjectId,Thermo_Probe,54686572-6d6f-45f5-9072-6f62652e6b69,rev?*%
%TF.SameCoordinates,Original*%
%TF.FileFunction,Legend,Top*%
%TF.FilePolarity,Positive*%
%FSLAX46Y46*%
G04 Gerber Fmt 4.6, Leading zero omitted, Abs format (unit mm)*
G04 Created by KiCad (PCBNEW 8.0.8) date 2025-02-03 15:41:03*
%MOMM*%
%LPD*%
G01*
G04 APERTURE LIST*
%ADD10C,0.150000*%
%ADD11C,0.120000*%
G04 APERTURE END LIST*
D10*
X103930000Y-80200000D02*
X123930000Y-80200000D01*
X123930000Y-95200000D01*
X103930000Y-95200000D01*
X103930000Y-80200000D01*
X102391668Y-51238332D02*
X130191668Y-51238332D01*
X130191668Y-78538332D01*
X102391668Y-78538332D01*
X102391668Y-51238332D01*
X130191668Y-78538332D02*
X120351668Y-78538332D01*
X163654819Y-70186666D02*
X163178628Y-70519999D01*
X163654819Y-70758094D02*
X162654819Y-70758094D01*
X162654819Y-70758094D02*
X162654819Y-70377142D01*
X162654819Y-70377142D02*
X162702438Y-70281904D01*
X162702438Y-70281904D02*
X162750057Y-70234285D01*
X162750057Y-70234285D02*
X162845295Y-70186666D01*
X162845295Y-70186666D02*
X162988152Y-70186666D01*
X162988152Y-70186666D02*
X163083390Y-70234285D01*
X163083390Y-70234285D02*
X163131009Y-70281904D01*
X163131009Y-70281904D02*
X163178628Y-70377142D01*
X163178628Y-70377142D02*
X163178628Y-70758094D01*
X162750057Y-69805713D02*
X162702438Y-69758094D01*
X162702438Y-69758094D02*
X162654819Y-69662856D01*
X162654819Y-69662856D02*
X162654819Y-69424761D01*
X162654819Y-69424761D02*
X162702438Y-69329523D01*
X162702438Y-69329523D02*
X162750057Y-69281904D01*
X162750057Y-69281904D02*
X162845295Y-69234285D01*
X162845295Y-69234285D02*
X162940533Y-69234285D01*
X162940533Y-69234285D02*
X163083390Y-69281904D01*
X163083390Y-69281904D02*
X163654819Y-69853332D01*
X163654819Y-69853332D02*
X163654819Y-69234285D01*
X124944819Y-81783333D02*
X125659104Y-81783333D01*
X125659104Y-81783333D02*
X125801961Y-81830952D01*
X125801961Y-81830952D02*
X125897200Y-81926190D01*
X125897200Y-81926190D02*
X125944819Y-82069047D01*
X125944819Y-82069047D02*
X125944819Y-82164285D01*
X124944819Y-80830952D02*
X124944819Y-81307142D01*
X124944819Y-81307142D02*
X125421009Y-81354761D01*
X125421009Y-81354761D02*
X125373390Y-81307142D01*
X125373390Y-81307142D02*
X125325771Y-81211904D01*
X125325771Y-81211904D02*
X125325771Y-80973809D01*
X125325771Y-80973809D02*
X125373390Y-80878571D01*
X125373390Y-80878571D02*
X125421009Y-80830952D01*
X125421009Y-80830952D02*
X125516247Y-80783333D01*
X125516247Y-80783333D02*
X125754342Y-80783333D01*
X125754342Y-80783333D02*
X125849580Y-80830952D01*
X125849580Y-80830952D02*
X125897200Y-80878571D01*
X125897200Y-80878571D02*
X125944819Y-80973809D01*
X125944819Y-80973809D02*
X125944819Y-81211904D01*
X125944819Y-81211904D02*
X125897200Y-81307142D01*
X125897200Y-81307142D02*
X125849580Y-81354761D01*
X153866667Y-56907200D02*
X154009524Y-56954819D01*
X154009524Y-56954819D02*
X154247619Y-56954819D01*
X154247619Y-56954819D02*
X154342857Y-56907200D01*
X154342857Y-56907200D02*
X154390476Y-56859580D01*
X154390476Y-56859580D02*
X154438095Y-56764342D01*
X154438095Y-56764342D02*
X154438095Y-56669104D01*
X154438095Y-56669104D02*
X154390476Y-56573866D01*
X154390476Y-56573866D02*
X154342857Y-56526247D01*
X154342857Y-56526247D02*
X154247619Y-56478628D01*
X154247619Y-56478628D02*
X154057143Y-56431009D01*
X154057143Y-56431009D02*
X153961905Y-56383390D01*
X153961905Y-56383390D02*
X153914286Y-56335771D01*
X153914286Y-56335771D02*
X153866667Y-56240533D01*
X153866667Y-56240533D02*
X153866667Y-56145295D01*
X153866667Y-56145295D02*
X153914286Y-56050057D01*
X153914286Y-56050057D02*
X153961905Y-56002438D01*
X153961905Y-56002438D02*
X154057143Y-55954819D01*
X154057143Y-55954819D02*
X154295238Y-55954819D01*
X154295238Y-55954819D02*
X154438095Y-56002438D01*
X154771429Y-55954819D02*
X155009524Y-56954819D01*
X155009524Y-56954819D02*
X155200000Y-56240533D01*
X155200000Y-56240533D02*
X155390476Y-56954819D01*
X155390476Y-56954819D02*
X155628572Y-55954819D01*
X156533333Y-56954819D02*
X155961905Y-56954819D01*
X156247619Y-56954819D02*
X156247619Y-55954819D01*
X156247619Y-55954819D02*
X156152381Y-56097676D01*
X156152381Y-56097676D02*
X156057143Y-56192914D01*
X156057143Y-56192914D02*
X155961905Y-56240533D01*
X132554819Y-73816666D02*
X132078628Y-74149999D01*
X132554819Y-74388094D02*
X131554819Y-74388094D01*
X131554819Y-74388094D02*
X131554819Y-74007142D01*
X131554819Y-74007142D02*
X131602438Y-73911904D01*
X131602438Y-73911904D02*
X131650057Y-73864285D01*
X131650057Y-73864285D02*
X131745295Y-73816666D01*
X131745295Y-73816666D02*
X131888152Y-73816666D01*
X131888152Y-73816666D02*
X131983390Y-73864285D01*
X131983390Y-73864285D02*
X132031009Y-73911904D01*
X132031009Y-73911904D02*
X132078628Y-74007142D01*
X132078628Y-74007142D02*
X132078628Y-74388094D01*
X131888152Y-72959523D02*
X132554819Y-72959523D01*
X131507200Y-73197618D02*
X132221485Y-73435713D01*
X132221485Y-73435713D02*
X132221485Y-72816666D01*
X148904819Y-74716666D02*
X148428628Y-75049999D01*
X148904819Y-75288094D02*
X147904819Y-75288094D01*
X147904819Y-75288094D02*
X147904819Y-74907142D01*
X147904819Y-74907142D02*
X147952438Y-74811904D01*
X147952438Y-74811904D02*
X148000057Y-74764285D01*
X148000057Y-74764285D02*
X148095295Y-74716666D01*
X148095295Y-74716666D02*
X148238152Y-74716666D01*
X148238152Y-74716666D02*
X148333390Y-74764285D01*
X148333390Y-74764285D02*
X148381009Y-74811904D01*
X148381009Y-74811904D02*
X148428628Y-74907142D01*
X148428628Y-74907142D02*
X148428628Y-75288094D01*
X147904819Y-74383332D02*
X147904819Y-73764285D01*
X147904819Y-73764285D02*
X148285771Y-74097618D01*
X148285771Y-74097618D02*
X148285771Y-73954761D01*
X148285771Y-73954761D02*
X148333390Y-73859523D01*
X148333390Y-73859523D02*
X148381009Y-73811904D01*
X148381009Y-73811904D02*
X148476247Y-73764285D01*
X148476247Y-73764285D02*
X148714342Y-73764285D01*
X148714342Y-73764285D02*
X148809580Y-73811904D01*
X148809580Y-73811904D02*
X148857200Y-73859523D01*
X148857200Y-73859523D02*
X148904819Y-73954761D01*
X148904819Y-73954761D02*
X148904819Y-74240475D01*
X148904819Y-74240475D02*
X148857200Y-74335713D01*
X148857200Y-74335713D02*
X148809580Y-74383332D01*
X137454819Y-57133333D02*
X138169104Y-57133333D01*
X138169104Y-57133333D02*
X138311961Y-57180952D01*
X138311961Y-57180952D02*
X138407200Y-57276190D01*
X138407200Y-57276190D02*
X138454819Y-57419047D01*
X138454819Y-57419047D02*
X138454819Y-57514285D01*
X137454819Y-56752380D02*
X137454819Y-56085714D01*
X137454819Y-56085714D02*
X138454819Y-56514285D01*
X163704819Y-57366666D02*
X163228628Y-57699999D01*
X163704819Y-57938094D02*
X162704819Y-57938094D01*
X162704819Y-57938094D02*
X162704819Y-57557142D01*
X162704819Y-57557142D02*
X162752438Y-57461904D01*
X162752438Y-57461904D02*
X162800057Y-57414285D01*
X162800057Y-57414285D02*
X162895295Y-57366666D01*
X162895295Y-57366666D02*
X163038152Y-57366666D01*
X163038152Y-57366666D02*
X163133390Y-57414285D01*
X163133390Y-57414285D02*
X163181009Y-57461904D01*
X163181009Y-57461904D02*
X163228628Y-57557142D01*
X163228628Y-57557142D02*
X163228628Y-57938094D01*
X163704819Y-56414285D02*
X163704819Y-56985713D01*
X163704819Y-56699999D02*
X162704819Y-56699999D01*
X162704819Y-56699999D02*
X162847676Y-56795237D01*
X162847676Y-56795237D02*
X162942914Y-56890475D01*
X162942914Y-56890475D02*
X162990533Y-56985713D01*
X136763333Y-66354819D02*
X136430000Y-65878628D01*
X136191905Y-66354819D02*
X136191905Y-65354819D01*
X136191905Y-65354819D02*
X136572857Y-65354819D01*
X136572857Y-65354819D02*
X136668095Y-65402438D01*
X136668095Y-65402438D02*
X136715714Y-65450057D01*
X136715714Y-65450057D02*
X136763333Y-65545295D01*
X136763333Y-65545295D02*
X136763333Y-65688152D01*
X136763333Y-65688152D02*
X136715714Y-65783390D01*
X136715714Y-65783390D02*
X136668095Y-65831009D01*
X136668095Y-65831009D02*
X136572857Y-65878628D01*
X136572857Y-65878628D02*
X136191905Y-65878628D01*
X137620476Y-65354819D02*
X137430000Y-65354819D01*
X137430000Y-65354819D02*
X137334762Y-65402438D01*
X137334762Y-65402438D02*
X137287143Y-65450057D01*
X137287143Y-65450057D02*
X137191905Y-65592914D01*
X137191905Y-65592914D02*
X137144286Y-65783390D01*
X137144286Y-65783390D02*
X137144286Y-66164342D01*
X137144286Y-66164342D02*
X137191905Y-66259580D01*
X137191905Y-66259580D02*
X137239524Y-66307200D01*
X137239524Y-66307200D02*
X137334762Y-66354819D01*
X137334762Y-66354819D02*
X137525238Y-66354819D01*
X137525238Y-66354819D02*
X137620476Y-66307200D01*
X137620476Y-66307200D02*
X137668095Y-66259580D01*
X137668095Y-66259580D02*
X137715714Y-66164342D01*
X137715714Y-66164342D02*
X137715714Y-65926247D01*
X137715714Y-65926247D02*
X137668095Y-65831009D01*
X137668095Y-65831009D02*
X137620476Y-65783390D01*
X137620476Y-65783390D02*
X137525238Y-65735771D01*
X137525238Y-65735771D02*
X137334762Y-65735771D01*
X137334762Y-65735771D02*
X137239524Y-65783390D01*
X137239524Y-65783390D02*
X137191905Y-65831009D01*
X137191905Y-65831009D02*
X137144286Y-65926247D01*
X141516667Y-90507200D02*
X141659524Y-90554819D01*
X141659524Y-90554819D02*
X141897619Y-90554819D01*
X141897619Y-90554819D02*
X141992857Y-90507200D01*
X141992857Y-90507200D02*
X142040476Y-90459580D01*
X142040476Y-90459580D02*
X142088095Y-90364342D01*
X142088095Y-90364342D02*
X142088095Y-90269104D01*
X142088095Y-90269104D02*
X142040476Y-90173866D01*
X142040476Y-90173866D02*
X141992857Y-90126247D01*
X141992857Y-90126247D02*
X141897619Y-90078628D01*
X141897619Y-90078628D02*
X141707143Y-90031009D01*
X141707143Y-90031009D02*
X141611905Y-89983390D01*
X141611905Y-89983390D02*
X141564286Y-89935771D01*
X141564286Y-89935771D02*
X141516667Y-89840533D01*
X141516667Y-89840533D02*
X141516667Y-89745295D01*
X141516667Y-89745295D02*
X141564286Y-89650057D01*
X141564286Y-89650057D02*
X141611905Y-89602438D01*
X141611905Y-89602438D02*
X141707143Y-89554819D01*
X141707143Y-89554819D02*
X141945238Y-89554819D01*
X141945238Y-89554819D02*
X142088095Y-89602438D01*
X142421429Y-89554819D02*
X142659524Y-90554819D01*
X142659524Y-90554819D02*
X142850000Y-89840533D01*
X142850000Y-89840533D02*
X143040476Y-90554819D01*
X143040476Y-90554819D02*
X143278572Y-89554819D01*
X144135714Y-89554819D02*
X143659524Y-89554819D01*
X143659524Y-89554819D02*
X143611905Y-90031009D01*
X143611905Y-90031009D02*
X143659524Y-89983390D01*
X143659524Y-89983390D02*
X143754762Y-89935771D01*
X143754762Y-89935771D02*
X143992857Y-89935771D01*
X143992857Y-89935771D02*
X144088095Y-89983390D01*
X144088095Y-89983390D02*
X144135714Y-90031009D01*
X144135714Y-90031009D02*
X144183333Y-90126247D01*
X144183333Y-90126247D02*
X144183333Y-90364342D01*
X144183333Y-90364342D02*
X144135714Y-90459580D01*
X144135714Y-90459580D02*
X144088095Y-90507200D01*
X144088095Y-90507200D02*
X143992857Y-90554819D01*
X143992857Y-90554819D02*
X143754762Y-90554819D01*
X143754762Y-90554819D02*
X143659524Y-90507200D01*
X143659524Y-90507200D02*
X143611905Y-90459580D01*
X122576487Y-77371665D02*
X123290772Y-77371665D01*
X123290772Y-77371665D02*
X123433629Y-77419284D01*
X123433629Y-77419284D02*
X123528868Y-77514522D01*
X123528868Y-77514522D02*
X123576487Y-77657379D01*
X123576487Y-77657379D02*
X123576487Y-77752617D01*
X122576487Y-76466903D02*
X122576487Y-76657379D01*
X122576487Y-76657379D02*
X122624106Y-76752617D01*
X122624106Y-76752617D02*
X122671725Y-76800236D01*
X122671725Y-76800236D02*
X122814582Y-76895474D01*
X122814582Y-76895474D02*
X123005058Y-76943093D01*
X123005058Y-76943093D02*
X123386010Y-76943093D01*
X123386010Y-76943093D02*
X123481248Y-76895474D01*
X123481248Y-76895474D02*
X123528868Y-76847855D01*
X123528868Y-76847855D02*
X123576487Y-76752617D01*
X123576487Y-76752617D02*
X123576487Y-76562141D01*
X123576487Y-76562141D02*
X123528868Y-76466903D01*
X123528868Y-76466903D02*
X123481248Y-76419284D01*
X123481248Y-76419284D02*
X123386010Y-76371665D01*
X123386010Y-76371665D02*
X123147915Y-76371665D01*
X123147915Y-76371665D02*
X123052677Y-76419284D01*
X123052677Y-76419284D02*
X123005058Y-76466903D01*
X123005058Y-76466903D02*
X122957439Y-76562141D01*
X122957439Y-76562141D02*
X122957439Y-76752617D01*
X122957439Y-76752617D02*
X123005058Y-76847855D01*
X123005058Y-76847855D02*
X123052677Y-76895474D01*
X123052677Y-76895474D02*
X123147915Y-76943093D01*
X134041905Y-56744819D02*
X134041905Y-55744819D01*
X134041905Y-55744819D02*
X134280000Y-55744819D01*
X134280000Y-55744819D02*
X134422857Y-55792438D01*
X134422857Y-55792438D02*
X134518095Y-55887676D01*
X134518095Y-55887676D02*
X134565714Y-55982914D01*
X134565714Y-55982914D02*
X134613333Y-56173390D01*
X134613333Y-56173390D02*
X134613333Y-56316247D01*
X134613333Y-56316247D02*
X134565714Y-56506723D01*
X134565714Y-56506723D02*
X134518095Y-56601961D01*
X134518095Y-56601961D02*
X134422857Y-56697200D01*
X134422857Y-56697200D02*
X134280000Y-56744819D01*
X134280000Y-56744819D02*
X134041905Y-56744819D01*
X135565714Y-56744819D02*
X134994286Y-56744819D01*
X135280000Y-56744819D02*
X135280000Y-55744819D01*
X135280000Y-55744819D02*
X135184762Y-55887676D01*
X135184762Y-55887676D02*
X135089524Y-55982914D01*
X135089524Y-55982914D02*
X134994286Y-56030533D01*
X153916667Y-64457200D02*
X154059524Y-64504819D01*
X154059524Y-64504819D02*
X154297619Y-64504819D01*
X154297619Y-64504819D02*
X154392857Y-64457200D01*
X154392857Y-64457200D02*
X154440476Y-64409580D01*
X154440476Y-64409580D02*
X154488095Y-64314342D01*
X154488095Y-64314342D02*
X154488095Y-64219104D01*
X154488095Y-64219104D02*
X154440476Y-64123866D01*
X154440476Y-64123866D02*
X154392857Y-64076247D01*
X154392857Y-64076247D02*
X154297619Y-64028628D01*
X154297619Y-64028628D02*
X154107143Y-63981009D01*
X154107143Y-63981009D02*
X154011905Y-63933390D01*
X154011905Y-63933390D02*
X153964286Y-63885771D01*
X153964286Y-63885771D02*
X153916667Y-63790533D01*
X153916667Y-63790533D02*
X153916667Y-63695295D01*
X153916667Y-63695295D02*
X153964286Y-63600057D01*
X153964286Y-63600057D02*
X154011905Y-63552438D01*
X154011905Y-63552438D02*
X154107143Y-63504819D01*
X154107143Y-63504819D02*
X154345238Y-63504819D01*
X154345238Y-63504819D02*
X154488095Y-63552438D01*
X154821429Y-63504819D02*
X155059524Y-64504819D01*
X155059524Y-64504819D02*
X155250000Y-63790533D01*
X155250000Y-63790533D02*
X155440476Y-64504819D01*
X155440476Y-64504819D02*
X155678572Y-63504819D01*
X156011905Y-63600057D02*
X156059524Y-63552438D01*
X156059524Y-63552438D02*
X156154762Y-63504819D01*
X156154762Y-63504819D02*
X156392857Y-63504819D01*
X156392857Y-63504819D02*
X156488095Y-63552438D01*
X156488095Y-63552438D02*
X156535714Y-63600057D01*
X156535714Y-63600057D02*
X156583333Y-63695295D01*
X156583333Y-63695295D02*
X156583333Y-63790533D01*
X156583333Y-63790533D02*
X156535714Y-63933390D01*
X156535714Y-63933390D02*
X155964286Y-64504819D01*
X155964286Y-64504819D02*
X156583333Y-64504819D01*
X163654819Y-83466666D02*
X163178628Y-83799999D01*
X163654819Y-84038094D02*
X162654819Y-84038094D01*
X162654819Y-84038094D02*
X162654819Y-83657142D01*
X162654819Y-83657142D02*
X162702438Y-83561904D01*
X162702438Y-83561904D02*
X162750057Y-83514285D01*
X162750057Y-83514285D02*
X162845295Y-83466666D01*
X162845295Y-83466666D02*
X162988152Y-83466666D01*
X162988152Y-83466666D02*
X163083390Y-83514285D01*
X163083390Y-83514285D02*
X163131009Y-83561904D01*
X163131009Y-83561904D02*
X163178628Y-83657142D01*
X163178628Y-83657142D02*
X163178628Y-84038094D01*
X162654819Y-82561904D02*
X162654819Y-83038094D01*
X162654819Y-83038094D02*
X163131009Y-83085713D01*
X163131009Y-83085713D02*
X163083390Y-83038094D01*
X163083390Y-83038094D02*
X163035771Y-82942856D01*
X163035771Y-82942856D02*
X163035771Y-82704761D01*
X163035771Y-82704761D02*
X163083390Y-82609523D01*
X163083390Y-82609523D02*
X163131009Y-82561904D01*
X163131009Y-82561904D02*
X163226247Y-82514285D01*
X163226247Y-82514285D02*
X163464342Y-82514285D01*
X163464342Y-82514285D02*
X163559580Y-82561904D01*
X163559580Y-82561904D02*
X163607200Y-82609523D01*
X163607200Y-82609523D02*
X163654819Y-82704761D01*
X163654819Y-82704761D02*
X163654819Y-82942856D01*
X163654819Y-82942856D02*
X163607200Y-83038094D01*
X163607200Y-83038094D02*
X163559580Y-83085713D01*
X137666667Y-72207200D02*
X137809524Y-72254819D01*
X137809524Y-72254819D02*
X138047619Y-72254819D01*
X138047619Y-72254819D02*
X138142857Y-72207200D01*
X138142857Y-72207200D02*
X138190476Y-72159580D01*
X138190476Y-72159580D02*
X138238095Y-72064342D01*
X138238095Y-72064342D02*
X138238095Y-71969104D01*
X138238095Y-71969104D02*
X138190476Y-71873866D01*
X138190476Y-71873866D02*
X138142857Y-71826247D01*
X138142857Y-71826247D02*
X138047619Y-71778628D01*
X138047619Y-71778628D02*
X137857143Y-71731009D01*
X137857143Y-71731009D02*
X137761905Y-71683390D01*
X137761905Y-71683390D02*
X137714286Y-71635771D01*
X137714286Y-71635771D02*
X137666667Y-71540533D01*
X137666667Y-71540533D02*
X137666667Y-71445295D01*
X137666667Y-71445295D02*
X137714286Y-71350057D01*
X137714286Y-71350057D02*
X137761905Y-71302438D01*
X137761905Y-71302438D02*
X137857143Y-71254819D01*
X137857143Y-71254819D02*
X138095238Y-71254819D01*
X138095238Y-71254819D02*
X138238095Y-71302438D01*
X138571429Y-71254819D02*
X138809524Y-72254819D01*
X138809524Y-72254819D02*
X139000000Y-71540533D01*
X139000000Y-71540533D02*
X139190476Y-72254819D01*
X139190476Y-72254819D02*
X139428572Y-71254819D01*
X140238095Y-71588152D02*
X140238095Y-72254819D01*
X140000000Y-71207200D02*
X139761905Y-71921485D01*
X139761905Y-71921485D02*
X140380952Y-71921485D01*
X160319819Y-90995238D02*
X159843628Y-91328571D01*
X160319819Y-91566666D02*
X159319819Y-91566666D01*
X159319819Y-91566666D02*
X159319819Y-91185714D01*
X159319819Y-91185714D02*
X159367438Y-91090476D01*
X159367438Y-91090476D02*
X159415057Y-91042857D01*
X159415057Y-91042857D02*
X159510295Y-90995238D01*
X159510295Y-90995238D02*
X159653152Y-90995238D01*
X159653152Y-90995238D02*
X159748390Y-91042857D01*
X159748390Y-91042857D02*
X159796009Y-91090476D01*
X159796009Y-91090476D02*
X159843628Y-91185714D01*
X159843628Y-91185714D02*
X159843628Y-91566666D01*
X159319819Y-90709523D02*
X160319819Y-90376190D01*
X160319819Y-90376190D02*
X159319819Y-90042857D01*
X160319819Y-89185714D02*
X160319819Y-89757142D01*
X160319819Y-89471428D02*
X159319819Y-89471428D01*
X159319819Y-89471428D02*
X159462676Y-89566666D01*
X159462676Y-89566666D02*
X159557914Y-89661904D01*
X159557914Y-89661904D02*
X159605533Y-89757142D01*
X153866667Y-72257200D02*
X154009524Y-72304819D01*
X154009524Y-72304819D02*
X154247619Y-72304819D01*
X154247619Y-72304819D02*
X154342857Y-72257200D01*
X154342857Y-72257200D02*
X154390476Y-72209580D01*
X154390476Y-72209580D02*
X154438095Y-72114342D01*
X154438095Y-72114342D02*
X154438095Y-72019104D01*
X154438095Y-72019104D02*
X154390476Y-71923866D01*
X154390476Y-71923866D02*
X154342857Y-71876247D01*
X154342857Y-71876247D02*
X154247619Y-71828628D01*
X154247619Y-71828628D02*
X154057143Y-71781009D01*
X154057143Y-71781009D02*
X153961905Y-71733390D01*
X153961905Y-71733390D02*
X153914286Y-71685771D01*
X153914286Y-71685771D02*
X153866667Y-71590533D01*
X153866667Y-71590533D02*
X153866667Y-71495295D01*
X153866667Y-71495295D02*
X153914286Y-71400057D01*
X153914286Y-71400057D02*
X153961905Y-71352438D01*
X153961905Y-71352438D02*
X154057143Y-71304819D01*
X154057143Y-71304819D02*
X154295238Y-71304819D01*
X154295238Y-71304819D02*
X154438095Y-71352438D01*
X154771429Y-71304819D02*
X155009524Y-72304819D01*
X155009524Y-72304819D02*
X155200000Y-71590533D01*
X155200000Y-71590533D02*
X155390476Y-72304819D01*
X155390476Y-72304819D02*
X155628572Y-71304819D01*
X155914286Y-71304819D02*
X156533333Y-71304819D01*
X156533333Y-71304819D02*
X156200000Y-71685771D01*
X156200000Y-71685771D02*
X156342857Y-71685771D01*
X156342857Y-71685771D02*
X156438095Y-71733390D01*
X156438095Y-71733390D02*
X156485714Y-71781009D01*
X156485714Y-71781009D02*
X156533333Y-71876247D01*
X156533333Y-71876247D02*
X156533333Y-72114342D01*
X156533333Y-72114342D02*
X156485714Y-72209580D01*
X156485714Y-72209580D02*
X156438095Y-72257200D01*
X156438095Y-72257200D02*
X156342857Y-72304819D01*
X156342857Y-72304819D02*
X156057143Y-72304819D01*
X156057143Y-72304819D02*
X155961905Y-72257200D01*
X155961905Y-72257200D02*
X155914286Y-72209580D01*
D11*
%TO.C,J1*%
X126610000Y-96130000D02*
X127940000Y-96130000D01*
X126610000Y-97460000D02*
X126610000Y-96130000D01*
X129210000Y-96130000D02*
X147050000Y-96130000D01*
X129210000Y-98790000D02*
X129210000Y-96130000D01*
X129210000Y-98790000D02*
X147050000Y-98790000D01*
X147050000Y-98790000D02*
X147050000Y-96130000D01*
%TO.C,J3*%
X149470000Y-96130000D02*
X150800000Y-96130000D01*
X149470000Y-97460000D02*
X149470000Y-96130000D01*
X152070000Y-96130000D02*
X164830000Y-96130000D01*
X152070000Y-98790000D02*
X152070000Y-96130000D01*
X152070000Y-98790000D02*
X164830000Y-98790000D01*
X164830000Y-98790000D02*
X164830000Y-96130000D01*
%TO.C,J2*%
X117466000Y-47870000D02*
X118796000Y-47870000D01*
X117466000Y-49200000D02*
X117466000Y-47870000D01*
X120066000Y-47870000D02*
X142986000Y-47870000D01*
X120066000Y-50530000D02*
X120066000Y-47870000D01*
X120066000Y-50530000D02*
X142986000Y-50530000D01*
X142986000Y-50530000D02*
X142986000Y-47870000D01*
%TO.C,J4*%
X144390000Y-47870000D02*
X145720000Y-47870000D01*
X144390000Y-49200000D02*
X144390000Y-47870000D01*
X146990000Y-47870000D02*
X164830000Y-47870000D01*
X146990000Y-50530000D02*
X146990000Y-47870000D01*
X146990000Y-50530000D02*
X164830000Y-50530000D01*
X164830000Y-50530000D02*
X164830000Y-47870000D01*
%TO.C,R2*%
X161830000Y-66830000D02*
X161830000Y-73370000D01*
X161830000Y-73370000D02*
X164570000Y-73370000D01*
X163200000Y-66060000D02*
X163200000Y-66830000D01*
X163200000Y-74140000D02*
X163200000Y-73370000D01*
X164570000Y-66830000D02*
X161830000Y-66830000D01*
X164570000Y-73370000D02*
X164570000Y-66830000D01*
%TO.C,J5*%
X103610000Y-80120000D02*
X103610000Y-82780000D01*
X121450000Y-80120000D02*
X103610000Y-80120000D01*
X121450000Y-80120000D02*
X121450000Y-82780000D01*
X121450000Y-82780000D02*
X103610000Y-82780000D01*
X124050000Y-81450000D02*
X124050000Y-82780000D01*
X124050000Y-82780000D02*
X122720000Y-82780000D01*
%TO.C,SW1*%
X151700000Y-55750000D02*
X151700000Y-57250000D01*
X152950000Y-59750000D02*
X157450000Y-59750000D01*
X157450000Y-53250000D02*
X152950000Y-53250000D01*
X158700000Y-57250000D02*
X158700000Y-55750000D01*
%TO.C,R4*%
X130730000Y-70380000D02*
X130730000Y-76920000D01*
X130730000Y-76920000D02*
X133470000Y-76920000D01*
X132100000Y-69610000D02*
X132100000Y-70380000D01*
X132100000Y-77690000D02*
X132100000Y-76920000D01*
X133470000Y-70380000D02*
X130730000Y-70380000D01*
X133470000Y-76920000D02*
X133470000Y-70380000D01*
%TO.C,R3*%
X147080000Y-71280000D02*
X147080000Y-77820000D01*
X147080000Y-77820000D02*
X149820000Y-77820000D01*
X148450000Y-70510000D02*
X148450000Y-71280000D01*
X148450000Y-78590000D02*
X148450000Y-77820000D01*
X149820000Y-71280000D02*
X147080000Y-71280000D01*
X149820000Y-77820000D02*
X149820000Y-71280000D01*
%TO.C,J7*%
X138800000Y-60900000D02*
X138800000Y-62150000D01*
X138800000Y-62150000D02*
X140050000Y-62150000D01*
X139090000Y-51740000D02*
X139090000Y-61860000D01*
X139090000Y-61860000D02*
X145060000Y-61860000D01*
X139100000Y-51750000D02*
X139100000Y-53550000D01*
X139100000Y-53550000D02*
X139850000Y-53550000D01*
X139100000Y-55050000D02*
X139100000Y-58550000D01*
X139100000Y-58550000D02*
X139850000Y-58550000D01*
X139100000Y-60050000D02*
X139100000Y-61850000D01*
X139100000Y-61850000D02*
X139850000Y-61850000D01*
X139850000Y-51750000D02*
X139100000Y-51750000D01*
X139850000Y-53550000D02*
X139850000Y-51750000D01*
X139850000Y-55050000D02*
X139100000Y-55050000D01*
X139850000Y-58550000D02*
X139850000Y-55050000D01*
X139850000Y-60050000D02*
X139100000Y-60050000D01*
X139850000Y-61850000D02*
X139850000Y-60050000D01*
X141350000Y-51750000D02*
X141350000Y-52500000D01*
X141350000Y-52500000D02*
X144300000Y-52500000D01*
X141350000Y-61100000D02*
X144300000Y-61100000D01*
X141350000Y-61850000D02*
X141350000Y-61100000D01*
X144300000Y-52500000D02*
X144300000Y-56800000D01*
X144300000Y-61100000D02*
X144300000Y-56800000D01*
X145060000Y-51740000D02*
X139090000Y-51740000D01*
X145060000Y-61860000D02*
X145060000Y-51740000D01*
%TO.C,R1*%
X161880000Y-53930000D02*
X161880000Y-60470000D01*
X161880000Y-60470000D02*
X164620000Y-60470000D01*
X163250000Y-53160000D02*
X163250000Y-53930000D01*
X163250000Y-61240000D02*
X163250000Y-60470000D01*
X164620000Y-53930000D02*
X161880000Y-53930000D01*
X164620000Y-60470000D02*
X164620000Y-53930000D01*
%TO.C,R6*%
X132890000Y-65900000D02*
X133660000Y-65900000D01*
X133660000Y-64530000D02*
X133660000Y-67270000D01*
X133660000Y-67270000D02*
X140200000Y-67270000D01*
X140200000Y-64530000D02*
X133660000Y-64530000D01*
X140200000Y-67270000D02*
X140200000Y-64530000D01*
X140970000Y-65900000D02*
X140200000Y-65900000D01*
%TO.C,SW5*%
X139350000Y-89350000D02*
X139350000Y-90850000D01*
X140600000Y-93350000D02*
X145100000Y-93350000D01*
X145100000Y-86850000D02*
X140600000Y-86850000D01*
X146350000Y-90850000D02*
X146350000Y-89350000D01*
%TO.C,J6*%
X111401668Y-75708332D02*
X111401668Y-78368332D01*
X119081668Y-75708332D02*
X111401668Y-75708332D01*
X119081668Y-75708332D02*
X119081668Y-78368332D01*
X119081668Y-78368332D02*
X111401668Y-78368332D01*
X121681668Y-77038332D02*
X121681668Y-78368332D01*
X121681668Y-78368332D02*
X120351668Y-78368332D01*
%TO.C,D1*%
X132220000Y-58705000D02*
X132220000Y-61795000D01*
X132220000Y-58705170D02*
G75*
G02*
X137770000Y-60249952I2560000J-1544830D01*
G01*
X137770000Y-60250048D02*
G75*
G02*
X132220000Y-61794830I-2990000J48D01*
G01*
X137280000Y-60250000D02*
G75*
G02*
X132280000Y-60250000I-2500000J0D01*
G01*
X132280000Y-60250000D02*
G75*
G02*
X137280000Y-60250000I2500000J0D01*
G01*
%TO.C,SW2*%
X151750000Y-63300000D02*
X151750000Y-64800000D01*
X153000000Y-67300000D02*
X157500000Y-67300000D01*
X157500000Y-60800000D02*
X153000000Y-60800000D01*
X158750000Y-64800000D02*
X158750000Y-63300000D01*
%TO.C,R5*%
X161830000Y-80030000D02*
X161830000Y-86570000D01*
X161830000Y-86570000D02*
X164570000Y-86570000D01*
X163200000Y-79260000D02*
X163200000Y-80030000D01*
X163200000Y-87340000D02*
X163200000Y-86570000D01*
X164570000Y-80030000D02*
X161830000Y-80030000D01*
X164570000Y-86570000D02*
X164570000Y-80030000D01*
%TO.C,SW4*%
X135500000Y-71050000D02*
X135500000Y-72550000D01*
X136750000Y-75050000D02*
X141250000Y-75050000D01*
X141250000Y-68550000D02*
X136750000Y-68550000D01*
X142500000Y-72550000D02*
X142500000Y-71050000D01*
%TO.C,RV1*%
X148965000Y-85515000D02*
X148965000Y-95285000D01*
X158735000Y-85515000D02*
X148965000Y-85515000D01*
X158735000Y-85515000D02*
X158735000Y-95285000D01*
X158735000Y-95285000D02*
X148965000Y-95285000D01*
%TO.C,SW3*%
X151700000Y-71100000D02*
X151700000Y-72600000D01*
X152950000Y-75100000D02*
X157450000Y-75100000D01*
X157450000Y-68600000D02*
X152950000Y-68600000D01*
X158700000Y-72600000D02*
X158700000Y-71100000D01*
%TD*%
M02*
