%TF.GenerationSoftware,KiCad,Pcbnew,8.0.8*%
%TF.CreationDate,2025-02-03T17:49:20-07:00*%
%TF.ProjectId,Thermo_Probe,54686572-6d6f-45f5-9072-6f62652e6b69,rev?*%
%TF.SameCoordinates,Original*%
%TF.FileFunction,Copper,L1,Top*%
%TF.FilePolarity,Positive*%
%FSLAX46Y46*%
G04 Gerber Fmt 4.6, Leading zero omitted, Abs format (unit mm)*
G04 Created by KiCad (PCBNEW 8.0.8) date 2025-02-03 17:49:20*
%MOMM*%
%LPD*%
G01*
G04 APERTURE LIST*
G04 Aperture macros list*
%AMRoundRect*
0 Rectangle with rounded corners*
0 $1 Rounding radius*
0 $2 $3 $4 $5 $6 $7 $8 $9 X,Y pos of 4 corners*
0 Add a 4 corners polygon primitive as box body*
4,1,4,$2,$3,$4,$5,$6,$7,$8,$9,$2,$3,0*
0 Add four circle primitives for the rounded corners*
1,1,$1+$1,$2,$3*
1,1,$1+$1,$4,$5*
1,1,$1+$1,$6,$7*
1,1,$1+$1,$8,$9*
0 Add four rect primitives between the rounded corners*
20,1,$1+$1,$2,$3,$4,$5,0*
20,1,$1+$1,$4,$5,$6,$7,0*
20,1,$1+$1,$6,$7,$8,$9,0*
20,1,$1+$1,$8,$9,$2,$3,0*%
G04 Aperture macros list end*
%TA.AperFunction,ComponentPad*%
%ADD10R,1.700000X1.700000*%
%TD*%
%TA.AperFunction,ComponentPad*%
%ADD11O,1.700000X1.700000*%
%TD*%
%TA.AperFunction,ComponentPad*%
%ADD12C,1.600000*%
%TD*%
%TA.AperFunction,ComponentPad*%
%ADD13O,1.600000X1.600000*%
%TD*%
%TA.AperFunction,ComponentPad*%
%ADD14C,2.000000*%
%TD*%
%TA.AperFunction,ComponentPad*%
%ADD15RoundRect,0.250000X0.725000X-0.600000X0.725000X0.600000X-0.725000X0.600000X-0.725000X-0.600000X0*%
%TD*%
%TA.AperFunction,ComponentPad*%
%ADD16O,1.950000X1.700000*%
%TD*%
%TA.AperFunction,ComponentPad*%
%ADD17R,1.800000X1.800000*%
%TD*%
%TA.AperFunction,ComponentPad*%
%ADD18C,1.800000*%
%TD*%
%TA.AperFunction,ComponentPad*%
%ADD19C,1.440000*%
%TD*%
%TA.AperFunction,Conductor*%
%ADD20C,0.508000*%
%TD*%
G04 APERTURE END LIST*
D10*
%TO.P,J1,1,Pin_1*%
%TO.N,unconnected-(J1-Pin_1-Pad1)*%
X127940000Y-97460000D03*
D11*
%TO.P,J1,2,Pin_2*%
%TO.N,/IOREF*%
X130480000Y-97460000D03*
%TO.P,J1,3,Pin_3*%
%TO.N,/~{RESET}*%
X133020000Y-97460000D03*
%TO.P,J1,4,Pin_4*%
%TO.N,+3V3*%
X135560000Y-97460000D03*
%TO.P,J1,5,Pin_5*%
%TO.N,+5V*%
X138100000Y-97460000D03*
%TO.P,J1,6,Pin_6*%
%TO.N,GND*%
X140640000Y-97460000D03*
%TO.P,J1,7,Pin_7*%
X143180000Y-97460000D03*
%TO.P,J1,8,Pin_8*%
%TO.N,VCC*%
X145720000Y-97460000D03*
%TD*%
D10*
%TO.P,J3,1,Pin_1*%
%TO.N,/Temp_sensor*%
X150800000Y-97460000D03*
D11*
%TO.P,J3,2,Pin_2*%
%TO.N,/A1*%
X153340000Y-97460000D03*
%TO.P,J3,3,Pin_3*%
%TO.N,/A2*%
X155880000Y-97460000D03*
%TO.P,J3,4,Pin_4*%
%TO.N,/A3*%
X158420000Y-97460000D03*
%TO.P,J3,5,Pin_5*%
%TO.N,/SDA{slash}A4*%
X160960000Y-97460000D03*
%TO.P,J3,6,Pin_6*%
%TO.N,/SCL{slash}A5*%
X163500000Y-97460000D03*
%TD*%
D10*
%TO.P,J2,1,Pin_1*%
%TO.N,/I2C_SCL*%
X118796000Y-49200000D03*
D11*
%TO.P,J2,2,Pin_2*%
%TO.N,/I2C_SDA*%
X121336000Y-49200000D03*
%TO.P,J2,3,Pin_3*%
%TO.N,/AREF*%
X123876000Y-49200000D03*
%TO.P,J2,4,Pin_4*%
%TO.N,GND*%
X126416000Y-49200000D03*
%TO.P,J2,5,Pin_5*%
%TO.N,/button_on{slash}off*%
X128956000Y-49200000D03*
%TO.P,J2,6,Pin_6*%
%TO.N,/12*%
X131496000Y-49200000D03*
%TO.P,J2,7,Pin_7*%
%TO.N,/\u002A11*%
X134036000Y-49200000D03*
%TO.P,J2,8,Pin_8*%
%TO.N,/LED_light*%
X136576000Y-49200000D03*
%TO.P,J2,9,Pin_9*%
%TO.N,unconnected-(J2-Pin_9-Pad9)*%
X139116000Y-49200000D03*
%TO.P,J2,10,Pin_10*%
%TO.N,/temp_digital*%
X141656000Y-49200000D03*
%TD*%
D10*
%TO.P,J4,1,Pin_1*%
%TO.N,unconnected-(J4-Pin_1-Pad1)*%
X145720000Y-49200000D03*
D11*
%TO.P,J4,2,Pin_2*%
%TO.N,/button_light*%
X148260000Y-49200000D03*
%TO.P,J4,3,Pin_3*%
%TO.N,/button_lock*%
X150800000Y-49200000D03*
%TO.P,J4,4,Pin_4*%
%TO.N,/button_cal*%
X153340000Y-49200000D03*
%TO.P,J4,5,Pin_5*%
%TO.N,/button_unit*%
X155880000Y-49200000D03*
%TO.P,J4,6,Pin_6*%
%TO.N,/2*%
X158420000Y-49200000D03*
%TO.P,J4,7,Pin_7*%
%TO.N,/TX{slash}1*%
X160960000Y-49200000D03*
%TO.P,J4,8,Pin_8*%
%TO.N,/RX{slash}0*%
X163500000Y-49200000D03*
%TD*%
D12*
%TO.P,R2,1*%
%TO.N,/button_cal*%
X163200000Y-65220000D03*
D13*
%TO.P,R2,2*%
%TO.N,GND*%
X163200000Y-75380000D03*
%TD*%
D14*
%TO.P,SW1,1,A*%
%TO.N,/button_unit*%
X152450000Y-52950000D03*
X158950000Y-52950000D03*
%TO.P,SW1,2,B*%
%TO.N,+5V*%
X152450000Y-57450000D03*
X158950000Y-57450000D03*
%TD*%
D12*
%TO.P,R4,1*%
%TO.N,/button_on{slash}off*%
X132250000Y-69820000D03*
D13*
%TO.P,R4,2*%
%TO.N,GND*%
X132250000Y-79980000D03*
%TD*%
D12*
%TO.P,R3,1*%
%TO.N,/button_lock*%
X148600000Y-73570000D03*
D13*
%TO.P,R3,2*%
%TO.N,GND*%
X148600000Y-83730000D03*
%TD*%
D15*
%TO.P,J7,1,Pin_1*%
%TO.N,+5V*%
X141550000Y-59300000D03*
D16*
%TO.P,J7,2,Pin_2*%
%TO.N,/temp_digital*%
X141550000Y-56800000D03*
%TO.P,J7,3,Pin_3*%
%TO.N,GND*%
X141550000Y-54300000D03*
%TD*%
D12*
%TO.P,R1,1*%
%TO.N,/button_unit*%
X163250000Y-52120000D03*
D13*
%TO.P,R1,2*%
%TO.N,GND*%
X163250000Y-62280000D03*
%TD*%
D12*
%TO.P,R6,1*%
%TO.N,/LED_light*%
X131850000Y-65900000D03*
D13*
%TO.P,R6,2*%
%TO.N,Net-(D1-A)*%
X142010000Y-65900000D03*
%TD*%
D14*
%TO.P,SW5,1,A*%
%TO.N,/button_light*%
X139600000Y-87850000D03*
X146100000Y-87850000D03*
%TO.P,SW5,2,B*%
%TO.N,+5V*%
X139600000Y-92350000D03*
X146100000Y-92350000D03*
%TD*%
D10*
%TO.P,J6,1,Pin_1*%
%TO.N,GND*%
X112231668Y-52938332D03*
D11*
%TO.P,J6,2,Pin_2*%
%TO.N,+5V*%
X114771668Y-52938332D03*
%TO.P,J6,3,Pin_3*%
%TO.N,/I2C_SCL*%
X117311668Y-52938332D03*
%TO.P,J6,4,Pin_4*%
%TO.N,/I2C_SDA*%
X119851668Y-52938332D03*
%TD*%
D17*
%TO.P,D1,1,K*%
%TO.N,GND*%
X133510000Y-60250000D03*
D18*
%TO.P,D1,2,A*%
%TO.N,Net-(D1-A)*%
X136050000Y-60250000D03*
%TD*%
D14*
%TO.P,SW2,1,A*%
%TO.N,/button_cal*%
X152550000Y-63700000D03*
X159050000Y-63700000D03*
%TO.P,SW2,2,B*%
%TO.N,+5V*%
X152550000Y-68200000D03*
X159050000Y-68200000D03*
%TD*%
D12*
%TO.P,R5,1*%
%TO.N,/button_light*%
X163250000Y-79470000D03*
D13*
%TO.P,R5,2*%
%TO.N,GND*%
X163250000Y-89630000D03*
%TD*%
D14*
%TO.P,SW4,1,A*%
%TO.N,/button_on{slash}off*%
X135750000Y-69550000D03*
X142250000Y-69550000D03*
%TO.P,SW4,2,B*%
%TO.N,+5V*%
X135750000Y-74050000D03*
X142250000Y-74050000D03*
%TD*%
D19*
%TO.P,RV1,1,1*%
%TO.N,+5V*%
X153110000Y-87815000D03*
%TO.P,RV1,2,2*%
%TO.N,/Temp_sensor*%
X155650000Y-90355000D03*
%TO.P,RV1,3,3*%
%TO.N,GND*%
X158190000Y-87815000D03*
%TD*%
D14*
%TO.P,SW3,1,A*%
%TO.N,/button_lock*%
X152550000Y-74450000D03*
X159050000Y-74450000D03*
%TO.P,SW3,2,B*%
%TO.N,+5V*%
X152550000Y-78950000D03*
X159050000Y-78950000D03*
%TD*%
D11*
%TO.P,J5,8,Pin_8*%
%TO.N,unconnected-(J5-Pin_8-Pad8)*%
X121505000Y-93225000D03*
%TO.P,J5,7,Pin_7*%
%TO.N,unconnected-(J5-Pin_7-Pad7)*%
X118965000Y-93225000D03*
%TO.P,J5,6,Pin_6*%
%TO.N,unconnected-(J5-Pin_6-Pad6)*%
X116425000Y-93225000D03*
%TO.P,J5,5,Pin_5*%
%TO.N,unconnected-(J5-Pin_5-Pad5)*%
X113885000Y-93225000D03*
%TO.P,J5,4,Pin_4*%
%TO.N,/I2C_SDA*%
X111345000Y-93225000D03*
%TO.P,J5,3,Pin_3*%
%TO.N,/I2C_SCL*%
X108805000Y-93225000D03*
%TO.P,J5,2,Pin_2*%
%TO.N,GND*%
X106265000Y-93225000D03*
D10*
%TO.P,J5,1,Pin_1*%
%TO.N,+5V*%
X103725000Y-93225000D03*
%TD*%
D20*
%TO.N,/I2C_SDA*%
X121336000Y-50404418D02*
G75*
G02*
X120593822Y-52196154I-2533900J18D01*
G01*
%TO.N,/I2C_SCL*%
X118053834Y-52196166D02*
G75*
G03*
X117311683Y-53987913I1791766J-1791734D01*
G01*
X118796000Y-50404418D02*
G75*
G02*
X118053822Y-52196154I-2533900J18D01*
G01*
%TO.N,+5V*%
X125549999Y-96156000D02*
X125549999Y-96156000D01*
X166900000Y-74485937D02*
X166900000Y-74520312D01*
X148757811Y-92167186D02*
X148717186Y-92207811D01*
X148955858Y-91969139D02*
X148905076Y-92019920D01*
X166900000Y-68668441D02*
X166900000Y-69071813D01*
X166900000Y-69275105D02*
X166900000Y-70085062D01*
X166900000Y-72616178D02*
X166900000Y-72818668D01*
X166900000Y-74039062D02*
X166900000Y-74210937D01*
X166900000Y-75070312D02*
X166900000Y-75104687D01*
X125449732Y-96156000D02*
X125549999Y-96156000D01*
X125549999Y-96156000D02*
X125449732Y-96156000D01*
X166900000Y-75104687D02*
X166900000Y-75139062D01*
X148798436Y-92126561D02*
X148757811Y-92167186D01*
X149006639Y-91918358D02*
X148955858Y-91969139D01*
X166900000Y-70085062D02*
X166900000Y-70895019D01*
X166900000Y-74606250D02*
X166900000Y-74743750D01*
X166900000Y-64308499D02*
X166900000Y-64917572D01*
X149225000Y-91699998D02*
X149062499Y-91862499D01*
X148874608Y-92050388D02*
X148864452Y-92060545D01*
X166900000Y-68265069D02*
X166900000Y-68668441D01*
X166900000Y-74881250D02*
X166900000Y-75018750D01*
X148839061Y-92085936D02*
X148798436Y-92126561D01*
X166900000Y-70895019D02*
X166900000Y-71704976D01*
X148671484Y-92253514D02*
X148661328Y-92263671D01*
X148864452Y-92060545D02*
X148854295Y-92070702D01*
X166900000Y-65321747D02*
X166900000Y-66340618D01*
X166900000Y-74210937D02*
X166900000Y-74382812D01*
X166900000Y-66340618D02*
X166900000Y-67359489D01*
X166900000Y-73300000D02*
X166900000Y-73850000D01*
X148691796Y-92233202D02*
X148681640Y-92243358D01*
X166900000Y-74520312D02*
X166900000Y-74554687D01*
X166900000Y-72008710D02*
X166900000Y-72211199D01*
X166900000Y-75173437D02*
X166900000Y-75207812D01*
X166900000Y-72211199D02*
X166900000Y-72413688D01*
X148701952Y-92223046D02*
X148691796Y-92233202D01*
X166900000Y-74743750D02*
X166900000Y-74881250D01*
%TO.N,/I2C_SCL*%
X118796000Y-50404418D02*
X118796000Y-49200000D01*
%TO.N,/I2C_SDA*%
X121336000Y-50404418D02*
X121336000Y-49200000D01*
X120593834Y-52196166D02*
X119851668Y-52938332D01*
%TO.N,+5V*%
X135750000Y-90543933D02*
G75*
G03*
X135825010Y-90724990I256100J33D01*
G01*
X135825000Y-90725000D02*
X135825000Y-90725000D01*
X135750000Y-90543933D02*
G75*
G03*
X135825010Y-90724990I256100J33D01*
G01*
X137000000Y-96360000D02*
G75*
G02*
X135900014Y-93704365I2655600J2655600D01*
G01*
X125600133Y-96156000D02*
X125600133Y-96156000D01*
X136639860Y-91539860D02*
G75*
G03*
X138475000Y-92299994I1835140J1835160D01*
G01*
X139575000Y-92325000D02*
G75*
G03*
X139514644Y-92299982I-60400J-60400D01*
G01*
X135900000Y-90906066D02*
G75*
G03*
X135824990Y-90725010I-256100J-34D01*
G01*
X137774000Y-97134000D02*
X137774000Y-97134000D01*
X166900000Y-74606250D02*
X166900000Y-74554687D01*
X166900000Y-74485937D02*
X166900000Y-74382812D01*
X148671484Y-92253514D02*
X148681640Y-92243358D01*
X166900000Y-71704976D02*
X166900000Y-72008710D01*
X166900000Y-72616178D02*
X166900000Y-72413688D01*
X166900000Y-75139062D02*
X166900000Y-75173437D01*
X148717186Y-92207811D02*
X148701952Y-92223046D01*
X125549999Y-96156000D02*
X125600133Y-96156000D01*
X125549999Y-96156000D02*
X125600133Y-96156000D01*
X149006639Y-91918358D02*
X149062499Y-91862499D01*
X148905076Y-92019920D02*
X148874608Y-92050388D01*
X166900000Y-74039062D02*
X166900000Y-73850000D01*
X166900000Y-68265069D02*
X166900000Y-67359489D01*
X148839061Y-92085936D02*
X148854295Y-92070702D01*
X166900000Y-69071813D02*
X166900000Y-69275105D01*
X166900000Y-75070312D02*
X166900000Y-75018750D01*
X166900000Y-64917572D02*
X166900000Y-65321747D01*
X135900000Y-90906066D02*
X135900000Y-93704365D01*
X137000000Y-96360000D02*
X137774000Y-97134000D01*
X135750000Y-90543933D02*
X135750000Y-74050000D01*
X138475000Y-92300000D02*
X139514644Y-92300000D01*
X139575000Y-92325000D02*
X139600000Y-92350000D01*
X136639860Y-91539860D02*
X135825000Y-90725000D01*
X125600133Y-96156000D02*
X125650267Y-96156000D01*
X135873932Y-96156000D02*
X125600133Y-96156000D01*
X125449732Y-96156000D02*
X108728529Y-96156000D01*
%TO.N,/I2C_SDA*%
X119851668Y-82464368D02*
G75*
G02*
X118257895Y-86312144I-5441568J-32D01*
G01*
%TO.N,/I2C_SCL*%
X117311668Y-82464368D02*
G75*
G02*
X115717895Y-86312144I-5441568J-32D01*
G01*
%TO.N,+5V*%
X105190500Y-94690500D02*
G75*
G03*
X108728529Y-96155988I3538000J3538000D01*
G01*
X137448000Y-96808000D02*
G75*
G03*
X135873932Y-96155986I-1574100J-1574100D01*
G01*
X113177875Y-83772124D02*
G75*
G03*
X114771640Y-79924368I-3847775J3847724D01*
G01*
X114771668Y-79924368D02*
X114771668Y-52938332D01*
X103725000Y-93225000D02*
X113177875Y-83772124D01*
%TO.N,/I2C_SDA*%
X118257875Y-86312124D02*
X111345000Y-93225000D01*
X119851668Y-82464368D02*
X119851668Y-53684802D01*
%TO.N,/I2C_SCL*%
X115717875Y-86312124D02*
X108805000Y-93225000D01*
X117311668Y-53987913D02*
X117311668Y-82464368D01*
%TO.N,+5V*%
X103725000Y-93225000D02*
X105190500Y-94690500D01*
X137448000Y-96808000D02*
X137774000Y-97134000D01*
%TO.N,/temp_digital*%
X143877187Y-55972811D02*
G75*
G03*
X144550006Y-54348500I-1624287J1624311D01*
G01*
X143580330Y-56269669D02*
G75*
G02*
X142300000Y-56799988I-1280330J1280369D01*
G01*
X143628639Y-51172639D02*
X141656000Y-49200000D01*
X144550000Y-53397000D02*
X144550000Y-54348500D01*
X143877187Y-55972811D02*
X143580330Y-56269669D01*
X142300000Y-56800000D02*
X141550000Y-56800000D01*
X143628639Y-51172639D02*
G75*
G02*
X144550006Y-53397000I-2224339J-2224361D01*
G01*
%TO.N,+5V*%
X159425000Y-78575000D02*
G75*
G02*
X158519669Y-78949988I-905300J905300D01*
G01*
%TO.N,/Temp_sensor*%
X154852737Y-93407262D02*
G75*
G03*
X155650007Y-91482500I-1924737J1924762D01*
G01*
%TO.N,/LED_light*%
X131600000Y-51850000D02*
G75*
G03*
X130799988Y-53781370I1931400J-1931400D01*
G01*
X133563000Y-51050000D02*
G75*
G03*
X135548359Y-50227628I0J2807700D01*
G01*
X131600000Y-51850000D02*
G75*
G02*
X133531370Y-51049988I1931400J-1931400D01*
G01*
X130800000Y-64107537D02*
G75*
G03*
X131325011Y-65374989I1792500J37D01*
G01*
%TO.N,/button_cal*%
X160946619Y-63700000D02*
G75*
G02*
X162539994Y-64360006I-19J-2253400D01*
G01*
X151049999Y-51299999D02*
G75*
G03*
X150299982Y-53110660I1810701J-1810701D01*
G01*
X152003535Y-50536464D02*
G75*
G03*
X152000008Y-50545000I8565J-8536D01*
G01*
X151995000Y-50550000D02*
G75*
G03*
X152000000Y-50545000I0J5000D01*
G01*
X151729289Y-50620710D02*
G75*
G02*
X151900000Y-50549993I170711J-170690D01*
G01*
X150300000Y-59859009D02*
G75*
G03*
X151425003Y-62574997I3841000J9D01*
G01*
%TO.N,/button_unit*%
X162835000Y-52535000D02*
G75*
G02*
X161833101Y-52950001I-1001900J1001900D01*
G01*
%TO.N,/button_light*%
X146100000Y-52887350D02*
G75*
G02*
X147179985Y-50279985I3687300J50D01*
G01*
X159843792Y-81706206D02*
G75*
G02*
X155996036Y-83300010I-3847792J3847806D01*
G01*
X147600000Y-87850000D02*
G75*
G03*
X150160656Y-86789336I0J3621300D01*
G01*
X152056207Y-84893792D02*
G75*
G02*
X155903963Y-83299959I3847793J-3847708D01*
G01*
X162665000Y-79470000D02*
G75*
G03*
X161666346Y-79883661I0J-1412300D01*
G01*
%TO.N,/button_lock*%
X149700000Y-50300000D02*
G75*
G03*
X148600014Y-52955634I2655600J-2655600D01*
G01*
X149040000Y-74010000D02*
G75*
G02*
X148599981Y-72947746I1062300J1062300D01*
G01*
X150102253Y-74450000D02*
G75*
G02*
X149040013Y-74009987I47J1502300D01*
G01*
%TO.N,/button_on{slash}off*%
X135615000Y-69685000D02*
G75*
G02*
X135289081Y-69819992I-325900J325900D01*
G01*
X135615000Y-69685000D02*
G75*
G02*
X135940918Y-69550008I325900J-325900D01*
G01*
X128956000Y-64272036D02*
G75*
G03*
X130549800Y-68119784I5441600J36D01*
G01*
%TO.N,+5V*%
X165306207Y-60156207D02*
G75*
G02*
X166900011Y-64003963I-3847807J-3847793D01*
G01*
X144950000Y-64953963D02*
G75*
G03*
X143356199Y-61106215I-5441600J-37D01*
G01*
X144950000Y-69440811D02*
G75*
G02*
X143599997Y-72699997I-4609200J11D01*
G01*
X164793792Y-83706206D02*
G75*
G02*
X160946036Y-85300010I-3847792J3847806D01*
G01*
X165350000Y-69750000D02*
G75*
G03*
X161607968Y-68200013I-3742000J-3742000D01*
G01*
X159800000Y-78200000D02*
G75*
G02*
X161610660Y-77449954I1810700J-1810600D01*
G01*
X165754548Y-70154548D02*
G75*
G02*
X166899995Y-72919913I-2765348J-2765352D01*
G01*
X166705545Y-75694454D02*
G75*
G03*
X166900002Y-75225000I-469445J469454D01*
G01*
X166900000Y-75775000D02*
G75*
G03*
X166705556Y-75694465I-113900J0D01*
G01*
X160775000Y-57450000D02*
G75*
G02*
X163890461Y-58740477I0J-4405900D01*
G01*
X165306207Y-83193792D02*
G75*
G03*
X166900010Y-79346036I-3847807J3847792D01*
G01*
X157403373Y-85300000D02*
G75*
G03*
X154367508Y-86557508I27J-4293400D01*
G01*
X163571141Y-77450000D02*
G75*
G03*
X165924988Y-76474988I-41J3328900D01*
G01*
X148460095Y-92350000D02*
G75*
G03*
X148656251Y-92268751I5J277400D01*
G01*
X166900000Y-72818668D02*
X166900000Y-72919913D01*
X166900000Y-75225000D02*
X166900000Y-75207812D01*
X166900000Y-75775000D02*
X166900000Y-75225000D01*
X148661328Y-92263671D02*
X148656250Y-92268750D01*
%TO.N,/button_cal*%
X152550000Y-63700000D02*
X151425000Y-62575000D01*
X150300000Y-53110660D02*
X150300000Y-59859009D01*
X151049999Y-51299999D02*
X151729289Y-50620710D01*
X151900000Y-50550000D02*
X151995000Y-50550000D01*
X152003535Y-50536464D02*
X153340000Y-49200000D01*
%TO.N,/button_on{slash}off*%
X128956000Y-64272036D02*
X128956000Y-49200000D01*
X132250000Y-69820000D02*
X130549792Y-68119792D01*
X135289081Y-69820000D02*
X132250000Y-69820000D01*
%TO.N,+5V*%
X166900000Y-64308499D02*
X166900000Y-64003963D01*
X160775000Y-57450000D02*
X158950000Y-57450000D01*
X163890469Y-58740469D02*
X165306207Y-60156207D01*
X165925000Y-76475000D02*
X166705545Y-75694454D01*
X163571141Y-77450000D02*
X161610660Y-77450000D01*
X159800000Y-78200000D02*
X159425000Y-78575000D01*
X166900000Y-75775000D02*
X166900000Y-79346036D01*
X164793792Y-83706206D02*
X165306207Y-83193792D01*
X157403373Y-85300000D02*
X160946036Y-85300000D01*
X153110000Y-87815000D02*
X154367500Y-86557500D01*
%TO.N,/button_light*%
X155996036Y-83300000D02*
X155903963Y-83300000D01*
X152056207Y-84893792D02*
X150160659Y-86789339D01*
X162665000Y-79470000D02*
X163250000Y-79470000D01*
X147600000Y-87850000D02*
X146100000Y-87850000D01*
X159843792Y-81706206D02*
X161666342Y-79883657D01*
%TO.N,+5V*%
X166900000Y-72919913D02*
X166900000Y-73300000D01*
%TO.N,/Temp_sensor*%
X154852737Y-93407262D02*
X150800000Y-97460000D01*
X155650000Y-91482500D02*
X155650000Y-90355000D01*
%TO.N,/button_lock*%
X149700000Y-50300000D02*
X150800000Y-49200000D01*
X148600000Y-52955634D02*
X148600000Y-72947746D01*
%TO.N,+5V*%
X158950000Y-57450000D02*
X152450000Y-57450000D01*
%TO.N,/button_unit*%
X158950000Y-52950000D02*
X152450000Y-52950000D01*
X158950000Y-52270000D02*
X155880000Y-49200000D01*
X162835000Y-52535000D02*
X163250000Y-52120000D01*
X161833101Y-52950000D02*
X158950000Y-52950000D01*
%TO.N,/button_cal*%
X162540000Y-64360000D02*
X163200000Y-65020000D01*
X160946619Y-63700000D02*
X159050000Y-63700000D01*
X159050000Y-63700000D02*
X152550000Y-63700000D01*
%TO.N,+5V*%
X159050000Y-68200000D02*
X152550000Y-68200000D01*
%TO.N,/button_lock*%
X150102253Y-74450000D02*
X152550000Y-74450000D01*
X152550000Y-74450000D02*
X159050000Y-74450000D01*
%TO.N,+5V*%
X158519669Y-78950000D02*
X152550000Y-78950000D01*
X165754548Y-70154548D02*
X165350000Y-69750000D01*
X159050000Y-68200000D02*
X161607968Y-68200000D01*
X153110000Y-87815000D02*
X149225000Y-91699998D01*
X148460095Y-92350000D02*
X146100000Y-92350000D01*
%TO.N,/button_light*%
X147180000Y-50280000D02*
X148260000Y-49200000D01*
X146100000Y-52887350D02*
X146100000Y-87850000D01*
%TO.N,Net-(D1-A)*%
X142010000Y-65900000D02*
X136360000Y-60250000D01*
%TO.N,+5V*%
X143356207Y-61106207D02*
X141550000Y-59300000D01*
X143600000Y-72700000D02*
X142250000Y-74050000D01*
X144950000Y-69440811D02*
X144950000Y-64953963D01*
X146100000Y-92350000D02*
X140660660Y-92350000D01*
X135750000Y-74050000D02*
X142250000Y-74050000D01*
%TO.N,/button_on{slash}off*%
X135940918Y-69550000D02*
X142250000Y-69550000D01*
%TO.N,/button_light*%
X146100000Y-87850000D02*
X139600000Y-87850000D01*
%TO.N,/LED_light*%
X131325000Y-65375000D02*
X131850000Y-65900000D01*
X130800000Y-53781370D02*
X130800000Y-64107537D01*
X135548365Y-50227634D02*
X136576000Y-49200000D01*
X133531370Y-51050000D02*
X133563000Y-51050000D01*
%TD*%
M02*
