%TF.GenerationSoftware,KiCad,Pcbnew,8.0.8*%
%TF.CreationDate,2025-02-03T15:41:03-07:00*%
%TF.ProjectId,Thermo_Probe,54686572-6d6f-45f5-9072-6f62652e6b69,rev?*%
%TF.SameCoordinates,Original*%
%TF.FileFunction,Copper,L2,Bot*%
%TF.FilePolarity,Positive*%
%FSLAX46Y46*%
G04 Gerber Fmt 4.6, Leading zero omitted, Abs format (unit mm)*
G04 Created by KiCad (PCBNEW 8.0.8) date 2025-02-03 15:41:03*
%MOMM*%
%LPD*%
G01*
G04 APERTURE LIST*
G04 Aperture macros list*
%AMRoundRect*
0 Rectangle with rounded corners*
0 $1 Rounding radius*
0 $2 $3 $4 $5 $6 $7 $8 $9 X,Y pos of 4 corners*
0 Add a 4 corners polygon primitive as box body*
4,1,4,$2,$3,$4,$5,$6,$7,$8,$9,$2,$3,0*
0 Add four circle primitives for the rounded corners*
1,1,$1+$1,$2,$3*
1,1,$1+$1,$4,$5*
1,1,$1+$1,$6,$7*
1,1,$1+$1,$8,$9*
0 Add four rect primitives between the rounded corners*
20,1,$1+$1,$2,$3,$4,$5,0*
20,1,$1+$1,$4,$5,$6,$7,0*
20,1,$1+$1,$6,$7,$8,$9,0*
20,1,$1+$1,$8,$9,$2,$3,0*%
G04 Aperture macros list end*
%TA.AperFunction,ComponentPad*%
%ADD10R,1.700000X1.700000*%
%TD*%
%TA.AperFunction,ComponentPad*%
%ADD11O,1.700000X1.700000*%
%TD*%
%TA.AperFunction,ComponentPad*%
%ADD12C,1.600000*%
%TD*%
%TA.AperFunction,ComponentPad*%
%ADD13O,1.600000X1.600000*%
%TD*%
%TA.AperFunction,ComponentPad*%
%ADD14C,2.000000*%
%TD*%
%TA.AperFunction,ComponentPad*%
%ADD15RoundRect,0.250000X0.725000X-0.600000X0.725000X0.600000X-0.725000X0.600000X-0.725000X-0.600000X0*%
%TD*%
%TA.AperFunction,ComponentPad*%
%ADD16O,1.950000X1.700000*%
%TD*%
%TA.AperFunction,ComponentPad*%
%ADD17R,1.800000X1.800000*%
%TD*%
%TA.AperFunction,ComponentPad*%
%ADD18C,1.800000*%
%TD*%
%TA.AperFunction,ComponentPad*%
%ADD19C,1.440000*%
%TD*%
G04 APERTURE END LIST*
D10*
%TO.P,J1,1,Pin_1*%
%TO.N,unconnected-(J1-Pin_1-Pad1)*%
X127940000Y-97460000D03*
D11*
%TO.P,J1,2,Pin_2*%
%TO.N,/IOREF*%
X130480000Y-97460000D03*
%TO.P,J1,3,Pin_3*%
%TO.N,/~{RESET}*%
X133020000Y-97460000D03*
%TO.P,J1,4,Pin_4*%
%TO.N,+3V3*%
X135560000Y-97460000D03*
%TO.P,J1,5,Pin_5*%
%TO.N,+5V*%
X138100000Y-97460000D03*
%TO.P,J1,6,Pin_6*%
%TO.N,GND*%
X140640000Y-97460000D03*
%TO.P,J1,7,Pin_7*%
X143180000Y-97460000D03*
%TO.P,J1,8,Pin_8*%
%TO.N,VCC*%
X145720000Y-97460000D03*
%TD*%
D10*
%TO.P,J3,1,Pin_1*%
%TO.N,/Temp_sensor*%
X150800000Y-97460000D03*
D11*
%TO.P,J3,2,Pin_2*%
%TO.N,/A1*%
X153340000Y-97460000D03*
%TO.P,J3,3,Pin_3*%
%TO.N,/A2*%
X155880000Y-97460000D03*
%TO.P,J3,4,Pin_4*%
%TO.N,/A3*%
X158420000Y-97460000D03*
%TO.P,J3,5,Pin_5*%
%TO.N,/SDA{slash}A4*%
X160960000Y-97460000D03*
%TO.P,J3,6,Pin_6*%
%TO.N,/SCL{slash}A5*%
X163500000Y-97460000D03*
%TD*%
D10*
%TO.P,J2,1,Pin_1*%
%TO.N,/I2C_SDA*%
X118796000Y-49200000D03*
D11*
%TO.P,J2,2,Pin_2*%
%TO.N,/I2C_SCL*%
X121336000Y-49200000D03*
%TO.P,J2,3,Pin_3*%
%TO.N,/AREF*%
X123876000Y-49200000D03*
%TO.P,J2,4,Pin_4*%
%TO.N,GND*%
X126416000Y-49200000D03*
%TO.P,J2,5,Pin_5*%
%TO.N,/button_on{slash}off*%
X128956000Y-49200000D03*
%TO.P,J2,6,Pin_6*%
%TO.N,/12*%
X131496000Y-49200000D03*
%TO.P,J2,7,Pin_7*%
%TO.N,/\u002A11*%
X134036000Y-49200000D03*
%TO.P,J2,8,Pin_8*%
%TO.N,/LED_light*%
X136576000Y-49200000D03*
%TO.P,J2,9,Pin_9*%
%TO.N,unconnected-(J2-Pin_9-Pad9)*%
X139116000Y-49200000D03*
%TO.P,J2,10,Pin_10*%
%TO.N,/temp_digital*%
X141656000Y-49200000D03*
%TD*%
D10*
%TO.P,J4,1,Pin_1*%
%TO.N,unconnected-(J4-Pin_1-Pad1)*%
X145720000Y-49200000D03*
D11*
%TO.P,J4,2,Pin_2*%
%TO.N,/button_light*%
X148260000Y-49200000D03*
%TO.P,J4,3,Pin_3*%
%TO.N,/button_lock*%
X150800000Y-49200000D03*
%TO.P,J4,4,Pin_4*%
%TO.N,/button_cal*%
X153340000Y-49200000D03*
%TO.P,J4,5,Pin_5*%
%TO.N,/button_unit*%
X155880000Y-49200000D03*
%TO.P,J4,6,Pin_6*%
%TO.N,/2*%
X158420000Y-49200000D03*
%TO.P,J4,7,Pin_7*%
%TO.N,/TX{slash}1*%
X160960000Y-49200000D03*
%TO.P,J4,8,Pin_8*%
%TO.N,/RX{slash}0*%
X163500000Y-49200000D03*
%TD*%
D12*
%TO.P,R2,1*%
%TO.N,/button_cal*%
X163200000Y-65020000D03*
D13*
%TO.P,R2,2*%
%TO.N,GND*%
X163200000Y-75180000D03*
%TD*%
D10*
%TO.P,J5,1,Pin_1*%
%TO.N,+5V*%
X122720000Y-81450000D03*
D11*
%TO.P,J5,2,Pin_2*%
%TO.N,GND*%
X120180000Y-81450000D03*
%TO.P,J5,3,Pin_3*%
%TO.N,/I2C_SCL*%
X117640000Y-81450000D03*
%TO.P,J5,4,Pin_4*%
%TO.N,/I2C_SDA*%
X115100000Y-81450000D03*
%TO.P,J5,5,Pin_5*%
%TO.N,unconnected-(J5-Pin_5-Pad5)*%
X112560000Y-81450000D03*
%TO.P,J5,6,Pin_6*%
%TO.N,unconnected-(J5-Pin_6-Pad6)*%
X110020000Y-81450000D03*
%TO.P,J5,7,Pin_7*%
%TO.N,unconnected-(J5-Pin_7-Pad7)*%
X107480000Y-81450000D03*
%TO.P,J5,8,Pin_8*%
%TO.N,unconnected-(J5-Pin_8-Pad8)*%
X104940000Y-81450000D03*
%TD*%
D14*
%TO.P,SW1,1,A*%
%TO.N,/button_unit*%
X151950000Y-54250000D03*
X158450000Y-54250000D03*
%TO.P,SW1,2,B*%
%TO.N,+5V*%
X151950000Y-58750000D03*
X158450000Y-58750000D03*
%TD*%
D12*
%TO.P,R4,1*%
%TO.N,/button_on{slash}off*%
X132100000Y-68570000D03*
D13*
%TO.P,R4,2*%
%TO.N,GND*%
X132100000Y-78730000D03*
%TD*%
D12*
%TO.P,R3,1*%
%TO.N,/button_lock*%
X148450000Y-69470000D03*
D13*
%TO.P,R3,2*%
%TO.N,GND*%
X148450000Y-79630000D03*
%TD*%
D15*
%TO.P,J7,1,Pin_1*%
%TO.N,+5V*%
X141550000Y-59300000D03*
D16*
%TO.P,J7,2,Pin_2*%
%TO.N,/temp_digital*%
X141550000Y-56800000D03*
%TO.P,J7,3,Pin_3*%
%TO.N,GND*%
X141550000Y-54300000D03*
%TD*%
D12*
%TO.P,R1,1*%
%TO.N,/button_unit*%
X163250000Y-52120000D03*
D13*
%TO.P,R1,2*%
%TO.N,GND*%
X163250000Y-62280000D03*
%TD*%
D12*
%TO.P,R6,1*%
%TO.N,/LED_light*%
X131850000Y-65900000D03*
D13*
%TO.P,R6,2*%
%TO.N,Net-(D1-A)*%
X142010000Y-65900000D03*
%TD*%
D14*
%TO.P,SW5,1,A*%
%TO.N,/button_light*%
X139600000Y-87850000D03*
X146100000Y-87850000D03*
%TO.P,SW5,2,B*%
%TO.N,+5V*%
X139600000Y-92350000D03*
X146100000Y-92350000D03*
%TD*%
D10*
%TO.P,J6,1,Pin_1*%
%TO.N,GND*%
X120351668Y-77038332D03*
D11*
%TO.P,J6,2,Pin_2*%
%TO.N,+5V*%
X117811668Y-77038332D03*
%TO.P,J6,3,Pin_3*%
%TO.N,/I2C_SCL*%
X115271668Y-77038332D03*
%TO.P,J6,4,Pin_4*%
%TO.N,/I2C_SDA*%
X112731668Y-77038332D03*
%TD*%
D17*
%TO.P,D1,1,K*%
%TO.N,GND*%
X133510000Y-60250000D03*
D18*
%TO.P,D1,2,A*%
%TO.N,Net-(D1-A)*%
X136050000Y-60250000D03*
%TD*%
D14*
%TO.P,SW2,1,A*%
%TO.N,/button_cal*%
X152000000Y-61800000D03*
X158500000Y-61800000D03*
%TO.P,SW2,2,B*%
%TO.N,+5V*%
X152000000Y-66300000D03*
X158500000Y-66300000D03*
%TD*%
D12*
%TO.P,R5,1*%
%TO.N,/button_light*%
X163200000Y-78220000D03*
D13*
%TO.P,R5,2*%
%TO.N,GND*%
X163200000Y-88380000D03*
%TD*%
D14*
%TO.P,SW4,1,A*%
%TO.N,/button_on{slash}off*%
X135750000Y-69550000D03*
X142250000Y-69550000D03*
%TO.P,SW4,2,B*%
%TO.N,+5V*%
X135750000Y-74050000D03*
X142250000Y-74050000D03*
%TD*%
D19*
%TO.P,RV1,1,1*%
%TO.N,+5V*%
X151310000Y-90415000D03*
%TO.P,RV1,2,2*%
%TO.N,/Temp_sensor*%
X153850000Y-92955000D03*
%TO.P,RV1,3,3*%
%TO.N,GND*%
X156390000Y-90415000D03*
%TD*%
D14*
%TO.P,SW3,1,A*%
%TO.N,/button_lock*%
X151950000Y-69600000D03*
X158450000Y-69600000D03*
%TO.P,SW3,2,B*%
%TO.N,+5V*%
X151950000Y-74100000D03*
X158450000Y-74100000D03*
%TD*%
%TA.AperFunction,Conductor*%
%TO.N,GND*%
G36*
X142714075Y-97267007D02*
G01*
X142680000Y-97394174D01*
X142680000Y-97525826D01*
X142714075Y-97652993D01*
X142746988Y-97710000D01*
X141073012Y-97710000D01*
X141105925Y-97652993D01*
X141140000Y-97525826D01*
X141140000Y-97394174D01*
X141105925Y-97267007D01*
X141073012Y-97210000D01*
X142746988Y-97210000D01*
X142714075Y-97267007D01*
G37*
%TD.AperFunction*%
%TA.AperFunction,Conductor*%
G36*
X163484404Y-46755185D02*
G01*
X163505046Y-46771819D01*
X165928181Y-49194954D01*
X165961666Y-49256277D01*
X165964500Y-49282635D01*
X165964500Y-59344982D01*
X165964500Y-59375018D01*
X165975994Y-59402767D01*
X165975995Y-59402768D01*
X168468181Y-61894954D01*
X168501666Y-61956277D01*
X168504500Y-61982635D01*
X168504500Y-96107364D01*
X168484815Y-96174403D01*
X168468181Y-96195045D01*
X165997233Y-98665994D01*
X165975995Y-98687231D01*
X165964500Y-98714982D01*
X165964500Y-99231907D01*
X165963903Y-99244062D01*
X165952505Y-99359778D01*
X165947763Y-99383618D01*
X165917832Y-99482290D01*
X165915789Y-99489024D01*
X165906486Y-99511482D01*
X165854561Y-99608627D01*
X165841056Y-99628839D01*
X165771176Y-99713988D01*
X165753988Y-99731176D01*
X165668839Y-99801056D01*
X165648627Y-99814561D01*
X165551482Y-99866486D01*
X165529028Y-99875787D01*
X165487028Y-99888528D01*
X165423618Y-99907763D01*
X165399778Y-99912505D01*
X165291162Y-99923203D01*
X165284060Y-99923903D01*
X165271907Y-99924500D01*
X100768093Y-99924500D01*
X100755939Y-99923903D01*
X100747995Y-99923120D01*
X100640221Y-99912505D01*
X100616381Y-99907763D01*
X100599445Y-99902625D01*
X100510968Y-99875786D01*
X100488517Y-99866486D01*
X100391372Y-99814561D01*
X100371160Y-99801056D01*
X100286011Y-99731176D01*
X100268823Y-99713988D01*
X100198943Y-99628839D01*
X100185438Y-99608627D01*
X100133510Y-99511476D01*
X100124215Y-99489037D01*
X100092234Y-99383612D01*
X100087494Y-99359777D01*
X100076097Y-99244061D01*
X100075500Y-99231907D01*
X100075500Y-96561345D01*
X126581500Y-96561345D01*
X126581500Y-98358654D01*
X126588011Y-98419202D01*
X126588011Y-98419204D01*
X126639111Y-98556204D01*
X126726739Y-98673261D01*
X126843796Y-98760889D01*
X126980799Y-98811989D01*
X127008050Y-98814918D01*
X127041345Y-98818499D01*
X127041362Y-98818500D01*
X128838638Y-98818500D01*
X128838654Y-98818499D01*
X128865692Y-98815591D01*
X128899201Y-98811989D01*
X129036204Y-98760889D01*
X129153261Y-98673261D01*
X129240889Y-98556204D01*
X129286138Y-98434887D01*
X129328009Y-98378956D01*
X129393474Y-98354539D01*
X129461746Y-98369391D01*
X129493545Y-98394236D01*
X129556760Y-98462906D01*
X129734424Y-98601189D01*
X129734425Y-98601189D01*
X129734427Y-98601191D01*
X129861135Y-98669761D01*
X129932426Y-98708342D01*
X130145365Y-98781444D01*
X130367431Y-98818500D01*
X130592569Y-98818500D01*
X130814635Y-98781444D01*
X131027574Y-98708342D01*
X131225576Y-98601189D01*
X131403240Y-98462906D01*
X131524594Y-98331082D01*
X131555715Y-98297276D01*
X131555715Y-98297275D01*
X131555722Y-98297268D01*
X131646193Y-98158790D01*
X131699338Y-98113437D01*
X131768569Y-98104013D01*
X131831905Y-98133515D01*
X131853804Y-98158787D01*
X131944278Y-98297268D01*
X131944283Y-98297273D01*
X131944284Y-98297276D01*
X132070968Y-98434889D01*
X132096760Y-98462906D01*
X132274424Y-98601189D01*
X132274425Y-98601189D01*
X132274427Y-98601191D01*
X132401135Y-98669761D01*
X132472426Y-98708342D01*
X132685365Y-98781444D01*
X132907431Y-98818500D01*
X133132569Y-98818500D01*
X133354635Y-98781444D01*
X133567574Y-98708342D01*
X133765576Y-98601189D01*
X133943240Y-98462906D01*
X134064594Y-98331082D01*
X134095715Y-98297276D01*
X134095715Y-98297275D01*
X134095722Y-98297268D01*
X134186193Y-98158790D01*
X134239338Y-98113437D01*
X134308569Y-98104013D01*
X134371905Y-98133515D01*
X134393804Y-98158787D01*
X134484278Y-98297268D01*
X134484283Y-98297273D01*
X134484284Y-98297276D01*
X134610968Y-98434889D01*
X134636760Y-98462906D01*
X134814424Y-98601189D01*
X134814425Y-98601189D01*
X134814427Y-98601191D01*
X134941135Y-98669761D01*
X135012426Y-98708342D01*
X135225365Y-98781444D01*
X135447431Y-98818500D01*
X135672569Y-98818500D01*
X135894635Y-98781444D01*
X136107574Y-98708342D01*
X136305576Y-98601189D01*
X136483240Y-98462906D01*
X136604594Y-98331082D01*
X136635715Y-98297276D01*
X136635715Y-98297275D01*
X136635722Y-98297268D01*
X136726193Y-98158790D01*
X136779338Y-98113437D01*
X136848569Y-98104013D01*
X136911905Y-98133515D01*
X136933804Y-98158787D01*
X137024278Y-98297268D01*
X137024283Y-98297273D01*
X137024284Y-98297276D01*
X137150968Y-98434889D01*
X137176760Y-98462906D01*
X137354424Y-98601189D01*
X137354425Y-98601189D01*
X137354427Y-98601191D01*
X137481135Y-98669761D01*
X137552426Y-98708342D01*
X137765365Y-98781444D01*
X137987431Y-98818500D01*
X138212569Y-98818500D01*
X138434635Y-98781444D01*
X138647574Y-98708342D01*
X138845576Y-98601189D01*
X139023240Y-98462906D01*
X139144594Y-98331082D01*
X139175715Y-98297276D01*
X139175715Y-98297275D01*
X139175722Y-98297268D01*
X139269749Y-98153347D01*
X139322894Y-98107994D01*
X139392125Y-98098570D01*
X139455461Y-98128072D01*
X139475130Y-98150048D01*
X139601890Y-98331078D01*
X139768917Y-98498105D01*
X139962421Y-98633600D01*
X140176507Y-98733429D01*
X140176516Y-98733433D01*
X140390000Y-98790634D01*
X140390000Y-97893012D01*
X140447007Y-97925925D01*
X140574174Y-97960000D01*
X140705826Y-97960000D01*
X140832993Y-97925925D01*
X140890000Y-97893012D01*
X140890000Y-98790633D01*
X141103483Y-98733433D01*
X141103492Y-98733429D01*
X141317578Y-98633600D01*
X141511082Y-98498105D01*
X141678105Y-98331082D01*
X141808425Y-98144968D01*
X141863002Y-98101344D01*
X141932501Y-98094151D01*
X141994855Y-98125673D01*
X142011575Y-98144968D01*
X142141894Y-98331082D01*
X142308917Y-98498105D01*
X142502421Y-98633600D01*
X142716507Y-98733429D01*
X142716516Y-98733433D01*
X142930000Y-98790634D01*
X142930000Y-97893012D01*
X142987007Y-97925925D01*
X143114174Y-97960000D01*
X143245826Y-97960000D01*
X143372993Y-97925925D01*
X143430000Y-97893012D01*
X143430000Y-98790633D01*
X143643483Y-98733433D01*
X143643492Y-98733429D01*
X143857578Y-98633600D01*
X144051082Y-98498105D01*
X144218105Y-98331082D01*
X144344868Y-98150048D01*
X144399445Y-98106423D01*
X144468944Y-98099231D01*
X144531298Y-98130753D01*
X144550251Y-98153350D01*
X144644276Y-98297265D01*
X144644284Y-98297276D01*
X144770968Y-98434889D01*
X144796760Y-98462906D01*
X144974424Y-98601189D01*
X144974425Y-98601189D01*
X144974427Y-98601191D01*
X145101135Y-98669761D01*
X145172426Y-98708342D01*
X145385365Y-98781444D01*
X145607431Y-98818500D01*
X145832569Y-98818500D01*
X146054635Y-98781444D01*
X146267574Y-98708342D01*
X146465576Y-98601189D01*
X146643240Y-98462906D01*
X146764594Y-98331082D01*
X146795715Y-98297276D01*
X146795717Y-98297273D01*
X146795722Y-98297268D01*
X146918860Y-98108791D01*
X147009296Y-97902616D01*
X147064564Y-97684368D01*
X147067164Y-97652993D01*
X147083156Y-97460005D01*
X147083156Y-97459994D01*
X147064565Y-97235640D01*
X147064563Y-97235628D01*
X147009296Y-97017385D01*
X146999071Y-96994075D01*
X146918860Y-96811209D01*
X146902706Y-96786484D01*
X146795723Y-96622734D01*
X146795715Y-96622723D01*
X146739212Y-96561345D01*
X149441500Y-96561345D01*
X149441500Y-98358654D01*
X149448011Y-98419202D01*
X149448011Y-98419204D01*
X149499111Y-98556204D01*
X149586739Y-98673261D01*
X149703796Y-98760889D01*
X149840799Y-98811989D01*
X149868050Y-98814918D01*
X149901345Y-98818499D01*
X149901362Y-98818500D01*
X151698638Y-98818500D01*
X151698654Y-98818499D01*
X151725692Y-98815591D01*
X151759201Y-98811989D01*
X151896204Y-98760889D01*
X152013261Y-98673261D01*
X152100889Y-98556204D01*
X152146138Y-98434887D01*
X152188009Y-98378956D01*
X152253474Y-98354539D01*
X152321746Y-98369391D01*
X152353545Y-98394236D01*
X152416760Y-98462906D01*
X152594424Y-98601189D01*
X152594425Y-98601189D01*
X152594427Y-98601191D01*
X152721135Y-98669761D01*
X152792426Y-98708342D01*
X153005365Y-98781444D01*
X153227431Y-98818500D01*
X153452569Y-98818500D01*
X153674635Y-98781444D01*
X153887574Y-98708342D01*
X154085576Y-98601189D01*
X154263240Y-98462906D01*
X154384594Y-98331082D01*
X154415715Y-98297276D01*
X154415715Y-98297275D01*
X154415722Y-98297268D01*
X154506193Y-98158790D01*
X154559338Y-98113437D01*
X154628569Y-98104013D01*
X154691905Y-98133515D01*
X154713804Y-98158787D01*
X154804278Y-98297268D01*
X154804283Y-98297273D01*
X154804284Y-98297276D01*
X154930968Y-98434889D01*
X154956760Y-98462906D01*
X155134424Y-98601189D01*
X155134425Y-98601189D01*
X155134427Y-98601191D01*
X155261135Y-98669761D01*
X155332426Y-98708342D01*
X155545365Y-98781444D01*
X155767431Y-98818500D01*
X155992569Y-98818500D01*
X156214635Y-98781444D01*
X156427574Y-98708342D01*
X156625576Y-98601189D01*
X156803240Y-98462906D01*
X156924594Y-98331082D01*
X156955715Y-98297276D01*
X156955715Y-98297275D01*
X156955722Y-98297268D01*
X157046193Y-98158790D01*
X157099338Y-98113437D01*
X157168569Y-98104013D01*
X157231905Y-98133515D01*
X157253804Y-98158787D01*
X157344278Y-98297268D01*
X157344283Y-98297273D01*
X157344284Y-98297276D01*
X157470968Y-98434889D01*
X157496760Y-98462906D01*
X157674424Y-98601189D01*
X157674425Y-98601189D01*
X157674427Y-98601191D01*
X157801135Y-98669761D01*
X157872426Y-98708342D01*
X158085365Y-98781444D01*
X158307431Y-98818500D01*
X158532569Y-98818500D01*
X158754635Y-98781444D01*
X158967574Y-98708342D01*
X159165576Y-98601189D01*
X159343240Y-98462906D01*
X159464594Y-98331082D01*
X159495715Y-98297276D01*
X159495715Y-98297275D01*
X159495722Y-98297268D01*
X159586193Y-98158790D01*
X159639338Y-98113437D01*
X159708569Y-98104013D01*
X159771905Y-98133515D01*
X159793804Y-98158787D01*
X159884278Y-98297268D01*
X159884283Y-98297273D01*
X159884284Y-98297276D01*
X160010968Y-98434889D01*
X160036760Y-98462906D01*
X160214424Y-98601189D01*
X160214425Y-98601189D01*
X160214427Y-98601191D01*
X160341135Y-98669761D01*
X160412426Y-98708342D01*
X160625365Y-98781444D01*
X160847431Y-98818500D01*
X161072569Y-98818500D01*
X161294635Y-98781444D01*
X161507574Y-98708342D01*
X161705576Y-98601189D01*
X161883240Y-98462906D01*
X162004594Y-98331082D01*
X162035715Y-98297276D01*
X162035715Y-98297275D01*
X162035722Y-98297268D01*
X162126193Y-98158790D01*
X162179338Y-98113437D01*
X162248569Y-98104013D01*
X162311905Y-98133515D01*
X162333804Y-98158787D01*
X162424278Y-98297268D01*
X162424283Y-98297273D01*
X162424284Y-98297276D01*
X162550968Y-98434889D01*
X162576760Y-98462906D01*
X162754424Y-98601189D01*
X162754425Y-98601189D01*
X162754427Y-98601191D01*
X162881135Y-98669761D01*
X162952426Y-98708342D01*
X163165365Y-98781444D01*
X163387431Y-98818500D01*
X163612569Y-98818500D01*
X163834635Y-98781444D01*
X164047574Y-98708342D01*
X164245576Y-98601189D01*
X164423240Y-98462906D01*
X164544594Y-98331082D01*
X164575715Y-98297276D01*
X164575717Y-98297273D01*
X164575722Y-98297268D01*
X164698860Y-98108791D01*
X164789296Y-97902616D01*
X164844564Y-97684368D01*
X164847164Y-97652993D01*
X164863156Y-97460005D01*
X164863156Y-97459994D01*
X164844565Y-97235640D01*
X164844563Y-97235628D01*
X164789296Y-97017385D01*
X164779071Y-96994075D01*
X164698860Y-96811209D01*
X164682706Y-96786484D01*
X164575723Y-96622734D01*
X164575715Y-96622723D01*
X164423243Y-96457097D01*
X164423238Y-96457092D01*
X164245577Y-96318812D01*
X164245572Y-96318808D01*
X164047580Y-96211661D01*
X164047577Y-96211659D01*
X164047574Y-96211658D01*
X164047571Y-96211657D01*
X164047569Y-96211656D01*
X163834637Y-96138556D01*
X163612569Y-96101500D01*
X163387431Y-96101500D01*
X163165362Y-96138556D01*
X162952430Y-96211656D01*
X162952419Y-96211661D01*
X162754427Y-96318808D01*
X162754422Y-96318812D01*
X162576761Y-96457092D01*
X162576756Y-96457097D01*
X162424284Y-96622723D01*
X162424276Y-96622734D01*
X162333808Y-96761206D01*
X162280662Y-96806562D01*
X162211431Y-96815986D01*
X162148095Y-96786484D01*
X162126192Y-96761206D01*
X162035723Y-96622734D01*
X162035715Y-96622723D01*
X161883243Y-96457097D01*
X161883238Y-96457092D01*
X161705577Y-96318812D01*
X161705572Y-96318808D01*
X161507580Y-96211661D01*
X161507577Y-96211659D01*
X161507574Y-96211658D01*
X161507571Y-96211657D01*
X161507569Y-96211656D01*
X161294637Y-96138556D01*
X161072569Y-96101500D01*
X160847431Y-96101500D01*
X160625362Y-96138556D01*
X160412430Y-96211656D01*
X160412419Y-96211661D01*
X160214427Y-96318808D01*
X160214422Y-96318812D01*
X160036761Y-96457092D01*
X160036756Y-96457097D01*
X159884284Y-96622723D01*
X159884276Y-96622734D01*
X159793808Y-96761206D01*
X159740662Y-96806562D01*
X159671431Y-96815986D01*
X159608095Y-96786484D01*
X159586192Y-96761206D01*
X159495723Y-96622734D01*
X159495715Y-96622723D01*
X159343243Y-96457097D01*
X159343238Y-96457092D01*
X159165577Y-96318812D01*
X159165572Y-96318808D01*
X158967580Y-96211661D01*
X158967577Y-96211659D01*
X158967574Y-96211658D01*
X158967571Y-96211657D01*
X158967569Y-96211656D01*
X158754637Y-96138556D01*
X158532569Y-96101500D01*
X158307431Y-96101500D01*
X158085362Y-96138556D01*
X157872430Y-96211656D01*
X157872419Y-96211661D01*
X157674427Y-96318808D01*
X157674422Y-96318812D01*
X157496761Y-96457092D01*
X157496756Y-96457097D01*
X157344284Y-96622723D01*
X157344276Y-96622734D01*
X157253808Y-96761206D01*
X157200662Y-96806562D01*
X157131431Y-96815986D01*
X157068095Y-96786484D01*
X157046192Y-96761206D01*
X156955723Y-96622734D01*
X156955715Y-96622723D01*
X156803243Y-96457097D01*
X156803238Y-96457092D01*
X156625577Y-96318812D01*
X156625572Y-96318808D01*
X156427580Y-96211661D01*
X156427577Y-96211659D01*
X156427574Y-96211658D01*
X156427571Y-96211657D01*
X156427569Y-96211656D01*
X156214637Y-96138556D01*
X155992569Y-96101500D01*
X155767431Y-96101500D01*
X155545362Y-96138556D01*
X155332430Y-96211656D01*
X155332419Y-96211661D01*
X155134427Y-96318808D01*
X155134422Y-96318812D01*
X154956761Y-96457092D01*
X154956756Y-96457097D01*
X154804284Y-96622723D01*
X154804276Y-96622734D01*
X154713808Y-96761206D01*
X154660662Y-96806562D01*
X154591431Y-96815986D01*
X154528095Y-96786484D01*
X154506192Y-96761206D01*
X154415723Y-96622734D01*
X154415715Y-96622723D01*
X154263243Y-96457097D01*
X154263238Y-96457092D01*
X154085577Y-96318812D01*
X154085572Y-96318808D01*
X153887580Y-96211661D01*
X153887577Y-96211659D01*
X153887574Y-96211658D01*
X153887571Y-96211657D01*
X153887569Y-96211656D01*
X153674637Y-96138556D01*
X153452569Y-96101500D01*
X153227431Y-96101500D01*
X153005362Y-96138556D01*
X152792430Y-96211656D01*
X152792419Y-96211661D01*
X152594427Y-96318808D01*
X152594422Y-96318812D01*
X152416761Y-96457092D01*
X152353548Y-96525760D01*
X152293661Y-96561750D01*
X152223823Y-96559649D01*
X152166207Y-96520124D01*
X152146138Y-96485110D01*
X152100889Y-96363796D01*
X152067214Y-96318812D01*
X152013261Y-96246739D01*
X151896204Y-96159111D01*
X151895172Y-96158726D01*
X151759203Y-96108011D01*
X151698654Y-96101500D01*
X151698638Y-96101500D01*
X149901362Y-96101500D01*
X149901345Y-96101500D01*
X149840797Y-96108011D01*
X149840795Y-96108011D01*
X149703795Y-96159111D01*
X149586739Y-96246739D01*
X149499111Y-96363795D01*
X149448011Y-96500795D01*
X149448011Y-96500797D01*
X149441500Y-96561345D01*
X146739212Y-96561345D01*
X146643243Y-96457097D01*
X146643238Y-96457092D01*
X146465577Y-96318812D01*
X146465572Y-96318808D01*
X146267580Y-96211661D01*
X146267577Y-96211659D01*
X146267574Y-96211658D01*
X146267571Y-96211657D01*
X146267569Y-96211656D01*
X146054637Y-96138556D01*
X145832569Y-96101500D01*
X145607431Y-96101500D01*
X145385362Y-96138556D01*
X145172430Y-96211656D01*
X145172419Y-96211661D01*
X144974427Y-96318808D01*
X144974422Y-96318812D01*
X144796761Y-96457092D01*
X144796756Y-96457097D01*
X144644284Y-96622723D01*
X144644276Y-96622734D01*
X144550251Y-96766650D01*
X144497105Y-96812007D01*
X144427873Y-96821430D01*
X144364538Y-96791928D01*
X144344868Y-96769951D01*
X144218113Y-96588926D01*
X144218108Y-96588920D01*
X144051082Y-96421894D01*
X143857578Y-96286399D01*
X143643492Y-96186570D01*
X143643486Y-96186567D01*
X143430000Y-96129364D01*
X143430000Y-97026988D01*
X143372993Y-96994075D01*
X143245826Y-96960000D01*
X143114174Y-96960000D01*
X142987007Y-96994075D01*
X142930000Y-97026988D01*
X142930000Y-96129364D01*
X142929999Y-96129364D01*
X142716513Y-96186567D01*
X142716507Y-96186570D01*
X142502422Y-96286399D01*
X142502420Y-96286400D01*
X142308926Y-96421886D01*
X142308920Y-96421891D01*
X142141891Y-96588920D01*
X142141890Y-96588922D01*
X142011575Y-96775031D01*
X141956998Y-96818655D01*
X141887499Y-96825848D01*
X141825145Y-96794326D01*
X141808425Y-96775031D01*
X141678109Y-96588922D01*
X141678108Y-96588920D01*
X141511082Y-96421894D01*
X141317578Y-96286399D01*
X141103492Y-96186570D01*
X141103486Y-96186567D01*
X140890000Y-96129364D01*
X140890000Y-97026988D01*
X140832993Y-96994075D01*
X140705826Y-96960000D01*
X140574174Y-96960000D01*
X140447007Y-96994075D01*
X140390000Y-97026988D01*
X140390000Y-96129364D01*
X140389999Y-96129364D01*
X140176513Y-96186567D01*
X140176507Y-96186570D01*
X139962422Y-96286399D01*
X139962420Y-96286400D01*
X139768926Y-96421886D01*
X139768920Y-96421891D01*
X139601891Y-96588920D01*
X139601890Y-96588922D01*
X139475131Y-96769952D01*
X139420554Y-96813577D01*
X139351055Y-96820769D01*
X139288701Y-96789247D01*
X139269752Y-96766656D01*
X139175722Y-96622732D01*
X139175715Y-96622725D01*
X139175715Y-96622723D01*
X139023243Y-96457097D01*
X139023238Y-96457092D01*
X138845577Y-96318812D01*
X138845572Y-96318808D01*
X138647580Y-96211661D01*
X138647577Y-96211659D01*
X138647574Y-96211658D01*
X138647571Y-96211657D01*
X138647569Y-96211656D01*
X138434637Y-96138556D01*
X138212569Y-96101500D01*
X137987431Y-96101500D01*
X137765362Y-96138556D01*
X137552430Y-96211656D01*
X137552419Y-96211661D01*
X137354427Y-96318808D01*
X137354422Y-96318812D01*
X137176761Y-96457092D01*
X137176756Y-96457097D01*
X137024284Y-96622723D01*
X137024276Y-96622734D01*
X136933808Y-96761206D01*
X136880662Y-96806562D01*
X136811431Y-96815986D01*
X136748095Y-96786484D01*
X136726192Y-96761206D01*
X136635723Y-96622734D01*
X136635715Y-96622723D01*
X136483243Y-96457097D01*
X136483238Y-96457092D01*
X136305577Y-96318812D01*
X136305572Y-96318808D01*
X136107580Y-96211661D01*
X136107577Y-96211659D01*
X136107574Y-96211658D01*
X136107571Y-96211657D01*
X136107569Y-96211656D01*
X135894637Y-96138556D01*
X135672569Y-96101500D01*
X135447431Y-96101500D01*
X135225362Y-96138556D01*
X135012430Y-96211656D01*
X135012419Y-96211661D01*
X134814427Y-96318808D01*
X134814422Y-96318812D01*
X134636761Y-96457092D01*
X134636756Y-96457097D01*
X134484284Y-96622723D01*
X134484276Y-96622734D01*
X134393808Y-96761206D01*
X134340662Y-96806562D01*
X134271431Y-96815986D01*
X134208095Y-96786484D01*
X134186192Y-96761206D01*
X134095723Y-96622734D01*
X134095715Y-96622723D01*
X133943243Y-96457097D01*
X133943238Y-96457092D01*
X133765577Y-96318812D01*
X133765572Y-96318808D01*
X133567580Y-96211661D01*
X133567577Y-96211659D01*
X133567574Y-96211658D01*
X133567571Y-96211657D01*
X133567569Y-96211656D01*
X133354637Y-96138556D01*
X133132569Y-96101500D01*
X132907431Y-96101500D01*
X132685362Y-96138556D01*
X132472430Y-96211656D01*
X132472419Y-96211661D01*
X132274427Y-96318808D01*
X132274422Y-96318812D01*
X132096761Y-96457092D01*
X132096756Y-96457097D01*
X131944284Y-96622723D01*
X131944276Y-96622734D01*
X131853808Y-96761206D01*
X131800662Y-96806562D01*
X131731431Y-96815986D01*
X131668095Y-96786484D01*
X131646192Y-96761206D01*
X131555723Y-96622734D01*
X131555715Y-96622723D01*
X131403243Y-96457097D01*
X131403238Y-96457092D01*
X131225577Y-96318812D01*
X131225572Y-96318808D01*
X131027580Y-96211661D01*
X131027577Y-96211659D01*
X131027574Y-96211658D01*
X131027571Y-96211657D01*
X131027569Y-96211656D01*
X130814637Y-96138556D01*
X130592569Y-96101500D01*
X130367431Y-96101500D01*
X130145362Y-96138556D01*
X129932430Y-96211656D01*
X129932419Y-96211661D01*
X129734427Y-96318808D01*
X129734422Y-96318812D01*
X129556761Y-96457092D01*
X129493548Y-96525760D01*
X129433661Y-96561750D01*
X129363823Y-96559649D01*
X129306207Y-96520124D01*
X129286138Y-96485110D01*
X129240889Y-96363796D01*
X129207214Y-96318812D01*
X129153261Y-96246739D01*
X129036204Y-96159111D01*
X129035172Y-96158726D01*
X128899203Y-96108011D01*
X128838654Y-96101500D01*
X128838638Y-96101500D01*
X127041362Y-96101500D01*
X127041345Y-96101500D01*
X126980797Y-96108011D01*
X126980795Y-96108011D01*
X126843795Y-96159111D01*
X126726739Y-96246739D01*
X126639111Y-96363795D01*
X126588011Y-96500795D01*
X126588011Y-96500797D01*
X126581500Y-96561345D01*
X100075500Y-96561345D01*
X100075500Y-92350000D01*
X138086835Y-92350000D01*
X138105465Y-92586714D01*
X138160895Y-92817595D01*
X138160895Y-92817597D01*
X138251757Y-93036959D01*
X138251759Y-93036962D01*
X138375820Y-93239410D01*
X138375821Y-93239413D01*
X138375824Y-93239416D01*
X138530031Y-93419969D01*
X138669797Y-93539340D01*
X138710586Y-93574178D01*
X138710589Y-93574179D01*
X138913037Y-93698240D01*
X138913040Y-93698242D01*
X139132403Y-93789104D01*
X139132404Y-93789104D01*
X139132406Y-93789105D01*
X139363289Y-93844535D01*
X139600000Y-93863165D01*
X139836711Y-93844535D01*
X140067594Y-93789105D01*
X140067596Y-93789104D01*
X140067597Y-93789104D01*
X140286959Y-93698242D01*
X140286960Y-93698241D01*
X140286963Y-93698240D01*
X140489416Y-93574176D01*
X140669969Y-93419969D01*
X140824176Y-93239416D01*
X140948240Y-93036963D01*
X141039105Y-92817594D01*
X141094535Y-92586711D01*
X141113165Y-92350000D01*
X144586835Y-92350000D01*
X144605465Y-92586714D01*
X144660895Y-92817595D01*
X144660895Y-92817597D01*
X144751757Y-93036959D01*
X144751759Y-93036962D01*
X144875820Y-93239410D01*
X144875821Y-93239413D01*
X144875824Y-93239416D01*
X145030031Y-93419969D01*
X145169797Y-93539340D01*
X145210586Y-93574178D01*
X145210589Y-93574179D01*
X145413037Y-93698240D01*
X145413040Y-93698242D01*
X145632403Y-93789104D01*
X145632404Y-93789104D01*
X145632406Y-93789105D01*
X145863289Y-93844535D01*
X146100000Y-93863165D01*
X146336711Y-93844535D01*
X146567594Y-93789105D01*
X146567596Y-93789104D01*
X146567597Y-93789104D01*
X146786959Y-93698242D01*
X146786960Y-93698241D01*
X146786963Y-93698240D01*
X146989416Y-93574176D01*
X147169969Y-93419969D01*
X147324176Y-93239416D01*
X147448240Y-93036963D01*
X147482191Y-92954998D01*
X152616807Y-92954998D01*
X152616807Y-92955001D01*
X152635541Y-93169136D01*
X152635542Y-93169144D01*
X152691176Y-93376772D01*
X152691177Y-93376774D01*
X152691178Y-93376777D01*
X152711319Y-93419969D01*
X152782024Y-93571597D01*
X152782026Y-93571601D01*
X152905319Y-93747682D01*
X153057317Y-93899680D01*
X153233398Y-94022973D01*
X153233400Y-94022974D01*
X153233403Y-94022976D01*
X153428223Y-94113822D01*
X153635858Y-94169458D01*
X153788816Y-94182840D01*
X153849998Y-94188193D01*
X153850000Y-94188193D01*
X153850002Y-94188193D01*
X153903535Y-94183509D01*
X154064142Y-94169458D01*
X154271777Y-94113822D01*
X154466597Y-94022976D01*
X154642681Y-93899681D01*
X154794681Y-93747681D01*
X154917976Y-93571597D01*
X155008822Y-93376777D01*
X155064458Y-93169142D01*
X155083193Y-92955000D01*
X155064458Y-92740858D01*
X155008822Y-92533223D01*
X154917976Y-92338404D01*
X154794681Y-92162319D01*
X154794679Y-92162316D01*
X154642682Y-92010319D01*
X154466601Y-91887026D01*
X154466597Y-91887024D01*
X154456685Y-91882402D01*
X154271777Y-91796178D01*
X154271774Y-91796177D01*
X154271772Y-91796176D01*
X154064144Y-91740542D01*
X154064136Y-91740541D01*
X153850002Y-91721807D01*
X153849998Y-91721807D01*
X153635863Y-91740541D01*
X153635855Y-91740542D01*
X153428227Y-91796176D01*
X153428221Y-91796179D01*
X153233405Y-91887023D01*
X153233403Y-91887024D01*
X153057316Y-92010320D01*
X152905320Y-92162316D01*
X152782024Y-92338403D01*
X152782023Y-92338405D01*
X152691179Y-92533221D01*
X152691176Y-92533227D01*
X152635542Y-92740855D01*
X152635541Y-92740863D01*
X152616807Y-92954998D01*
X147482191Y-92954998D01*
X147539105Y-92817594D01*
X147594535Y-92586711D01*
X147613165Y-92350000D01*
X147594535Y-92113289D01*
X147539105Y-91882406D01*
X147539104Y-91882403D01*
X147539104Y-91882402D01*
X147448242Y-91663040D01*
X147448240Y-91663037D01*
X147324179Y-91460589D01*
X147324178Y-91460586D01*
X147289340Y-91419797D01*
X147169969Y-91280031D01*
X147050596Y-91178076D01*
X146989413Y-91125821D01*
X146989410Y-91125820D01*
X146786962Y-91001759D01*
X146786959Y-91001757D01*
X146567596Y-90910895D01*
X146336714Y-90855465D01*
X146100000Y-90836835D01*
X145863285Y-90855465D01*
X145632404Y-90910895D01*
X145632402Y-90910895D01*
X145413040Y-91001757D01*
X145413037Y-91001759D01*
X145210589Y-91125820D01*
X145210586Y-91125821D01*
X145030031Y-91280031D01*
X144875821Y-91460586D01*
X144875820Y-91460589D01*
X144751759Y-91663037D01*
X144751757Y-91663040D01*
X144660895Y-91882402D01*
X144660895Y-91882404D01*
X144605465Y-92113285D01*
X144586835Y-92350000D01*
X141113165Y-92350000D01*
X141094535Y-92113289D01*
X141039105Y-91882406D01*
X141039104Y-91882403D01*
X141039104Y-91882402D01*
X140948242Y-91663040D01*
X140948240Y-91663037D01*
X140824179Y-91460589D01*
X140824178Y-91460586D01*
X140789340Y-91419797D01*
X140669969Y-91280031D01*
X140550596Y-91178076D01*
X140489413Y-91125821D01*
X140489410Y-91125820D01*
X140286962Y-91001759D01*
X140286959Y-91001757D01*
X140067596Y-90910895D01*
X139836714Y-90855465D01*
X139600000Y-90836835D01*
X139363285Y-90855465D01*
X139132404Y-90910895D01*
X139132402Y-90910895D01*
X138913040Y-91001757D01*
X138913037Y-91001759D01*
X138710589Y-91125820D01*
X138710586Y-91125821D01*
X138530031Y-91280031D01*
X138375821Y-91460586D01*
X138375820Y-91460589D01*
X138251759Y-91663037D01*
X138251757Y-91663040D01*
X138160895Y-91882402D01*
X138160895Y-91882404D01*
X138105465Y-92113285D01*
X138086835Y-92350000D01*
X100075500Y-92350000D01*
X100075500Y-90414998D01*
X150076807Y-90414998D01*
X150076807Y-90415001D01*
X150095541Y-90629136D01*
X150095542Y-90629144D01*
X150151176Y-90836772D01*
X150151177Y-90836774D01*
X150151178Y-90836777D01*
X150185740Y-90910895D01*
X150242024Y-91031597D01*
X150242026Y-91031601D01*
X150365319Y-91207682D01*
X150517317Y-91359680D01*
X150693398Y-91482973D01*
X150693400Y-91482974D01*
X150693403Y-91482976D01*
X150888223Y-91573822D01*
X151095858Y-91629458D01*
X151248816Y-91642840D01*
X151309998Y-91648193D01*
X151310000Y-91648193D01*
X151310002Y-91648193D01*
X151363535Y-91643509D01*
X151524142Y-91629458D01*
X151731777Y-91573822D01*
X151926597Y-91482976D01*
X152102681Y-91359681D01*
X152254681Y-91207681D01*
X152377976Y-91031597D01*
X152468822Y-90836777D01*
X152524458Y-90629142D01*
X152543193Y-90415000D01*
X152543193Y-90414997D01*
X155165340Y-90414997D01*
X155165340Y-90415002D01*
X155183944Y-90627654D01*
X155183945Y-90627662D01*
X155239194Y-90833853D01*
X155239197Y-90833859D01*
X155329413Y-91027329D01*
X155368415Y-91083030D01*
X155990000Y-90461445D01*
X155990000Y-90467661D01*
X156017259Y-90569394D01*
X156069920Y-90660606D01*
X156144394Y-90735080D01*
X156235606Y-90787741D01*
X156337339Y-90815000D01*
X156343554Y-90815000D01*
X155721968Y-91436584D01*
X155777663Y-91475582D01*
X155777669Y-91475586D01*
X155971140Y-91565802D01*
X155971146Y-91565805D01*
X156177337Y-91621054D01*
X156177345Y-91621055D01*
X156389998Y-91639660D01*
X156390002Y-91639660D01*
X156602654Y-91621055D01*
X156602662Y-91621054D01*
X156808853Y-91565805D01*
X156808864Y-91565801D01*
X157002325Y-91475589D01*
X157058030Y-91436583D01*
X156436447Y-90815000D01*
X156442661Y-90815000D01*
X156544394Y-90787741D01*
X156635606Y-90735080D01*
X156710080Y-90660606D01*
X156762741Y-90569394D01*
X156790000Y-90467661D01*
X156790000Y-90461446D01*
X157411583Y-91083029D01*
X157450589Y-91027325D01*
X157540801Y-90833864D01*
X157540805Y-90833853D01*
X157596054Y-90627662D01*
X157596055Y-90627654D01*
X157614660Y-90415002D01*
X157614660Y-90414997D01*
X157596055Y-90202345D01*
X157596054Y-90202337D01*
X157540805Y-89996146D01*
X157540802Y-89996140D01*
X157450586Y-89802669D01*
X157450582Y-89802663D01*
X157411584Y-89746968D01*
X156790000Y-90368552D01*
X156790000Y-90362339D01*
X156762741Y-90260606D01*
X156710080Y-90169394D01*
X156635606Y-90094920D01*
X156544394Y-90042259D01*
X156442661Y-90015000D01*
X156436447Y-90015000D01*
X157058030Y-89393415D01*
X157002329Y-89354413D01*
X156808859Y-89264197D01*
X156808853Y-89264194D01*
X156602662Y-89208945D01*
X156602654Y-89208944D01*
X156390002Y-89190340D01*
X156389998Y-89190340D01*
X156177345Y-89208944D01*
X156177337Y-89208945D01*
X155971146Y-89264194D01*
X155971140Y-89264197D01*
X155777671Y-89354412D01*
X155777669Y-89354413D01*
X155721969Y-89393415D01*
X155721968Y-89393415D01*
X156343554Y-90015000D01*
X156337339Y-90015000D01*
X156235606Y-90042259D01*
X156144394Y-90094920D01*
X156069920Y-90169394D01*
X156017259Y-90260606D01*
X155990000Y-90362339D01*
X155990000Y-90368553D01*
X155368415Y-89746968D01*
X155368415Y-89746969D01*
X155329413Y-89802669D01*
X155329412Y-89802671D01*
X155239197Y-89996140D01*
X155239194Y-89996146D01*
X155183945Y-90202337D01*
X155183944Y-90202345D01*
X155165340Y-90414997D01*
X152543193Y-90414997D01*
X152524458Y-90200858D01*
X152468822Y-89993223D01*
X152377976Y-89798404D01*
X152254681Y-89622319D01*
X152254679Y-89622316D01*
X152102682Y-89470319D01*
X151926601Y-89347026D01*
X151926597Y-89347024D01*
X151921257Y-89344534D01*
X151731777Y-89256178D01*
X151731774Y-89256177D01*
X151731772Y-89256176D01*
X151524144Y-89200542D01*
X151524136Y-89200541D01*
X151310002Y-89181807D01*
X151309998Y-89181807D01*
X151095863Y-89200541D01*
X151095855Y-89200542D01*
X150888227Y-89256176D01*
X150888221Y-89256179D01*
X150693405Y-89347023D01*
X150693403Y-89347024D01*
X150517316Y-89470320D01*
X150365320Y-89622316D01*
X150242024Y-89798403D01*
X150242023Y-89798405D01*
X150151179Y-89993221D01*
X150151176Y-89993227D01*
X150095542Y-90200855D01*
X150095541Y-90200863D01*
X150076807Y-90414998D01*
X100075500Y-90414998D01*
X100075500Y-87850000D01*
X138086835Y-87850000D01*
X138105465Y-88086714D01*
X138160895Y-88317595D01*
X138160895Y-88317597D01*
X138251757Y-88536959D01*
X138251759Y-88536962D01*
X138375820Y-88739410D01*
X138375821Y-88739413D01*
X138410486Y-88780000D01*
X138530031Y-88919969D01*
X138661767Y-89032482D01*
X138710586Y-89074178D01*
X138710589Y-89074179D01*
X138913037Y-89198240D01*
X138913040Y-89198242D01*
X139132403Y-89289104D01*
X139132404Y-89289104D01*
X139132406Y-89289105D01*
X139363289Y-89344535D01*
X139600000Y-89363165D01*
X139836711Y-89344535D01*
X140067594Y-89289105D01*
X140067596Y-89289104D01*
X140067597Y-89289104D01*
X140286959Y-89198242D01*
X140286960Y-89198241D01*
X140286963Y-89198240D01*
X140489416Y-89074176D01*
X140669969Y-88919969D01*
X140824176Y-88739416D01*
X140948240Y-88536963D01*
X141039105Y-88317594D01*
X141094535Y-88086711D01*
X141113165Y-87850000D01*
X144586835Y-87850000D01*
X144605465Y-88086714D01*
X144660895Y-88317595D01*
X144660895Y-88317597D01*
X144751757Y-88536959D01*
X144751759Y-88536962D01*
X144875820Y-88739410D01*
X144875821Y-88739413D01*
X144910486Y-88780000D01*
X145030031Y-88919969D01*
X145161767Y-89032482D01*
X145210586Y-89074178D01*
X145210589Y-89074179D01*
X145413037Y-89198240D01*
X145413040Y-89198242D01*
X145632403Y-89289104D01*
X145632404Y-89289104D01*
X145632406Y-89289105D01*
X145863289Y-89344535D01*
X146100000Y-89363165D01*
X146336711Y-89344535D01*
X146567594Y-89289105D01*
X146567596Y-89289104D01*
X146567597Y-89289104D01*
X146786959Y-89198242D01*
X146786960Y-89198241D01*
X146786963Y-89198240D01*
X146989416Y-89074176D01*
X147169969Y-88919969D01*
X147324176Y-88739416D01*
X147448240Y-88536963D01*
X147539105Y-88317594D01*
X147584142Y-88129999D01*
X161921127Y-88129999D01*
X161921128Y-88130000D01*
X162884314Y-88130000D01*
X162879920Y-88134394D01*
X162827259Y-88225606D01*
X162800000Y-88327339D01*
X162800000Y-88432661D01*
X162827259Y-88534394D01*
X162879920Y-88625606D01*
X162884314Y-88630000D01*
X161921128Y-88630000D01*
X161973730Y-88826317D01*
X161973734Y-88826326D01*
X162069865Y-89032482D01*
X162200342Y-89218820D01*
X162361179Y-89379657D01*
X162547517Y-89510134D01*
X162753673Y-89606265D01*
X162753682Y-89606269D01*
X162949999Y-89658872D01*
X162950000Y-89658871D01*
X162950000Y-88695686D01*
X162954394Y-88700080D01*
X163045606Y-88752741D01*
X163147339Y-88780000D01*
X163252661Y-88780000D01*
X163354394Y-88752741D01*
X163445606Y-88700080D01*
X163450000Y-88695686D01*
X163450000Y-89658872D01*
X163646317Y-89606269D01*
X163646326Y-89606265D01*
X163852482Y-89510134D01*
X164038820Y-89379657D01*
X164199657Y-89218820D01*
X164330134Y-89032482D01*
X164426265Y-88826326D01*
X164426269Y-88826317D01*
X164478872Y-88630000D01*
X163515686Y-88630000D01*
X163520080Y-88625606D01*
X163572741Y-88534394D01*
X163600000Y-88432661D01*
X163600000Y-88327339D01*
X163572741Y-88225606D01*
X163520080Y-88134394D01*
X163515686Y-88130000D01*
X164478872Y-88130000D01*
X164478872Y-88129999D01*
X164426269Y-87933682D01*
X164426265Y-87933673D01*
X164330134Y-87727517D01*
X164199657Y-87541179D01*
X164038820Y-87380342D01*
X163852482Y-87249865D01*
X163646328Y-87153734D01*
X163450000Y-87101127D01*
X163450000Y-88064314D01*
X163445606Y-88059920D01*
X163354394Y-88007259D01*
X163252661Y-87980000D01*
X163147339Y-87980000D01*
X163045606Y-88007259D01*
X162954394Y-88059920D01*
X162950000Y-88064314D01*
X162950000Y-87101127D01*
X162753671Y-87153734D01*
X162547517Y-87249865D01*
X162361179Y-87380342D01*
X162200342Y-87541179D01*
X162069865Y-87727517D01*
X161973734Y-87933673D01*
X161973730Y-87933682D01*
X161921127Y-88129999D01*
X147584142Y-88129999D01*
X147594535Y-88086711D01*
X147613165Y-87850000D01*
X147594535Y-87613289D01*
X147539105Y-87382406D01*
X147539104Y-87382403D01*
X147539104Y-87382402D01*
X147448242Y-87163040D01*
X147448240Y-87163037D01*
X147324179Y-86960589D01*
X147324178Y-86960586D01*
X147289340Y-86919797D01*
X147169969Y-86780031D01*
X147050596Y-86678076D01*
X146989413Y-86625821D01*
X146989410Y-86625820D01*
X146786962Y-86501759D01*
X146786959Y-86501757D01*
X146567596Y-86410895D01*
X146336714Y-86355465D01*
X146100000Y-86336835D01*
X145863285Y-86355465D01*
X145632404Y-86410895D01*
X145632402Y-86410895D01*
X145413040Y-86501757D01*
X145413037Y-86501759D01*
X145210589Y-86625820D01*
X145210586Y-86625821D01*
X145030031Y-86780031D01*
X144875821Y-86960586D01*
X144875820Y-86960589D01*
X144751759Y-87163037D01*
X144751757Y-87163040D01*
X144660895Y-87382402D01*
X144660895Y-87382404D01*
X144605465Y-87613285D01*
X144586835Y-87850000D01*
X141113165Y-87850000D01*
X141094535Y-87613289D01*
X141039105Y-87382406D01*
X141039104Y-87382403D01*
X141039104Y-87382402D01*
X140948242Y-87163040D01*
X140948240Y-87163037D01*
X140824179Y-86960589D01*
X140824178Y-86960586D01*
X140789340Y-86919797D01*
X140669969Y-86780031D01*
X140550596Y-86678076D01*
X140489413Y-86625821D01*
X140489410Y-86625820D01*
X140286962Y-86501759D01*
X140286959Y-86501757D01*
X140067596Y-86410895D01*
X139836714Y-86355465D01*
X139600000Y-86336835D01*
X139363285Y-86355465D01*
X139132404Y-86410895D01*
X139132402Y-86410895D01*
X138913040Y-86501757D01*
X138913037Y-86501759D01*
X138710589Y-86625820D01*
X138710586Y-86625821D01*
X138530031Y-86780031D01*
X138375821Y-86960586D01*
X138375820Y-86960589D01*
X138251759Y-87163037D01*
X138251757Y-87163040D01*
X138160895Y-87382402D01*
X138160895Y-87382404D01*
X138105465Y-87613285D01*
X138086835Y-87850000D01*
X100075500Y-87850000D01*
X100075500Y-81449994D01*
X103576844Y-81449994D01*
X103576844Y-81450005D01*
X103595434Y-81674359D01*
X103595436Y-81674371D01*
X103650703Y-81892614D01*
X103741140Y-82098792D01*
X103864276Y-82287265D01*
X103864284Y-82287276D01*
X103983355Y-82416619D01*
X104016760Y-82452906D01*
X104194424Y-82591189D01*
X104194425Y-82591189D01*
X104194427Y-82591191D01*
X104254314Y-82623600D01*
X104392426Y-82698342D01*
X104605365Y-82771444D01*
X104827431Y-82808500D01*
X105052569Y-82808500D01*
X105274635Y-82771444D01*
X105487574Y-82698342D01*
X105685576Y-82591189D01*
X105863240Y-82452906D01*
X105968295Y-82338787D01*
X106015715Y-82287276D01*
X106015715Y-82287275D01*
X106015722Y-82287268D01*
X106106193Y-82148790D01*
X106159338Y-82103437D01*
X106228569Y-82094013D01*
X106291905Y-82123515D01*
X106313804Y-82148787D01*
X106404278Y-82287268D01*
X106404283Y-82287273D01*
X106404284Y-82287276D01*
X106523355Y-82416619D01*
X106556760Y-82452906D01*
X106734424Y-82591189D01*
X106734425Y-82591189D01*
X106734427Y-82591191D01*
X106794314Y-82623600D01*
X106932426Y-82698342D01*
X107145365Y-82771444D01*
X107367431Y-82808500D01*
X107592569Y-82808500D01*
X107814635Y-82771444D01*
X108027574Y-82698342D01*
X108225576Y-82591189D01*
X108403240Y-82452906D01*
X108508295Y-82338787D01*
X108555715Y-82287276D01*
X108555715Y-82287275D01*
X108555722Y-82287268D01*
X108646193Y-82148790D01*
X108699338Y-82103437D01*
X108768569Y-82094013D01*
X108831905Y-82123515D01*
X108853804Y-82148787D01*
X108944278Y-82287268D01*
X108944283Y-82287273D01*
X108944284Y-82287276D01*
X109063355Y-82416619D01*
X109096760Y-82452906D01*
X109274424Y-82591189D01*
X109274425Y-82591189D01*
X109274427Y-82591191D01*
X109334314Y-82623600D01*
X109472426Y-82698342D01*
X109685365Y-82771444D01*
X109907431Y-82808500D01*
X110132569Y-82808500D01*
X110354635Y-82771444D01*
X110567574Y-82698342D01*
X110765576Y-82591189D01*
X110943240Y-82452906D01*
X111048295Y-82338787D01*
X111095715Y-82287276D01*
X111095715Y-82287275D01*
X111095722Y-82287268D01*
X111186193Y-82148790D01*
X111239338Y-82103437D01*
X111308569Y-82094013D01*
X111371905Y-82123515D01*
X111393804Y-82148787D01*
X111484278Y-82287268D01*
X111484283Y-82287273D01*
X111484284Y-82287276D01*
X111603355Y-82416619D01*
X111636760Y-82452906D01*
X111814424Y-82591189D01*
X111814425Y-82591189D01*
X111814427Y-82591191D01*
X111874314Y-82623600D01*
X112012426Y-82698342D01*
X112225365Y-82771444D01*
X112447431Y-82808500D01*
X112672569Y-82808500D01*
X112894635Y-82771444D01*
X113107574Y-82698342D01*
X113305576Y-82591189D01*
X113483240Y-82452906D01*
X113588295Y-82338787D01*
X113635715Y-82287276D01*
X113635715Y-82287275D01*
X113635722Y-82287268D01*
X113726193Y-82148790D01*
X113779338Y-82103437D01*
X113848569Y-82094013D01*
X113911905Y-82123515D01*
X113933804Y-82148787D01*
X114024278Y-82287268D01*
X114024283Y-82287273D01*
X114024284Y-82287276D01*
X114143355Y-82416619D01*
X114176760Y-82452906D01*
X114354424Y-82591189D01*
X114354425Y-82591189D01*
X114354427Y-82591191D01*
X114414314Y-82623600D01*
X114552426Y-82698342D01*
X114765365Y-82771444D01*
X114987431Y-82808500D01*
X115212569Y-82808500D01*
X115434635Y-82771444D01*
X115647574Y-82698342D01*
X115845576Y-82591189D01*
X116023240Y-82452906D01*
X116128295Y-82338787D01*
X116175715Y-82287276D01*
X116175715Y-82287275D01*
X116175722Y-82287268D01*
X116266193Y-82148790D01*
X116319338Y-82103437D01*
X116388569Y-82094013D01*
X116451905Y-82123515D01*
X116473804Y-82148787D01*
X116564278Y-82287268D01*
X116564283Y-82287273D01*
X116564284Y-82287276D01*
X116683355Y-82416619D01*
X116716760Y-82452906D01*
X116894424Y-82591189D01*
X116894425Y-82591189D01*
X116894427Y-82591191D01*
X116954314Y-82623600D01*
X117092426Y-82698342D01*
X117305365Y-82771444D01*
X117527431Y-82808500D01*
X117752569Y-82808500D01*
X117974635Y-82771444D01*
X118187574Y-82698342D01*
X118385576Y-82591189D01*
X118563240Y-82452906D01*
X118668295Y-82338787D01*
X118715715Y-82287276D01*
X118715715Y-82287275D01*
X118715722Y-82287268D01*
X118809749Y-82143347D01*
X118862894Y-82097994D01*
X118932125Y-82088570D01*
X118995461Y-82118072D01*
X119015130Y-82140048D01*
X119141890Y-82321078D01*
X119308917Y-82488105D01*
X119502421Y-82623600D01*
X119716507Y-82723429D01*
X119716516Y-82723433D01*
X119930000Y-82780634D01*
X119930000Y-81883012D01*
X119987007Y-81915925D01*
X120114174Y-81950000D01*
X120245826Y-81950000D01*
X120372993Y-81915925D01*
X120430000Y-81883012D01*
X120430000Y-82780633D01*
X120643483Y-82723433D01*
X120643492Y-82723429D01*
X120857578Y-82623600D01*
X121051078Y-82488108D01*
X121166914Y-82372272D01*
X121228237Y-82338787D01*
X121297929Y-82343771D01*
X121353863Y-82385642D01*
X121370777Y-82416619D01*
X121419110Y-82546203D01*
X121419111Y-82546204D01*
X121506739Y-82663261D01*
X121623796Y-82750889D01*
X121760799Y-82801989D01*
X121788050Y-82804918D01*
X121821345Y-82808499D01*
X121821362Y-82808500D01*
X123618638Y-82808500D01*
X123618654Y-82808499D01*
X123645692Y-82805591D01*
X123679201Y-82801989D01*
X123816204Y-82750889D01*
X123933261Y-82663261D01*
X124020889Y-82546204D01*
X124071989Y-82409201D01*
X124075959Y-82372272D01*
X124078499Y-82348654D01*
X124078500Y-82348637D01*
X124078500Y-80551362D01*
X124078499Y-80551345D01*
X124075157Y-80520270D01*
X124071989Y-80490799D01*
X124069222Y-80483381D01*
X124042559Y-80411894D01*
X124020889Y-80353796D01*
X123933261Y-80236739D01*
X123816204Y-80149111D01*
X123679203Y-80098011D01*
X123618654Y-80091500D01*
X123618638Y-80091500D01*
X121821362Y-80091500D01*
X121821345Y-80091500D01*
X121760797Y-80098011D01*
X121760795Y-80098011D01*
X121623795Y-80149111D01*
X121506739Y-80236739D01*
X121419111Y-80353795D01*
X121370777Y-80483381D01*
X121328905Y-80539314D01*
X121263441Y-80563730D01*
X121195168Y-80548878D01*
X121166915Y-80527727D01*
X121051082Y-80411894D01*
X120857578Y-80276399D01*
X120643492Y-80176570D01*
X120643486Y-80176567D01*
X120430000Y-80119364D01*
X120430000Y-81016988D01*
X120372993Y-80984075D01*
X120245826Y-80950000D01*
X120114174Y-80950000D01*
X119987007Y-80984075D01*
X119930000Y-81016988D01*
X119930000Y-80119364D01*
X119929999Y-80119364D01*
X119716513Y-80176567D01*
X119716507Y-80176570D01*
X119502422Y-80276399D01*
X119502420Y-80276400D01*
X119308926Y-80411886D01*
X119308920Y-80411891D01*
X119141891Y-80578920D01*
X119141890Y-80578922D01*
X119015131Y-80759952D01*
X118960554Y-80803577D01*
X118891055Y-80810769D01*
X118828701Y-80779247D01*
X118809752Y-80756656D01*
X118715722Y-80612732D01*
X118715715Y-80612725D01*
X118715715Y-80612723D01*
X118563243Y-80447097D01*
X118563238Y-80447092D01*
X118385577Y-80308812D01*
X118385572Y-80308808D01*
X118187580Y-80201661D01*
X118187577Y-80201659D01*
X118187574Y-80201658D01*
X118187571Y-80201657D01*
X118187569Y-80201656D01*
X117974637Y-80128556D01*
X117752569Y-80091500D01*
X117527431Y-80091500D01*
X117305362Y-80128556D01*
X117092430Y-80201656D01*
X117092419Y-80201661D01*
X116894427Y-80308808D01*
X116894422Y-80308812D01*
X116716761Y-80447092D01*
X116716756Y-80447097D01*
X116564284Y-80612723D01*
X116564276Y-80612734D01*
X116473808Y-80751206D01*
X116420662Y-80796562D01*
X116351431Y-80805986D01*
X116288095Y-80776484D01*
X116266192Y-80751206D01*
X116208286Y-80662576D01*
X116175722Y-80612732D01*
X116175719Y-80612729D01*
X116175715Y-80612723D01*
X116023243Y-80447097D01*
X116023238Y-80447092D01*
X115845577Y-80308812D01*
X115845572Y-80308808D01*
X115647580Y-80201661D01*
X115647577Y-80201659D01*
X115647574Y-80201658D01*
X115647571Y-80201657D01*
X115647569Y-80201656D01*
X115434637Y-80128556D01*
X115212569Y-80091500D01*
X114987431Y-80091500D01*
X114765362Y-80128556D01*
X114552430Y-80201656D01*
X114552419Y-80201661D01*
X114354427Y-80308808D01*
X114354422Y-80308812D01*
X114176761Y-80447092D01*
X114176756Y-80447097D01*
X114024284Y-80612723D01*
X114024276Y-80612734D01*
X113933808Y-80751206D01*
X113880662Y-80796562D01*
X113811431Y-80805986D01*
X113748095Y-80776484D01*
X113726192Y-80751206D01*
X113668286Y-80662576D01*
X113635722Y-80612732D01*
X113635719Y-80612729D01*
X113635715Y-80612723D01*
X113483243Y-80447097D01*
X113483238Y-80447092D01*
X113305577Y-80308812D01*
X113305572Y-80308808D01*
X113107580Y-80201661D01*
X113107577Y-80201659D01*
X113107574Y-80201658D01*
X113107571Y-80201657D01*
X113107569Y-80201656D01*
X112894637Y-80128556D01*
X112672569Y-80091500D01*
X112447431Y-80091500D01*
X112225362Y-80128556D01*
X112012430Y-80201656D01*
X112012419Y-80201661D01*
X111814427Y-80308808D01*
X111814422Y-80308812D01*
X111636761Y-80447092D01*
X111636756Y-80447097D01*
X111484284Y-80612723D01*
X111484276Y-80612734D01*
X111393808Y-80751206D01*
X111340662Y-80796562D01*
X111271431Y-80805986D01*
X111208095Y-80776484D01*
X111186192Y-80751206D01*
X111128286Y-80662576D01*
X111095722Y-80612732D01*
X111095719Y-80612729D01*
X111095715Y-80612723D01*
X110943243Y-80447097D01*
X110943238Y-80447092D01*
X110765577Y-80308812D01*
X110765572Y-80308808D01*
X110567580Y-80201661D01*
X110567577Y-80201659D01*
X110567574Y-80201658D01*
X110567571Y-80201657D01*
X110567569Y-80201656D01*
X110354637Y-80128556D01*
X110132569Y-80091500D01*
X109907431Y-80091500D01*
X109685362Y-80128556D01*
X109472430Y-80201656D01*
X109472419Y-80201661D01*
X109274427Y-80308808D01*
X109274422Y-80308812D01*
X109096761Y-80447092D01*
X109096756Y-80447097D01*
X108944284Y-80612723D01*
X108944276Y-80612734D01*
X108853808Y-80751206D01*
X108800662Y-80796562D01*
X108731431Y-80805986D01*
X108668095Y-80776484D01*
X108646192Y-80751206D01*
X108588286Y-80662576D01*
X108555722Y-80612732D01*
X108555719Y-80612729D01*
X108555715Y-80612723D01*
X108403243Y-80447097D01*
X108403238Y-80447092D01*
X108225577Y-80308812D01*
X108225572Y-80308808D01*
X108027580Y-80201661D01*
X108027577Y-80201659D01*
X108027574Y-80201658D01*
X108027571Y-80201657D01*
X108027569Y-80201656D01*
X107814637Y-80128556D01*
X107592569Y-80091500D01*
X107367431Y-80091500D01*
X107145362Y-80128556D01*
X106932430Y-80201656D01*
X106932419Y-80201661D01*
X106734427Y-80308808D01*
X106734422Y-80308812D01*
X106556761Y-80447092D01*
X106556756Y-80447097D01*
X106404284Y-80612723D01*
X106404276Y-80612734D01*
X106313808Y-80751206D01*
X106260662Y-80796562D01*
X106191431Y-80805986D01*
X106128095Y-80776484D01*
X106106192Y-80751206D01*
X106048286Y-80662576D01*
X106015722Y-80612732D01*
X106015719Y-80612729D01*
X106015715Y-80612723D01*
X105863243Y-80447097D01*
X105863238Y-80447092D01*
X105685577Y-80308812D01*
X105685572Y-80308808D01*
X105487580Y-80201661D01*
X105487577Y-80201659D01*
X105487574Y-80201658D01*
X105487571Y-80201657D01*
X105487569Y-80201656D01*
X105274637Y-80128556D01*
X105052569Y-80091500D01*
X104827431Y-80091500D01*
X104605362Y-80128556D01*
X104392430Y-80201656D01*
X104392419Y-80201661D01*
X104194427Y-80308808D01*
X104194422Y-80308812D01*
X104016761Y-80447092D01*
X104016756Y-80447097D01*
X103864284Y-80612723D01*
X103864276Y-80612734D01*
X103741140Y-80801207D01*
X103650703Y-81007385D01*
X103595436Y-81225628D01*
X103595434Y-81225640D01*
X103576844Y-81449994D01*
X100075500Y-81449994D01*
X100075500Y-78479999D01*
X130821127Y-78479999D01*
X130821128Y-78480000D01*
X131784314Y-78480000D01*
X131779920Y-78484394D01*
X131727259Y-78575606D01*
X131700000Y-78677339D01*
X131700000Y-78782661D01*
X131727259Y-78884394D01*
X131779920Y-78975606D01*
X131784314Y-78980000D01*
X130821128Y-78980000D01*
X130873730Y-79176317D01*
X130873734Y-79176326D01*
X130969865Y-79382482D01*
X131100342Y-79568820D01*
X131261179Y-79729657D01*
X131447517Y-79860134D01*
X131653673Y-79956265D01*
X131653682Y-79956269D01*
X131849999Y-80008872D01*
X131850000Y-80008871D01*
X131850000Y-79045686D01*
X131854394Y-79050080D01*
X131945606Y-79102741D01*
X132047339Y-79130000D01*
X132152661Y-79130000D01*
X132254394Y-79102741D01*
X132345606Y-79050080D01*
X132350000Y-79045686D01*
X132350000Y-80008872D01*
X132546317Y-79956269D01*
X132546326Y-79956265D01*
X132752482Y-79860134D01*
X132938820Y-79729657D01*
X133099657Y-79568820D01*
X133230134Y-79382482D01*
X133231292Y-79379999D01*
X147171127Y-79379999D01*
X147171128Y-79380000D01*
X148134314Y-79380000D01*
X148129920Y-79384394D01*
X148077259Y-79475606D01*
X148050000Y-79577339D01*
X148050000Y-79682661D01*
X148077259Y-79784394D01*
X148129920Y-79875606D01*
X148134314Y-79880000D01*
X147171128Y-79880000D01*
X147223730Y-80076317D01*
X147223734Y-80076326D01*
X147319865Y-80282482D01*
X147450342Y-80468820D01*
X147611179Y-80629657D01*
X147797517Y-80760134D01*
X148003673Y-80856265D01*
X148003682Y-80856269D01*
X148199999Y-80908872D01*
X148200000Y-80908871D01*
X148200000Y-79945686D01*
X148204394Y-79950080D01*
X148295606Y-80002741D01*
X148397339Y-80030000D01*
X148502661Y-80030000D01*
X148604394Y-80002741D01*
X148695606Y-79950080D01*
X148700000Y-79945686D01*
X148700000Y-80908872D01*
X148896317Y-80856269D01*
X148896326Y-80856265D01*
X149102482Y-80760134D01*
X149288820Y-80629657D01*
X149449657Y-80468820D01*
X149580134Y-80282482D01*
X149676265Y-80076326D01*
X149676269Y-80076317D01*
X149728872Y-79880000D01*
X148765686Y-79880000D01*
X148770080Y-79875606D01*
X148822741Y-79784394D01*
X148850000Y-79682661D01*
X148850000Y-79577339D01*
X148822741Y-79475606D01*
X148770080Y-79384394D01*
X148765686Y-79380000D01*
X149728872Y-79380000D01*
X149728872Y-79379999D01*
X149676269Y-79183682D01*
X149676265Y-79183673D01*
X149580134Y-78977517D01*
X149449657Y-78791179D01*
X149288820Y-78630342D01*
X149102482Y-78499865D01*
X148896328Y-78403734D01*
X148700000Y-78351127D01*
X148700000Y-79314314D01*
X148695606Y-79309920D01*
X148604394Y-79257259D01*
X148502661Y-79230000D01*
X148397339Y-79230000D01*
X148295606Y-79257259D01*
X148204394Y-79309920D01*
X148200000Y-79314314D01*
X148200000Y-78351127D01*
X148003671Y-78403734D01*
X147797517Y-78499865D01*
X147611179Y-78630342D01*
X147450342Y-78791179D01*
X147319865Y-78977517D01*
X147223734Y-79183673D01*
X147223730Y-79183682D01*
X147171127Y-79379999D01*
X133231292Y-79379999D01*
X133326265Y-79176326D01*
X133326269Y-79176317D01*
X133378872Y-78980000D01*
X132415686Y-78980000D01*
X132420080Y-78975606D01*
X132472741Y-78884394D01*
X132500000Y-78782661D01*
X132500000Y-78677339D01*
X132472741Y-78575606D01*
X132420080Y-78484394D01*
X132415686Y-78480000D01*
X133378872Y-78480000D01*
X133378872Y-78479999D01*
X133326269Y-78283682D01*
X133326265Y-78283673D01*
X133296573Y-78219998D01*
X161886502Y-78219998D01*
X161886502Y-78220001D01*
X161906456Y-78448081D01*
X161906457Y-78448089D01*
X161965714Y-78669238D01*
X161965718Y-78669249D01*
X162018603Y-78782661D01*
X162062477Y-78876749D01*
X162193802Y-79064300D01*
X162355700Y-79226198D01*
X162543251Y-79357523D01*
X162668091Y-79415736D01*
X162750750Y-79454281D01*
X162750752Y-79454281D01*
X162750757Y-79454284D01*
X162971913Y-79513543D01*
X163134832Y-79527796D01*
X163199998Y-79533498D01*
X163200000Y-79533498D01*
X163200002Y-79533498D01*
X163257021Y-79528509D01*
X163428087Y-79513543D01*
X163649243Y-79454284D01*
X163856749Y-79357523D01*
X164044300Y-79226198D01*
X164206198Y-79064300D01*
X164337523Y-78876749D01*
X164434284Y-78669243D01*
X164493543Y-78448087D01*
X164513498Y-78220000D01*
X164493543Y-77991913D01*
X164434284Y-77770757D01*
X164337523Y-77563251D01*
X164206198Y-77375700D01*
X164044300Y-77213802D01*
X163856749Y-77082477D01*
X163856745Y-77082475D01*
X163649249Y-76985718D01*
X163649238Y-76985714D01*
X163428089Y-76926457D01*
X163428081Y-76926456D01*
X163200002Y-76906502D01*
X163199998Y-76906502D01*
X162971918Y-76926456D01*
X162971910Y-76926457D01*
X162750761Y-76985714D01*
X162750750Y-76985718D01*
X162543254Y-77082475D01*
X162543252Y-77082476D01*
X162543251Y-77082477D01*
X162355700Y-77213802D01*
X162355698Y-77213803D01*
X162355695Y-77213806D01*
X162193806Y-77375695D01*
X162062476Y-77563252D01*
X162062475Y-77563254D01*
X161965718Y-77770750D01*
X161965714Y-77770761D01*
X161906457Y-77991910D01*
X161906456Y-77991918D01*
X161886502Y-78219998D01*
X133296573Y-78219998D01*
X133230134Y-78077517D01*
X133099657Y-77891179D01*
X132938820Y-77730342D01*
X132752482Y-77599865D01*
X132546328Y-77503734D01*
X132350000Y-77451127D01*
X132350000Y-78414314D01*
X132345606Y-78409920D01*
X132254394Y-78357259D01*
X132152661Y-78330000D01*
X132047339Y-78330000D01*
X131945606Y-78357259D01*
X131854394Y-78409920D01*
X131850000Y-78414314D01*
X131850000Y-77451127D01*
X131653671Y-77503734D01*
X131447517Y-77599865D01*
X131261179Y-77730342D01*
X131100342Y-77891179D01*
X130969865Y-78077517D01*
X130873734Y-78283673D01*
X130873730Y-78283682D01*
X130821127Y-78479999D01*
X100075500Y-78479999D01*
X100075500Y-77038326D01*
X111368512Y-77038326D01*
X111368512Y-77038337D01*
X111387102Y-77262691D01*
X111387104Y-77262703D01*
X111442371Y-77480946D01*
X111532808Y-77687124D01*
X111655944Y-77875597D01*
X111655952Y-77875608D01*
X111776181Y-78006209D01*
X111808428Y-78041238D01*
X111986092Y-78179521D01*
X111986093Y-78179521D01*
X111986095Y-78179523D01*
X112108046Y-78245519D01*
X112184094Y-78286674D01*
X112397033Y-78359776D01*
X112619099Y-78396832D01*
X112844237Y-78396832D01*
X113066303Y-78359776D01*
X113279242Y-78286674D01*
X113477244Y-78179521D01*
X113654908Y-78041238D01*
X113757708Y-77929569D01*
X113807383Y-77875608D01*
X113807383Y-77875607D01*
X113807390Y-77875600D01*
X113897861Y-77737122D01*
X113951006Y-77691769D01*
X114020237Y-77682345D01*
X114083573Y-77711847D01*
X114105472Y-77737119D01*
X114195946Y-77875600D01*
X114195951Y-77875605D01*
X114195952Y-77875608D01*
X114316181Y-78006209D01*
X114348428Y-78041238D01*
X114526092Y-78179521D01*
X114526093Y-78179521D01*
X114526095Y-78179523D01*
X114648046Y-78245519D01*
X114724094Y-78286674D01*
X114937033Y-78359776D01*
X115159099Y-78396832D01*
X115384237Y-78396832D01*
X115606303Y-78359776D01*
X115819242Y-78286674D01*
X116017244Y-78179521D01*
X116194908Y-78041238D01*
X116297708Y-77929569D01*
X116347383Y-77875608D01*
X116347383Y-77875607D01*
X116347390Y-77875600D01*
X116437861Y-77737122D01*
X116491006Y-77691769D01*
X116560237Y-77682345D01*
X116623573Y-77711847D01*
X116645472Y-77737119D01*
X116735946Y-77875600D01*
X116735951Y-77875605D01*
X116735952Y-77875608D01*
X116856181Y-78006209D01*
X116888428Y-78041238D01*
X117066092Y-78179521D01*
X117066093Y-78179521D01*
X117066095Y-78179523D01*
X117188046Y-78245519D01*
X117264094Y-78286674D01*
X117477033Y-78359776D01*
X117699099Y-78396832D01*
X117924237Y-78396832D01*
X118146303Y-78359776D01*
X118359242Y-78286674D01*
X118557244Y-78179521D01*
X118734908Y-78041238D01*
X118804576Y-77965558D01*
X118864461Y-77929569D01*
X118934299Y-77931669D01*
X118991915Y-77971192D01*
X119011986Y-78006209D01*
X119058313Y-78130418D01*
X119058317Y-78130425D01*
X119144477Y-78245519D01*
X119144480Y-78245522D01*
X119259574Y-78331682D01*
X119259581Y-78331686D01*
X119394288Y-78381928D01*
X119394295Y-78381930D01*
X119453823Y-78388331D01*
X119453840Y-78388332D01*
X120101668Y-78388332D01*
X120101668Y-77471344D01*
X120158675Y-77504257D01*
X120285842Y-77538332D01*
X120417494Y-77538332D01*
X120544661Y-77504257D01*
X120601668Y-77471344D01*
X120601668Y-78388332D01*
X121249496Y-78388332D01*
X121249512Y-78388331D01*
X121309040Y-78381930D01*
X121309047Y-78381928D01*
X121443754Y-78331686D01*
X121443761Y-78331682D01*
X121558855Y-78245522D01*
X121558858Y-78245519D01*
X121645018Y-78130425D01*
X121645022Y-78130418D01*
X121695264Y-77995711D01*
X121695266Y-77995704D01*
X121701667Y-77936176D01*
X121701668Y-77936159D01*
X121701668Y-77288332D01*
X120784680Y-77288332D01*
X120817593Y-77231325D01*
X120851668Y-77104158D01*
X120851668Y-76972506D01*
X120817593Y-76845339D01*
X120784680Y-76788332D01*
X121701668Y-76788332D01*
X121701668Y-76140504D01*
X121701667Y-76140487D01*
X121695266Y-76080959D01*
X121695264Y-76080952D01*
X121645022Y-75946245D01*
X121645018Y-75946238D01*
X121558858Y-75831144D01*
X121558855Y-75831141D01*
X121443761Y-75744981D01*
X121443754Y-75744977D01*
X121309047Y-75694735D01*
X121309040Y-75694733D01*
X121249512Y-75688332D01*
X120601668Y-75688332D01*
X120601668Y-76605320D01*
X120544661Y-76572407D01*
X120417494Y-76538332D01*
X120285842Y-76538332D01*
X120158675Y-76572407D01*
X120101668Y-76605320D01*
X120101668Y-75688332D01*
X119453823Y-75688332D01*
X119394295Y-75694733D01*
X119394288Y-75694735D01*
X119259581Y-75744977D01*
X119259574Y-75744981D01*
X119144480Y-75831141D01*
X119144477Y-75831144D01*
X119058317Y-75946238D01*
X119058314Y-75946243D01*
X119011986Y-76070455D01*
X118970114Y-76126388D01*
X118904650Y-76150805D01*
X118836377Y-76135953D01*
X118804578Y-76111107D01*
X118734908Y-76035426D01*
X118557244Y-75897143D01*
X118557243Y-75897142D01*
X118557240Y-75897140D01*
X118359248Y-75789993D01*
X118359245Y-75789991D01*
X118359242Y-75789990D01*
X118359239Y-75789989D01*
X118359237Y-75789988D01*
X118146305Y-75716888D01*
X117924237Y-75679832D01*
X117699099Y-75679832D01*
X117477030Y-75716888D01*
X117264098Y-75789988D01*
X117264087Y-75789993D01*
X117066095Y-75897140D01*
X117066090Y-75897144D01*
X116888429Y-76035424D01*
X116888424Y-76035429D01*
X116735952Y-76201055D01*
X116735944Y-76201066D01*
X116645476Y-76339538D01*
X116592330Y-76384894D01*
X116523099Y-76394318D01*
X116459763Y-76364816D01*
X116437860Y-76339538D01*
X116347391Y-76201066D01*
X116347383Y-76201055D01*
X116194911Y-76035429D01*
X116194906Y-76035424D01*
X116017245Y-75897144D01*
X116017240Y-75897140D01*
X115819248Y-75789993D01*
X115819245Y-75789991D01*
X115819242Y-75789990D01*
X115819239Y-75789989D01*
X115819237Y-75789988D01*
X115606305Y-75716888D01*
X115384237Y-75679832D01*
X115159099Y-75679832D01*
X114937030Y-75716888D01*
X114724098Y-75789988D01*
X114724087Y-75789993D01*
X114526095Y-75897140D01*
X114526090Y-75897144D01*
X114348429Y-76035424D01*
X114348424Y-76035429D01*
X114195952Y-76201055D01*
X114195944Y-76201066D01*
X114105476Y-76339538D01*
X114052330Y-76384894D01*
X113983099Y-76394318D01*
X113919763Y-76364816D01*
X113897860Y-76339538D01*
X113807391Y-76201066D01*
X113807383Y-76201055D01*
X113654911Y-76035429D01*
X113654906Y-76035424D01*
X113477245Y-75897144D01*
X113477240Y-75897140D01*
X113279248Y-75789993D01*
X113279245Y-75789991D01*
X113279242Y-75789990D01*
X113279239Y-75789989D01*
X113279237Y-75789988D01*
X113066305Y-75716888D01*
X112844237Y-75679832D01*
X112619099Y-75679832D01*
X112397030Y-75716888D01*
X112184098Y-75789988D01*
X112184087Y-75789993D01*
X111986095Y-75897140D01*
X111986090Y-75897144D01*
X111808429Y-76035424D01*
X111808424Y-76035429D01*
X111655952Y-76201055D01*
X111655944Y-76201066D01*
X111532808Y-76389539D01*
X111442371Y-76595717D01*
X111387104Y-76813960D01*
X111387102Y-76813972D01*
X111368512Y-77038326D01*
X100075500Y-77038326D01*
X100075500Y-74050000D01*
X134236835Y-74050000D01*
X134255465Y-74286714D01*
X134310895Y-74517595D01*
X134310895Y-74517597D01*
X134401757Y-74736959D01*
X134401759Y-74736962D01*
X134525820Y-74939410D01*
X134525821Y-74939413D01*
X134568528Y-74989416D01*
X134680031Y-75119969D01*
X134811976Y-75232661D01*
X134860586Y-75274178D01*
X134860589Y-75274179D01*
X135063037Y-75398240D01*
X135063040Y-75398242D01*
X135282403Y-75489104D01*
X135282404Y-75489104D01*
X135282406Y-75489105D01*
X135513289Y-75544535D01*
X135750000Y-75563165D01*
X135986711Y-75544535D01*
X136217594Y-75489105D01*
X136217596Y-75489104D01*
X136217597Y-75489104D01*
X136436959Y-75398242D01*
X136436960Y-75398241D01*
X136436963Y-75398240D01*
X136639416Y-75274176D01*
X136819969Y-75119969D01*
X136974176Y-74939416D01*
X137098240Y-74736963D01*
X137168395Y-74567594D01*
X137189104Y-74517597D01*
X137189104Y-74517596D01*
X137189105Y-74517594D01*
X137244535Y-74286711D01*
X137263165Y-74050000D01*
X140736835Y-74050000D01*
X140755465Y-74286714D01*
X140810895Y-74517595D01*
X140810895Y-74517597D01*
X140901757Y-74736959D01*
X140901759Y-74736962D01*
X141025820Y-74939410D01*
X141025821Y-74939413D01*
X141068528Y-74989416D01*
X141180031Y-75119969D01*
X141311976Y-75232661D01*
X141360586Y-75274178D01*
X141360589Y-75274179D01*
X141563037Y-75398240D01*
X141563040Y-75398242D01*
X141782403Y-75489104D01*
X141782404Y-75489104D01*
X141782406Y-75489105D01*
X142013289Y-75544535D01*
X142250000Y-75563165D01*
X142486711Y-75544535D01*
X142717594Y-75489105D01*
X142717596Y-75489104D01*
X142717597Y-75489104D01*
X142936959Y-75398242D01*
X142936960Y-75398241D01*
X142936963Y-75398240D01*
X143139416Y-75274176D01*
X143319969Y-75119969D01*
X143474176Y-74939416D01*
X143598240Y-74736963D01*
X143668395Y-74567594D01*
X143689104Y-74517597D01*
X143689104Y-74517596D01*
X143689105Y-74517594D01*
X143744535Y-74286711D01*
X143759230Y-74100000D01*
X150436835Y-74100000D01*
X150455465Y-74336714D01*
X150510895Y-74567595D01*
X150510895Y-74567597D01*
X150601757Y-74786959D01*
X150601759Y-74786962D01*
X150725820Y-74989410D01*
X150725821Y-74989413D01*
X150725824Y-74989416D01*
X150880031Y-75169969D01*
X150953434Y-75232661D01*
X151060586Y-75324178D01*
X151060589Y-75324179D01*
X151263037Y-75448240D01*
X151263040Y-75448242D01*
X151482403Y-75539104D01*
X151482404Y-75539104D01*
X151482406Y-75539105D01*
X151713289Y-75594535D01*
X151950000Y-75613165D01*
X152186711Y-75594535D01*
X152417594Y-75539105D01*
X152417596Y-75539104D01*
X152417597Y-75539104D01*
X152636959Y-75448242D01*
X152636960Y-75448241D01*
X152636963Y-75448240D01*
X152839416Y-75324176D01*
X153019969Y-75169969D01*
X153174176Y-74989416D01*
X153298240Y-74786963D01*
X153318953Y-74736959D01*
X153389104Y-74567597D01*
X153389104Y-74567596D01*
X153389105Y-74567594D01*
X153444535Y-74336711D01*
X153463165Y-74100000D01*
X156936835Y-74100000D01*
X156955465Y-74336714D01*
X157010895Y-74567595D01*
X157010895Y-74567597D01*
X157101757Y-74786959D01*
X157101759Y-74786962D01*
X157225820Y-74989410D01*
X157225821Y-74989413D01*
X157225824Y-74989416D01*
X157380031Y-75169969D01*
X157453434Y-75232661D01*
X157560586Y-75324178D01*
X157560589Y-75324179D01*
X157763037Y-75448240D01*
X157763040Y-75448242D01*
X157982403Y-75539104D01*
X157982404Y-75539104D01*
X157982406Y-75539105D01*
X158213289Y-75594535D01*
X158450000Y-75613165D01*
X158686711Y-75594535D01*
X158917594Y-75539105D01*
X158917596Y-75539104D01*
X158917597Y-75539104D01*
X159136959Y-75448242D01*
X159136960Y-75448241D01*
X159136963Y-75448240D01*
X159339416Y-75324176D01*
X159519969Y-75169969D01*
X159674176Y-74989416D01*
X159710587Y-74929999D01*
X161921127Y-74929999D01*
X161921128Y-74930000D01*
X162884314Y-74930000D01*
X162879920Y-74934394D01*
X162827259Y-75025606D01*
X162800000Y-75127339D01*
X162800000Y-75232661D01*
X162827259Y-75334394D01*
X162879920Y-75425606D01*
X162884314Y-75430000D01*
X161921128Y-75430000D01*
X161973730Y-75626317D01*
X161973734Y-75626326D01*
X162069865Y-75832482D01*
X162200342Y-76018820D01*
X162361179Y-76179657D01*
X162547517Y-76310134D01*
X162753673Y-76406265D01*
X162753682Y-76406269D01*
X162949999Y-76458872D01*
X162950000Y-76458871D01*
X162950000Y-75495686D01*
X162954394Y-75500080D01*
X163045606Y-75552741D01*
X163147339Y-75580000D01*
X163252661Y-75580000D01*
X163354394Y-75552741D01*
X163445606Y-75500080D01*
X163450000Y-75495686D01*
X163450000Y-76458872D01*
X163646317Y-76406269D01*
X163646326Y-76406265D01*
X163852482Y-76310134D01*
X164038820Y-76179657D01*
X164199657Y-76018820D01*
X164330134Y-75832482D01*
X164426265Y-75626326D01*
X164426269Y-75626317D01*
X164478872Y-75430000D01*
X163515686Y-75430000D01*
X163520080Y-75425606D01*
X163572741Y-75334394D01*
X163600000Y-75232661D01*
X163600000Y-75127339D01*
X163572741Y-75025606D01*
X163520080Y-74934394D01*
X163515686Y-74930000D01*
X164478872Y-74930000D01*
X164478872Y-74929999D01*
X164426269Y-74733682D01*
X164426265Y-74733673D01*
X164330134Y-74527517D01*
X164199657Y-74341179D01*
X164038820Y-74180342D01*
X163852482Y-74049865D01*
X163646328Y-73953734D01*
X163450000Y-73901127D01*
X163450000Y-74864314D01*
X163445606Y-74859920D01*
X163354394Y-74807259D01*
X163252661Y-74780000D01*
X163147339Y-74780000D01*
X163045606Y-74807259D01*
X162954394Y-74859920D01*
X162950000Y-74864314D01*
X162950000Y-73901127D01*
X162753671Y-73953734D01*
X162547517Y-74049865D01*
X162361179Y-74180342D01*
X162200342Y-74341179D01*
X162069865Y-74527517D01*
X161973734Y-74733673D01*
X161973730Y-74733682D01*
X161921127Y-74929999D01*
X159710587Y-74929999D01*
X159798240Y-74786963D01*
X159818953Y-74736959D01*
X159889104Y-74567597D01*
X159889104Y-74567596D01*
X159889105Y-74567594D01*
X159944535Y-74336711D01*
X159963165Y-74100000D01*
X159944535Y-73863289D01*
X159889105Y-73632406D01*
X159889104Y-73632403D01*
X159889104Y-73632402D01*
X159798242Y-73413040D01*
X159798240Y-73413037D01*
X159674179Y-73210589D01*
X159674178Y-73210586D01*
X159631472Y-73160584D01*
X159519969Y-73030031D01*
X159400596Y-72928076D01*
X159339413Y-72875821D01*
X159339410Y-72875820D01*
X159136962Y-72751759D01*
X159136959Y-72751757D01*
X158917596Y-72660895D01*
X158686714Y-72605465D01*
X158450000Y-72586835D01*
X158213285Y-72605465D01*
X157982404Y-72660895D01*
X157982402Y-72660895D01*
X157763040Y-72751757D01*
X157763037Y-72751759D01*
X157560589Y-72875820D01*
X157560586Y-72875821D01*
X157380031Y-73030031D01*
X157225821Y-73210586D01*
X157225820Y-73210589D01*
X157101759Y-73413037D01*
X157101757Y-73413040D01*
X157010895Y-73632402D01*
X157010895Y-73632404D01*
X156955465Y-73863285D01*
X156936835Y-74100000D01*
X153463165Y-74100000D01*
X153444535Y-73863289D01*
X153389105Y-73632406D01*
X153389104Y-73632403D01*
X153389104Y-73632402D01*
X153298242Y-73413040D01*
X153298240Y-73413037D01*
X153174179Y-73210589D01*
X153174178Y-73210586D01*
X153131472Y-73160584D01*
X153019969Y-73030031D01*
X152900596Y-72928076D01*
X152839413Y-72875821D01*
X152839410Y-72875820D01*
X152636962Y-72751759D01*
X152636959Y-72751757D01*
X152417596Y-72660895D01*
X152186714Y-72605465D01*
X151950000Y-72586835D01*
X151713285Y-72605465D01*
X151482404Y-72660895D01*
X151482402Y-72660895D01*
X151263040Y-72751757D01*
X151263037Y-72751759D01*
X151060589Y-72875820D01*
X151060586Y-72875821D01*
X150880031Y-73030031D01*
X150725821Y-73210586D01*
X150725820Y-73210589D01*
X150601759Y-73413037D01*
X150601757Y-73413040D01*
X150510895Y-73632402D01*
X150510895Y-73632404D01*
X150455465Y-73863285D01*
X150436835Y-74100000D01*
X143759230Y-74100000D01*
X143763165Y-74050000D01*
X143744535Y-73813289D01*
X143689105Y-73582406D01*
X143689104Y-73582403D01*
X143689104Y-73582402D01*
X143598242Y-73363040D01*
X143598240Y-73363037D01*
X143474179Y-73160589D01*
X143474178Y-73160586D01*
X143439340Y-73119797D01*
X143319969Y-72980031D01*
X143197954Y-72875820D01*
X143139413Y-72825821D01*
X143139410Y-72825820D01*
X142936962Y-72701759D01*
X142936959Y-72701757D01*
X142717596Y-72610895D01*
X142486714Y-72555465D01*
X142250000Y-72536835D01*
X142013285Y-72555465D01*
X141782404Y-72610895D01*
X141782402Y-72610895D01*
X141563040Y-72701757D01*
X141563037Y-72701759D01*
X141360589Y-72825820D01*
X141360586Y-72825821D01*
X141180031Y-72980031D01*
X141025821Y-73160586D01*
X141025820Y-73160589D01*
X140901759Y-73363037D01*
X140901757Y-73363040D01*
X140810895Y-73582402D01*
X140810895Y-73582404D01*
X140755465Y-73813285D01*
X140736835Y-74050000D01*
X137263165Y-74050000D01*
X137244535Y-73813289D01*
X137189105Y-73582406D01*
X137189104Y-73582403D01*
X137189104Y-73582402D01*
X137098242Y-73363040D01*
X137098240Y-73363037D01*
X136974179Y-73160589D01*
X136974178Y-73160586D01*
X136939340Y-73119797D01*
X136819969Y-72980031D01*
X136697954Y-72875820D01*
X136639413Y-72825821D01*
X136639410Y-72825820D01*
X136436962Y-72701759D01*
X136436959Y-72701757D01*
X136217596Y-72610895D01*
X135986714Y-72555465D01*
X135750000Y-72536835D01*
X135513285Y-72555465D01*
X135282404Y-72610895D01*
X135282402Y-72610895D01*
X135063040Y-72701757D01*
X135063037Y-72701759D01*
X134860589Y-72825820D01*
X134860586Y-72825821D01*
X134680031Y-72980031D01*
X134525821Y-73160586D01*
X134525820Y-73160589D01*
X134401759Y-73363037D01*
X134401757Y-73363040D01*
X134310895Y-73582402D01*
X134310895Y-73582404D01*
X134255465Y-73813285D01*
X134236835Y-74050000D01*
X100075500Y-74050000D01*
X100075500Y-65899998D01*
X130536502Y-65899998D01*
X130536502Y-65900001D01*
X130556456Y-66128081D01*
X130556457Y-66128089D01*
X130615714Y-66349238D01*
X130615718Y-66349249D01*
X130712475Y-66556745D01*
X130712477Y-66556749D01*
X130843802Y-66744300D01*
X131005700Y-66906198D01*
X131193251Y-67037523D01*
X131275088Y-67075684D01*
X131400750Y-67134281D01*
X131400752Y-67134281D01*
X131400757Y-67134284D01*
X131400762Y-67134285D01*
X131400764Y-67134286D01*
X131504780Y-67162157D01*
X131564441Y-67198522D01*
X131594970Y-67261369D01*
X131586675Y-67330744D01*
X131542190Y-67384622D01*
X131525092Y-67394314D01*
X131443251Y-67432476D01*
X131318126Y-67520090D01*
X131255700Y-67563802D01*
X131255698Y-67563803D01*
X131255695Y-67563806D01*
X131093806Y-67725695D01*
X131093803Y-67725698D01*
X131093802Y-67725700D01*
X131084416Y-67739105D01*
X130962476Y-67913252D01*
X130962475Y-67913254D01*
X130865718Y-68120750D01*
X130865714Y-68120761D01*
X130806457Y-68341910D01*
X130806456Y-68341918D01*
X130786502Y-68569998D01*
X130786502Y-68570001D01*
X130806456Y-68798081D01*
X130806457Y-68798089D01*
X130865714Y-69019238D01*
X130865718Y-69019249D01*
X130918483Y-69132404D01*
X130962477Y-69226749D01*
X131093802Y-69414300D01*
X131255700Y-69576198D01*
X131443251Y-69707523D01*
X131568091Y-69765736D01*
X131650750Y-69804281D01*
X131650752Y-69804281D01*
X131650757Y-69804284D01*
X131871913Y-69863543D01*
X132034832Y-69877796D01*
X132099998Y-69883498D01*
X132100000Y-69883498D01*
X132100002Y-69883498D01*
X132157021Y-69878509D01*
X132328087Y-69863543D01*
X132549243Y-69804284D01*
X132756749Y-69707523D01*
X132944300Y-69576198D01*
X132970498Y-69550000D01*
X134236835Y-69550000D01*
X134255465Y-69786714D01*
X134310895Y-70017595D01*
X134310895Y-70017597D01*
X134401757Y-70236959D01*
X134401759Y-70236962D01*
X134525820Y-70439410D01*
X134525821Y-70439413D01*
X134568528Y-70489416D01*
X134680031Y-70619969D01*
X134819797Y-70739340D01*
X134860586Y-70774178D01*
X134860589Y-70774179D01*
X135063037Y-70898240D01*
X135063040Y-70898242D01*
X135282403Y-70989104D01*
X135282404Y-70989104D01*
X135282406Y-70989105D01*
X135513289Y-71044535D01*
X135750000Y-71063165D01*
X135986711Y-71044535D01*
X136217594Y-70989105D01*
X136217596Y-70989104D01*
X136217597Y-70989104D01*
X136436959Y-70898242D01*
X136436960Y-70898241D01*
X136436963Y-70898240D01*
X136639416Y-70774176D01*
X136819969Y-70619969D01*
X136974176Y-70439416D01*
X137098240Y-70236963D01*
X137143894Y-70126745D01*
X137189104Y-70017597D01*
X137189104Y-70017596D01*
X137189105Y-70017594D01*
X137244535Y-69786711D01*
X137263165Y-69550000D01*
X140736835Y-69550000D01*
X140755465Y-69786714D01*
X140810895Y-70017595D01*
X140810895Y-70017597D01*
X140901757Y-70236959D01*
X140901759Y-70236962D01*
X141025820Y-70439410D01*
X141025821Y-70439413D01*
X141068528Y-70489416D01*
X141180031Y-70619969D01*
X141319797Y-70739340D01*
X141360586Y-70774178D01*
X141360589Y-70774179D01*
X141563037Y-70898240D01*
X141563040Y-70898242D01*
X141782403Y-70989104D01*
X141782404Y-70989104D01*
X141782406Y-70989105D01*
X142013289Y-71044535D01*
X142250000Y-71063165D01*
X142486711Y-71044535D01*
X142717594Y-70989105D01*
X142717596Y-70989104D01*
X142717597Y-70989104D01*
X142936959Y-70898242D01*
X142936960Y-70898241D01*
X142936963Y-70898240D01*
X143139416Y-70774176D01*
X143319969Y-70619969D01*
X143474176Y-70439416D01*
X143598240Y-70236963D01*
X143643894Y-70126745D01*
X143689104Y-70017597D01*
X143689104Y-70017596D01*
X143689105Y-70017594D01*
X143744535Y-69786711D01*
X143763165Y-69550000D01*
X143756869Y-69469998D01*
X147136502Y-69469998D01*
X147136502Y-69470001D01*
X147156456Y-69698081D01*
X147156457Y-69698089D01*
X147215714Y-69919238D01*
X147215718Y-69919249D01*
X147284893Y-70067595D01*
X147312477Y-70126749D01*
X147443802Y-70314300D01*
X147605700Y-70476198D01*
X147793251Y-70607523D01*
X147819940Y-70619968D01*
X148000750Y-70704281D01*
X148000752Y-70704281D01*
X148000757Y-70704284D01*
X148221913Y-70763543D01*
X148384832Y-70777796D01*
X148449998Y-70783498D01*
X148450000Y-70783498D01*
X148450002Y-70783498D01*
X148507021Y-70778509D01*
X148678087Y-70763543D01*
X148899243Y-70704284D01*
X149106749Y-70607523D01*
X149294300Y-70476198D01*
X149456198Y-70314300D01*
X149587523Y-70126749D01*
X149684284Y-69919243D01*
X149743543Y-69698087D01*
X149752124Y-69600000D01*
X150436835Y-69600000D01*
X150455465Y-69836714D01*
X150510895Y-70067595D01*
X150510895Y-70067597D01*
X150601757Y-70286959D01*
X150601759Y-70286962D01*
X150725820Y-70489410D01*
X150725821Y-70489413D01*
X150725824Y-70489416D01*
X150880031Y-70669969D01*
X150989591Y-70763542D01*
X151060586Y-70824178D01*
X151060589Y-70824179D01*
X151263037Y-70948240D01*
X151263040Y-70948242D01*
X151482403Y-71039104D01*
X151482404Y-71039104D01*
X151482406Y-71039105D01*
X151713289Y-71094535D01*
X151950000Y-71113165D01*
X152186711Y-71094535D01*
X152417594Y-71039105D01*
X152417596Y-71039104D01*
X152417597Y-71039104D01*
X152636959Y-70948242D01*
X152636960Y-70948241D01*
X152636963Y-70948240D01*
X152839416Y-70824176D01*
X153019969Y-70669969D01*
X153174176Y-70489416D01*
X153298240Y-70286963D01*
X153318953Y-70236959D01*
X153389104Y-70067597D01*
X153389104Y-70067596D01*
X153389105Y-70067594D01*
X153444535Y-69836711D01*
X153463165Y-69600000D01*
X156936835Y-69600000D01*
X156955465Y-69836714D01*
X157010895Y-70067595D01*
X157010895Y-70067597D01*
X157101757Y-70286959D01*
X157101759Y-70286962D01*
X157225820Y-70489410D01*
X157225821Y-70489413D01*
X157225824Y-70489416D01*
X157380031Y-70669969D01*
X157489591Y-70763542D01*
X157560586Y-70824178D01*
X157560589Y-70824179D01*
X157763037Y-70948240D01*
X157763040Y-70948242D01*
X157982403Y-71039104D01*
X157982404Y-71039104D01*
X157982406Y-71039105D01*
X158213289Y-71094535D01*
X158450000Y-71113165D01*
X158686711Y-71094535D01*
X158917594Y-71039105D01*
X158917596Y-71039104D01*
X158917597Y-71039104D01*
X159136959Y-70948242D01*
X159136960Y-70948241D01*
X159136963Y-70948240D01*
X159339416Y-70824176D01*
X159519969Y-70669969D01*
X159674176Y-70489416D01*
X159798240Y-70286963D01*
X159818953Y-70236959D01*
X159889104Y-70067597D01*
X159889104Y-70067596D01*
X159889105Y-70067594D01*
X159944535Y-69836711D01*
X159963165Y-69600000D01*
X159944535Y-69363289D01*
X159889105Y-69132406D01*
X159889104Y-69132403D01*
X159889104Y-69132402D01*
X159798242Y-68913040D01*
X159798240Y-68913037D01*
X159727798Y-68798087D01*
X159674178Y-68710588D01*
X159674178Y-68710586D01*
X159601674Y-68625695D01*
X159519969Y-68530031D01*
X159400596Y-68428076D01*
X159339413Y-68375821D01*
X159339410Y-68375820D01*
X159136962Y-68251759D01*
X159136959Y-68251757D01*
X158917596Y-68160895D01*
X158686714Y-68105465D01*
X158450000Y-68086835D01*
X158213285Y-68105465D01*
X157982404Y-68160895D01*
X157982402Y-68160895D01*
X157763040Y-68251757D01*
X157763037Y-68251759D01*
X157560589Y-68375820D01*
X157560586Y-68375821D01*
X157380031Y-68530031D01*
X157225821Y-68710586D01*
X157225820Y-68710589D01*
X157101759Y-68913037D01*
X157101757Y-68913040D01*
X157010895Y-69132402D01*
X157010895Y-69132404D01*
X156955465Y-69363285D01*
X156936835Y-69600000D01*
X153463165Y-69600000D01*
X153444535Y-69363289D01*
X153389105Y-69132406D01*
X153389104Y-69132403D01*
X153389104Y-69132402D01*
X153298242Y-68913040D01*
X153298240Y-68913037D01*
X153227798Y-68798087D01*
X153174178Y-68710588D01*
X153174178Y-68710586D01*
X153101674Y-68625695D01*
X153019969Y-68530031D01*
X152900596Y-68428076D01*
X152839413Y-68375821D01*
X152839410Y-68375820D01*
X152636962Y-68251759D01*
X152636959Y-68251757D01*
X152417596Y-68160895D01*
X152186714Y-68105465D01*
X151950000Y-68086835D01*
X151713285Y-68105465D01*
X151482404Y-68160895D01*
X151482402Y-68160895D01*
X151263040Y-68251757D01*
X151263037Y-68251759D01*
X151060589Y-68375820D01*
X151060586Y-68375821D01*
X150880031Y-68530031D01*
X150725821Y-68710586D01*
X150725820Y-68710589D01*
X150601759Y-68913037D01*
X150601757Y-68913040D01*
X150510895Y-69132402D01*
X150510895Y-69132404D01*
X150455465Y-69363285D01*
X150436835Y-69600000D01*
X149752124Y-69600000D01*
X149763498Y-69470000D01*
X149743543Y-69241913D01*
X149684284Y-69020757D01*
X149587523Y-68813251D01*
X149456198Y-68625700D01*
X149294300Y-68463802D01*
X149106749Y-68332477D01*
X149092473Y-68325820D01*
X148899249Y-68235718D01*
X148899238Y-68235714D01*
X148678089Y-68176457D01*
X148678081Y-68176456D01*
X148450002Y-68156502D01*
X148449998Y-68156502D01*
X148221918Y-68176456D01*
X148221910Y-68176457D01*
X148000761Y-68235714D01*
X148000750Y-68235718D01*
X147793254Y-68332475D01*
X147793252Y-68332476D01*
X147731345Y-68375824D01*
X147605700Y-68463802D01*
X147605698Y-68463803D01*
X147605695Y-68463806D01*
X147443806Y-68625695D01*
X147443803Y-68625698D01*
X147443802Y-68625700D01*
X147384364Y-68710586D01*
X147312476Y-68813252D01*
X147312475Y-68813254D01*
X147215718Y-69020750D01*
X147215714Y-69020761D01*
X147156457Y-69241910D01*
X147156456Y-69241918D01*
X147136502Y-69469998D01*
X143756869Y-69469998D01*
X143744535Y-69313289D01*
X143689105Y-69082406D01*
X143689104Y-69082403D01*
X143689104Y-69082402D01*
X143598242Y-68863040D01*
X143598240Y-68863037D01*
X143474179Y-68660589D01*
X143474178Y-68660586D01*
X143439340Y-68619797D01*
X143319969Y-68480031D01*
X143158254Y-68341913D01*
X143139413Y-68325821D01*
X143139410Y-68325820D01*
X142936962Y-68201759D01*
X142936959Y-68201757D01*
X142717596Y-68110895D01*
X142486714Y-68055465D01*
X142250000Y-68036835D01*
X142013285Y-68055465D01*
X141782404Y-68110895D01*
X141782402Y-68110895D01*
X141563040Y-68201757D01*
X141563037Y-68201759D01*
X141360589Y-68325820D01*
X141360586Y-68325821D01*
X141180031Y-68480031D01*
X141025821Y-68660586D01*
X141025820Y-68660589D01*
X140901759Y-68863037D01*
X140901757Y-68863040D01*
X140810895Y-69082402D01*
X140810895Y-69082404D01*
X140755465Y-69313285D01*
X140736835Y-69550000D01*
X137263165Y-69550000D01*
X137244535Y-69313289D01*
X137189105Y-69082406D01*
X137189104Y-69082403D01*
X137189104Y-69082402D01*
X137098242Y-68863040D01*
X137098240Y-68863037D01*
X136974179Y-68660589D01*
X136974178Y-68660586D01*
X136939340Y-68619797D01*
X136819969Y-68480031D01*
X136658254Y-68341913D01*
X136639413Y-68325821D01*
X136639410Y-68325820D01*
X136436962Y-68201759D01*
X136436959Y-68201757D01*
X136217596Y-68110895D01*
X135986714Y-68055465D01*
X135750000Y-68036835D01*
X135513285Y-68055465D01*
X135282404Y-68110895D01*
X135282402Y-68110895D01*
X135063040Y-68201757D01*
X135063037Y-68201759D01*
X134860589Y-68325820D01*
X134860586Y-68325821D01*
X134680031Y-68480031D01*
X134525821Y-68660586D01*
X134525820Y-68660589D01*
X134401759Y-68863037D01*
X134401757Y-68863040D01*
X134310895Y-69082402D01*
X134310895Y-69082404D01*
X134255465Y-69313285D01*
X134236835Y-69550000D01*
X132970498Y-69550000D01*
X133106198Y-69414300D01*
X133237523Y-69226749D01*
X133334284Y-69019243D01*
X133393543Y-68798087D01*
X133413498Y-68570000D01*
X133393543Y-68341913D01*
X133334284Y-68120757D01*
X133329685Y-68110895D01*
X133237524Y-67913254D01*
X133237523Y-67913252D01*
X133237523Y-67913251D01*
X133106198Y-67725700D01*
X132944300Y-67563802D01*
X132756749Y-67432477D01*
X132674908Y-67394314D01*
X132549249Y-67335718D01*
X132549237Y-67335714D01*
X132445218Y-67307842D01*
X132385558Y-67271477D01*
X132355029Y-67208629D01*
X132363324Y-67139254D01*
X132407809Y-67085376D01*
X132424895Y-67075691D01*
X132506749Y-67037523D01*
X132694300Y-66906198D01*
X132856198Y-66744300D01*
X132987523Y-66556749D01*
X133084284Y-66349243D01*
X133143543Y-66128087D01*
X133163498Y-65900000D01*
X133163498Y-65899998D01*
X140696502Y-65899998D01*
X140696502Y-65900001D01*
X140716456Y-66128081D01*
X140716457Y-66128089D01*
X140775714Y-66349238D01*
X140775718Y-66349249D01*
X140872475Y-66556745D01*
X140872477Y-66556749D01*
X141003802Y-66744300D01*
X141165700Y-66906198D01*
X141353251Y-67037523D01*
X141435088Y-67075684D01*
X141560750Y-67134281D01*
X141560752Y-67134281D01*
X141560757Y-67134284D01*
X141781913Y-67193543D01*
X141944832Y-67207796D01*
X142009998Y-67213498D01*
X142010000Y-67213498D01*
X142010002Y-67213498D01*
X142067021Y-67208509D01*
X142238087Y-67193543D01*
X142459243Y-67134284D01*
X142666749Y-67037523D01*
X142854300Y-66906198D01*
X143016198Y-66744300D01*
X143147523Y-66556749D01*
X143244284Y-66349243D01*
X143257479Y-66300000D01*
X150486835Y-66300000D01*
X150505465Y-66536714D01*
X150560895Y-66767595D01*
X150560895Y-66767597D01*
X150651757Y-66986959D01*
X150651759Y-66986962D01*
X150775820Y-67189410D01*
X150775821Y-67189413D01*
X150783601Y-67198522D01*
X150930031Y-67369969D01*
X151069797Y-67489340D01*
X151110586Y-67524178D01*
X151110589Y-67524179D01*
X151313037Y-67648240D01*
X151313040Y-67648242D01*
X151532403Y-67739104D01*
X151532404Y-67739104D01*
X151532406Y-67739105D01*
X151763289Y-67794535D01*
X152000000Y-67813165D01*
X152236711Y-67794535D01*
X152467594Y-67739105D01*
X152467596Y-67739104D01*
X152467597Y-67739104D01*
X152686959Y-67648242D01*
X152686960Y-67648241D01*
X152686963Y-67648240D01*
X152889416Y-67524176D01*
X153069969Y-67369969D01*
X153224176Y-67189416D01*
X153348240Y-66986963D01*
X153439105Y-66767594D01*
X153494535Y-66536711D01*
X153513165Y-66300000D01*
X156986835Y-66300000D01*
X157005465Y-66536714D01*
X157060895Y-66767595D01*
X157060895Y-66767597D01*
X157151757Y-66986959D01*
X157151759Y-66986962D01*
X157275820Y-67189410D01*
X157275821Y-67189413D01*
X157283601Y-67198522D01*
X157430031Y-67369969D01*
X157569797Y-67489340D01*
X157610586Y-67524178D01*
X157610589Y-67524179D01*
X157813037Y-67648240D01*
X157813040Y-67648242D01*
X158032403Y-67739104D01*
X158032404Y-67739104D01*
X158032406Y-67739105D01*
X158263289Y-67794535D01*
X158500000Y-67813165D01*
X158736711Y-67794535D01*
X158967594Y-67739105D01*
X158967596Y-67739104D01*
X158967597Y-67739104D01*
X159186959Y-67648242D01*
X159186960Y-67648241D01*
X159186963Y-67648240D01*
X159389416Y-67524176D01*
X159569969Y-67369969D01*
X159724176Y-67189416D01*
X159848240Y-66986963D01*
X159939105Y-66767594D01*
X159994535Y-66536711D01*
X160013165Y-66300000D01*
X159994535Y-66063289D01*
X159939105Y-65832406D01*
X159939104Y-65832403D01*
X159939104Y-65832402D01*
X159848242Y-65613040D01*
X159848240Y-65613037D01*
X159724179Y-65410589D01*
X159724178Y-65410586D01*
X159689340Y-65369797D01*
X159569969Y-65230031D01*
X159450596Y-65128076D01*
X159389413Y-65075821D01*
X159389410Y-65075820D01*
X159298317Y-65019998D01*
X161886502Y-65019998D01*
X161886502Y-65020001D01*
X161906456Y-65248081D01*
X161906457Y-65248089D01*
X161965714Y-65469238D01*
X161965718Y-65469249D01*
X162060222Y-65671913D01*
X162062477Y-65676749D01*
X162193802Y-65864300D01*
X162355700Y-66026198D01*
X162543251Y-66157523D01*
X162668091Y-66215736D01*
X162750750Y-66254281D01*
X162750752Y-66254281D01*
X162750757Y-66254284D01*
X162971913Y-66313543D01*
X163134832Y-66327796D01*
X163199998Y-66333498D01*
X163200000Y-66333498D01*
X163200002Y-66333498D01*
X163257021Y-66328509D01*
X163428087Y-66313543D01*
X163649243Y-66254284D01*
X163856749Y-66157523D01*
X164044300Y-66026198D01*
X164206198Y-65864300D01*
X164337523Y-65676749D01*
X164434284Y-65469243D01*
X164493543Y-65248087D01*
X164513498Y-65020000D01*
X164493543Y-64791913D01*
X164434284Y-64570757D01*
X164337523Y-64363251D01*
X164206198Y-64175700D01*
X164044300Y-64013802D01*
X163856749Y-63882477D01*
X163856745Y-63882475D01*
X163649249Y-63785718D01*
X163649238Y-63785714D01*
X163598331Y-63772074D01*
X163538671Y-63735709D01*
X163508142Y-63672862D01*
X163516437Y-63603486D01*
X163560922Y-63549608D01*
X163598332Y-63532524D01*
X163696317Y-63506269D01*
X163696326Y-63506265D01*
X163902482Y-63410134D01*
X164088820Y-63279657D01*
X164249657Y-63118820D01*
X164380134Y-62932482D01*
X164476265Y-62726326D01*
X164476269Y-62726317D01*
X164528872Y-62530000D01*
X163565686Y-62530000D01*
X163570080Y-62525606D01*
X163622741Y-62434394D01*
X163650000Y-62332661D01*
X163650000Y-62227339D01*
X163622741Y-62125606D01*
X163570080Y-62034394D01*
X163565686Y-62030000D01*
X164528872Y-62030000D01*
X164528872Y-62029999D01*
X164476269Y-61833682D01*
X164476265Y-61833673D01*
X164380134Y-61627517D01*
X164249657Y-61441179D01*
X164088820Y-61280342D01*
X163902482Y-61149865D01*
X163696328Y-61053734D01*
X163500000Y-61001127D01*
X163500000Y-61964314D01*
X163495606Y-61959920D01*
X163404394Y-61907259D01*
X163302661Y-61880000D01*
X163197339Y-61880000D01*
X163095606Y-61907259D01*
X163004394Y-61959920D01*
X163000000Y-61964314D01*
X163000000Y-61001127D01*
X162803671Y-61053734D01*
X162597517Y-61149865D01*
X162411179Y-61280342D01*
X162250342Y-61441179D01*
X162119865Y-61627517D01*
X162023734Y-61833673D01*
X162023730Y-61833682D01*
X161971127Y-62029999D01*
X161971128Y-62030000D01*
X162934314Y-62030000D01*
X162929920Y-62034394D01*
X162877259Y-62125606D01*
X162850000Y-62227339D01*
X162850000Y-62332661D01*
X162877259Y-62434394D01*
X162929920Y-62525606D01*
X162934314Y-62530000D01*
X161971128Y-62530000D01*
X162023730Y-62726317D01*
X162023734Y-62726326D01*
X162119865Y-62932482D01*
X162250342Y-63118820D01*
X162411179Y-63279657D01*
X162597517Y-63410134D01*
X162803673Y-63506265D01*
X162803684Y-63506270D01*
X162851666Y-63519126D01*
X162911327Y-63555490D01*
X162941857Y-63618336D01*
X162933563Y-63687712D01*
X162889078Y-63741591D01*
X162851668Y-63758676D01*
X162750762Y-63785714D01*
X162750750Y-63785718D01*
X162543254Y-63882475D01*
X162543252Y-63882476D01*
X162543251Y-63882477D01*
X162355700Y-64013802D01*
X162355698Y-64013803D01*
X162355695Y-64013806D01*
X162193806Y-64175695D01*
X162062476Y-64363252D01*
X162062475Y-64363254D01*
X161965718Y-64570750D01*
X161965714Y-64570761D01*
X161906457Y-64791910D01*
X161906456Y-64791918D01*
X161886502Y-65019998D01*
X159298317Y-65019998D01*
X159186962Y-64951759D01*
X159186959Y-64951757D01*
X158967596Y-64860895D01*
X158736714Y-64805465D01*
X158500000Y-64786835D01*
X158263285Y-64805465D01*
X158032404Y-64860895D01*
X158032402Y-64860895D01*
X157813040Y-64951757D01*
X157813037Y-64951759D01*
X157610589Y-65075820D01*
X157610586Y-65075821D01*
X157430031Y-65230031D01*
X157275821Y-65410586D01*
X157275820Y-65410589D01*
X157151759Y-65613037D01*
X157151757Y-65613040D01*
X157060895Y-65832402D01*
X157060895Y-65832404D01*
X157005465Y-66063285D01*
X156986835Y-66300000D01*
X153513165Y-66300000D01*
X153494535Y-66063289D01*
X153439105Y-65832406D01*
X153439104Y-65832403D01*
X153439104Y-65832402D01*
X153348242Y-65613040D01*
X153348240Y-65613037D01*
X153224179Y-65410589D01*
X153224178Y-65410586D01*
X153189340Y-65369797D01*
X153069969Y-65230031D01*
X152950596Y-65128076D01*
X152889413Y-65075821D01*
X152889410Y-65075820D01*
X152686962Y-64951759D01*
X152686959Y-64951757D01*
X152467596Y-64860895D01*
X152236714Y-64805465D01*
X152000000Y-64786835D01*
X151763285Y-64805465D01*
X151532404Y-64860895D01*
X151532402Y-64860895D01*
X151313040Y-64951757D01*
X151313037Y-64951759D01*
X151110589Y-65075820D01*
X151110586Y-65075821D01*
X150930031Y-65230031D01*
X150775821Y-65410586D01*
X150775820Y-65410589D01*
X150651759Y-65613037D01*
X150651757Y-65613040D01*
X150560895Y-65832402D01*
X150560895Y-65832404D01*
X150505465Y-66063285D01*
X150486835Y-66300000D01*
X143257479Y-66300000D01*
X143303543Y-66128087D01*
X143323498Y-65900000D01*
X143303543Y-65671913D01*
X143244284Y-65450757D01*
X143225553Y-65410589D01*
X143147524Y-65243254D01*
X143147523Y-65243252D01*
X143147523Y-65243251D01*
X143016198Y-65055700D01*
X142854300Y-64893802D01*
X142666749Y-64762477D01*
X142666745Y-64762475D01*
X142459249Y-64665718D01*
X142459238Y-64665714D01*
X142238089Y-64606457D01*
X142238081Y-64606456D01*
X142010002Y-64586502D01*
X142009998Y-64586502D01*
X141781918Y-64606456D01*
X141781910Y-64606457D01*
X141560761Y-64665714D01*
X141560750Y-64665718D01*
X141353254Y-64762475D01*
X141353252Y-64762476D01*
X141353251Y-64762477D01*
X141165700Y-64893802D01*
X141165698Y-64893803D01*
X141165695Y-64893806D01*
X141003806Y-65055695D01*
X140872476Y-65243252D01*
X140872475Y-65243254D01*
X140775718Y-65450750D01*
X140775714Y-65450761D01*
X140716457Y-65671910D01*
X140716456Y-65671918D01*
X140696502Y-65899998D01*
X133163498Y-65899998D01*
X133143543Y-65671913D01*
X133084284Y-65450757D01*
X133065553Y-65410589D01*
X132987524Y-65243254D01*
X132987523Y-65243252D01*
X132987523Y-65243251D01*
X132856198Y-65055700D01*
X132694300Y-64893802D01*
X132506749Y-64762477D01*
X132506745Y-64762475D01*
X132299249Y-64665718D01*
X132299238Y-64665714D01*
X132078089Y-64606457D01*
X132078081Y-64606456D01*
X131850002Y-64586502D01*
X131849998Y-64586502D01*
X131621918Y-64606456D01*
X131621910Y-64606457D01*
X131400761Y-64665714D01*
X131400750Y-64665718D01*
X131193254Y-64762475D01*
X131193252Y-64762476D01*
X131193251Y-64762477D01*
X131005700Y-64893802D01*
X131005698Y-64893803D01*
X131005695Y-64893806D01*
X130843806Y-65055695D01*
X130712476Y-65243252D01*
X130712475Y-65243254D01*
X130615718Y-65450750D01*
X130615714Y-65450761D01*
X130556457Y-65671910D01*
X130556456Y-65671918D01*
X130536502Y-65899998D01*
X100075500Y-65899998D01*
X100075500Y-59302155D01*
X132110000Y-59302155D01*
X132110000Y-60000000D01*
X133134722Y-60000000D01*
X133090667Y-60076306D01*
X133060000Y-60190756D01*
X133060000Y-60309244D01*
X133090667Y-60423694D01*
X133134722Y-60500000D01*
X132110000Y-60500000D01*
X132110000Y-61197844D01*
X132116401Y-61257372D01*
X132116403Y-61257379D01*
X132166645Y-61392086D01*
X132166649Y-61392093D01*
X132252809Y-61507187D01*
X132252812Y-61507190D01*
X132367906Y-61593350D01*
X132367913Y-61593354D01*
X132502620Y-61643596D01*
X132502627Y-61643598D01*
X132562155Y-61649999D01*
X132562172Y-61650000D01*
X133260000Y-61650000D01*
X133260000Y-60625277D01*
X133336306Y-60669333D01*
X133450756Y-60700000D01*
X133569244Y-60700000D01*
X133683694Y-60669333D01*
X133760000Y-60625277D01*
X133760000Y-61650000D01*
X134457828Y-61650000D01*
X134457844Y-61649999D01*
X134517372Y-61643598D01*
X134517379Y-61643596D01*
X134652086Y-61593354D01*
X134652093Y-61593350D01*
X134767187Y-61507190D01*
X134767190Y-61507187D01*
X134853350Y-61392093D01*
X134853355Y-61392084D01*
X134878940Y-61323486D01*
X134920810Y-61267552D01*
X134986274Y-61243134D01*
X135054547Y-61257985D01*
X135086349Y-61282832D01*
X135092780Y-61289818D01*
X135276983Y-61433190D01*
X135276985Y-61433191D01*
X135276988Y-61433193D01*
X135291745Y-61441179D01*
X135482273Y-61544287D01*
X135537624Y-61563289D01*
X135703045Y-61620079D01*
X135703047Y-61620079D01*
X135703049Y-61620080D01*
X135933288Y-61658500D01*
X135933289Y-61658500D01*
X136166711Y-61658500D01*
X136166712Y-61658500D01*
X136396951Y-61620080D01*
X136617727Y-61544287D01*
X136823017Y-61433190D01*
X137007220Y-61289818D01*
X137165314Y-61118083D01*
X137292984Y-60922669D01*
X137386749Y-60708907D01*
X137444051Y-60482626D01*
X137454138Y-60360895D01*
X137463327Y-60250005D01*
X137463327Y-60249994D01*
X137444051Y-60017377D01*
X137444051Y-60017374D01*
X137386749Y-59791093D01*
X137292984Y-59577331D01*
X137165314Y-59381917D01*
X137165313Y-59381915D01*
X137007223Y-59210185D01*
X137007222Y-59210184D01*
X137007220Y-59210182D01*
X136823017Y-59066810D01*
X136823015Y-59066809D01*
X136823014Y-59066808D01*
X136823011Y-59066806D01*
X136617733Y-58955716D01*
X136617730Y-58955715D01*
X136617727Y-58955713D01*
X136617721Y-58955711D01*
X136617719Y-58955710D01*
X136396954Y-58879920D01*
X136217650Y-58850000D01*
X136166712Y-58841500D01*
X135933288Y-58841500D01*
X135887240Y-58849184D01*
X135703045Y-58879920D01*
X135482280Y-58955710D01*
X135482266Y-58955716D01*
X135276988Y-59066806D01*
X135276985Y-59066808D01*
X135092781Y-59210181D01*
X135092776Y-59210185D01*
X135086346Y-59217170D01*
X135026457Y-59253157D01*
X134956619Y-59251052D01*
X134899005Y-59211524D01*
X134878940Y-59176513D01*
X134853355Y-59107915D01*
X134853350Y-59107906D01*
X134767190Y-58992812D01*
X134767187Y-58992809D01*
X134652093Y-58906649D01*
X134652086Y-58906645D01*
X134517379Y-58856403D01*
X134517372Y-58856401D01*
X134457844Y-58850000D01*
X133760000Y-58850000D01*
X133760000Y-59874722D01*
X133683694Y-59830667D01*
X133569244Y-59800000D01*
X133450756Y-59800000D01*
X133336306Y-59830667D01*
X133260000Y-59874722D01*
X133260000Y-58850000D01*
X132562155Y-58850000D01*
X132502627Y-58856401D01*
X132502620Y-58856403D01*
X132367913Y-58906645D01*
X132367906Y-58906649D01*
X132252812Y-58992809D01*
X132252809Y-58992812D01*
X132166649Y-59107906D01*
X132166645Y-59107913D01*
X132116403Y-59242620D01*
X132116401Y-59242627D01*
X132110000Y-59302155D01*
X100075500Y-59302155D01*
X100075500Y-56693084D01*
X140066500Y-56693084D01*
X140066500Y-56906915D01*
X140099951Y-57118117D01*
X140166026Y-57321480D01*
X140166027Y-57321483D01*
X140206931Y-57401760D01*
X140263106Y-57512009D01*
X140388794Y-57685004D01*
X140388796Y-57685006D01*
X140520893Y-57817103D01*
X140554378Y-57878426D01*
X140549394Y-57948118D01*
X140507522Y-58004051D01*
X140498309Y-58010322D01*
X140351351Y-58100967D01*
X140351347Y-58100970D01*
X140225971Y-58226346D01*
X140132886Y-58377259D01*
X140132884Y-58377264D01*
X140077113Y-58545572D01*
X140066500Y-58649447D01*
X140066500Y-59950537D01*
X140066501Y-59950553D01*
X140077113Y-60054427D01*
X140132884Y-60222735D01*
X140132886Y-60222740D01*
X140157821Y-60263165D01*
X140225970Y-60373652D01*
X140351348Y-60499030D01*
X140502262Y-60592115D01*
X140670574Y-60647887D01*
X140774455Y-60658500D01*
X142325544Y-60658499D01*
X142429426Y-60647887D01*
X142597738Y-60592115D01*
X142748652Y-60499030D01*
X142874030Y-60373652D01*
X142967115Y-60222738D01*
X143022887Y-60054426D01*
X143033500Y-59950545D01*
X143033499Y-58750000D01*
X150436835Y-58750000D01*
X150455465Y-58986714D01*
X150510895Y-59217595D01*
X150510895Y-59217597D01*
X150601757Y-59436959D01*
X150601759Y-59436962D01*
X150725820Y-59639410D01*
X150725821Y-59639413D01*
X150725824Y-59639416D01*
X150880031Y-59819969D01*
X151019797Y-59939340D01*
X151060586Y-59974178D01*
X151060589Y-59974179D01*
X151263037Y-60098240D01*
X151263040Y-60098242D01*
X151438198Y-60170794D01*
X151492602Y-60214635D01*
X151514667Y-60280929D01*
X151497388Y-60348628D01*
X151446251Y-60396239D01*
X151438199Y-60399916D01*
X151313036Y-60451759D01*
X151110589Y-60575820D01*
X151110586Y-60575821D01*
X150930031Y-60730031D01*
X150775821Y-60910586D01*
X150775820Y-60910589D01*
X150651759Y-61113037D01*
X150651757Y-61113040D01*
X150560895Y-61332402D01*
X150560895Y-61332404D01*
X150505465Y-61563285D01*
X150486835Y-61800000D01*
X150505465Y-62036714D01*
X150560895Y-62267595D01*
X150560895Y-62267597D01*
X150651757Y-62486959D01*
X150651759Y-62486962D01*
X150775820Y-62689410D01*
X150775821Y-62689413D01*
X150775824Y-62689416D01*
X150930031Y-62869969D01*
X151069797Y-62989340D01*
X151110586Y-63024178D01*
X151110589Y-63024179D01*
X151313037Y-63148240D01*
X151313040Y-63148242D01*
X151532403Y-63239104D01*
X151532404Y-63239104D01*
X151532406Y-63239105D01*
X151763289Y-63294535D01*
X152000000Y-63313165D01*
X152236711Y-63294535D01*
X152467594Y-63239105D01*
X152467596Y-63239104D01*
X152467597Y-63239104D01*
X152686959Y-63148242D01*
X152686960Y-63148241D01*
X152686963Y-63148240D01*
X152889416Y-63024176D01*
X153069969Y-62869969D01*
X153224176Y-62689416D01*
X153348240Y-62486963D01*
X153439105Y-62267594D01*
X153494535Y-62036711D01*
X153513165Y-61800000D01*
X153494535Y-61563289D01*
X153439105Y-61332406D01*
X153439104Y-61332403D01*
X153439104Y-61332402D01*
X153348242Y-61113040D01*
X153348240Y-61113037D01*
X153224179Y-60910589D01*
X153224178Y-60910586D01*
X153189340Y-60869797D01*
X153069969Y-60730031D01*
X152929536Y-60610090D01*
X152889413Y-60575821D01*
X152889410Y-60575820D01*
X152686963Y-60451759D01*
X152511800Y-60379205D01*
X152457397Y-60335364D01*
X152435332Y-60269070D01*
X152452611Y-60201371D01*
X152503748Y-60153760D01*
X152511766Y-60150097D01*
X152636963Y-60098240D01*
X152839416Y-59974176D01*
X153019969Y-59819969D01*
X153174176Y-59639416D01*
X153298240Y-59436963D01*
X153312405Y-59402767D01*
X153389104Y-59217597D01*
X153389104Y-59217596D01*
X153389105Y-59217594D01*
X153444535Y-58986711D01*
X153463165Y-58750000D01*
X156936835Y-58750000D01*
X156955465Y-58986714D01*
X157010895Y-59217595D01*
X157010895Y-59217597D01*
X157101757Y-59436959D01*
X157101759Y-59436962D01*
X157225820Y-59639410D01*
X157225821Y-59639413D01*
X157225824Y-59639416D01*
X157380031Y-59819969D01*
X157519797Y-59939340D01*
X157560586Y-59974178D01*
X157560589Y-59974179D01*
X157763037Y-60098240D01*
X157763040Y-60098242D01*
X157938198Y-60170794D01*
X157992602Y-60214635D01*
X158014667Y-60280929D01*
X157997388Y-60348628D01*
X157946251Y-60396239D01*
X157938199Y-60399916D01*
X157813036Y-60451759D01*
X157610589Y-60575820D01*
X157610586Y-60575821D01*
X157430031Y-60730031D01*
X157275821Y-60910586D01*
X157275820Y-60910589D01*
X157151759Y-61113037D01*
X157151757Y-61113040D01*
X157060895Y-61332402D01*
X157060895Y-61332404D01*
X157005465Y-61563285D01*
X156986835Y-61800000D01*
X157005465Y-62036714D01*
X157060895Y-62267595D01*
X157060895Y-62267597D01*
X157151757Y-62486959D01*
X157151759Y-62486962D01*
X157275820Y-62689410D01*
X157275821Y-62689413D01*
X157275824Y-62689416D01*
X157430031Y-62869969D01*
X157569797Y-62989340D01*
X157610586Y-63024178D01*
X157610589Y-63024179D01*
X157813037Y-63148240D01*
X157813040Y-63148242D01*
X158032403Y-63239104D01*
X158032404Y-63239104D01*
X158032406Y-63239105D01*
X158263289Y-63294535D01*
X158500000Y-63313165D01*
X158736711Y-63294535D01*
X158967594Y-63239105D01*
X158967596Y-63239104D01*
X158967597Y-63239104D01*
X159186959Y-63148242D01*
X159186960Y-63148241D01*
X159186963Y-63148240D01*
X159389416Y-63024176D01*
X159569969Y-62869969D01*
X159724176Y-62689416D01*
X159848240Y-62486963D01*
X159939105Y-62267594D01*
X159994535Y-62036711D01*
X160013165Y-61800000D01*
X159994535Y-61563289D01*
X159939105Y-61332406D01*
X159939104Y-61332403D01*
X159939104Y-61332402D01*
X159848242Y-61113040D01*
X159848240Y-61113037D01*
X159724179Y-60910589D01*
X159724178Y-60910586D01*
X159689340Y-60869797D01*
X159569969Y-60730031D01*
X159429536Y-60610090D01*
X159389413Y-60575821D01*
X159389410Y-60575820D01*
X159186963Y-60451759D01*
X159011800Y-60379205D01*
X158957397Y-60335364D01*
X158935332Y-60269070D01*
X158952611Y-60201371D01*
X159003748Y-60153760D01*
X159011766Y-60150097D01*
X159136963Y-60098240D01*
X159339416Y-59974176D01*
X159519969Y-59819969D01*
X159674176Y-59639416D01*
X159798240Y-59436963D01*
X159812405Y-59402767D01*
X159889104Y-59217597D01*
X159889104Y-59217596D01*
X159889105Y-59217594D01*
X159944535Y-58986711D01*
X159963165Y-58750000D01*
X159944535Y-58513289D01*
X159889105Y-58282406D01*
X159889104Y-58282403D01*
X159889104Y-58282402D01*
X159798242Y-58063040D01*
X159798240Y-58063037D01*
X159674179Y-57860589D01*
X159674178Y-57860586D01*
X159637039Y-57817102D01*
X159519969Y-57680031D01*
X159400596Y-57578076D01*
X159339413Y-57525821D01*
X159339410Y-57525820D01*
X159136962Y-57401759D01*
X159136959Y-57401757D01*
X158917596Y-57310895D01*
X158686714Y-57255465D01*
X158450000Y-57236835D01*
X158213285Y-57255465D01*
X157982404Y-57310895D01*
X157982402Y-57310895D01*
X157763040Y-57401757D01*
X157763037Y-57401759D01*
X157560589Y-57525820D01*
X157560586Y-57525821D01*
X157380031Y-57680031D01*
X157225821Y-57860586D01*
X157225820Y-57860589D01*
X157101759Y-58063037D01*
X157101757Y-58063040D01*
X157010895Y-58282402D01*
X157010895Y-58282404D01*
X156955465Y-58513285D01*
X156936835Y-58750000D01*
X153463165Y-58750000D01*
X153444535Y-58513289D01*
X153389105Y-58282406D01*
X153389104Y-58282403D01*
X153389104Y-58282402D01*
X153298242Y-58063040D01*
X153298240Y-58063037D01*
X153174179Y-57860589D01*
X153174178Y-57860586D01*
X153137039Y-57817102D01*
X153019969Y-57680031D01*
X152900596Y-57578076D01*
X152839413Y-57525821D01*
X152839410Y-57525820D01*
X152636962Y-57401759D01*
X152636959Y-57401757D01*
X152417596Y-57310895D01*
X152186714Y-57255465D01*
X151950000Y-57236835D01*
X151713285Y-57255465D01*
X151482404Y-57310895D01*
X151482402Y-57310895D01*
X151263040Y-57401757D01*
X151263037Y-57401759D01*
X151060589Y-57525820D01*
X151060586Y-57525821D01*
X150880031Y-57680031D01*
X150725821Y-57860586D01*
X150725820Y-57860589D01*
X150601759Y-58063037D01*
X150601757Y-58063040D01*
X150510895Y-58282402D01*
X150510895Y-58282404D01*
X150455465Y-58513285D01*
X150436835Y-58750000D01*
X143033499Y-58750000D01*
X143033499Y-58649456D01*
X143022887Y-58545574D01*
X142967115Y-58377262D01*
X142874030Y-58226348D01*
X142748652Y-58100970D01*
X142748648Y-58100967D01*
X142601690Y-58010322D01*
X142554965Y-57958374D01*
X142543744Y-57889412D01*
X142571587Y-57825330D01*
X142579084Y-57817125D01*
X142711206Y-57685004D01*
X142836894Y-57512009D01*
X142933972Y-57321483D01*
X143000049Y-57118116D01*
X143033500Y-56906916D01*
X143033500Y-56693084D01*
X143000049Y-56481884D01*
X142933972Y-56278517D01*
X142933972Y-56278516D01*
X142836893Y-56087990D01*
X142711206Y-55914996D01*
X142560004Y-55763794D01*
X142396586Y-55645064D01*
X142353921Y-55589734D01*
X142347942Y-55520121D01*
X142380548Y-55458326D01*
X142396587Y-55444428D01*
X142554459Y-55329727D01*
X142554464Y-55329723D01*
X142704723Y-55179464D01*
X142704727Y-55179459D01*
X142829620Y-55007557D01*
X142926095Y-54818217D01*
X142991757Y-54616129D01*
X142991757Y-54616126D01*
X143002231Y-54550000D01*
X141954146Y-54550000D01*
X141992630Y-54483343D01*
X142025000Y-54362535D01*
X142025000Y-54250000D01*
X150436835Y-54250000D01*
X150455465Y-54486714D01*
X150510895Y-54717595D01*
X150510895Y-54717597D01*
X150601757Y-54936959D01*
X150601759Y-54936962D01*
X150725820Y-55139410D01*
X150725821Y-55139413D01*
X150725824Y-55139416D01*
X150880031Y-55319969D01*
X151019797Y-55439340D01*
X151060586Y-55474178D01*
X151060589Y-55474179D01*
X151263037Y-55598240D01*
X151263040Y-55598242D01*
X151482403Y-55689104D01*
X151482404Y-55689104D01*
X151482406Y-55689105D01*
X151713289Y-55744535D01*
X151950000Y-55763165D01*
X152186711Y-55744535D01*
X152417594Y-55689105D01*
X152417596Y-55689104D01*
X152417597Y-55689104D01*
X152636959Y-55598242D01*
X152636960Y-55598241D01*
X152636963Y-55598240D01*
X152839416Y-55474176D01*
X153019969Y-55319969D01*
X153174176Y-55139416D01*
X153298240Y-54936963D01*
X153389105Y-54717594D01*
X153444535Y-54486711D01*
X153463165Y-54250000D01*
X156936835Y-54250000D01*
X156955465Y-54486714D01*
X157010895Y-54717595D01*
X157010895Y-54717597D01*
X157101757Y-54936959D01*
X157101759Y-54936962D01*
X157225820Y-55139410D01*
X157225821Y-55139413D01*
X157225824Y-55139416D01*
X157380031Y-55319969D01*
X157519797Y-55439340D01*
X157560586Y-55474178D01*
X157560589Y-55474179D01*
X157763037Y-55598240D01*
X157763040Y-55598242D01*
X157982403Y-55689104D01*
X157982404Y-55689104D01*
X157982406Y-55689105D01*
X158213289Y-55744535D01*
X158450000Y-55763165D01*
X158686711Y-55744535D01*
X158917594Y-55689105D01*
X158917596Y-55689104D01*
X158917597Y-55689104D01*
X159136959Y-55598242D01*
X159136960Y-55598241D01*
X159136963Y-55598240D01*
X159339416Y-55474176D01*
X159519969Y-55319969D01*
X159674176Y-55139416D01*
X159798240Y-54936963D01*
X159889105Y-54717594D01*
X159944535Y-54486711D01*
X159963165Y-54250000D01*
X159944535Y-54013289D01*
X159889105Y-53782406D01*
X159889104Y-53782403D01*
X159889104Y-53782402D01*
X159798242Y-53563040D01*
X159798240Y-53563037D01*
X159674179Y-53360589D01*
X159674178Y-53360586D01*
X159639340Y-53319797D01*
X159519969Y-53180031D01*
X159366439Y-53048904D01*
X159339413Y-53025821D01*
X159339410Y-53025820D01*
X159136962Y-52901759D01*
X159136959Y-52901757D01*
X158917596Y-52810895D01*
X158686714Y-52755465D01*
X158450000Y-52736835D01*
X158213285Y-52755465D01*
X157982404Y-52810895D01*
X157982402Y-52810895D01*
X157763040Y-52901757D01*
X157763037Y-52901759D01*
X157560589Y-53025820D01*
X157560586Y-53025821D01*
X157380031Y-53180031D01*
X157225821Y-53360586D01*
X157225820Y-53360589D01*
X157101759Y-53563037D01*
X157101757Y-53563040D01*
X157010895Y-53782402D01*
X157010895Y-53782404D01*
X156955465Y-54013285D01*
X156936835Y-54250000D01*
X153463165Y-54250000D01*
X153444535Y-54013289D01*
X153389105Y-53782406D01*
X153389104Y-53782403D01*
X153389104Y-53782402D01*
X153298242Y-53563040D01*
X153298240Y-53563037D01*
X153174179Y-53360589D01*
X153174178Y-53360586D01*
X153139340Y-53319797D01*
X153019969Y-53180031D01*
X152866439Y-53048904D01*
X152839413Y-53025821D01*
X152839410Y-53025820D01*
X152636962Y-52901759D01*
X152636959Y-52901757D01*
X152417596Y-52810895D01*
X152186714Y-52755465D01*
X151950000Y-52736835D01*
X151713285Y-52755465D01*
X151482404Y-52810895D01*
X151482402Y-52810895D01*
X151263040Y-52901757D01*
X151263037Y-52901759D01*
X151060589Y-53025820D01*
X151060586Y-53025821D01*
X150880031Y-53180031D01*
X150725821Y-53360586D01*
X150725820Y-53360589D01*
X150601759Y-53563037D01*
X150601757Y-53563040D01*
X150510895Y-53782402D01*
X150510895Y-53782404D01*
X150455465Y-54013285D01*
X150436835Y-54250000D01*
X142025000Y-54250000D01*
X142025000Y-54237465D01*
X141992630Y-54116657D01*
X141954146Y-54050000D01*
X143002231Y-54050000D01*
X142991757Y-53983873D01*
X142991757Y-53983870D01*
X142926095Y-53781782D01*
X142829620Y-53592442D01*
X142704727Y-53420540D01*
X142704723Y-53420535D01*
X142554464Y-53270276D01*
X142554459Y-53270272D01*
X142382557Y-53145379D01*
X142193217Y-53048904D01*
X141991128Y-52983242D01*
X141800000Y-52952969D01*
X141800000Y-53895854D01*
X141733343Y-53857370D01*
X141612535Y-53825000D01*
X141487465Y-53825000D01*
X141366657Y-53857370D01*
X141300000Y-53895854D01*
X141300000Y-52952969D01*
X141108872Y-52983242D01*
X141108869Y-52983242D01*
X140906782Y-53048904D01*
X140717442Y-53145379D01*
X140545540Y-53270272D01*
X140545535Y-53270276D01*
X140395276Y-53420535D01*
X140395272Y-53420540D01*
X140270379Y-53592442D01*
X140173904Y-53781782D01*
X140108242Y-53983870D01*
X140108242Y-53983873D01*
X140097769Y-54050000D01*
X141145854Y-54050000D01*
X141107370Y-54116657D01*
X141075000Y-54237465D01*
X141075000Y-54362535D01*
X141107370Y-54483343D01*
X141145854Y-54550000D01*
X140097769Y-54550000D01*
X140108242Y-54616126D01*
X140108242Y-54616129D01*
X140173904Y-54818217D01*
X140270379Y-55007557D01*
X140395272Y-55179459D01*
X140395276Y-55179464D01*
X140545535Y-55329723D01*
X140545540Y-55329727D01*
X140703412Y-55444428D01*
X140746078Y-55499758D01*
X140752057Y-55569371D01*
X140719451Y-55631166D01*
X140703413Y-55645064D01*
X140605769Y-55716006D01*
X140539996Y-55763794D01*
X140539994Y-55763796D01*
X140539993Y-55763796D01*
X140388796Y-55914993D01*
X140263106Y-56087990D01*
X140166027Y-56278516D01*
X140166026Y-56278519D01*
X140099951Y-56481882D01*
X140066500Y-56693084D01*
X100075500Y-56693084D01*
X100075500Y-52119998D01*
X161936502Y-52119998D01*
X161936502Y-52120001D01*
X161956456Y-52348081D01*
X161956457Y-52348089D01*
X162015714Y-52569238D01*
X162015718Y-52569249D01*
X162093865Y-52736835D01*
X162112477Y-52776749D01*
X162243802Y-52964300D01*
X162405700Y-53126198D01*
X162593251Y-53257523D01*
X162718091Y-53315736D01*
X162800750Y-53354281D01*
X162800752Y-53354281D01*
X162800757Y-53354284D01*
X163021913Y-53413543D01*
X163184832Y-53427796D01*
X163249998Y-53433498D01*
X163250000Y-53433498D01*
X163250002Y-53433498D01*
X163307021Y-53428509D01*
X163478087Y-53413543D01*
X163699243Y-53354284D01*
X163906749Y-53257523D01*
X164094300Y-53126198D01*
X164256198Y-52964300D01*
X164387523Y-52776749D01*
X164484284Y-52569243D01*
X164543543Y-52348087D01*
X164563498Y-52120000D01*
X164543543Y-51891913D01*
X164484284Y-51670757D01*
X164387523Y-51463251D01*
X164256198Y-51275700D01*
X164094300Y-51113802D01*
X163906749Y-50982477D01*
X163906745Y-50982475D01*
X163699249Y-50885718D01*
X163699238Y-50885714D01*
X163478089Y-50826457D01*
X163478081Y-50826456D01*
X163250002Y-50806502D01*
X163249998Y-50806502D01*
X163021918Y-50826456D01*
X163021910Y-50826457D01*
X162800761Y-50885714D01*
X162800750Y-50885718D01*
X162593254Y-50982475D01*
X162593252Y-50982476D01*
X162593251Y-50982477D01*
X162405700Y-51113802D01*
X162405698Y-51113803D01*
X162405695Y-51113806D01*
X162243806Y-51275695D01*
X162112476Y-51463252D01*
X162112475Y-51463254D01*
X162015718Y-51670750D01*
X162015714Y-51670761D01*
X161956457Y-51891910D01*
X161956456Y-51891918D01*
X161936502Y-52119998D01*
X100075500Y-52119998D01*
X100075500Y-48301345D01*
X117437500Y-48301345D01*
X117437500Y-50098654D01*
X117444011Y-50159202D01*
X117444011Y-50159204D01*
X117495111Y-50296204D01*
X117582739Y-50413261D01*
X117699796Y-50500889D01*
X117836799Y-50551989D01*
X117864050Y-50554918D01*
X117897345Y-50558499D01*
X117897362Y-50558500D01*
X119694638Y-50558500D01*
X119694654Y-50558499D01*
X119721692Y-50555591D01*
X119755201Y-50551989D01*
X119892204Y-50500889D01*
X120009261Y-50413261D01*
X120096889Y-50296204D01*
X120142138Y-50174887D01*
X120184009Y-50118956D01*
X120249474Y-50094539D01*
X120317746Y-50109391D01*
X120349545Y-50134236D01*
X120412760Y-50202906D01*
X120590424Y-50341189D01*
X120590425Y-50341189D01*
X120590427Y-50341191D01*
X120650314Y-50373600D01*
X120788426Y-50448342D01*
X121001365Y-50521444D01*
X121223431Y-50558500D01*
X121448569Y-50558500D01*
X121670635Y-50521444D01*
X121883574Y-50448342D01*
X122081576Y-50341189D01*
X122259240Y-50202906D01*
X122380594Y-50071082D01*
X122411715Y-50037276D01*
X122411715Y-50037275D01*
X122411722Y-50037268D01*
X122502193Y-49898790D01*
X122555338Y-49853437D01*
X122624569Y-49844013D01*
X122687905Y-49873515D01*
X122709804Y-49898787D01*
X122800278Y-50037268D01*
X122800283Y-50037273D01*
X122800284Y-50037276D01*
X122926968Y-50174889D01*
X122952760Y-50202906D01*
X123130424Y-50341189D01*
X123130425Y-50341189D01*
X123130427Y-50341191D01*
X123190314Y-50373600D01*
X123328426Y-50448342D01*
X123541365Y-50521444D01*
X123763431Y-50558500D01*
X123988569Y-50558500D01*
X124210635Y-50521444D01*
X124423574Y-50448342D01*
X124621576Y-50341189D01*
X124799240Y-50202906D01*
X124920594Y-50071082D01*
X124951715Y-50037276D01*
X124951715Y-50037275D01*
X124951722Y-50037268D01*
X125045749Y-49893347D01*
X125098894Y-49847994D01*
X125168125Y-49838570D01*
X125231461Y-49868072D01*
X125251130Y-49890048D01*
X125377890Y-50071078D01*
X125544917Y-50238105D01*
X125738421Y-50373600D01*
X125952507Y-50473429D01*
X125952516Y-50473433D01*
X126166000Y-50530634D01*
X126166000Y-49633012D01*
X126223007Y-49665925D01*
X126350174Y-49700000D01*
X126481826Y-49700000D01*
X126608993Y-49665925D01*
X126666000Y-49633012D01*
X126666000Y-50530633D01*
X126879483Y-50473433D01*
X126879492Y-50473429D01*
X127093578Y-50373600D01*
X127287082Y-50238105D01*
X127454105Y-50071082D01*
X127580868Y-49890048D01*
X127635445Y-49846423D01*
X127704944Y-49839231D01*
X127767298Y-49870753D01*
X127786251Y-49893350D01*
X127880276Y-50037265D01*
X127880284Y-50037276D01*
X128006968Y-50174889D01*
X128032760Y-50202906D01*
X128210424Y-50341189D01*
X128210425Y-50341189D01*
X128210427Y-50341191D01*
X128270314Y-50373600D01*
X128408426Y-50448342D01*
X128621365Y-50521444D01*
X128843431Y-50558500D01*
X129068569Y-50558500D01*
X129290635Y-50521444D01*
X129503574Y-50448342D01*
X129701576Y-50341189D01*
X129879240Y-50202906D01*
X130000594Y-50071082D01*
X130031715Y-50037276D01*
X130031715Y-50037275D01*
X130031722Y-50037268D01*
X130122193Y-49898790D01*
X130175338Y-49853437D01*
X130244569Y-49844013D01*
X130307905Y-49873515D01*
X130329804Y-49898787D01*
X130420278Y-50037268D01*
X130420283Y-50037273D01*
X130420284Y-50037276D01*
X130546968Y-50174889D01*
X130572760Y-50202906D01*
X130750424Y-50341189D01*
X130750425Y-50341189D01*
X130750427Y-50341191D01*
X130810314Y-50373600D01*
X130948426Y-50448342D01*
X131161365Y-50521444D01*
X131383431Y-50558500D01*
X131608569Y-50558500D01*
X131830635Y-50521444D01*
X132043574Y-50448342D01*
X132241576Y-50341189D01*
X132419240Y-50202906D01*
X132540594Y-50071082D01*
X132571715Y-50037276D01*
X132571715Y-50037275D01*
X132571722Y-50037268D01*
X132662193Y-49898790D01*
X132715338Y-49853437D01*
X132784569Y-49844013D01*
X132847905Y-49873515D01*
X132869804Y-49898787D01*
X132960278Y-50037268D01*
X132960283Y-50037273D01*
X132960284Y-50037276D01*
X133086968Y-50174889D01*
X133112760Y-50202906D01*
X133290424Y-50341189D01*
X133290425Y-50341189D01*
X133290427Y-50341191D01*
X133350314Y-50373600D01*
X133488426Y-50448342D01*
X133701365Y-50521444D01*
X133923431Y-50558500D01*
X134148569Y-50558500D01*
X134370635Y-50521444D01*
X134583574Y-50448342D01*
X134781576Y-50341189D01*
X134959240Y-50202906D01*
X135080594Y-50071082D01*
X135111715Y-50037276D01*
X135111715Y-50037275D01*
X135111722Y-50037268D01*
X135202193Y-49898790D01*
X135255338Y-49853437D01*
X135324569Y-49844013D01*
X135387905Y-49873515D01*
X135409804Y-49898787D01*
X135500278Y-50037268D01*
X135500283Y-50037273D01*
X135500284Y-50037276D01*
X135626968Y-50174889D01*
X135652760Y-50202906D01*
X135830424Y-50341189D01*
X135830425Y-50341189D01*
X135830427Y-50341191D01*
X135890314Y-50373600D01*
X136028426Y-50448342D01*
X136241365Y-50521444D01*
X136463431Y-50558500D01*
X136688569Y-50558500D01*
X136910635Y-50521444D01*
X137123574Y-50448342D01*
X137321576Y-50341189D01*
X137499240Y-50202906D01*
X137620594Y-50071082D01*
X137651715Y-50037276D01*
X137651715Y-50037275D01*
X137651722Y-50037268D01*
X137742193Y-49898790D01*
X137795338Y-49853437D01*
X137864569Y-49844013D01*
X137927905Y-49873515D01*
X137949804Y-49898787D01*
X138040278Y-50037268D01*
X138040283Y-50037273D01*
X138040284Y-50037276D01*
X138166968Y-50174889D01*
X138192760Y-50202906D01*
X138370424Y-50341189D01*
X138370425Y-50341189D01*
X138370427Y-50341191D01*
X138430314Y-50373600D01*
X138568426Y-50448342D01*
X138781365Y-50521444D01*
X139003431Y-50558500D01*
X139228569Y-50558500D01*
X139450635Y-50521444D01*
X139663574Y-50448342D01*
X139861576Y-50341189D01*
X140039240Y-50202906D01*
X140160594Y-50071082D01*
X140191715Y-50037276D01*
X140191715Y-50037275D01*
X140191722Y-50037268D01*
X140282193Y-49898790D01*
X140335338Y-49853437D01*
X140404569Y-49844013D01*
X140467905Y-49873515D01*
X140489804Y-49898787D01*
X140580278Y-50037268D01*
X140580283Y-50037273D01*
X140580284Y-50037276D01*
X140706968Y-50174889D01*
X140732760Y-50202906D01*
X140910424Y-50341189D01*
X140910425Y-50341189D01*
X140910427Y-50341191D01*
X140970314Y-50373600D01*
X141108426Y-50448342D01*
X141321365Y-50521444D01*
X141543431Y-50558500D01*
X141768569Y-50558500D01*
X141990635Y-50521444D01*
X142203574Y-50448342D01*
X142401576Y-50341189D01*
X142579240Y-50202906D01*
X142700594Y-50071082D01*
X142731715Y-50037276D01*
X142731717Y-50037273D01*
X142731722Y-50037268D01*
X142854860Y-49848791D01*
X142945296Y-49642616D01*
X143000564Y-49424368D01*
X143012309Y-49282635D01*
X143019156Y-49200005D01*
X143019156Y-49199994D01*
X143000565Y-48975640D01*
X143000563Y-48975628D01*
X142945296Y-48757385D01*
X142935071Y-48734075D01*
X142854860Y-48551209D01*
X142838706Y-48526484D01*
X142731723Y-48362734D01*
X142731715Y-48362723D01*
X142675212Y-48301345D01*
X144361500Y-48301345D01*
X144361500Y-50098654D01*
X144368011Y-50159202D01*
X144368011Y-50159204D01*
X144419111Y-50296204D01*
X144506739Y-50413261D01*
X144623796Y-50500889D01*
X144760799Y-50551989D01*
X144788050Y-50554918D01*
X144821345Y-50558499D01*
X144821362Y-50558500D01*
X146618638Y-50558500D01*
X146618654Y-50558499D01*
X146645692Y-50555591D01*
X146679201Y-50551989D01*
X146816204Y-50500889D01*
X146933261Y-50413261D01*
X147020889Y-50296204D01*
X147066138Y-50174887D01*
X147108009Y-50118956D01*
X147173474Y-50094539D01*
X147241746Y-50109391D01*
X147273545Y-50134236D01*
X147336760Y-50202906D01*
X147514424Y-50341189D01*
X147514425Y-50341189D01*
X147514427Y-50341191D01*
X147574314Y-50373600D01*
X147712426Y-50448342D01*
X147925365Y-50521444D01*
X148147431Y-50558500D01*
X148372569Y-50558500D01*
X148594635Y-50521444D01*
X148807574Y-50448342D01*
X149005576Y-50341189D01*
X149183240Y-50202906D01*
X149304594Y-50071082D01*
X149335715Y-50037276D01*
X149335715Y-50037275D01*
X149335722Y-50037268D01*
X149426193Y-49898790D01*
X149479338Y-49853437D01*
X149548569Y-49844013D01*
X149611905Y-49873515D01*
X149633804Y-49898787D01*
X149724278Y-50037268D01*
X149724283Y-50037273D01*
X149724284Y-50037276D01*
X149850968Y-50174889D01*
X149876760Y-50202906D01*
X150054424Y-50341189D01*
X150054425Y-50341189D01*
X150054427Y-50341191D01*
X150114314Y-50373600D01*
X150252426Y-50448342D01*
X150465365Y-50521444D01*
X150687431Y-50558500D01*
X150912569Y-50558500D01*
X151134635Y-50521444D01*
X151347574Y-50448342D01*
X151545576Y-50341189D01*
X151723240Y-50202906D01*
X151844594Y-50071082D01*
X151875715Y-50037276D01*
X151875715Y-50037275D01*
X151875722Y-50037268D01*
X151966193Y-49898790D01*
X152019338Y-49853437D01*
X152088569Y-49844013D01*
X152151905Y-49873515D01*
X152173804Y-49898787D01*
X152264278Y-50037268D01*
X152264283Y-50037273D01*
X152264284Y-50037276D01*
X152390968Y-50174889D01*
X152416760Y-50202906D01*
X152594424Y-50341189D01*
X152594425Y-50341189D01*
X152594427Y-50341191D01*
X152654314Y-50373600D01*
X152792426Y-50448342D01*
X153005365Y-50521444D01*
X153227431Y-50558500D01*
X153452569Y-50558500D01*
X153674635Y-50521444D01*
X153887574Y-50448342D01*
X154085576Y-50341189D01*
X154263240Y-50202906D01*
X154384594Y-50071082D01*
X154415715Y-50037276D01*
X154415715Y-50037275D01*
X154415722Y-50037268D01*
X154506193Y-49898790D01*
X154559338Y-49853437D01*
X154628569Y-49844013D01*
X154691905Y-49873515D01*
X154713804Y-49898787D01*
X154804278Y-50037268D01*
X154804283Y-50037273D01*
X154804284Y-50037276D01*
X154930968Y-50174889D01*
X154956760Y-50202906D01*
X155134424Y-50341189D01*
X155134425Y-50341189D01*
X155134427Y-50341191D01*
X155194314Y-50373600D01*
X155332426Y-50448342D01*
X155545365Y-50521444D01*
X155767431Y-50558500D01*
X155992569Y-50558500D01*
X156214635Y-50521444D01*
X156427574Y-50448342D01*
X156625576Y-50341189D01*
X156803240Y-50202906D01*
X156924594Y-50071082D01*
X156955715Y-50037276D01*
X156955715Y-50037275D01*
X156955722Y-50037268D01*
X157046193Y-49898790D01*
X157099338Y-49853437D01*
X157168569Y-49844013D01*
X157231905Y-49873515D01*
X157253804Y-49898787D01*
X157344278Y-50037268D01*
X157344283Y-50037273D01*
X157344284Y-50037276D01*
X157470968Y-50174889D01*
X157496760Y-50202906D01*
X157674424Y-50341189D01*
X157674425Y-50341189D01*
X157674427Y-50341191D01*
X157734314Y-50373600D01*
X157872426Y-50448342D01*
X158085365Y-50521444D01*
X158307431Y-50558500D01*
X158532569Y-50558500D01*
X158754635Y-50521444D01*
X158967574Y-50448342D01*
X159165576Y-50341189D01*
X159343240Y-50202906D01*
X159464594Y-50071082D01*
X159495715Y-50037276D01*
X159495715Y-50037275D01*
X159495722Y-50037268D01*
X159586193Y-49898790D01*
X159639338Y-49853437D01*
X159708569Y-49844013D01*
X159771905Y-49873515D01*
X159793804Y-49898787D01*
X159884278Y-50037268D01*
X159884283Y-50037273D01*
X159884284Y-50037276D01*
X160010968Y-50174889D01*
X160036760Y-50202906D01*
X160214424Y-50341189D01*
X160214425Y-50341189D01*
X160214427Y-50341191D01*
X160274314Y-50373600D01*
X160412426Y-50448342D01*
X160625365Y-50521444D01*
X160847431Y-50558500D01*
X161072569Y-50558500D01*
X161294635Y-50521444D01*
X161507574Y-50448342D01*
X161705576Y-50341189D01*
X161883240Y-50202906D01*
X162004594Y-50071082D01*
X162035715Y-50037276D01*
X162035715Y-50037275D01*
X162035722Y-50037268D01*
X162126193Y-49898790D01*
X162179338Y-49853437D01*
X162248569Y-49844013D01*
X162311905Y-49873515D01*
X162333804Y-49898787D01*
X162424278Y-50037268D01*
X162424283Y-50037273D01*
X162424284Y-50037276D01*
X162550968Y-50174889D01*
X162576760Y-50202906D01*
X162754424Y-50341189D01*
X162754425Y-50341189D01*
X162754427Y-50341191D01*
X162814314Y-50373600D01*
X162952426Y-50448342D01*
X163165365Y-50521444D01*
X163387431Y-50558500D01*
X163612569Y-50558500D01*
X163834635Y-50521444D01*
X164047574Y-50448342D01*
X164245576Y-50341189D01*
X164423240Y-50202906D01*
X164544594Y-50071082D01*
X164575715Y-50037276D01*
X164575717Y-50037273D01*
X164575722Y-50037268D01*
X164698860Y-49848791D01*
X164789296Y-49642616D01*
X164844564Y-49424368D01*
X164856309Y-49282635D01*
X164863156Y-49200005D01*
X164863156Y-49199994D01*
X164844565Y-48975640D01*
X164844563Y-48975628D01*
X164789296Y-48757385D01*
X164779071Y-48734075D01*
X164698860Y-48551209D01*
X164682706Y-48526484D01*
X164575723Y-48362734D01*
X164575715Y-48362723D01*
X164423243Y-48197097D01*
X164423238Y-48197092D01*
X164245577Y-48058812D01*
X164245572Y-48058808D01*
X164047580Y-47951661D01*
X164047577Y-47951659D01*
X164047574Y-47951658D01*
X164047571Y-47951657D01*
X164047569Y-47951656D01*
X163834637Y-47878556D01*
X163612569Y-47841500D01*
X163387431Y-47841500D01*
X163165362Y-47878556D01*
X162952430Y-47951656D01*
X162952419Y-47951661D01*
X162754427Y-48058808D01*
X162754422Y-48058812D01*
X162576761Y-48197092D01*
X162576756Y-48197097D01*
X162424284Y-48362723D01*
X162424276Y-48362734D01*
X162333808Y-48501206D01*
X162280662Y-48546562D01*
X162211431Y-48555986D01*
X162148095Y-48526484D01*
X162126192Y-48501206D01*
X162035723Y-48362734D01*
X162035715Y-48362723D01*
X161883243Y-48197097D01*
X161883238Y-48197092D01*
X161705577Y-48058812D01*
X161705572Y-48058808D01*
X161507580Y-47951661D01*
X161507577Y-47951659D01*
X161507574Y-47951658D01*
X161507571Y-47951657D01*
X161507569Y-47951656D01*
X161294637Y-47878556D01*
X161072569Y-47841500D01*
X160847431Y-47841500D01*
X160625362Y-47878556D01*
X160412430Y-47951656D01*
X160412419Y-47951661D01*
X160214427Y-48058808D01*
X160214422Y-48058812D01*
X160036761Y-48197092D01*
X160036756Y-48197097D01*
X159884284Y-48362723D01*
X159884276Y-48362734D01*
X159793808Y-48501206D01*
X159740662Y-48546562D01*
X159671431Y-48555986D01*
X159608095Y-48526484D01*
X159586192Y-48501206D01*
X159495723Y-48362734D01*
X159495715Y-48362723D01*
X159343243Y-48197097D01*
X159343238Y-48197092D01*
X159165577Y-48058812D01*
X159165572Y-48058808D01*
X158967580Y-47951661D01*
X158967577Y-47951659D01*
X158967574Y-47951658D01*
X158967571Y-47951657D01*
X158967569Y-47951656D01*
X158754637Y-47878556D01*
X158532569Y-47841500D01*
X158307431Y-47841500D01*
X158085362Y-47878556D01*
X157872430Y-47951656D01*
X157872419Y-47951661D01*
X157674427Y-48058808D01*
X157674422Y-48058812D01*
X157496761Y-48197092D01*
X157496756Y-48197097D01*
X157344284Y-48362723D01*
X157344276Y-48362734D01*
X157253808Y-48501206D01*
X157200662Y-48546562D01*
X157131431Y-48555986D01*
X157068095Y-48526484D01*
X157046192Y-48501206D01*
X156955723Y-48362734D01*
X156955715Y-48362723D01*
X156803243Y-48197097D01*
X156803238Y-48197092D01*
X156625577Y-48058812D01*
X156625572Y-48058808D01*
X156427580Y-47951661D01*
X156427577Y-47951659D01*
X156427574Y-47951658D01*
X156427571Y-47951657D01*
X156427569Y-47951656D01*
X156214637Y-47878556D01*
X155992569Y-47841500D01*
X155767431Y-47841500D01*
X155545362Y-47878556D01*
X155332430Y-47951656D01*
X155332419Y-47951661D01*
X155134427Y-48058808D01*
X155134422Y-48058812D01*
X154956761Y-48197092D01*
X154956756Y-48197097D01*
X154804284Y-48362723D01*
X154804276Y-48362734D01*
X154713808Y-48501206D01*
X154660662Y-48546562D01*
X154591431Y-48555986D01*
X154528095Y-48526484D01*
X154506192Y-48501206D01*
X154415723Y-48362734D01*
X154415715Y-48362723D01*
X154263243Y-48197097D01*
X154263238Y-48197092D01*
X154085577Y-48058812D01*
X154085572Y-48058808D01*
X153887580Y-47951661D01*
X153887577Y-47951659D01*
X153887574Y-47951658D01*
X153887571Y-47951657D01*
X153887569Y-47951656D01*
X153674637Y-47878556D01*
X153452569Y-47841500D01*
X153227431Y-47841500D01*
X153005362Y-47878556D01*
X152792430Y-47951656D01*
X152792419Y-47951661D01*
X152594427Y-48058808D01*
X152594422Y-48058812D01*
X152416761Y-48197092D01*
X152416756Y-48197097D01*
X152264284Y-48362723D01*
X152264276Y-48362734D01*
X152173808Y-48501206D01*
X152120662Y-48546562D01*
X152051431Y-48555986D01*
X151988095Y-48526484D01*
X151966192Y-48501206D01*
X151875723Y-48362734D01*
X151875715Y-48362723D01*
X151723243Y-48197097D01*
X151723238Y-48197092D01*
X151545577Y-48058812D01*
X151545572Y-48058808D01*
X151347580Y-47951661D01*
X151347577Y-47951659D01*
X151347574Y-47951658D01*
X151347571Y-47951657D01*
X151347569Y-47951656D01*
X151134637Y-47878556D01*
X150912569Y-47841500D01*
X150687431Y-47841500D01*
X150465362Y-47878556D01*
X150252430Y-47951656D01*
X150252419Y-47951661D01*
X150054427Y-48058808D01*
X150054422Y-48058812D01*
X149876761Y-48197092D01*
X149876756Y-48197097D01*
X149724284Y-48362723D01*
X149724276Y-48362734D01*
X149633808Y-48501206D01*
X149580662Y-48546562D01*
X149511431Y-48555986D01*
X149448095Y-48526484D01*
X149426192Y-48501206D01*
X149335723Y-48362734D01*
X149335715Y-48362723D01*
X149183243Y-48197097D01*
X149183238Y-48197092D01*
X149005577Y-48058812D01*
X149005572Y-48058808D01*
X148807580Y-47951661D01*
X148807577Y-47951659D01*
X148807574Y-47951658D01*
X148807571Y-47951657D01*
X148807569Y-47951656D01*
X148594637Y-47878556D01*
X148372569Y-47841500D01*
X148147431Y-47841500D01*
X147925362Y-47878556D01*
X147712430Y-47951656D01*
X147712419Y-47951661D01*
X147514427Y-48058808D01*
X147514422Y-48058812D01*
X147336761Y-48197092D01*
X147273548Y-48265760D01*
X147213661Y-48301750D01*
X147143823Y-48299649D01*
X147086207Y-48260124D01*
X147066138Y-48225110D01*
X147020889Y-48103796D01*
X146987214Y-48058812D01*
X146933261Y-47986739D01*
X146816204Y-47899111D01*
X146679203Y-47848011D01*
X146618654Y-47841500D01*
X146618638Y-47841500D01*
X144821362Y-47841500D01*
X144821345Y-47841500D01*
X144760797Y-47848011D01*
X144760795Y-47848011D01*
X144623795Y-47899111D01*
X144506739Y-47986739D01*
X144419111Y-48103795D01*
X144368011Y-48240795D01*
X144368011Y-48240797D01*
X144361500Y-48301345D01*
X142675212Y-48301345D01*
X142579243Y-48197097D01*
X142579238Y-48197092D01*
X142401577Y-48058812D01*
X142401572Y-48058808D01*
X142203580Y-47951661D01*
X142203577Y-47951659D01*
X142203574Y-47951658D01*
X142203571Y-47951657D01*
X142203569Y-47951656D01*
X141990637Y-47878556D01*
X141768569Y-47841500D01*
X141543431Y-47841500D01*
X141321362Y-47878556D01*
X141108430Y-47951656D01*
X141108419Y-47951661D01*
X140910427Y-48058808D01*
X140910422Y-48058812D01*
X140732761Y-48197092D01*
X140732756Y-48197097D01*
X140580284Y-48362723D01*
X140580276Y-48362734D01*
X140489808Y-48501206D01*
X140436662Y-48546562D01*
X140367431Y-48555986D01*
X140304095Y-48526484D01*
X140282192Y-48501206D01*
X140191723Y-48362734D01*
X140191715Y-48362723D01*
X140039243Y-48197097D01*
X140039238Y-48197092D01*
X139861577Y-48058812D01*
X139861572Y-48058808D01*
X139663580Y-47951661D01*
X139663577Y-47951659D01*
X139663574Y-47951658D01*
X139663571Y-47951657D01*
X139663569Y-47951656D01*
X139450637Y-47878556D01*
X139228569Y-47841500D01*
X139003431Y-47841500D01*
X138781362Y-47878556D01*
X138568430Y-47951656D01*
X138568419Y-47951661D01*
X138370427Y-48058808D01*
X138370422Y-48058812D01*
X138192761Y-48197092D01*
X138192756Y-48197097D01*
X138040284Y-48362723D01*
X138040276Y-48362734D01*
X137949808Y-48501206D01*
X137896662Y-48546562D01*
X137827431Y-48555986D01*
X137764095Y-48526484D01*
X137742192Y-48501206D01*
X137651723Y-48362734D01*
X137651715Y-48362723D01*
X137499243Y-48197097D01*
X137499238Y-48197092D01*
X137321577Y-48058812D01*
X137321572Y-48058808D01*
X137123580Y-47951661D01*
X137123577Y-47951659D01*
X137123574Y-47951658D01*
X137123571Y-47951657D01*
X137123569Y-47951656D01*
X136910637Y-47878556D01*
X136688569Y-47841500D01*
X136463431Y-47841500D01*
X136241362Y-47878556D01*
X136028430Y-47951656D01*
X136028419Y-47951661D01*
X135830427Y-48058808D01*
X135830422Y-48058812D01*
X135652761Y-48197092D01*
X135652756Y-48197097D01*
X135500284Y-48362723D01*
X135500276Y-48362734D01*
X135409808Y-48501206D01*
X135356662Y-48546562D01*
X135287431Y-48555986D01*
X135224095Y-48526484D01*
X135202192Y-48501206D01*
X135111723Y-48362734D01*
X135111715Y-48362723D01*
X134959243Y-48197097D01*
X134959238Y-48197092D01*
X134781577Y-48058812D01*
X134781572Y-48058808D01*
X134583580Y-47951661D01*
X134583577Y-47951659D01*
X134583574Y-47951658D01*
X134583571Y-47951657D01*
X134583569Y-47951656D01*
X134370637Y-47878556D01*
X134148569Y-47841500D01*
X133923431Y-47841500D01*
X133701362Y-47878556D01*
X133488430Y-47951656D01*
X133488419Y-47951661D01*
X133290427Y-48058808D01*
X133290422Y-48058812D01*
X133112761Y-48197092D01*
X133112756Y-48197097D01*
X132960284Y-48362723D01*
X132960276Y-48362734D01*
X132869808Y-48501206D01*
X132816662Y-48546562D01*
X132747431Y-48555986D01*
X132684095Y-48526484D01*
X132662192Y-48501206D01*
X132571723Y-48362734D01*
X132571715Y-48362723D01*
X132419243Y-48197097D01*
X132419238Y-48197092D01*
X132241577Y-48058812D01*
X132241572Y-48058808D01*
X132043580Y-47951661D01*
X132043577Y-47951659D01*
X132043574Y-47951658D01*
X132043571Y-47951657D01*
X132043569Y-47951656D01*
X131830637Y-47878556D01*
X131608569Y-47841500D01*
X131383431Y-47841500D01*
X131161362Y-47878556D01*
X130948430Y-47951656D01*
X130948419Y-47951661D01*
X130750427Y-48058808D01*
X130750422Y-48058812D01*
X130572761Y-48197092D01*
X130572756Y-48197097D01*
X130420284Y-48362723D01*
X130420276Y-48362734D01*
X130329808Y-48501206D01*
X130276662Y-48546562D01*
X130207431Y-48555986D01*
X130144095Y-48526484D01*
X130122192Y-48501206D01*
X130031723Y-48362734D01*
X130031715Y-48362723D01*
X129879243Y-48197097D01*
X129879238Y-48197092D01*
X129701577Y-48058812D01*
X129701572Y-48058808D01*
X129503580Y-47951661D01*
X129503577Y-47951659D01*
X129503574Y-47951658D01*
X129503571Y-47951657D01*
X129503569Y-47951656D01*
X129290637Y-47878556D01*
X129068569Y-47841500D01*
X128843431Y-47841500D01*
X128621362Y-47878556D01*
X128408430Y-47951656D01*
X128408419Y-47951661D01*
X128210427Y-48058808D01*
X128210422Y-48058812D01*
X128032761Y-48197092D01*
X128032756Y-48197097D01*
X127880284Y-48362723D01*
X127880276Y-48362734D01*
X127786251Y-48506650D01*
X127733105Y-48552007D01*
X127663873Y-48561430D01*
X127600538Y-48531928D01*
X127580868Y-48509951D01*
X127454113Y-48328926D01*
X127454108Y-48328920D01*
X127287082Y-48161894D01*
X127093578Y-48026399D01*
X126879492Y-47926570D01*
X126879486Y-47926567D01*
X126666000Y-47869364D01*
X126666000Y-48766988D01*
X126608993Y-48734075D01*
X126481826Y-48700000D01*
X126350174Y-48700000D01*
X126223007Y-48734075D01*
X126166000Y-48766988D01*
X126166000Y-47869364D01*
X126165999Y-47869364D01*
X125952513Y-47926567D01*
X125952507Y-47926570D01*
X125738422Y-48026399D01*
X125738420Y-48026400D01*
X125544926Y-48161886D01*
X125544920Y-48161891D01*
X125377891Y-48328920D01*
X125377890Y-48328922D01*
X125251131Y-48509952D01*
X125196554Y-48553577D01*
X125127055Y-48560769D01*
X125064701Y-48529247D01*
X125045752Y-48506656D01*
X124951722Y-48362732D01*
X124951715Y-48362725D01*
X124951715Y-48362723D01*
X124799243Y-48197097D01*
X124799238Y-48197092D01*
X124621577Y-48058812D01*
X124621572Y-48058808D01*
X124423580Y-47951661D01*
X124423577Y-47951659D01*
X124423574Y-47951658D01*
X124423571Y-47951657D01*
X124423569Y-47951656D01*
X124210637Y-47878556D01*
X123988569Y-47841500D01*
X123763431Y-47841500D01*
X123541362Y-47878556D01*
X123328430Y-47951656D01*
X123328419Y-47951661D01*
X123130427Y-48058808D01*
X123130422Y-48058812D01*
X122952761Y-48197092D01*
X122952756Y-48197097D01*
X122800284Y-48362723D01*
X122800276Y-48362734D01*
X122709808Y-48501206D01*
X122656662Y-48546562D01*
X122587431Y-48555986D01*
X122524095Y-48526484D01*
X122502192Y-48501206D01*
X122411723Y-48362734D01*
X122411715Y-48362723D01*
X122259243Y-48197097D01*
X122259238Y-48197092D01*
X122081577Y-48058812D01*
X122081572Y-48058808D01*
X121883580Y-47951661D01*
X121883577Y-47951659D01*
X121883574Y-47951658D01*
X121883571Y-47951657D01*
X121883569Y-47951656D01*
X121670637Y-47878556D01*
X121448569Y-47841500D01*
X121223431Y-47841500D01*
X121001362Y-47878556D01*
X120788430Y-47951656D01*
X120788419Y-47951661D01*
X120590427Y-48058808D01*
X120590422Y-48058812D01*
X120412761Y-48197092D01*
X120349548Y-48265760D01*
X120289661Y-48301750D01*
X120219823Y-48299649D01*
X120162207Y-48260124D01*
X120142138Y-48225110D01*
X120096889Y-48103796D01*
X120063214Y-48058812D01*
X120009261Y-47986739D01*
X119892204Y-47899111D01*
X119755203Y-47848011D01*
X119694654Y-47841500D01*
X119694638Y-47841500D01*
X117897362Y-47841500D01*
X117897345Y-47841500D01*
X117836797Y-47848011D01*
X117836795Y-47848011D01*
X117699795Y-47899111D01*
X117582739Y-47986739D01*
X117495111Y-48103795D01*
X117444011Y-48240795D01*
X117444011Y-48240797D01*
X117437500Y-48301345D01*
X100075500Y-48301345D01*
X100075500Y-47428092D01*
X100076097Y-47415938D01*
X100087494Y-47300222D01*
X100092234Y-47276389D01*
X100124216Y-47170959D01*
X100133508Y-47148526D01*
X100185442Y-47051365D01*
X100198938Y-47031166D01*
X100268827Y-46946006D01*
X100286006Y-46928827D01*
X100371166Y-46858938D01*
X100391365Y-46845442D01*
X100488526Y-46793508D01*
X100510959Y-46784216D01*
X100616389Y-46752234D01*
X100640220Y-46747494D01*
X100755939Y-46736097D01*
X100768093Y-46735500D01*
X100786531Y-46735500D01*
X163417365Y-46735500D01*
X163484404Y-46755185D01*
G37*
%TD.AperFunction*%
%TD*%
M02*
