%TF.GenerationSoftware,KiCad,Pcbnew,8.0.8*%
%TF.CreationDate,2025-02-03T17:49:20-07:00*%
%TF.ProjectId,Thermo_Probe,54686572-6d6f-45f5-9072-6f62652e6b69,rev?*%
%TF.SameCoordinates,Original*%
%TF.FileFunction,Copper,L2,Bot*%
%TF.FilePolarity,Positive*%
%FSLAX46Y46*%
G04 Gerber Fmt 4.6, Leading zero omitted, Abs format (unit mm)*
G04 Created by KiCad (PCBNEW 8.0.8) date 2025-02-03 17:49:20*
%MOMM*%
%LPD*%
G01*
G04 APERTURE LIST*
G04 Aperture macros list*
%AMRoundRect*
0 Rectangle with rounded corners*
0 $1 Rounding radius*
0 $2 $3 $4 $5 $6 $7 $8 $9 X,Y pos of 4 corners*
0 Add a 4 corners polygon primitive as box body*
4,1,4,$2,$3,$4,$5,$6,$7,$8,$9,$2,$3,0*
0 Add four circle primitives for the rounded corners*
1,1,$1+$1,$2,$3*
1,1,$1+$1,$4,$5*
1,1,$1+$1,$6,$7*
1,1,$1+$1,$8,$9*
0 Add four rect primitives between the rounded corners*
20,1,$1+$1,$2,$3,$4,$5,0*
20,1,$1+$1,$4,$5,$6,$7,0*
20,1,$1+$1,$6,$7,$8,$9,0*
20,1,$1+$1,$8,$9,$2,$3,0*%
G04 Aperture macros list end*
%TA.AperFunction,ComponentPad*%
%ADD10R,1.700000X1.700000*%
%TD*%
%TA.AperFunction,ComponentPad*%
%ADD11O,1.700000X1.700000*%
%TD*%
%TA.AperFunction,ComponentPad*%
%ADD12C,1.600000*%
%TD*%
%TA.AperFunction,ComponentPad*%
%ADD13O,1.600000X1.600000*%
%TD*%
%TA.AperFunction,ComponentPad*%
%ADD14C,2.000000*%
%TD*%
%TA.AperFunction,ComponentPad*%
%ADD15RoundRect,0.250000X0.725000X-0.600000X0.725000X0.600000X-0.725000X0.600000X-0.725000X-0.600000X0*%
%TD*%
%TA.AperFunction,ComponentPad*%
%ADD16O,1.950000X1.700000*%
%TD*%
%TA.AperFunction,ComponentPad*%
%ADD17R,1.800000X1.800000*%
%TD*%
%TA.AperFunction,ComponentPad*%
%ADD18C,1.800000*%
%TD*%
%TA.AperFunction,ComponentPad*%
%ADD19C,1.440000*%
%TD*%
G04 APERTURE END LIST*
D10*
%TO.P,J1,1,Pin_1*%
%TO.N,unconnected-(J1-Pin_1-Pad1)*%
X127940000Y-97460000D03*
D11*
%TO.P,J1,2,Pin_2*%
%TO.N,/IOREF*%
X130480000Y-97460000D03*
%TO.P,J1,3,Pin_3*%
%TO.N,/~{RESET}*%
X133020000Y-97460000D03*
%TO.P,J1,4,Pin_4*%
%TO.N,+3V3*%
X135560000Y-97460000D03*
%TO.P,J1,5,Pin_5*%
%TO.N,+5V*%
X138100000Y-97460000D03*
%TO.P,J1,6,Pin_6*%
%TO.N,GND*%
X140640000Y-97460000D03*
%TO.P,J1,7,Pin_7*%
X143180000Y-97460000D03*
%TO.P,J1,8,Pin_8*%
%TO.N,VCC*%
X145720000Y-97460000D03*
%TD*%
D10*
%TO.P,J3,1,Pin_1*%
%TO.N,/Temp_sensor*%
X150800000Y-97460000D03*
D11*
%TO.P,J3,2,Pin_2*%
%TO.N,/A1*%
X153340000Y-97460000D03*
%TO.P,J3,3,Pin_3*%
%TO.N,/A2*%
X155880000Y-97460000D03*
%TO.P,J3,4,Pin_4*%
%TO.N,/A3*%
X158420000Y-97460000D03*
%TO.P,J3,5,Pin_5*%
%TO.N,/SDA{slash}A4*%
X160960000Y-97460000D03*
%TO.P,J3,6,Pin_6*%
%TO.N,/SCL{slash}A5*%
X163500000Y-97460000D03*
%TD*%
D10*
%TO.P,J2,1,Pin_1*%
%TO.N,/I2C_SCL*%
X118796000Y-49200000D03*
D11*
%TO.P,J2,2,Pin_2*%
%TO.N,/I2C_SDA*%
X121336000Y-49200000D03*
%TO.P,J2,3,Pin_3*%
%TO.N,/AREF*%
X123876000Y-49200000D03*
%TO.P,J2,4,Pin_4*%
%TO.N,GND*%
X126416000Y-49200000D03*
%TO.P,J2,5,Pin_5*%
%TO.N,/button_on{slash}off*%
X128956000Y-49200000D03*
%TO.P,J2,6,Pin_6*%
%TO.N,/12*%
X131496000Y-49200000D03*
%TO.P,J2,7,Pin_7*%
%TO.N,/\u002A11*%
X134036000Y-49200000D03*
%TO.P,J2,8,Pin_8*%
%TO.N,/LED_light*%
X136576000Y-49200000D03*
%TO.P,J2,9,Pin_9*%
%TO.N,unconnected-(J2-Pin_9-Pad9)*%
X139116000Y-49200000D03*
%TO.P,J2,10,Pin_10*%
%TO.N,/temp_digital*%
X141656000Y-49200000D03*
%TD*%
D10*
%TO.P,J4,1,Pin_1*%
%TO.N,unconnected-(J4-Pin_1-Pad1)*%
X145720000Y-49200000D03*
D11*
%TO.P,J4,2,Pin_2*%
%TO.N,/button_light*%
X148260000Y-49200000D03*
%TO.P,J4,3,Pin_3*%
%TO.N,/button_lock*%
X150800000Y-49200000D03*
%TO.P,J4,4,Pin_4*%
%TO.N,/button_cal*%
X153340000Y-49200000D03*
%TO.P,J4,5,Pin_5*%
%TO.N,/button_unit*%
X155880000Y-49200000D03*
%TO.P,J4,6,Pin_6*%
%TO.N,/2*%
X158420000Y-49200000D03*
%TO.P,J4,7,Pin_7*%
%TO.N,/TX{slash}1*%
X160960000Y-49200000D03*
%TO.P,J4,8,Pin_8*%
%TO.N,/RX{slash}0*%
X163500000Y-49200000D03*
%TD*%
D12*
%TO.P,R2,1*%
%TO.N,/button_cal*%
X163200000Y-65220000D03*
D13*
%TO.P,R2,2*%
%TO.N,GND*%
X163200000Y-75380000D03*
%TD*%
D14*
%TO.P,SW1,1,A*%
%TO.N,/button_unit*%
X152450000Y-52950000D03*
X158950000Y-52950000D03*
%TO.P,SW1,2,B*%
%TO.N,+5V*%
X152450000Y-57450000D03*
X158950000Y-57450000D03*
%TD*%
D12*
%TO.P,R4,1*%
%TO.N,/button_on{slash}off*%
X132250000Y-69820000D03*
D13*
%TO.P,R4,2*%
%TO.N,GND*%
X132250000Y-79980000D03*
%TD*%
D12*
%TO.P,R3,1*%
%TO.N,/button_lock*%
X148600000Y-73570000D03*
D13*
%TO.P,R3,2*%
%TO.N,GND*%
X148600000Y-83730000D03*
%TD*%
D15*
%TO.P,J7,1,Pin_1*%
%TO.N,+5V*%
X141550000Y-59300000D03*
D16*
%TO.P,J7,2,Pin_2*%
%TO.N,/temp_digital*%
X141550000Y-56800000D03*
%TO.P,J7,3,Pin_3*%
%TO.N,GND*%
X141550000Y-54300000D03*
%TD*%
D12*
%TO.P,R1,1*%
%TO.N,/button_unit*%
X163250000Y-52120000D03*
D13*
%TO.P,R1,2*%
%TO.N,GND*%
X163250000Y-62280000D03*
%TD*%
D12*
%TO.P,R6,1*%
%TO.N,/LED_light*%
X131850000Y-65900000D03*
D13*
%TO.P,R6,2*%
%TO.N,Net-(D1-A)*%
X142010000Y-65900000D03*
%TD*%
D14*
%TO.P,SW5,1,A*%
%TO.N,/button_light*%
X139600000Y-87850000D03*
X146100000Y-87850000D03*
%TO.P,SW5,2,B*%
%TO.N,+5V*%
X139600000Y-92350000D03*
X146100000Y-92350000D03*
%TD*%
D10*
%TO.P,J6,1,Pin_1*%
%TO.N,GND*%
X112231668Y-52938332D03*
D11*
%TO.P,J6,2,Pin_2*%
%TO.N,+5V*%
X114771668Y-52938332D03*
%TO.P,J6,3,Pin_3*%
%TO.N,/I2C_SCL*%
X117311668Y-52938332D03*
%TO.P,J6,4,Pin_4*%
%TO.N,/I2C_SDA*%
X119851668Y-52938332D03*
%TD*%
D17*
%TO.P,D1,1,K*%
%TO.N,GND*%
X133510000Y-60250000D03*
D18*
%TO.P,D1,2,A*%
%TO.N,Net-(D1-A)*%
X136050000Y-60250000D03*
%TD*%
D14*
%TO.P,SW2,1,A*%
%TO.N,/button_cal*%
X152550000Y-63700000D03*
X159050000Y-63700000D03*
%TO.P,SW2,2,B*%
%TO.N,+5V*%
X152550000Y-68200000D03*
X159050000Y-68200000D03*
%TD*%
D12*
%TO.P,R5,1*%
%TO.N,/button_light*%
X163250000Y-79470000D03*
D13*
%TO.P,R5,2*%
%TO.N,GND*%
X163250000Y-89630000D03*
%TD*%
D14*
%TO.P,SW4,1,A*%
%TO.N,/button_on{slash}off*%
X135750000Y-69550000D03*
X142250000Y-69550000D03*
%TO.P,SW4,2,B*%
%TO.N,+5V*%
X135750000Y-74050000D03*
X142250000Y-74050000D03*
%TD*%
D19*
%TO.P,RV1,1,1*%
%TO.N,+5V*%
X153110000Y-87815000D03*
%TO.P,RV1,2,2*%
%TO.N,/Temp_sensor*%
X155650000Y-90355000D03*
%TO.P,RV1,3,3*%
%TO.N,GND*%
X158190000Y-87815000D03*
%TD*%
D14*
%TO.P,SW3,1,A*%
%TO.N,/button_lock*%
X152550000Y-74450000D03*
X159050000Y-74450000D03*
%TO.P,SW3,2,B*%
%TO.N,+5V*%
X152550000Y-78950000D03*
X159050000Y-78950000D03*
%TD*%
D11*
%TO.P,J5,8,Pin_8*%
%TO.N,unconnected-(J5-Pin_8-Pad8)*%
X121505000Y-93225000D03*
%TO.P,J5,7,Pin_7*%
%TO.N,unconnected-(J5-Pin_7-Pad7)*%
X118965000Y-93225000D03*
%TO.P,J5,6,Pin_6*%
%TO.N,unconnected-(J5-Pin_6-Pad6)*%
X116425000Y-93225000D03*
%TO.P,J5,5,Pin_5*%
%TO.N,unconnected-(J5-Pin_5-Pad5)*%
X113885000Y-93225000D03*
%TO.P,J5,4,Pin_4*%
%TO.N,/I2C_SDA*%
X111345000Y-93225000D03*
%TO.P,J5,3,Pin_3*%
%TO.N,/I2C_SCL*%
X108805000Y-93225000D03*
%TO.P,J5,2,Pin_2*%
%TO.N,GND*%
X106265000Y-93225000D03*
D10*
%TO.P,J5,1,Pin_1*%
%TO.N,+5V*%
X103725000Y-93225000D03*
%TD*%
%TA.AperFunction,Conductor*%
%TO.N,GND*%
G36*
X142714075Y-97267007D02*
G01*
X142680000Y-97394174D01*
X142680000Y-97525826D01*
X142714075Y-97652993D01*
X142746988Y-97710000D01*
X141073012Y-97710000D01*
X141105925Y-97652993D01*
X141140000Y-97525826D01*
X141140000Y-97394174D01*
X141105925Y-97267007D01*
X141073012Y-97210000D01*
X142746988Y-97210000D01*
X142714075Y-97267007D01*
G37*
%TD.AperFunction*%
%TA.AperFunction,Conductor*%
G36*
X163484404Y-46755185D02*
G01*
X163505046Y-46771819D01*
X165928181Y-49194954D01*
X165961666Y-49256277D01*
X165964500Y-49282635D01*
X165964500Y-59344982D01*
X165964500Y-59375018D01*
X165975994Y-59402767D01*
X165975995Y-59402768D01*
X168468181Y-61894954D01*
X168501666Y-61956277D01*
X168504500Y-61982635D01*
X168504500Y-96107364D01*
X168484815Y-96174403D01*
X168468181Y-96195045D01*
X165997233Y-98665994D01*
X165975995Y-98687231D01*
X165964500Y-98714982D01*
X165964500Y-99231907D01*
X165963903Y-99244062D01*
X165952505Y-99359778D01*
X165947763Y-99383618D01*
X165917832Y-99482290D01*
X165915789Y-99489024D01*
X165906486Y-99511482D01*
X165854561Y-99608627D01*
X165841056Y-99628839D01*
X165771176Y-99713988D01*
X165753988Y-99731176D01*
X165668839Y-99801056D01*
X165648627Y-99814561D01*
X165551482Y-99866486D01*
X165529028Y-99875787D01*
X165487028Y-99888528D01*
X165423618Y-99907763D01*
X165399778Y-99912505D01*
X165291162Y-99923203D01*
X165284060Y-99923903D01*
X165271907Y-99924500D01*
X100768093Y-99924500D01*
X100755939Y-99923903D01*
X100747995Y-99923120D01*
X100640221Y-99912505D01*
X100616381Y-99907763D01*
X100599445Y-99902625D01*
X100510968Y-99875786D01*
X100488517Y-99866486D01*
X100391372Y-99814561D01*
X100371160Y-99801056D01*
X100286011Y-99731176D01*
X100268823Y-99713988D01*
X100198943Y-99628839D01*
X100185438Y-99608627D01*
X100174672Y-99588485D01*
X100133510Y-99511476D01*
X100124215Y-99489037D01*
X100092234Y-99383612D01*
X100087494Y-99359777D01*
X100076097Y-99244061D01*
X100075500Y-99231907D01*
X100075500Y-96561345D01*
X126581500Y-96561345D01*
X126581500Y-98358654D01*
X126588011Y-98419202D01*
X126588011Y-98419204D01*
X126639111Y-98556204D01*
X126726739Y-98673261D01*
X126843796Y-98760889D01*
X126980799Y-98811989D01*
X127008050Y-98814918D01*
X127041345Y-98818499D01*
X127041362Y-98818500D01*
X128838638Y-98818500D01*
X128838654Y-98818499D01*
X128865692Y-98815591D01*
X128899201Y-98811989D01*
X129036204Y-98760889D01*
X129153261Y-98673261D01*
X129240889Y-98556204D01*
X129286138Y-98434887D01*
X129328009Y-98378956D01*
X129393474Y-98354539D01*
X129461746Y-98369391D01*
X129493545Y-98394236D01*
X129556760Y-98462906D01*
X129734424Y-98601189D01*
X129734425Y-98601189D01*
X129734427Y-98601191D01*
X129861135Y-98669761D01*
X129932426Y-98708342D01*
X130145365Y-98781444D01*
X130367431Y-98818500D01*
X130592569Y-98818500D01*
X130814635Y-98781444D01*
X131027574Y-98708342D01*
X131225576Y-98601189D01*
X131403240Y-98462906D01*
X131524594Y-98331082D01*
X131555715Y-98297276D01*
X131555715Y-98297275D01*
X131555722Y-98297268D01*
X131646193Y-98158790D01*
X131699338Y-98113437D01*
X131768569Y-98104013D01*
X131831905Y-98133515D01*
X131853804Y-98158787D01*
X131944278Y-98297268D01*
X131944283Y-98297273D01*
X131944284Y-98297276D01*
X132070968Y-98434889D01*
X132096760Y-98462906D01*
X132274424Y-98601189D01*
X132274425Y-98601189D01*
X132274427Y-98601191D01*
X132401135Y-98669761D01*
X132472426Y-98708342D01*
X132685365Y-98781444D01*
X132907431Y-98818500D01*
X133132569Y-98818500D01*
X133354635Y-98781444D01*
X133567574Y-98708342D01*
X133765576Y-98601189D01*
X133943240Y-98462906D01*
X134064594Y-98331082D01*
X134095715Y-98297276D01*
X134095715Y-98297275D01*
X134095722Y-98297268D01*
X134186193Y-98158790D01*
X134239338Y-98113437D01*
X134308569Y-98104013D01*
X134371905Y-98133515D01*
X134393804Y-98158787D01*
X134484278Y-98297268D01*
X134484283Y-98297273D01*
X134484284Y-98297276D01*
X134610968Y-98434889D01*
X134636760Y-98462906D01*
X134814424Y-98601189D01*
X134814425Y-98601189D01*
X134814427Y-98601191D01*
X134941135Y-98669761D01*
X135012426Y-98708342D01*
X135225365Y-98781444D01*
X135447431Y-98818500D01*
X135672569Y-98818500D01*
X135894635Y-98781444D01*
X136107574Y-98708342D01*
X136305576Y-98601189D01*
X136483240Y-98462906D01*
X136604594Y-98331082D01*
X136635715Y-98297276D01*
X136635715Y-98297275D01*
X136635722Y-98297268D01*
X136726193Y-98158790D01*
X136779338Y-98113437D01*
X136848569Y-98104013D01*
X136911905Y-98133515D01*
X136933804Y-98158787D01*
X137024278Y-98297268D01*
X137024283Y-98297273D01*
X137024284Y-98297276D01*
X137150968Y-98434889D01*
X137176760Y-98462906D01*
X137354424Y-98601189D01*
X137354425Y-98601189D01*
X137354427Y-98601191D01*
X137481135Y-98669761D01*
X137552426Y-98708342D01*
X137765365Y-98781444D01*
X137987431Y-98818500D01*
X138212569Y-98818500D01*
X138434635Y-98781444D01*
X138647574Y-98708342D01*
X138845576Y-98601189D01*
X139023240Y-98462906D01*
X139144594Y-98331082D01*
X139175715Y-98297276D01*
X139175715Y-98297275D01*
X139175722Y-98297268D01*
X139269749Y-98153347D01*
X139322894Y-98107994D01*
X139392125Y-98098570D01*
X139455461Y-98128072D01*
X139475130Y-98150048D01*
X139601890Y-98331078D01*
X139768917Y-98498105D01*
X139962421Y-98633600D01*
X140176507Y-98733429D01*
X140176516Y-98733433D01*
X140390000Y-98790634D01*
X140390000Y-97893012D01*
X140447007Y-97925925D01*
X140574174Y-97960000D01*
X140705826Y-97960000D01*
X140832993Y-97925925D01*
X140890000Y-97893012D01*
X140890000Y-98790633D01*
X141103483Y-98733433D01*
X141103492Y-98733429D01*
X141317578Y-98633600D01*
X141511082Y-98498105D01*
X141678105Y-98331082D01*
X141808425Y-98144968D01*
X141863002Y-98101344D01*
X141932501Y-98094151D01*
X141994855Y-98125673D01*
X142011575Y-98144968D01*
X142141894Y-98331082D01*
X142308917Y-98498105D01*
X142502421Y-98633600D01*
X142716507Y-98733429D01*
X142716516Y-98733433D01*
X142930000Y-98790634D01*
X142930000Y-97893012D01*
X142987007Y-97925925D01*
X143114174Y-97960000D01*
X143245826Y-97960000D01*
X143372993Y-97925925D01*
X143430000Y-97893012D01*
X143430000Y-98790633D01*
X143643483Y-98733433D01*
X143643492Y-98733429D01*
X143857578Y-98633600D01*
X144051082Y-98498105D01*
X144218105Y-98331082D01*
X144344868Y-98150048D01*
X144399445Y-98106423D01*
X144468944Y-98099231D01*
X144531298Y-98130753D01*
X144550251Y-98153350D01*
X144644276Y-98297265D01*
X144644284Y-98297276D01*
X144770968Y-98434889D01*
X144796760Y-98462906D01*
X144974424Y-98601189D01*
X144974425Y-98601189D01*
X144974427Y-98601191D01*
X145101135Y-98669761D01*
X145172426Y-98708342D01*
X145385365Y-98781444D01*
X145607431Y-98818500D01*
X145832569Y-98818500D01*
X146054635Y-98781444D01*
X146267574Y-98708342D01*
X146465576Y-98601189D01*
X146643240Y-98462906D01*
X146764594Y-98331082D01*
X146795715Y-98297276D01*
X146795717Y-98297273D01*
X146795722Y-98297268D01*
X146918860Y-98108791D01*
X147009296Y-97902616D01*
X147064564Y-97684368D01*
X147067164Y-97652993D01*
X147083156Y-97460005D01*
X147083156Y-97459994D01*
X147064565Y-97235640D01*
X147064563Y-97235628D01*
X147009296Y-97017385D01*
X146999071Y-96994075D01*
X146918860Y-96811209D01*
X146902706Y-96786484D01*
X146795723Y-96622734D01*
X146795715Y-96622723D01*
X146739212Y-96561345D01*
X149441500Y-96561345D01*
X149441500Y-98358654D01*
X149448011Y-98419202D01*
X149448011Y-98419204D01*
X149499111Y-98556204D01*
X149586739Y-98673261D01*
X149703796Y-98760889D01*
X149840799Y-98811989D01*
X149868050Y-98814918D01*
X149901345Y-98818499D01*
X149901362Y-98818500D01*
X151698638Y-98818500D01*
X151698654Y-98818499D01*
X151725692Y-98815591D01*
X151759201Y-98811989D01*
X151896204Y-98760889D01*
X152013261Y-98673261D01*
X152100889Y-98556204D01*
X152146138Y-98434887D01*
X152188009Y-98378956D01*
X152253474Y-98354539D01*
X152321746Y-98369391D01*
X152353545Y-98394236D01*
X152416760Y-98462906D01*
X152594424Y-98601189D01*
X152594425Y-98601189D01*
X152594427Y-98601191D01*
X152721135Y-98669761D01*
X152792426Y-98708342D01*
X153005365Y-98781444D01*
X153227431Y-98818500D01*
X153452569Y-98818500D01*
X153674635Y-98781444D01*
X153887574Y-98708342D01*
X154085576Y-98601189D01*
X154263240Y-98462906D01*
X154384594Y-98331082D01*
X154415715Y-98297276D01*
X154415715Y-98297275D01*
X154415722Y-98297268D01*
X154506193Y-98158790D01*
X154559338Y-98113437D01*
X154628569Y-98104013D01*
X154691905Y-98133515D01*
X154713804Y-98158787D01*
X154804278Y-98297268D01*
X154804283Y-98297273D01*
X154804284Y-98297276D01*
X154930968Y-98434889D01*
X154956760Y-98462906D01*
X155134424Y-98601189D01*
X155134425Y-98601189D01*
X155134427Y-98601191D01*
X155261135Y-98669761D01*
X155332426Y-98708342D01*
X155545365Y-98781444D01*
X155767431Y-98818500D01*
X155992569Y-98818500D01*
X156214635Y-98781444D01*
X156427574Y-98708342D01*
X156625576Y-98601189D01*
X156803240Y-98462906D01*
X156924594Y-98331082D01*
X156955715Y-98297276D01*
X156955715Y-98297275D01*
X156955722Y-98297268D01*
X157046193Y-98158790D01*
X157099338Y-98113437D01*
X157168569Y-98104013D01*
X157231905Y-98133515D01*
X157253804Y-98158787D01*
X157344278Y-98297268D01*
X157344283Y-98297273D01*
X157344284Y-98297276D01*
X157470968Y-98434889D01*
X157496760Y-98462906D01*
X157674424Y-98601189D01*
X157674425Y-98601189D01*
X157674427Y-98601191D01*
X157801135Y-98669761D01*
X157872426Y-98708342D01*
X158085365Y-98781444D01*
X158307431Y-98818500D01*
X158532569Y-98818500D01*
X158754635Y-98781444D01*
X158967574Y-98708342D01*
X159165576Y-98601189D01*
X159343240Y-98462906D01*
X159464594Y-98331082D01*
X159495715Y-98297276D01*
X159495715Y-98297275D01*
X159495722Y-98297268D01*
X159586193Y-98158790D01*
X159639338Y-98113437D01*
X159708569Y-98104013D01*
X159771905Y-98133515D01*
X159793804Y-98158787D01*
X159884278Y-98297268D01*
X159884283Y-98297273D01*
X159884284Y-98297276D01*
X160010968Y-98434889D01*
X160036760Y-98462906D01*
X160214424Y-98601189D01*
X160214425Y-98601189D01*
X160214427Y-98601191D01*
X160341135Y-98669761D01*
X160412426Y-98708342D01*
X160625365Y-98781444D01*
X160847431Y-98818500D01*
X161072569Y-98818500D01*
X161294635Y-98781444D01*
X161507574Y-98708342D01*
X161705576Y-98601189D01*
X161883240Y-98462906D01*
X162004594Y-98331082D01*
X162035715Y-98297276D01*
X162035715Y-98297275D01*
X162035722Y-98297268D01*
X162126193Y-98158790D01*
X162179338Y-98113437D01*
X162248569Y-98104013D01*
X162311905Y-98133515D01*
X162333804Y-98158787D01*
X162424278Y-98297268D01*
X162424283Y-98297273D01*
X162424284Y-98297276D01*
X162550968Y-98434889D01*
X162576760Y-98462906D01*
X162754424Y-98601189D01*
X162754425Y-98601189D01*
X162754427Y-98601191D01*
X162881135Y-98669761D01*
X162952426Y-98708342D01*
X163165365Y-98781444D01*
X163387431Y-98818500D01*
X163612569Y-98818500D01*
X163834635Y-98781444D01*
X164047574Y-98708342D01*
X164245576Y-98601189D01*
X164423240Y-98462906D01*
X164544594Y-98331082D01*
X164575715Y-98297276D01*
X164575717Y-98297273D01*
X164575722Y-98297268D01*
X164698860Y-98108791D01*
X164789296Y-97902616D01*
X164844564Y-97684368D01*
X164847164Y-97652993D01*
X164863156Y-97460005D01*
X164863156Y-97459994D01*
X164844565Y-97235640D01*
X164844563Y-97235628D01*
X164789296Y-97017385D01*
X164779071Y-96994075D01*
X164698860Y-96811209D01*
X164682706Y-96786484D01*
X164575723Y-96622734D01*
X164575715Y-96622723D01*
X164423243Y-96457097D01*
X164423238Y-96457092D01*
X164245577Y-96318812D01*
X164245572Y-96318808D01*
X164047580Y-96211661D01*
X164047577Y-96211659D01*
X164047574Y-96211658D01*
X164047571Y-96211657D01*
X164047569Y-96211656D01*
X163834637Y-96138556D01*
X163612569Y-96101500D01*
X163387431Y-96101500D01*
X163165362Y-96138556D01*
X162952430Y-96211656D01*
X162952419Y-96211661D01*
X162754427Y-96318808D01*
X162754422Y-96318812D01*
X162576761Y-96457092D01*
X162576756Y-96457097D01*
X162424284Y-96622723D01*
X162424276Y-96622734D01*
X162333808Y-96761206D01*
X162280662Y-96806562D01*
X162211431Y-96815986D01*
X162148095Y-96786484D01*
X162126192Y-96761206D01*
X162035723Y-96622734D01*
X162035715Y-96622723D01*
X161883243Y-96457097D01*
X161883238Y-96457092D01*
X161705577Y-96318812D01*
X161705572Y-96318808D01*
X161507580Y-96211661D01*
X161507577Y-96211659D01*
X161507574Y-96211658D01*
X161507571Y-96211657D01*
X161507569Y-96211656D01*
X161294637Y-96138556D01*
X161072569Y-96101500D01*
X160847431Y-96101500D01*
X160625362Y-96138556D01*
X160412430Y-96211656D01*
X160412419Y-96211661D01*
X160214427Y-96318808D01*
X160214422Y-96318812D01*
X160036761Y-96457092D01*
X160036756Y-96457097D01*
X159884284Y-96622723D01*
X159884276Y-96622734D01*
X159793808Y-96761206D01*
X159740662Y-96806562D01*
X159671431Y-96815986D01*
X159608095Y-96786484D01*
X159586192Y-96761206D01*
X159495723Y-96622734D01*
X159495715Y-96622723D01*
X159343243Y-96457097D01*
X159343238Y-96457092D01*
X159165577Y-96318812D01*
X159165572Y-96318808D01*
X158967580Y-96211661D01*
X158967577Y-96211659D01*
X158967574Y-96211658D01*
X158967571Y-96211657D01*
X158967569Y-96211656D01*
X158754637Y-96138556D01*
X158532569Y-96101500D01*
X158307431Y-96101500D01*
X158085362Y-96138556D01*
X157872430Y-96211656D01*
X157872419Y-96211661D01*
X157674427Y-96318808D01*
X157674422Y-96318812D01*
X157496761Y-96457092D01*
X157496756Y-96457097D01*
X157344284Y-96622723D01*
X157344276Y-96622734D01*
X157253808Y-96761206D01*
X157200662Y-96806562D01*
X157131431Y-96815986D01*
X157068095Y-96786484D01*
X157046192Y-96761206D01*
X156955723Y-96622734D01*
X156955715Y-96622723D01*
X156803243Y-96457097D01*
X156803238Y-96457092D01*
X156625577Y-96318812D01*
X156625572Y-96318808D01*
X156427580Y-96211661D01*
X156427577Y-96211659D01*
X156427574Y-96211658D01*
X156427571Y-96211657D01*
X156427569Y-96211656D01*
X156214637Y-96138556D01*
X155992569Y-96101500D01*
X155767431Y-96101500D01*
X155545362Y-96138556D01*
X155332430Y-96211656D01*
X155332419Y-96211661D01*
X155134427Y-96318808D01*
X155134422Y-96318812D01*
X154956761Y-96457092D01*
X154956756Y-96457097D01*
X154804284Y-96622723D01*
X154804276Y-96622734D01*
X154713808Y-96761206D01*
X154660662Y-96806562D01*
X154591431Y-96815986D01*
X154528095Y-96786484D01*
X154506192Y-96761206D01*
X154415723Y-96622734D01*
X154415715Y-96622723D01*
X154263243Y-96457097D01*
X154263238Y-96457092D01*
X154085577Y-96318812D01*
X154085572Y-96318808D01*
X153887580Y-96211661D01*
X153887577Y-96211659D01*
X153887574Y-96211658D01*
X153887571Y-96211657D01*
X153887569Y-96211656D01*
X153674637Y-96138556D01*
X153452569Y-96101500D01*
X153227431Y-96101500D01*
X153005362Y-96138556D01*
X152792430Y-96211656D01*
X152792419Y-96211661D01*
X152594427Y-96318808D01*
X152594422Y-96318812D01*
X152416761Y-96457092D01*
X152353548Y-96525760D01*
X152293661Y-96561750D01*
X152223823Y-96559649D01*
X152166207Y-96520124D01*
X152146138Y-96485110D01*
X152100889Y-96363796D01*
X152067214Y-96318812D01*
X152013261Y-96246739D01*
X151896204Y-96159111D01*
X151895172Y-96158726D01*
X151759203Y-96108011D01*
X151698654Y-96101500D01*
X151698638Y-96101500D01*
X149901362Y-96101500D01*
X149901345Y-96101500D01*
X149840797Y-96108011D01*
X149840795Y-96108011D01*
X149703795Y-96159111D01*
X149586739Y-96246739D01*
X149499111Y-96363795D01*
X149448011Y-96500795D01*
X149448011Y-96500797D01*
X149441500Y-96561345D01*
X146739212Y-96561345D01*
X146643243Y-96457097D01*
X146643238Y-96457092D01*
X146465577Y-96318812D01*
X146465572Y-96318808D01*
X146267580Y-96211661D01*
X146267577Y-96211659D01*
X146267574Y-96211658D01*
X146267571Y-96211657D01*
X146267569Y-96211656D01*
X146054637Y-96138556D01*
X145832569Y-96101500D01*
X145607431Y-96101500D01*
X145385362Y-96138556D01*
X145172430Y-96211656D01*
X145172419Y-96211661D01*
X144974427Y-96318808D01*
X144974422Y-96318812D01*
X144796761Y-96457092D01*
X144796756Y-96457097D01*
X144644284Y-96622723D01*
X144644276Y-96622734D01*
X144550251Y-96766650D01*
X144497105Y-96812007D01*
X144427873Y-96821430D01*
X144364538Y-96791928D01*
X144344868Y-96769951D01*
X144218113Y-96588926D01*
X144218108Y-96588920D01*
X144051082Y-96421894D01*
X143857578Y-96286399D01*
X143643492Y-96186570D01*
X143643486Y-96186567D01*
X143430000Y-96129364D01*
X143430000Y-97026988D01*
X143372993Y-96994075D01*
X143245826Y-96960000D01*
X143114174Y-96960000D01*
X142987007Y-96994075D01*
X142930000Y-97026988D01*
X142930000Y-96129364D01*
X142929999Y-96129364D01*
X142716513Y-96186567D01*
X142716507Y-96186570D01*
X142502422Y-96286399D01*
X142502420Y-96286400D01*
X142308926Y-96421886D01*
X142308920Y-96421891D01*
X142141891Y-96588920D01*
X142141890Y-96588922D01*
X142011575Y-96775031D01*
X141956998Y-96818655D01*
X141887499Y-96825848D01*
X141825145Y-96794326D01*
X141808425Y-96775031D01*
X141678109Y-96588922D01*
X141678108Y-96588920D01*
X141511082Y-96421894D01*
X141317578Y-96286399D01*
X141103492Y-96186570D01*
X141103486Y-96186567D01*
X140890000Y-96129364D01*
X140890000Y-97026988D01*
X140832993Y-96994075D01*
X140705826Y-96960000D01*
X140574174Y-96960000D01*
X140447007Y-96994075D01*
X140390000Y-97026988D01*
X140390000Y-96129364D01*
X140389999Y-96129364D01*
X140176513Y-96186567D01*
X140176507Y-96186570D01*
X139962422Y-96286399D01*
X139962420Y-96286400D01*
X139768926Y-96421886D01*
X139768920Y-96421891D01*
X139601891Y-96588920D01*
X139601890Y-96588922D01*
X139475131Y-96769952D01*
X139420554Y-96813577D01*
X139351055Y-96820769D01*
X139288701Y-96789247D01*
X139269752Y-96766656D01*
X139175722Y-96622732D01*
X139175715Y-96622725D01*
X139175715Y-96622723D01*
X139023243Y-96457097D01*
X139023238Y-96457092D01*
X138845577Y-96318812D01*
X138845572Y-96318808D01*
X138647580Y-96211661D01*
X138647577Y-96211659D01*
X138647574Y-96211658D01*
X138647571Y-96211657D01*
X138647569Y-96211656D01*
X138434637Y-96138556D01*
X138212569Y-96101500D01*
X137987431Y-96101500D01*
X137765362Y-96138556D01*
X137552430Y-96211656D01*
X137552419Y-96211661D01*
X137354427Y-96318808D01*
X137354422Y-96318812D01*
X137176761Y-96457092D01*
X137176756Y-96457097D01*
X137024284Y-96622723D01*
X137024276Y-96622734D01*
X136933808Y-96761206D01*
X136880662Y-96806562D01*
X136811431Y-96815986D01*
X136748095Y-96786484D01*
X136726192Y-96761206D01*
X136635723Y-96622734D01*
X136635715Y-96622723D01*
X136483243Y-96457097D01*
X136483238Y-96457092D01*
X136305577Y-96318812D01*
X136305572Y-96318808D01*
X136107580Y-96211661D01*
X136107577Y-96211659D01*
X136107574Y-96211658D01*
X136107571Y-96211657D01*
X136107569Y-96211656D01*
X135894637Y-96138556D01*
X135672569Y-96101500D01*
X135447431Y-96101500D01*
X135225362Y-96138556D01*
X135012430Y-96211656D01*
X135012419Y-96211661D01*
X134814427Y-96318808D01*
X134814422Y-96318812D01*
X134636761Y-96457092D01*
X134636756Y-96457097D01*
X134484284Y-96622723D01*
X134484276Y-96622734D01*
X134393808Y-96761206D01*
X134340662Y-96806562D01*
X134271431Y-96815986D01*
X134208095Y-96786484D01*
X134186192Y-96761206D01*
X134095723Y-96622734D01*
X134095715Y-96622723D01*
X133943243Y-96457097D01*
X133943238Y-96457092D01*
X133765577Y-96318812D01*
X133765572Y-96318808D01*
X133567580Y-96211661D01*
X133567577Y-96211659D01*
X133567574Y-96211658D01*
X133567571Y-96211657D01*
X133567569Y-96211656D01*
X133354637Y-96138556D01*
X133132569Y-96101500D01*
X132907431Y-96101500D01*
X132685362Y-96138556D01*
X132472430Y-96211656D01*
X132472419Y-96211661D01*
X132274427Y-96318808D01*
X132274422Y-96318812D01*
X132096761Y-96457092D01*
X132096756Y-96457097D01*
X131944284Y-96622723D01*
X131944276Y-96622734D01*
X131853808Y-96761206D01*
X131800662Y-96806562D01*
X131731431Y-96815986D01*
X131668095Y-96786484D01*
X131646192Y-96761206D01*
X131555723Y-96622734D01*
X131555715Y-96622723D01*
X131403243Y-96457097D01*
X131403238Y-96457092D01*
X131225577Y-96318812D01*
X131225572Y-96318808D01*
X131027580Y-96211661D01*
X131027577Y-96211659D01*
X131027574Y-96211658D01*
X131027571Y-96211657D01*
X131027569Y-96211656D01*
X130814637Y-96138556D01*
X130592569Y-96101500D01*
X130367431Y-96101500D01*
X130145362Y-96138556D01*
X129932430Y-96211656D01*
X129932419Y-96211661D01*
X129734427Y-96318808D01*
X129734422Y-96318812D01*
X129556761Y-96457092D01*
X129493548Y-96525760D01*
X129433661Y-96561750D01*
X129363823Y-96559649D01*
X129306207Y-96520124D01*
X129286138Y-96485110D01*
X129240889Y-96363796D01*
X129207214Y-96318812D01*
X129153261Y-96246739D01*
X129036204Y-96159111D01*
X129035172Y-96158726D01*
X128899203Y-96108011D01*
X128838654Y-96101500D01*
X128838638Y-96101500D01*
X127041362Y-96101500D01*
X127041345Y-96101500D01*
X126980797Y-96108011D01*
X126980795Y-96108011D01*
X126843795Y-96159111D01*
X126726739Y-96246739D01*
X126639111Y-96363795D01*
X126588011Y-96500795D01*
X126588011Y-96500797D01*
X126581500Y-96561345D01*
X100075500Y-96561345D01*
X100075500Y-92326345D01*
X102366500Y-92326345D01*
X102366500Y-94123654D01*
X102373011Y-94184202D01*
X102373011Y-94184204D01*
X102424111Y-94321204D01*
X102511739Y-94438261D01*
X102628796Y-94525889D01*
X102765799Y-94576989D01*
X102793050Y-94579918D01*
X102826345Y-94583499D01*
X102826362Y-94583500D01*
X104623638Y-94583500D01*
X104623654Y-94583499D01*
X104650692Y-94580591D01*
X104684201Y-94576989D01*
X104821204Y-94525889D01*
X104938261Y-94438261D01*
X105025889Y-94321204D01*
X105074223Y-94191615D01*
X105116093Y-94135686D01*
X105181557Y-94111269D01*
X105249830Y-94126121D01*
X105278084Y-94147272D01*
X105393917Y-94263105D01*
X105587421Y-94398600D01*
X105801507Y-94498429D01*
X105801516Y-94498433D01*
X106015000Y-94555634D01*
X106015000Y-93658012D01*
X106072007Y-93690925D01*
X106199174Y-93725000D01*
X106330826Y-93725000D01*
X106457993Y-93690925D01*
X106515000Y-93658012D01*
X106515000Y-94555633D01*
X106728483Y-94498433D01*
X106728492Y-94498429D01*
X106942578Y-94398600D01*
X107136082Y-94263105D01*
X107303105Y-94096082D01*
X107429868Y-93915048D01*
X107484445Y-93871423D01*
X107553944Y-93864231D01*
X107616298Y-93895753D01*
X107635251Y-93918350D01*
X107729276Y-94062265D01*
X107729284Y-94062276D01*
X107848355Y-94191619D01*
X107881760Y-94227906D01*
X108059424Y-94366189D01*
X108059425Y-94366189D01*
X108059427Y-94366191D01*
X108119314Y-94398600D01*
X108257426Y-94473342D01*
X108470365Y-94546444D01*
X108692431Y-94583500D01*
X108917569Y-94583500D01*
X109139635Y-94546444D01*
X109352574Y-94473342D01*
X109550576Y-94366189D01*
X109728240Y-94227906D01*
X109880722Y-94062268D01*
X109971193Y-93923790D01*
X110024338Y-93878437D01*
X110093569Y-93869013D01*
X110156905Y-93898515D01*
X110178804Y-93923787D01*
X110269278Y-94062268D01*
X110269283Y-94062273D01*
X110269284Y-94062276D01*
X110388355Y-94191619D01*
X110421760Y-94227906D01*
X110599424Y-94366189D01*
X110599425Y-94366189D01*
X110599427Y-94366191D01*
X110659314Y-94398600D01*
X110797426Y-94473342D01*
X111010365Y-94546444D01*
X111232431Y-94583500D01*
X111457569Y-94583500D01*
X111679635Y-94546444D01*
X111892574Y-94473342D01*
X112090576Y-94366189D01*
X112268240Y-94227906D01*
X112420722Y-94062268D01*
X112511193Y-93923790D01*
X112564338Y-93878437D01*
X112633569Y-93869013D01*
X112696905Y-93898515D01*
X112718804Y-93923787D01*
X112809278Y-94062268D01*
X112809283Y-94062273D01*
X112809284Y-94062276D01*
X112928355Y-94191619D01*
X112961760Y-94227906D01*
X113139424Y-94366189D01*
X113139425Y-94366189D01*
X113139427Y-94366191D01*
X113199314Y-94398600D01*
X113337426Y-94473342D01*
X113550365Y-94546444D01*
X113772431Y-94583500D01*
X113997569Y-94583500D01*
X114219635Y-94546444D01*
X114432574Y-94473342D01*
X114630576Y-94366189D01*
X114808240Y-94227906D01*
X114960722Y-94062268D01*
X115051193Y-93923790D01*
X115104338Y-93878437D01*
X115173569Y-93869013D01*
X115236905Y-93898515D01*
X115258804Y-93923787D01*
X115349278Y-94062268D01*
X115349283Y-94062273D01*
X115349284Y-94062276D01*
X115468355Y-94191619D01*
X115501760Y-94227906D01*
X115679424Y-94366189D01*
X115679425Y-94366189D01*
X115679427Y-94366191D01*
X115739314Y-94398600D01*
X115877426Y-94473342D01*
X116090365Y-94546444D01*
X116312431Y-94583500D01*
X116537569Y-94583500D01*
X116759635Y-94546444D01*
X116972574Y-94473342D01*
X117170576Y-94366189D01*
X117348240Y-94227906D01*
X117500722Y-94062268D01*
X117591193Y-93923790D01*
X117644338Y-93878437D01*
X117713569Y-93869013D01*
X117776905Y-93898515D01*
X117798804Y-93923787D01*
X117889278Y-94062268D01*
X117889283Y-94062273D01*
X117889284Y-94062276D01*
X118008355Y-94191619D01*
X118041760Y-94227906D01*
X118219424Y-94366189D01*
X118219425Y-94366189D01*
X118219427Y-94366191D01*
X118279314Y-94398600D01*
X118417426Y-94473342D01*
X118630365Y-94546444D01*
X118852431Y-94583500D01*
X119077569Y-94583500D01*
X119299635Y-94546444D01*
X119512574Y-94473342D01*
X119710576Y-94366189D01*
X119888240Y-94227906D01*
X120040722Y-94062268D01*
X120131193Y-93923790D01*
X120184338Y-93878437D01*
X120253569Y-93869013D01*
X120316905Y-93898515D01*
X120338804Y-93923787D01*
X120429278Y-94062268D01*
X120429283Y-94062273D01*
X120429284Y-94062276D01*
X120548355Y-94191619D01*
X120581760Y-94227906D01*
X120759424Y-94366189D01*
X120759425Y-94366189D01*
X120759427Y-94366191D01*
X120819314Y-94398600D01*
X120957426Y-94473342D01*
X121170365Y-94546444D01*
X121392431Y-94583500D01*
X121617569Y-94583500D01*
X121839635Y-94546444D01*
X122052574Y-94473342D01*
X122250576Y-94366189D01*
X122428240Y-94227906D01*
X122580722Y-94062268D01*
X122703860Y-93873791D01*
X122794296Y-93667616D01*
X122849564Y-93449368D01*
X122852164Y-93417993D01*
X122868156Y-93225005D01*
X122868156Y-93224994D01*
X122849565Y-93000640D01*
X122849563Y-93000628D01*
X122803213Y-92817597D01*
X122794296Y-92782384D01*
X122703860Y-92576209D01*
X122687706Y-92551484D01*
X122580723Y-92387734D01*
X122580715Y-92387723D01*
X122545988Y-92350000D01*
X138086835Y-92350000D01*
X138105465Y-92586714D01*
X138160895Y-92817595D01*
X138160895Y-92817597D01*
X138251757Y-93036959D01*
X138251759Y-93036962D01*
X138375820Y-93239410D01*
X138375821Y-93239413D01*
X138375824Y-93239416D01*
X138530031Y-93419969D01*
X138669797Y-93539340D01*
X138710586Y-93574178D01*
X138710589Y-93574179D01*
X138913037Y-93698240D01*
X138913040Y-93698242D01*
X139132403Y-93789104D01*
X139132404Y-93789104D01*
X139132406Y-93789105D01*
X139363289Y-93844535D01*
X139600000Y-93863165D01*
X139836711Y-93844535D01*
X140067594Y-93789105D01*
X140067596Y-93789104D01*
X140067597Y-93789104D01*
X140286959Y-93698242D01*
X140286960Y-93698241D01*
X140286963Y-93698240D01*
X140489416Y-93574176D01*
X140669969Y-93419969D01*
X140824176Y-93239416D01*
X140948240Y-93036963D01*
X140963286Y-93000640D01*
X141039104Y-92817597D01*
X141039104Y-92817596D01*
X141039105Y-92817594D01*
X141094535Y-92586711D01*
X141113165Y-92350000D01*
X144586835Y-92350000D01*
X144605465Y-92586714D01*
X144660895Y-92817595D01*
X144660895Y-92817597D01*
X144751757Y-93036959D01*
X144751759Y-93036962D01*
X144875820Y-93239410D01*
X144875821Y-93239413D01*
X144875824Y-93239416D01*
X145030031Y-93419969D01*
X145169797Y-93539340D01*
X145210586Y-93574178D01*
X145210589Y-93574179D01*
X145413037Y-93698240D01*
X145413040Y-93698242D01*
X145632403Y-93789104D01*
X145632404Y-93789104D01*
X145632406Y-93789105D01*
X145863289Y-93844535D01*
X146100000Y-93863165D01*
X146336711Y-93844535D01*
X146567594Y-93789105D01*
X146567596Y-93789104D01*
X146567597Y-93789104D01*
X146786959Y-93698242D01*
X146786960Y-93698241D01*
X146786963Y-93698240D01*
X146989416Y-93574176D01*
X147169969Y-93419969D01*
X147324176Y-93239416D01*
X147448240Y-93036963D01*
X147463286Y-93000640D01*
X147539104Y-92817597D01*
X147539104Y-92817596D01*
X147539105Y-92817594D01*
X147594535Y-92586711D01*
X147613165Y-92350000D01*
X147594535Y-92113289D01*
X147539105Y-91882406D01*
X147539104Y-91882403D01*
X147539104Y-91882402D01*
X147448242Y-91663040D01*
X147448240Y-91663037D01*
X147324179Y-91460589D01*
X147324178Y-91460586D01*
X147289340Y-91419797D01*
X147169969Y-91280031D01*
X147050596Y-91178076D01*
X146989413Y-91125821D01*
X146989410Y-91125820D01*
X146786962Y-91001759D01*
X146786959Y-91001757D01*
X146567596Y-90910895D01*
X146336714Y-90855465D01*
X146100000Y-90836835D01*
X145863285Y-90855465D01*
X145632404Y-90910895D01*
X145632402Y-90910895D01*
X145413040Y-91001757D01*
X145413037Y-91001759D01*
X145210589Y-91125820D01*
X145210586Y-91125821D01*
X145030031Y-91280031D01*
X144875821Y-91460586D01*
X144875820Y-91460589D01*
X144751759Y-91663037D01*
X144751757Y-91663040D01*
X144660895Y-91882402D01*
X144660895Y-91882404D01*
X144605465Y-92113285D01*
X144586835Y-92350000D01*
X141113165Y-92350000D01*
X141094535Y-92113289D01*
X141039105Y-91882406D01*
X141039104Y-91882403D01*
X141039104Y-91882402D01*
X140948242Y-91663040D01*
X140948240Y-91663037D01*
X140824179Y-91460589D01*
X140824178Y-91460586D01*
X140789340Y-91419797D01*
X140669969Y-91280031D01*
X140550596Y-91178076D01*
X140489413Y-91125821D01*
X140489410Y-91125820D01*
X140286962Y-91001759D01*
X140286959Y-91001757D01*
X140067596Y-90910895D01*
X139836714Y-90855465D01*
X139600000Y-90836835D01*
X139363285Y-90855465D01*
X139132404Y-90910895D01*
X139132402Y-90910895D01*
X138913040Y-91001757D01*
X138913037Y-91001759D01*
X138710589Y-91125820D01*
X138710586Y-91125821D01*
X138530031Y-91280031D01*
X138375821Y-91460586D01*
X138375820Y-91460589D01*
X138251759Y-91663037D01*
X138251757Y-91663040D01*
X138160895Y-91882402D01*
X138160895Y-91882404D01*
X138105465Y-92113285D01*
X138086835Y-92350000D01*
X122545988Y-92350000D01*
X122428243Y-92222097D01*
X122428238Y-92222092D01*
X122250577Y-92083812D01*
X122250572Y-92083808D01*
X122052580Y-91976661D01*
X122052577Y-91976659D01*
X122052574Y-91976658D01*
X122052571Y-91976657D01*
X122052569Y-91976656D01*
X121839637Y-91903556D01*
X121617569Y-91866500D01*
X121392431Y-91866500D01*
X121170362Y-91903556D01*
X120957430Y-91976656D01*
X120957419Y-91976661D01*
X120759427Y-92083808D01*
X120759422Y-92083812D01*
X120581761Y-92222092D01*
X120581756Y-92222097D01*
X120429284Y-92387723D01*
X120429276Y-92387734D01*
X120338808Y-92526206D01*
X120285662Y-92571562D01*
X120216431Y-92580986D01*
X120153095Y-92551484D01*
X120131192Y-92526206D01*
X120040723Y-92387734D01*
X120040715Y-92387723D01*
X119888243Y-92222097D01*
X119888238Y-92222092D01*
X119710577Y-92083812D01*
X119710572Y-92083808D01*
X119512580Y-91976661D01*
X119512577Y-91976659D01*
X119512574Y-91976658D01*
X119512571Y-91976657D01*
X119512569Y-91976656D01*
X119299637Y-91903556D01*
X119077569Y-91866500D01*
X118852431Y-91866500D01*
X118630362Y-91903556D01*
X118417430Y-91976656D01*
X118417419Y-91976661D01*
X118219427Y-92083808D01*
X118219422Y-92083812D01*
X118041761Y-92222092D01*
X118041756Y-92222097D01*
X117889284Y-92387723D01*
X117889276Y-92387734D01*
X117798808Y-92526206D01*
X117745662Y-92571562D01*
X117676431Y-92580986D01*
X117613095Y-92551484D01*
X117591192Y-92526206D01*
X117500723Y-92387734D01*
X117500715Y-92387723D01*
X117348243Y-92222097D01*
X117348238Y-92222092D01*
X117170577Y-92083812D01*
X117170572Y-92083808D01*
X116972580Y-91976661D01*
X116972577Y-91976659D01*
X116972574Y-91976658D01*
X116972571Y-91976657D01*
X116972569Y-91976656D01*
X116759637Y-91903556D01*
X116537569Y-91866500D01*
X116312431Y-91866500D01*
X116090362Y-91903556D01*
X115877430Y-91976656D01*
X115877419Y-91976661D01*
X115679427Y-92083808D01*
X115679422Y-92083812D01*
X115501761Y-92222092D01*
X115501756Y-92222097D01*
X115349284Y-92387723D01*
X115349276Y-92387734D01*
X115258808Y-92526206D01*
X115205662Y-92571562D01*
X115136431Y-92580986D01*
X115073095Y-92551484D01*
X115051192Y-92526206D01*
X114960723Y-92387734D01*
X114960715Y-92387723D01*
X114808243Y-92222097D01*
X114808238Y-92222092D01*
X114630577Y-92083812D01*
X114630572Y-92083808D01*
X114432580Y-91976661D01*
X114432577Y-91976659D01*
X114432574Y-91976658D01*
X114432571Y-91976657D01*
X114432569Y-91976656D01*
X114219637Y-91903556D01*
X113997569Y-91866500D01*
X113772431Y-91866500D01*
X113550362Y-91903556D01*
X113337430Y-91976656D01*
X113337419Y-91976661D01*
X113139427Y-92083808D01*
X113139422Y-92083812D01*
X112961761Y-92222092D01*
X112961756Y-92222097D01*
X112809284Y-92387723D01*
X112809276Y-92387734D01*
X112718808Y-92526206D01*
X112665662Y-92571562D01*
X112596431Y-92580986D01*
X112533095Y-92551484D01*
X112511192Y-92526206D01*
X112420723Y-92387734D01*
X112420715Y-92387723D01*
X112268243Y-92222097D01*
X112268238Y-92222092D01*
X112090577Y-92083812D01*
X112090572Y-92083808D01*
X111892580Y-91976661D01*
X111892577Y-91976659D01*
X111892574Y-91976658D01*
X111892571Y-91976657D01*
X111892569Y-91976656D01*
X111679637Y-91903556D01*
X111457569Y-91866500D01*
X111232431Y-91866500D01*
X111010362Y-91903556D01*
X110797430Y-91976656D01*
X110797419Y-91976661D01*
X110599427Y-92083808D01*
X110599422Y-92083812D01*
X110421761Y-92222092D01*
X110421756Y-92222097D01*
X110269284Y-92387723D01*
X110269276Y-92387734D01*
X110178808Y-92526206D01*
X110125662Y-92571562D01*
X110056431Y-92580986D01*
X109993095Y-92551484D01*
X109971192Y-92526206D01*
X109880723Y-92387734D01*
X109880715Y-92387723D01*
X109728243Y-92222097D01*
X109728238Y-92222092D01*
X109550577Y-92083812D01*
X109550572Y-92083808D01*
X109352580Y-91976661D01*
X109352577Y-91976659D01*
X109352574Y-91976658D01*
X109352571Y-91976657D01*
X109352569Y-91976656D01*
X109139637Y-91903556D01*
X108917569Y-91866500D01*
X108692431Y-91866500D01*
X108470362Y-91903556D01*
X108257430Y-91976656D01*
X108257419Y-91976661D01*
X108059427Y-92083808D01*
X108059422Y-92083812D01*
X107881761Y-92222092D01*
X107881756Y-92222097D01*
X107729284Y-92387723D01*
X107729276Y-92387734D01*
X107635251Y-92531650D01*
X107582105Y-92577007D01*
X107512873Y-92586430D01*
X107449538Y-92556928D01*
X107429868Y-92534951D01*
X107303113Y-92353926D01*
X107303108Y-92353920D01*
X107136082Y-92186894D01*
X106942578Y-92051399D01*
X106728492Y-91951570D01*
X106728486Y-91951567D01*
X106515000Y-91894364D01*
X106515000Y-92791988D01*
X106457993Y-92759075D01*
X106330826Y-92725000D01*
X106199174Y-92725000D01*
X106072007Y-92759075D01*
X106015000Y-92791988D01*
X106015000Y-91894364D01*
X106014999Y-91894364D01*
X105801513Y-91951567D01*
X105801507Y-91951570D01*
X105587422Y-92051399D01*
X105587420Y-92051400D01*
X105393926Y-92186886D01*
X105278084Y-92302728D01*
X105216761Y-92336212D01*
X105147069Y-92331228D01*
X105091136Y-92289356D01*
X105074223Y-92258384D01*
X105025889Y-92128796D01*
X104938261Y-92011739D01*
X104821204Y-91924111D01*
X104684203Y-91873011D01*
X104623654Y-91866500D01*
X104623638Y-91866500D01*
X102826362Y-91866500D01*
X102826345Y-91866500D01*
X102765797Y-91873011D01*
X102765795Y-91873011D01*
X102628795Y-91924111D01*
X102511739Y-92011739D01*
X102424111Y-92128795D01*
X102373011Y-92265795D01*
X102373011Y-92265797D01*
X102366500Y-92326345D01*
X100075500Y-92326345D01*
X100075500Y-90354998D01*
X154416807Y-90354998D01*
X154416807Y-90355001D01*
X154435541Y-90569136D01*
X154435542Y-90569144D01*
X154491176Y-90776772D01*
X154491177Y-90776774D01*
X154491178Y-90776777D01*
X154552775Y-90908872D01*
X154582024Y-90971597D01*
X154582026Y-90971601D01*
X154705319Y-91147682D01*
X154857317Y-91299680D01*
X155033398Y-91422973D01*
X155033400Y-91422974D01*
X155033403Y-91422976D01*
X155228223Y-91513822D01*
X155435858Y-91569458D01*
X155588816Y-91582840D01*
X155649998Y-91588193D01*
X155650000Y-91588193D01*
X155650002Y-91588193D01*
X155703535Y-91583509D01*
X155864142Y-91569458D01*
X156071777Y-91513822D01*
X156266597Y-91422976D01*
X156442681Y-91299681D01*
X156594681Y-91147681D01*
X156717976Y-90971597D01*
X156808822Y-90776777D01*
X156864458Y-90569142D01*
X156883193Y-90355000D01*
X156864458Y-90140858D01*
X156808822Y-89933223D01*
X156717976Y-89738404D01*
X156594681Y-89562319D01*
X156594679Y-89562316D01*
X156442682Y-89410319D01*
X156399380Y-89379999D01*
X161971127Y-89379999D01*
X161971128Y-89380000D01*
X162934314Y-89380000D01*
X162929920Y-89384394D01*
X162877259Y-89475606D01*
X162850000Y-89577339D01*
X162850000Y-89682661D01*
X162877259Y-89784394D01*
X162929920Y-89875606D01*
X162934314Y-89880000D01*
X161971128Y-89880000D01*
X162023730Y-90076317D01*
X162023734Y-90076326D01*
X162119865Y-90282482D01*
X162250342Y-90468820D01*
X162411179Y-90629657D01*
X162597517Y-90760134D01*
X162803673Y-90856265D01*
X162803682Y-90856269D01*
X162999999Y-90908872D01*
X163000000Y-90908871D01*
X163000000Y-89945686D01*
X163004394Y-89950080D01*
X163095606Y-90002741D01*
X163197339Y-90030000D01*
X163302661Y-90030000D01*
X163404394Y-90002741D01*
X163495606Y-89950080D01*
X163500000Y-89945686D01*
X163500000Y-90908872D01*
X163696317Y-90856269D01*
X163696326Y-90856265D01*
X163902482Y-90760134D01*
X164088820Y-90629657D01*
X164249657Y-90468820D01*
X164380134Y-90282482D01*
X164476265Y-90076326D01*
X164476269Y-90076317D01*
X164528872Y-89880000D01*
X163565686Y-89880000D01*
X163570080Y-89875606D01*
X163622741Y-89784394D01*
X163650000Y-89682661D01*
X163650000Y-89577339D01*
X163622741Y-89475606D01*
X163570080Y-89384394D01*
X163565686Y-89380000D01*
X164528872Y-89380000D01*
X164528872Y-89379999D01*
X164476269Y-89183682D01*
X164476265Y-89183673D01*
X164380134Y-88977517D01*
X164249657Y-88791179D01*
X164088820Y-88630342D01*
X163902482Y-88499865D01*
X163696328Y-88403734D01*
X163500000Y-88351127D01*
X163500000Y-89314314D01*
X163495606Y-89309920D01*
X163404394Y-89257259D01*
X163302661Y-89230000D01*
X163197339Y-89230000D01*
X163095606Y-89257259D01*
X163004394Y-89309920D01*
X163000000Y-89314314D01*
X163000000Y-88351127D01*
X162803671Y-88403734D01*
X162597517Y-88499865D01*
X162411179Y-88630342D01*
X162250342Y-88791179D01*
X162119865Y-88977517D01*
X162023734Y-89183673D01*
X162023730Y-89183682D01*
X161971127Y-89379999D01*
X156399380Y-89379999D01*
X156266601Y-89287026D01*
X156266597Y-89287024D01*
X156266595Y-89287023D01*
X156071777Y-89196178D01*
X156071774Y-89196177D01*
X156071772Y-89196176D01*
X155864144Y-89140542D01*
X155864136Y-89140541D01*
X155650002Y-89121807D01*
X155649998Y-89121807D01*
X155435863Y-89140541D01*
X155435855Y-89140542D01*
X155228227Y-89196176D01*
X155228221Y-89196179D01*
X155033405Y-89287023D01*
X155033403Y-89287024D01*
X154857316Y-89410320D01*
X154705320Y-89562316D01*
X154582024Y-89738403D01*
X154582023Y-89738405D01*
X154491179Y-89933221D01*
X154491176Y-89933227D01*
X154435542Y-90140855D01*
X154435541Y-90140863D01*
X154416807Y-90354998D01*
X100075500Y-90354998D01*
X100075500Y-87850000D01*
X138086835Y-87850000D01*
X138105465Y-88086714D01*
X138160895Y-88317595D01*
X138160895Y-88317597D01*
X138251757Y-88536959D01*
X138251759Y-88536962D01*
X138375820Y-88739410D01*
X138375821Y-88739413D01*
X138375824Y-88739416D01*
X138530031Y-88919969D01*
X138658225Y-89029457D01*
X138710586Y-89074178D01*
X138710589Y-89074179D01*
X138913037Y-89198240D01*
X138913040Y-89198242D01*
X139132403Y-89289104D01*
X139132404Y-89289104D01*
X139132406Y-89289105D01*
X139363289Y-89344535D01*
X139600000Y-89363165D01*
X139836711Y-89344535D01*
X140067594Y-89289105D01*
X140067596Y-89289104D01*
X140067597Y-89289104D01*
X140286959Y-89198242D01*
X140286960Y-89198241D01*
X140286963Y-89198240D01*
X140489416Y-89074176D01*
X140669969Y-88919969D01*
X140824176Y-88739416D01*
X140948240Y-88536963D01*
X140963607Y-88499865D01*
X141039104Y-88317597D01*
X141039104Y-88317596D01*
X141039105Y-88317594D01*
X141094535Y-88086711D01*
X141113165Y-87850000D01*
X144586835Y-87850000D01*
X144605465Y-88086714D01*
X144660895Y-88317595D01*
X144660895Y-88317597D01*
X144751757Y-88536959D01*
X144751759Y-88536962D01*
X144875820Y-88739410D01*
X144875821Y-88739413D01*
X144875824Y-88739416D01*
X145030031Y-88919969D01*
X145158225Y-89029457D01*
X145210586Y-89074178D01*
X145210589Y-89074179D01*
X145413037Y-89198240D01*
X145413040Y-89198242D01*
X145632403Y-89289104D01*
X145632404Y-89289104D01*
X145632406Y-89289105D01*
X145863289Y-89344535D01*
X146100000Y-89363165D01*
X146336711Y-89344535D01*
X146567594Y-89289105D01*
X146567596Y-89289104D01*
X146567597Y-89289104D01*
X146786959Y-89198242D01*
X146786960Y-89198241D01*
X146786963Y-89198240D01*
X146989416Y-89074176D01*
X147169969Y-88919969D01*
X147324176Y-88739416D01*
X147448240Y-88536963D01*
X147463607Y-88499865D01*
X147539104Y-88317597D01*
X147539104Y-88317596D01*
X147539105Y-88317594D01*
X147594535Y-88086711D01*
X147613165Y-87850000D01*
X147610410Y-87814998D01*
X151876807Y-87814998D01*
X151876807Y-87815001D01*
X151895541Y-88029136D01*
X151895542Y-88029144D01*
X151951176Y-88236772D01*
X151951177Y-88236774D01*
X151951178Y-88236777D01*
X151988864Y-88317594D01*
X152042024Y-88431597D01*
X152042026Y-88431601D01*
X152165319Y-88607682D01*
X152317317Y-88759680D01*
X152493398Y-88882973D01*
X152493400Y-88882974D01*
X152493403Y-88882976D01*
X152688223Y-88973822D01*
X152895858Y-89029458D01*
X153048816Y-89042840D01*
X153109998Y-89048193D01*
X153110000Y-89048193D01*
X153110002Y-89048193D01*
X153163535Y-89043509D01*
X153324142Y-89029458D01*
X153531777Y-88973822D01*
X153726597Y-88882976D01*
X153902681Y-88759681D01*
X154054681Y-88607681D01*
X154177976Y-88431597D01*
X154268822Y-88236777D01*
X154324458Y-88029142D01*
X154343193Y-87815000D01*
X154343193Y-87814997D01*
X156965340Y-87814997D01*
X156965340Y-87815002D01*
X156983944Y-88027654D01*
X156983945Y-88027662D01*
X157039194Y-88233853D01*
X157039197Y-88233859D01*
X157129413Y-88427329D01*
X157168415Y-88483030D01*
X157790000Y-87861445D01*
X157790000Y-87867661D01*
X157817259Y-87969394D01*
X157869920Y-88060606D01*
X157944394Y-88135080D01*
X158035606Y-88187741D01*
X158137339Y-88215000D01*
X158143554Y-88215000D01*
X157521968Y-88836584D01*
X157577663Y-88875582D01*
X157577669Y-88875586D01*
X157771140Y-88965802D01*
X157771146Y-88965805D01*
X157977337Y-89021054D01*
X157977345Y-89021055D01*
X158189998Y-89039660D01*
X158190002Y-89039660D01*
X158402654Y-89021055D01*
X158402662Y-89021054D01*
X158608853Y-88965805D01*
X158608864Y-88965801D01*
X158802325Y-88875589D01*
X158858030Y-88836583D01*
X158236447Y-88215000D01*
X158242661Y-88215000D01*
X158344394Y-88187741D01*
X158435606Y-88135080D01*
X158510080Y-88060606D01*
X158562741Y-87969394D01*
X158590000Y-87867661D01*
X158590000Y-87861446D01*
X159211583Y-88483029D01*
X159250589Y-88427325D01*
X159340801Y-88233864D01*
X159340805Y-88233853D01*
X159396054Y-88027662D01*
X159396055Y-88027654D01*
X159414660Y-87815002D01*
X159414660Y-87814997D01*
X159396055Y-87602345D01*
X159396054Y-87602337D01*
X159340805Y-87396146D01*
X159340802Y-87396140D01*
X159250586Y-87202669D01*
X159250582Y-87202663D01*
X159211584Y-87146968D01*
X158590000Y-87768552D01*
X158590000Y-87762339D01*
X158562741Y-87660606D01*
X158510080Y-87569394D01*
X158435606Y-87494920D01*
X158344394Y-87442259D01*
X158242661Y-87415000D01*
X158236447Y-87415000D01*
X158858030Y-86793415D01*
X158802329Y-86754413D01*
X158608859Y-86664197D01*
X158608853Y-86664194D01*
X158402662Y-86608945D01*
X158402654Y-86608944D01*
X158190002Y-86590340D01*
X158189998Y-86590340D01*
X157977345Y-86608944D01*
X157977337Y-86608945D01*
X157771146Y-86664194D01*
X157771140Y-86664197D01*
X157577671Y-86754412D01*
X157577669Y-86754413D01*
X157521969Y-86793415D01*
X157521968Y-86793415D01*
X158143554Y-87415000D01*
X158137339Y-87415000D01*
X158035606Y-87442259D01*
X157944394Y-87494920D01*
X157869920Y-87569394D01*
X157817259Y-87660606D01*
X157790000Y-87762339D01*
X157790000Y-87768553D01*
X157168415Y-87146968D01*
X157168415Y-87146969D01*
X157129413Y-87202669D01*
X157129412Y-87202671D01*
X157039197Y-87396140D01*
X157039194Y-87396146D01*
X156983945Y-87602337D01*
X156983944Y-87602345D01*
X156965340Y-87814997D01*
X154343193Y-87814997D01*
X154324458Y-87600858D01*
X154268822Y-87393223D01*
X154177976Y-87198404D01*
X154054681Y-87022319D01*
X154054679Y-87022316D01*
X153902682Y-86870319D01*
X153726601Y-86747026D01*
X153726597Y-86747024D01*
X153726595Y-86747023D01*
X153531777Y-86656178D01*
X153531774Y-86656177D01*
X153531772Y-86656176D01*
X153324144Y-86600542D01*
X153324136Y-86600541D01*
X153110002Y-86581807D01*
X153109998Y-86581807D01*
X152895863Y-86600541D01*
X152895855Y-86600542D01*
X152688227Y-86656176D01*
X152688221Y-86656179D01*
X152493405Y-86747023D01*
X152493403Y-86747024D01*
X152317316Y-86870320D01*
X152165320Y-87022316D01*
X152042024Y-87198403D01*
X152042023Y-87198405D01*
X151951179Y-87393221D01*
X151951176Y-87393227D01*
X151895542Y-87600855D01*
X151895541Y-87600863D01*
X151876807Y-87814998D01*
X147610410Y-87814998D01*
X147594535Y-87613289D01*
X147539105Y-87382406D01*
X147539104Y-87382403D01*
X147539104Y-87382402D01*
X147448242Y-87163040D01*
X147448240Y-87163037D01*
X147324179Y-86960589D01*
X147324178Y-86960586D01*
X147247082Y-86870319D01*
X147169969Y-86780031D01*
X147034345Y-86664197D01*
X146989413Y-86625821D01*
X146989410Y-86625820D01*
X146786962Y-86501759D01*
X146786959Y-86501757D01*
X146567596Y-86410895D01*
X146336714Y-86355465D01*
X146100000Y-86336835D01*
X145863285Y-86355465D01*
X145632404Y-86410895D01*
X145632402Y-86410895D01*
X145413040Y-86501757D01*
X145413037Y-86501759D01*
X145210589Y-86625820D01*
X145210586Y-86625821D01*
X145030031Y-86780031D01*
X144875821Y-86960586D01*
X144875820Y-86960589D01*
X144751759Y-87163037D01*
X144751757Y-87163040D01*
X144660895Y-87382402D01*
X144660895Y-87382404D01*
X144605465Y-87613285D01*
X144586835Y-87850000D01*
X141113165Y-87850000D01*
X141094535Y-87613289D01*
X141039105Y-87382406D01*
X141039104Y-87382403D01*
X141039104Y-87382402D01*
X140948242Y-87163040D01*
X140948240Y-87163037D01*
X140824179Y-86960589D01*
X140824178Y-86960586D01*
X140747082Y-86870319D01*
X140669969Y-86780031D01*
X140534345Y-86664197D01*
X140489413Y-86625821D01*
X140489410Y-86625820D01*
X140286962Y-86501759D01*
X140286959Y-86501757D01*
X140067596Y-86410895D01*
X139836714Y-86355465D01*
X139600000Y-86336835D01*
X139363285Y-86355465D01*
X139132404Y-86410895D01*
X139132402Y-86410895D01*
X138913040Y-86501757D01*
X138913037Y-86501759D01*
X138710589Y-86625820D01*
X138710586Y-86625821D01*
X138530031Y-86780031D01*
X138375821Y-86960586D01*
X138375820Y-86960589D01*
X138251759Y-87163037D01*
X138251757Y-87163040D01*
X138160895Y-87382402D01*
X138160895Y-87382404D01*
X138105465Y-87613285D01*
X138086835Y-87850000D01*
X100075500Y-87850000D01*
X100075500Y-83479999D01*
X147321127Y-83479999D01*
X147321128Y-83480000D01*
X148284314Y-83480000D01*
X148279920Y-83484394D01*
X148227259Y-83575606D01*
X148200000Y-83677339D01*
X148200000Y-83782661D01*
X148227259Y-83884394D01*
X148279920Y-83975606D01*
X148284314Y-83980000D01*
X147321128Y-83980000D01*
X147373730Y-84176317D01*
X147373734Y-84176326D01*
X147469865Y-84382482D01*
X147600342Y-84568820D01*
X147761179Y-84729657D01*
X147947517Y-84860134D01*
X148153673Y-84956265D01*
X148153682Y-84956269D01*
X148349999Y-85008872D01*
X148350000Y-85008871D01*
X148350000Y-84045686D01*
X148354394Y-84050080D01*
X148445606Y-84102741D01*
X148547339Y-84130000D01*
X148652661Y-84130000D01*
X148754394Y-84102741D01*
X148845606Y-84050080D01*
X148850000Y-84045686D01*
X148850000Y-85008872D01*
X149046317Y-84956269D01*
X149046326Y-84956265D01*
X149252482Y-84860134D01*
X149438820Y-84729657D01*
X149599657Y-84568820D01*
X149730134Y-84382482D01*
X149826265Y-84176326D01*
X149826269Y-84176317D01*
X149878872Y-83980000D01*
X148915686Y-83980000D01*
X148920080Y-83975606D01*
X148972741Y-83884394D01*
X149000000Y-83782661D01*
X149000000Y-83677339D01*
X148972741Y-83575606D01*
X148920080Y-83484394D01*
X148915686Y-83480000D01*
X149878872Y-83480000D01*
X149878872Y-83479999D01*
X149826269Y-83283682D01*
X149826265Y-83283673D01*
X149730134Y-83077517D01*
X149599657Y-82891179D01*
X149438820Y-82730342D01*
X149252482Y-82599865D01*
X149046328Y-82503734D01*
X148850000Y-82451127D01*
X148850000Y-83414314D01*
X148845606Y-83409920D01*
X148754394Y-83357259D01*
X148652661Y-83330000D01*
X148547339Y-83330000D01*
X148445606Y-83357259D01*
X148354394Y-83409920D01*
X148350000Y-83414314D01*
X148350000Y-82451127D01*
X148153671Y-82503734D01*
X147947517Y-82599865D01*
X147761179Y-82730342D01*
X147600342Y-82891179D01*
X147469865Y-83077517D01*
X147373734Y-83283673D01*
X147373730Y-83283682D01*
X147321127Y-83479999D01*
X100075500Y-83479999D01*
X100075500Y-79729999D01*
X130971127Y-79729999D01*
X130971128Y-79730000D01*
X131934314Y-79730000D01*
X131929920Y-79734394D01*
X131877259Y-79825606D01*
X131850000Y-79927339D01*
X131850000Y-80032661D01*
X131877259Y-80134394D01*
X131929920Y-80225606D01*
X131934314Y-80230000D01*
X130971128Y-80230000D01*
X131023730Y-80426317D01*
X131023734Y-80426326D01*
X131119865Y-80632482D01*
X131250342Y-80818820D01*
X131411179Y-80979657D01*
X131597517Y-81110134D01*
X131803673Y-81206265D01*
X131803682Y-81206269D01*
X131999999Y-81258872D01*
X132000000Y-81258871D01*
X132000000Y-80295686D01*
X132004394Y-80300080D01*
X132095606Y-80352741D01*
X132197339Y-80380000D01*
X132302661Y-80380000D01*
X132404394Y-80352741D01*
X132495606Y-80300080D01*
X132500000Y-80295686D01*
X132500000Y-81258872D01*
X132696317Y-81206269D01*
X132696326Y-81206265D01*
X132902482Y-81110134D01*
X133088820Y-80979657D01*
X133249657Y-80818820D01*
X133380134Y-80632482D01*
X133476265Y-80426326D01*
X133476269Y-80426317D01*
X133528872Y-80230000D01*
X132565686Y-80230000D01*
X132570080Y-80225606D01*
X132622741Y-80134394D01*
X132650000Y-80032661D01*
X132650000Y-79927339D01*
X132622741Y-79825606D01*
X132570080Y-79734394D01*
X132565686Y-79730000D01*
X133528872Y-79730000D01*
X133528872Y-79729999D01*
X133476269Y-79533682D01*
X133476265Y-79533673D01*
X133380134Y-79327517D01*
X133249657Y-79141179D01*
X133088820Y-78980342D01*
X133045488Y-78950000D01*
X151036835Y-78950000D01*
X151055465Y-79186714D01*
X151110895Y-79417595D01*
X151110895Y-79417597D01*
X151201757Y-79636959D01*
X151201759Y-79636962D01*
X151325820Y-79839410D01*
X151325821Y-79839413D01*
X151325824Y-79839416D01*
X151480031Y-80019969D01*
X151605052Y-80126747D01*
X151660586Y-80174178D01*
X151660589Y-80174179D01*
X151863037Y-80298240D01*
X151863040Y-80298242D01*
X152082403Y-80389104D01*
X152082404Y-80389104D01*
X152082406Y-80389105D01*
X152313289Y-80444535D01*
X152550000Y-80463165D01*
X152786711Y-80444535D01*
X153017594Y-80389105D01*
X153017596Y-80389104D01*
X153017597Y-80389104D01*
X153236959Y-80298242D01*
X153236960Y-80298241D01*
X153236963Y-80298240D01*
X153439416Y-80174176D01*
X153619969Y-80019969D01*
X153774176Y-79839416D01*
X153898240Y-79636963D01*
X153967398Y-79470001D01*
X153989104Y-79417597D01*
X153989104Y-79417596D01*
X153989105Y-79417594D01*
X154044535Y-79186711D01*
X154063165Y-78950000D01*
X157536835Y-78950000D01*
X157555465Y-79186714D01*
X157610895Y-79417595D01*
X157610895Y-79417597D01*
X157701757Y-79636959D01*
X157701759Y-79636962D01*
X157825820Y-79839410D01*
X157825821Y-79839413D01*
X157825824Y-79839416D01*
X157980031Y-80019969D01*
X158105052Y-80126747D01*
X158160586Y-80174178D01*
X158160589Y-80174179D01*
X158363037Y-80298240D01*
X158363040Y-80298242D01*
X158582403Y-80389104D01*
X158582404Y-80389104D01*
X158582406Y-80389105D01*
X158813289Y-80444535D01*
X159050000Y-80463165D01*
X159286711Y-80444535D01*
X159517594Y-80389105D01*
X159517596Y-80389104D01*
X159517597Y-80389104D01*
X159736959Y-80298242D01*
X159736960Y-80298241D01*
X159736963Y-80298240D01*
X159939416Y-80174176D01*
X160119969Y-80019969D01*
X160274176Y-79839416D01*
X160398240Y-79636963D01*
X160467398Y-79470001D01*
X160467399Y-79469998D01*
X161936502Y-79469998D01*
X161936502Y-79470001D01*
X161956456Y-79698081D01*
X161956457Y-79698089D01*
X162015714Y-79919238D01*
X162015718Y-79919249D01*
X162062685Y-80019969D01*
X162112477Y-80126749D01*
X162243802Y-80314300D01*
X162405700Y-80476198D01*
X162593251Y-80607523D01*
X162718091Y-80665736D01*
X162800750Y-80704281D01*
X162800752Y-80704281D01*
X162800757Y-80704284D01*
X163021913Y-80763543D01*
X163184832Y-80777796D01*
X163249998Y-80783498D01*
X163250000Y-80783498D01*
X163250002Y-80783498D01*
X163307021Y-80778509D01*
X163478087Y-80763543D01*
X163699243Y-80704284D01*
X163906749Y-80607523D01*
X164094300Y-80476198D01*
X164256198Y-80314300D01*
X164387523Y-80126749D01*
X164484284Y-79919243D01*
X164543543Y-79698087D01*
X164563498Y-79470000D01*
X164543543Y-79241913D01*
X164484284Y-79020757D01*
X164387523Y-78813251D01*
X164256198Y-78625700D01*
X164094300Y-78463802D01*
X163906749Y-78332477D01*
X163906745Y-78332475D01*
X163699249Y-78235718D01*
X163699238Y-78235714D01*
X163478089Y-78176457D01*
X163478081Y-78176456D01*
X163250002Y-78156502D01*
X163249998Y-78156502D01*
X163021918Y-78176456D01*
X163021910Y-78176457D01*
X162800761Y-78235714D01*
X162800750Y-78235718D01*
X162593254Y-78332475D01*
X162593252Y-78332476D01*
X162593251Y-78332477D01*
X162405700Y-78463802D01*
X162405698Y-78463803D01*
X162405695Y-78463806D01*
X162243806Y-78625695D01*
X162112476Y-78813252D01*
X162112475Y-78813254D01*
X162015718Y-79020750D01*
X162015714Y-79020761D01*
X161956457Y-79241910D01*
X161956456Y-79241918D01*
X161936502Y-79469998D01*
X160467399Y-79469998D01*
X160489104Y-79417597D01*
X160489104Y-79417596D01*
X160489105Y-79417594D01*
X160544535Y-79186711D01*
X160563165Y-78950000D01*
X160544535Y-78713289D01*
X160489105Y-78482406D01*
X160489104Y-78482403D01*
X160489104Y-78482402D01*
X160398242Y-78263040D01*
X160398240Y-78263037D01*
X160274179Y-78060589D01*
X160274178Y-78060586D01*
X160239340Y-78019797D01*
X160119969Y-77880031D01*
X160000596Y-77778076D01*
X159939413Y-77725821D01*
X159939410Y-77725820D01*
X159736962Y-77601759D01*
X159736959Y-77601757D01*
X159517596Y-77510895D01*
X159286714Y-77455465D01*
X159050000Y-77436835D01*
X158813285Y-77455465D01*
X158582404Y-77510895D01*
X158582402Y-77510895D01*
X158363040Y-77601757D01*
X158363037Y-77601759D01*
X158160589Y-77725820D01*
X158160586Y-77725821D01*
X157980031Y-77880031D01*
X157825821Y-78060586D01*
X157825820Y-78060589D01*
X157701759Y-78263037D01*
X157701757Y-78263040D01*
X157610895Y-78482402D01*
X157610895Y-78482404D01*
X157555465Y-78713285D01*
X157536835Y-78950000D01*
X154063165Y-78950000D01*
X154044535Y-78713289D01*
X153989105Y-78482406D01*
X153989104Y-78482403D01*
X153989104Y-78482402D01*
X153898242Y-78263040D01*
X153898240Y-78263037D01*
X153774179Y-78060589D01*
X153774178Y-78060586D01*
X153739340Y-78019797D01*
X153619969Y-77880031D01*
X153500596Y-77778076D01*
X153439413Y-77725821D01*
X153439410Y-77725820D01*
X153236962Y-77601759D01*
X153236959Y-77601757D01*
X153017596Y-77510895D01*
X152786714Y-77455465D01*
X152550000Y-77436835D01*
X152313285Y-77455465D01*
X152082404Y-77510895D01*
X152082402Y-77510895D01*
X151863040Y-77601757D01*
X151863037Y-77601759D01*
X151660589Y-77725820D01*
X151660586Y-77725821D01*
X151480031Y-77880031D01*
X151325821Y-78060586D01*
X151325820Y-78060589D01*
X151201759Y-78263037D01*
X151201757Y-78263040D01*
X151110895Y-78482402D01*
X151110895Y-78482404D01*
X151055465Y-78713285D01*
X151036835Y-78950000D01*
X133045488Y-78950000D01*
X132902482Y-78849865D01*
X132696328Y-78753734D01*
X132500000Y-78701127D01*
X132500000Y-79664314D01*
X132495606Y-79659920D01*
X132404394Y-79607259D01*
X132302661Y-79580000D01*
X132197339Y-79580000D01*
X132095606Y-79607259D01*
X132004394Y-79659920D01*
X132000000Y-79664314D01*
X132000000Y-78701127D01*
X131803671Y-78753734D01*
X131597517Y-78849865D01*
X131411179Y-78980342D01*
X131250342Y-79141179D01*
X131119865Y-79327517D01*
X131023734Y-79533673D01*
X131023730Y-79533682D01*
X130971127Y-79729999D01*
X100075500Y-79729999D01*
X100075500Y-74050000D01*
X134236835Y-74050000D01*
X134255465Y-74286714D01*
X134310895Y-74517595D01*
X134310895Y-74517597D01*
X134401757Y-74736959D01*
X134401759Y-74736962D01*
X134525820Y-74939410D01*
X134525821Y-74939413D01*
X134525824Y-74939416D01*
X134680031Y-75119969D01*
X134803716Y-75225606D01*
X134860586Y-75274178D01*
X134860588Y-75274178D01*
X135063037Y-75398240D01*
X135063040Y-75398242D01*
X135282403Y-75489104D01*
X135282404Y-75489104D01*
X135282406Y-75489105D01*
X135513289Y-75544535D01*
X135750000Y-75563165D01*
X135986711Y-75544535D01*
X136217594Y-75489105D01*
X136217596Y-75489104D01*
X136217597Y-75489104D01*
X136436959Y-75398242D01*
X136436960Y-75398241D01*
X136436963Y-75398240D01*
X136639416Y-75274176D01*
X136819969Y-75119969D01*
X136974176Y-74939416D01*
X137098240Y-74736963D01*
X137110435Y-74707523D01*
X137189104Y-74517597D01*
X137189104Y-74517596D01*
X137189105Y-74517594D01*
X137244535Y-74286711D01*
X137263165Y-74050000D01*
X140736835Y-74050000D01*
X140755465Y-74286714D01*
X140810895Y-74517595D01*
X140810895Y-74517597D01*
X140901757Y-74736959D01*
X140901759Y-74736962D01*
X141025820Y-74939410D01*
X141025821Y-74939413D01*
X141025824Y-74939416D01*
X141180031Y-75119969D01*
X141303716Y-75225606D01*
X141360586Y-75274178D01*
X141360588Y-75274178D01*
X141563037Y-75398240D01*
X141563040Y-75398242D01*
X141782403Y-75489104D01*
X141782404Y-75489104D01*
X141782406Y-75489105D01*
X142013289Y-75544535D01*
X142250000Y-75563165D01*
X142486711Y-75544535D01*
X142717594Y-75489105D01*
X142717596Y-75489104D01*
X142717597Y-75489104D01*
X142936959Y-75398242D01*
X142936960Y-75398241D01*
X142936963Y-75398240D01*
X143139416Y-75274176D01*
X143319969Y-75119969D01*
X143474176Y-74939416D01*
X143598240Y-74736963D01*
X143610435Y-74707523D01*
X143689104Y-74517597D01*
X143689104Y-74517596D01*
X143689105Y-74517594D01*
X143744535Y-74286711D01*
X143763165Y-74050000D01*
X143744535Y-73813289D01*
X143689105Y-73582406D01*
X143689104Y-73582403D01*
X143689104Y-73582402D01*
X143683966Y-73569998D01*
X147286502Y-73569998D01*
X147286502Y-73570001D01*
X147306456Y-73798081D01*
X147306457Y-73798089D01*
X147365714Y-74019238D01*
X147365718Y-74019249D01*
X147462475Y-74226745D01*
X147462477Y-74226749D01*
X147593802Y-74414300D01*
X147755700Y-74576198D01*
X147943251Y-74707523D01*
X148006384Y-74736962D01*
X148150750Y-74804281D01*
X148150752Y-74804281D01*
X148150757Y-74804284D01*
X148371913Y-74863543D01*
X148534832Y-74877796D01*
X148599998Y-74883498D01*
X148600000Y-74883498D01*
X148600002Y-74883498D01*
X148657021Y-74878509D01*
X148828087Y-74863543D01*
X149049243Y-74804284D01*
X149256749Y-74707523D01*
X149444300Y-74576198D01*
X149570498Y-74450000D01*
X151036835Y-74450000D01*
X151055465Y-74686714D01*
X151110895Y-74917595D01*
X151110895Y-74917597D01*
X151201757Y-75136959D01*
X151201759Y-75136962D01*
X151325820Y-75339410D01*
X151325821Y-75339413D01*
X151325824Y-75339416D01*
X151480031Y-75519969D01*
X151603716Y-75625606D01*
X151660586Y-75674178D01*
X151660589Y-75674179D01*
X151863037Y-75798240D01*
X151863040Y-75798242D01*
X152082403Y-75889104D01*
X152082404Y-75889104D01*
X152082406Y-75889105D01*
X152313289Y-75944535D01*
X152550000Y-75963165D01*
X152786711Y-75944535D01*
X153017594Y-75889105D01*
X153017596Y-75889104D01*
X153017597Y-75889104D01*
X153236959Y-75798242D01*
X153236960Y-75798241D01*
X153236963Y-75798240D01*
X153439416Y-75674176D01*
X153619969Y-75519969D01*
X153774176Y-75339416D01*
X153898240Y-75136963D01*
X153980068Y-74939413D01*
X153989104Y-74917597D01*
X153989104Y-74917596D01*
X153989105Y-74917594D01*
X154044535Y-74686711D01*
X154063165Y-74450000D01*
X157536835Y-74450000D01*
X157555465Y-74686714D01*
X157610895Y-74917595D01*
X157610895Y-74917597D01*
X157701757Y-75136959D01*
X157701759Y-75136962D01*
X157825820Y-75339410D01*
X157825821Y-75339413D01*
X157825824Y-75339416D01*
X157980031Y-75519969D01*
X158103716Y-75625606D01*
X158160586Y-75674178D01*
X158160589Y-75674179D01*
X158363037Y-75798240D01*
X158363040Y-75798242D01*
X158582403Y-75889104D01*
X158582404Y-75889104D01*
X158582406Y-75889105D01*
X158813289Y-75944535D01*
X159050000Y-75963165D01*
X159286711Y-75944535D01*
X159517594Y-75889105D01*
X159517596Y-75889104D01*
X159517597Y-75889104D01*
X159736959Y-75798242D01*
X159736960Y-75798241D01*
X159736963Y-75798240D01*
X159939416Y-75674176D01*
X160119969Y-75519969D01*
X160274176Y-75339416D01*
X160398240Y-75136963D01*
X160401125Y-75129999D01*
X161921127Y-75129999D01*
X161921128Y-75130000D01*
X162884314Y-75130000D01*
X162879920Y-75134394D01*
X162827259Y-75225606D01*
X162800000Y-75327339D01*
X162800000Y-75432661D01*
X162827259Y-75534394D01*
X162879920Y-75625606D01*
X162884314Y-75630000D01*
X161921128Y-75630000D01*
X161973730Y-75826317D01*
X161973734Y-75826326D01*
X162069865Y-76032482D01*
X162200342Y-76218820D01*
X162361179Y-76379657D01*
X162547517Y-76510134D01*
X162753673Y-76606265D01*
X162753682Y-76606269D01*
X162949999Y-76658872D01*
X162950000Y-76658871D01*
X162950000Y-75695686D01*
X162954394Y-75700080D01*
X163045606Y-75752741D01*
X163147339Y-75780000D01*
X163252661Y-75780000D01*
X163354394Y-75752741D01*
X163445606Y-75700080D01*
X163450000Y-75695686D01*
X163450000Y-76658872D01*
X163646317Y-76606269D01*
X163646326Y-76606265D01*
X163852482Y-76510134D01*
X164038820Y-76379657D01*
X164199657Y-76218820D01*
X164330134Y-76032482D01*
X164426265Y-75826326D01*
X164426269Y-75826317D01*
X164478872Y-75630000D01*
X163515686Y-75630000D01*
X163520080Y-75625606D01*
X163572741Y-75534394D01*
X163600000Y-75432661D01*
X163600000Y-75327339D01*
X163572741Y-75225606D01*
X163520080Y-75134394D01*
X163515686Y-75130000D01*
X164478872Y-75130000D01*
X164478872Y-75129999D01*
X164426269Y-74933682D01*
X164426265Y-74933673D01*
X164330134Y-74727517D01*
X164199657Y-74541179D01*
X164038820Y-74380342D01*
X163852482Y-74249865D01*
X163646328Y-74153734D01*
X163450000Y-74101127D01*
X163450000Y-75064314D01*
X163445606Y-75059920D01*
X163354394Y-75007259D01*
X163252661Y-74980000D01*
X163147339Y-74980000D01*
X163045606Y-75007259D01*
X162954394Y-75059920D01*
X162950000Y-75064314D01*
X162950000Y-74101127D01*
X162753671Y-74153734D01*
X162547517Y-74249865D01*
X162361179Y-74380342D01*
X162200342Y-74541179D01*
X162069865Y-74727517D01*
X161973734Y-74933673D01*
X161973730Y-74933682D01*
X161921127Y-75129999D01*
X160401125Y-75129999D01*
X160480068Y-74939413D01*
X160489104Y-74917597D01*
X160489104Y-74917596D01*
X160489105Y-74917594D01*
X160544535Y-74686711D01*
X160563165Y-74450000D01*
X160544535Y-74213289D01*
X160489105Y-73982406D01*
X160489104Y-73982403D01*
X160489104Y-73982402D01*
X160398242Y-73763040D01*
X160398240Y-73763037D01*
X160274179Y-73560589D01*
X160274178Y-73560586D01*
X160239340Y-73519797D01*
X160119969Y-73380031D01*
X160000596Y-73278076D01*
X159939413Y-73225821D01*
X159939410Y-73225820D01*
X159736962Y-73101759D01*
X159736959Y-73101757D01*
X159517596Y-73010895D01*
X159286714Y-72955465D01*
X159050000Y-72936835D01*
X158813285Y-72955465D01*
X158582404Y-73010895D01*
X158582402Y-73010895D01*
X158363040Y-73101757D01*
X158363037Y-73101759D01*
X158160589Y-73225820D01*
X158160586Y-73225821D01*
X157980031Y-73380031D01*
X157825821Y-73560586D01*
X157825820Y-73560589D01*
X157701759Y-73763037D01*
X157701757Y-73763040D01*
X157610895Y-73982402D01*
X157610895Y-73982404D01*
X157555465Y-74213285D01*
X157536835Y-74450000D01*
X154063165Y-74450000D01*
X154044535Y-74213289D01*
X153989105Y-73982406D01*
X153989104Y-73982403D01*
X153989104Y-73982402D01*
X153898242Y-73763040D01*
X153898240Y-73763037D01*
X153774179Y-73560589D01*
X153774178Y-73560586D01*
X153739340Y-73519797D01*
X153619969Y-73380031D01*
X153500596Y-73278076D01*
X153439413Y-73225821D01*
X153439410Y-73225820D01*
X153236962Y-73101759D01*
X153236959Y-73101757D01*
X153017596Y-73010895D01*
X152786714Y-72955465D01*
X152550000Y-72936835D01*
X152313285Y-72955465D01*
X152082404Y-73010895D01*
X152082402Y-73010895D01*
X151863040Y-73101757D01*
X151863037Y-73101759D01*
X151660589Y-73225820D01*
X151660586Y-73225821D01*
X151480031Y-73380031D01*
X151325821Y-73560586D01*
X151325820Y-73560589D01*
X151201759Y-73763037D01*
X151201757Y-73763040D01*
X151110895Y-73982402D01*
X151110895Y-73982404D01*
X151055465Y-74213285D01*
X151036835Y-74450000D01*
X149570498Y-74450000D01*
X149606198Y-74414300D01*
X149737523Y-74226749D01*
X149834284Y-74019243D01*
X149893543Y-73798087D01*
X149913498Y-73570000D01*
X149912674Y-73560586D01*
X149893543Y-73341918D01*
X149893543Y-73341913D01*
X149834284Y-73120757D01*
X149737523Y-72913251D01*
X149606198Y-72725700D01*
X149444300Y-72563802D01*
X149256749Y-72432477D01*
X149256745Y-72432475D01*
X149049249Y-72335718D01*
X149049238Y-72335714D01*
X148828089Y-72276457D01*
X148828081Y-72276456D01*
X148600002Y-72256502D01*
X148599998Y-72256502D01*
X148371918Y-72276456D01*
X148371910Y-72276457D01*
X148150761Y-72335714D01*
X148150750Y-72335718D01*
X147943254Y-72432475D01*
X147943252Y-72432476D01*
X147943251Y-72432477D01*
X147755700Y-72563802D01*
X147755698Y-72563803D01*
X147755695Y-72563806D01*
X147593806Y-72725695D01*
X147462476Y-72913252D01*
X147462475Y-72913254D01*
X147365718Y-73120750D01*
X147365714Y-73120761D01*
X147306457Y-73341910D01*
X147306456Y-73341918D01*
X147286502Y-73569998D01*
X143683966Y-73569998D01*
X143598242Y-73363040D01*
X143598240Y-73363037D01*
X143474179Y-73160589D01*
X143474178Y-73160586D01*
X143439340Y-73119797D01*
X143319969Y-72980031D01*
X143200596Y-72878076D01*
X143139413Y-72825821D01*
X143139410Y-72825820D01*
X142936962Y-72701759D01*
X142936959Y-72701757D01*
X142717596Y-72610895D01*
X142486714Y-72555465D01*
X142250000Y-72536835D01*
X142013285Y-72555465D01*
X141782404Y-72610895D01*
X141782402Y-72610895D01*
X141563040Y-72701757D01*
X141563037Y-72701759D01*
X141360589Y-72825820D01*
X141360586Y-72825821D01*
X141180031Y-72980031D01*
X141025821Y-73160586D01*
X141025820Y-73160589D01*
X140901759Y-73363037D01*
X140901757Y-73363040D01*
X140810895Y-73582402D01*
X140810895Y-73582404D01*
X140755465Y-73813285D01*
X140736835Y-74050000D01*
X137263165Y-74050000D01*
X137244535Y-73813289D01*
X137189105Y-73582406D01*
X137189104Y-73582403D01*
X137189104Y-73582402D01*
X137098242Y-73363040D01*
X137098240Y-73363037D01*
X136974179Y-73160589D01*
X136974178Y-73160586D01*
X136939340Y-73119797D01*
X136819969Y-72980031D01*
X136700596Y-72878076D01*
X136639413Y-72825821D01*
X136639410Y-72825820D01*
X136436962Y-72701759D01*
X136436959Y-72701757D01*
X136217596Y-72610895D01*
X135986714Y-72555465D01*
X135750000Y-72536835D01*
X135513285Y-72555465D01*
X135282404Y-72610895D01*
X135282402Y-72610895D01*
X135063040Y-72701757D01*
X135063037Y-72701759D01*
X134860589Y-72825820D01*
X134860586Y-72825821D01*
X134680031Y-72980031D01*
X134525821Y-73160586D01*
X134525820Y-73160589D01*
X134401759Y-73363037D01*
X134401757Y-73363040D01*
X134310895Y-73582402D01*
X134310895Y-73582404D01*
X134255465Y-73813285D01*
X134236835Y-74050000D01*
X100075500Y-74050000D01*
X100075500Y-69819998D01*
X130936502Y-69819998D01*
X130936502Y-69820001D01*
X130956456Y-70048081D01*
X130956457Y-70048089D01*
X131015714Y-70269238D01*
X131015718Y-70269249D01*
X131095067Y-70439413D01*
X131112477Y-70476749D01*
X131243802Y-70664300D01*
X131405700Y-70826198D01*
X131593251Y-70957523D01*
X131718091Y-71015736D01*
X131800750Y-71054281D01*
X131800752Y-71054281D01*
X131800757Y-71054284D01*
X132021913Y-71113543D01*
X132184832Y-71127796D01*
X132249998Y-71133498D01*
X132250000Y-71133498D01*
X132250002Y-71133498D01*
X132307021Y-71128509D01*
X132478087Y-71113543D01*
X132699243Y-71054284D01*
X132906749Y-70957523D01*
X133094300Y-70826198D01*
X133256198Y-70664300D01*
X133387523Y-70476749D01*
X133484284Y-70269243D01*
X133543543Y-70048087D01*
X133563498Y-69820000D01*
X133543543Y-69591913D01*
X133532312Y-69550000D01*
X134236835Y-69550000D01*
X134255465Y-69786714D01*
X134310895Y-70017595D01*
X134310895Y-70017597D01*
X134401757Y-70236959D01*
X134401759Y-70236962D01*
X134525820Y-70439410D01*
X134525821Y-70439413D01*
X134525824Y-70439416D01*
X134680031Y-70619969D01*
X134731941Y-70664304D01*
X134860586Y-70774178D01*
X134860589Y-70774179D01*
X135063037Y-70898240D01*
X135063040Y-70898242D01*
X135282403Y-70989104D01*
X135282404Y-70989104D01*
X135282406Y-70989105D01*
X135513289Y-71044535D01*
X135750000Y-71063165D01*
X135986711Y-71044535D01*
X136217594Y-70989105D01*
X136217596Y-70989104D01*
X136217597Y-70989104D01*
X136436959Y-70898242D01*
X136436960Y-70898241D01*
X136436963Y-70898240D01*
X136639416Y-70774176D01*
X136819969Y-70619969D01*
X136974176Y-70439416D01*
X137098240Y-70236963D01*
X137176475Y-70048087D01*
X137189104Y-70017597D01*
X137189104Y-70017596D01*
X137189105Y-70017594D01*
X137244535Y-69786711D01*
X137263165Y-69550000D01*
X140736835Y-69550000D01*
X140755465Y-69786714D01*
X140810895Y-70017595D01*
X140810895Y-70017597D01*
X140901757Y-70236959D01*
X140901759Y-70236962D01*
X141025820Y-70439410D01*
X141025821Y-70439413D01*
X141025824Y-70439416D01*
X141180031Y-70619969D01*
X141231941Y-70664304D01*
X141360586Y-70774178D01*
X141360589Y-70774179D01*
X141563037Y-70898240D01*
X141563040Y-70898242D01*
X141782403Y-70989104D01*
X141782404Y-70989104D01*
X141782406Y-70989105D01*
X142013289Y-71044535D01*
X142250000Y-71063165D01*
X142486711Y-71044535D01*
X142717594Y-70989105D01*
X142717596Y-70989104D01*
X142717597Y-70989104D01*
X142936959Y-70898242D01*
X142936960Y-70898241D01*
X142936963Y-70898240D01*
X143139416Y-70774176D01*
X143319969Y-70619969D01*
X143474176Y-70439416D01*
X143598240Y-70236963D01*
X143676475Y-70048087D01*
X143689104Y-70017597D01*
X143689104Y-70017596D01*
X143689105Y-70017594D01*
X143744535Y-69786711D01*
X143763165Y-69550000D01*
X143744535Y-69313289D01*
X143689105Y-69082406D01*
X143689104Y-69082403D01*
X143689104Y-69082402D01*
X143598242Y-68863040D01*
X143598240Y-68863037D01*
X143487592Y-68682477D01*
X143474178Y-68660588D01*
X143474178Y-68660586D01*
X143410234Y-68585718D01*
X143319969Y-68480031D01*
X143200596Y-68378076D01*
X143139413Y-68325821D01*
X143139410Y-68325820D01*
X142936962Y-68201759D01*
X142936959Y-68201757D01*
X142932717Y-68200000D01*
X151036835Y-68200000D01*
X151055465Y-68436714D01*
X151110895Y-68667595D01*
X151110895Y-68667597D01*
X151201757Y-68886959D01*
X151201759Y-68886962D01*
X151325820Y-69089410D01*
X151325821Y-69089413D01*
X151325824Y-69089416D01*
X151480031Y-69269969D01*
X151598043Y-69370761D01*
X151660586Y-69424178D01*
X151660589Y-69424179D01*
X151863037Y-69548240D01*
X151863040Y-69548242D01*
X152082403Y-69639104D01*
X152082404Y-69639104D01*
X152082406Y-69639105D01*
X152313289Y-69694535D01*
X152550000Y-69713165D01*
X152786711Y-69694535D01*
X153017594Y-69639105D01*
X153017596Y-69639104D01*
X153017597Y-69639104D01*
X153236959Y-69548242D01*
X153236960Y-69548241D01*
X153236963Y-69548240D01*
X153439416Y-69424176D01*
X153619969Y-69269969D01*
X153774176Y-69089416D01*
X153898240Y-68886963D01*
X153908151Y-68863037D01*
X153989104Y-68667597D01*
X153989104Y-68667596D01*
X153989105Y-68667594D01*
X154044535Y-68436711D01*
X154063165Y-68200000D01*
X157536835Y-68200000D01*
X157555465Y-68436714D01*
X157610895Y-68667595D01*
X157610895Y-68667597D01*
X157701757Y-68886959D01*
X157701759Y-68886962D01*
X157825820Y-69089410D01*
X157825821Y-69089413D01*
X157825824Y-69089416D01*
X157980031Y-69269969D01*
X158098043Y-69370761D01*
X158160586Y-69424178D01*
X158160589Y-69424179D01*
X158363037Y-69548240D01*
X158363040Y-69548242D01*
X158582403Y-69639104D01*
X158582404Y-69639104D01*
X158582406Y-69639105D01*
X158813289Y-69694535D01*
X159050000Y-69713165D01*
X159286711Y-69694535D01*
X159517594Y-69639105D01*
X159517596Y-69639104D01*
X159517597Y-69639104D01*
X159736959Y-69548242D01*
X159736960Y-69548241D01*
X159736963Y-69548240D01*
X159939416Y-69424176D01*
X160119969Y-69269969D01*
X160274176Y-69089416D01*
X160398240Y-68886963D01*
X160408151Y-68863037D01*
X160489104Y-68667597D01*
X160489104Y-68667596D01*
X160489105Y-68667594D01*
X160544535Y-68436711D01*
X160563165Y-68200000D01*
X160544535Y-67963289D01*
X160489105Y-67732406D01*
X160489104Y-67732403D01*
X160489104Y-67732402D01*
X160398242Y-67513040D01*
X160398240Y-67513037D01*
X160274179Y-67310589D01*
X160274178Y-67310586D01*
X160239340Y-67269797D01*
X160119969Y-67130031D01*
X160000596Y-67028076D01*
X159939413Y-66975821D01*
X159939410Y-66975820D01*
X159736962Y-66851759D01*
X159736959Y-66851757D01*
X159517596Y-66760895D01*
X159286714Y-66705465D01*
X159050000Y-66686835D01*
X158813285Y-66705465D01*
X158582404Y-66760895D01*
X158582402Y-66760895D01*
X158363040Y-66851757D01*
X158363037Y-66851759D01*
X158160589Y-66975820D01*
X158160586Y-66975821D01*
X157980031Y-67130031D01*
X157825821Y-67310586D01*
X157825820Y-67310589D01*
X157701759Y-67513037D01*
X157701757Y-67513040D01*
X157610895Y-67732402D01*
X157610895Y-67732404D01*
X157555465Y-67963285D01*
X157536835Y-68200000D01*
X154063165Y-68200000D01*
X154044535Y-67963289D01*
X153989105Y-67732406D01*
X153989104Y-67732403D01*
X153989104Y-67732402D01*
X153898242Y-67513040D01*
X153898240Y-67513037D01*
X153774179Y-67310589D01*
X153774178Y-67310586D01*
X153739340Y-67269797D01*
X153619969Y-67130031D01*
X153500596Y-67028076D01*
X153439413Y-66975821D01*
X153439410Y-66975820D01*
X153236962Y-66851759D01*
X153236959Y-66851757D01*
X153017596Y-66760895D01*
X152786714Y-66705465D01*
X152550000Y-66686835D01*
X152313285Y-66705465D01*
X152082404Y-66760895D01*
X152082402Y-66760895D01*
X151863040Y-66851757D01*
X151863037Y-66851759D01*
X151660589Y-66975820D01*
X151660586Y-66975821D01*
X151480031Y-67130031D01*
X151325821Y-67310586D01*
X151325820Y-67310589D01*
X151201759Y-67513037D01*
X151201757Y-67513040D01*
X151110895Y-67732402D01*
X151110895Y-67732404D01*
X151055465Y-67963285D01*
X151036835Y-68200000D01*
X142932717Y-68200000D01*
X142717596Y-68110895D01*
X142486714Y-68055465D01*
X142250000Y-68036835D01*
X142013285Y-68055465D01*
X141782404Y-68110895D01*
X141782402Y-68110895D01*
X141563040Y-68201757D01*
X141563037Y-68201759D01*
X141360589Y-68325820D01*
X141360586Y-68325821D01*
X141180031Y-68480031D01*
X141025821Y-68660586D01*
X141025820Y-68660589D01*
X140901759Y-68863037D01*
X140901757Y-68863040D01*
X140810895Y-69082402D01*
X140810895Y-69082404D01*
X140755465Y-69313285D01*
X140736835Y-69550000D01*
X137263165Y-69550000D01*
X137244535Y-69313289D01*
X137189105Y-69082406D01*
X137189104Y-69082403D01*
X137189104Y-69082402D01*
X137098242Y-68863040D01*
X137098240Y-68863037D01*
X136987592Y-68682477D01*
X136974178Y-68660588D01*
X136974178Y-68660586D01*
X136910234Y-68585718D01*
X136819969Y-68480031D01*
X136700596Y-68378076D01*
X136639413Y-68325821D01*
X136639410Y-68325820D01*
X136436962Y-68201759D01*
X136436959Y-68201757D01*
X136217596Y-68110895D01*
X135986714Y-68055465D01*
X135750000Y-68036835D01*
X135513285Y-68055465D01*
X135282404Y-68110895D01*
X135282402Y-68110895D01*
X135063040Y-68201757D01*
X135063037Y-68201759D01*
X134860589Y-68325820D01*
X134860586Y-68325821D01*
X134680031Y-68480031D01*
X134525821Y-68660586D01*
X134525820Y-68660589D01*
X134401759Y-68863037D01*
X134401757Y-68863040D01*
X134310895Y-69082402D01*
X134310895Y-69082404D01*
X134255465Y-69313285D01*
X134236835Y-69550000D01*
X133532312Y-69550000D01*
X133484284Y-69370757D01*
X133387523Y-69163251D01*
X133256198Y-68975700D01*
X133094300Y-68813802D01*
X132906749Y-68682477D01*
X132874839Y-68667597D01*
X132699249Y-68585718D01*
X132699238Y-68585714D01*
X132478089Y-68526457D01*
X132478081Y-68526456D01*
X132250002Y-68506502D01*
X132249998Y-68506502D01*
X132021918Y-68526456D01*
X132021910Y-68526457D01*
X131800761Y-68585714D01*
X131800750Y-68585718D01*
X131593254Y-68682475D01*
X131593252Y-68682476D01*
X131593251Y-68682477D01*
X131405700Y-68813802D01*
X131405698Y-68813803D01*
X131405695Y-68813806D01*
X131243806Y-68975695D01*
X131112476Y-69163252D01*
X131112475Y-69163254D01*
X131015718Y-69370750D01*
X131015714Y-69370761D01*
X130956457Y-69591910D01*
X130956456Y-69591918D01*
X130936502Y-69819998D01*
X100075500Y-69819998D01*
X100075500Y-65899998D01*
X130536502Y-65899998D01*
X130536502Y-65900001D01*
X130556456Y-66128081D01*
X130556457Y-66128089D01*
X130615714Y-66349238D01*
X130615718Y-66349249D01*
X130692329Y-66513542D01*
X130712477Y-66556749D01*
X130843802Y-66744300D01*
X131005700Y-66906198D01*
X131193251Y-67037523D01*
X131318091Y-67095736D01*
X131400750Y-67134281D01*
X131400752Y-67134281D01*
X131400757Y-67134284D01*
X131621913Y-67193543D01*
X131784832Y-67207796D01*
X131849998Y-67213498D01*
X131850000Y-67213498D01*
X131850002Y-67213498D01*
X131907021Y-67208509D01*
X132078087Y-67193543D01*
X132299243Y-67134284D01*
X132506749Y-67037523D01*
X132694300Y-66906198D01*
X132856198Y-66744300D01*
X132987523Y-66556749D01*
X133084284Y-66349243D01*
X133143543Y-66128087D01*
X133163498Y-65900000D01*
X133163498Y-65899998D01*
X140696502Y-65899998D01*
X140696502Y-65900001D01*
X140716456Y-66128081D01*
X140716457Y-66128089D01*
X140775714Y-66349238D01*
X140775718Y-66349249D01*
X140852329Y-66513542D01*
X140872477Y-66556749D01*
X141003802Y-66744300D01*
X141165700Y-66906198D01*
X141353251Y-67037523D01*
X141478091Y-67095736D01*
X141560750Y-67134281D01*
X141560752Y-67134281D01*
X141560757Y-67134284D01*
X141781913Y-67193543D01*
X141944832Y-67207796D01*
X142009998Y-67213498D01*
X142010000Y-67213498D01*
X142010002Y-67213498D01*
X142067021Y-67208509D01*
X142238087Y-67193543D01*
X142459243Y-67134284D01*
X142666749Y-67037523D01*
X142854300Y-66906198D01*
X143016198Y-66744300D01*
X143147523Y-66556749D01*
X143244284Y-66349243D01*
X143303543Y-66128087D01*
X143323498Y-65900000D01*
X143321463Y-65876745D01*
X143303543Y-65671918D01*
X143303543Y-65671913D01*
X143244284Y-65450757D01*
X143147523Y-65243251D01*
X143131241Y-65219998D01*
X161886502Y-65219998D01*
X161886502Y-65220001D01*
X161906456Y-65448081D01*
X161906457Y-65448089D01*
X161965714Y-65669238D01*
X161965718Y-65669249D01*
X161966963Y-65671918D01*
X162062477Y-65876749D01*
X162193802Y-66064300D01*
X162355700Y-66226198D01*
X162543251Y-66357523D01*
X162668091Y-66415736D01*
X162750750Y-66454281D01*
X162750752Y-66454281D01*
X162750757Y-66454284D01*
X162971913Y-66513543D01*
X163134832Y-66527796D01*
X163199998Y-66533498D01*
X163200000Y-66533498D01*
X163200002Y-66533498D01*
X163257021Y-66528509D01*
X163428087Y-66513543D01*
X163649243Y-66454284D01*
X163856749Y-66357523D01*
X164044300Y-66226198D01*
X164206198Y-66064300D01*
X164337523Y-65876749D01*
X164434284Y-65669243D01*
X164493543Y-65448087D01*
X164513498Y-65220000D01*
X164493543Y-64991913D01*
X164434284Y-64770757D01*
X164337523Y-64563251D01*
X164206198Y-64375700D01*
X164044300Y-64213802D01*
X163856749Y-64082477D01*
X163856745Y-64082475D01*
X163649249Y-63985718D01*
X163649238Y-63985714D01*
X163428089Y-63926457D01*
X163428081Y-63926456D01*
X163200002Y-63906502D01*
X163199998Y-63906502D01*
X162971918Y-63926456D01*
X162971910Y-63926457D01*
X162750761Y-63985714D01*
X162750750Y-63985718D01*
X162543254Y-64082475D01*
X162543252Y-64082476D01*
X162543251Y-64082477D01*
X162355700Y-64213802D01*
X162355698Y-64213803D01*
X162355695Y-64213806D01*
X162193806Y-64375695D01*
X162193803Y-64375698D01*
X162193802Y-64375700D01*
X162185916Y-64386963D01*
X162062476Y-64563252D01*
X162062475Y-64563254D01*
X161965718Y-64770750D01*
X161965714Y-64770761D01*
X161906457Y-64991910D01*
X161906456Y-64991918D01*
X161886502Y-65219998D01*
X143131241Y-65219998D01*
X143016198Y-65055700D01*
X142854300Y-64893802D01*
X142666749Y-64762477D01*
X142666745Y-64762475D01*
X142459249Y-64665718D01*
X142459238Y-64665714D01*
X142238089Y-64606457D01*
X142238081Y-64606456D01*
X142010002Y-64586502D01*
X142009998Y-64586502D01*
X141781918Y-64606456D01*
X141781910Y-64606457D01*
X141560761Y-64665714D01*
X141560750Y-64665718D01*
X141353254Y-64762475D01*
X141353252Y-64762476D01*
X141342551Y-64769969D01*
X141165700Y-64893802D01*
X141165698Y-64893803D01*
X141165695Y-64893806D01*
X141003806Y-65055695D01*
X140872476Y-65243252D01*
X140872475Y-65243254D01*
X140775718Y-65450750D01*
X140775714Y-65450761D01*
X140716457Y-65671910D01*
X140716456Y-65671918D01*
X140696502Y-65899998D01*
X133163498Y-65899998D01*
X133161463Y-65876745D01*
X133143543Y-65671918D01*
X133143543Y-65671913D01*
X133084284Y-65450757D01*
X132987523Y-65243251D01*
X132856198Y-65055700D01*
X132694300Y-64893802D01*
X132506749Y-64762477D01*
X132506745Y-64762475D01*
X132299249Y-64665718D01*
X132299238Y-64665714D01*
X132078089Y-64606457D01*
X132078081Y-64606456D01*
X131850002Y-64586502D01*
X131849998Y-64586502D01*
X131621918Y-64606456D01*
X131621910Y-64606457D01*
X131400761Y-64665714D01*
X131400750Y-64665718D01*
X131193254Y-64762475D01*
X131193252Y-64762476D01*
X131182551Y-64769969D01*
X131005700Y-64893802D01*
X131005698Y-64893803D01*
X131005695Y-64893806D01*
X130843806Y-65055695D01*
X130712476Y-65243252D01*
X130712475Y-65243254D01*
X130615718Y-65450750D01*
X130615714Y-65450761D01*
X130556457Y-65671910D01*
X130556456Y-65671918D01*
X130536502Y-65899998D01*
X100075500Y-65899998D01*
X100075500Y-63700000D01*
X151036835Y-63700000D01*
X151055465Y-63936714D01*
X151110895Y-64167595D01*
X151110895Y-64167597D01*
X151201757Y-64386959D01*
X151201759Y-64386962D01*
X151325820Y-64589410D01*
X151325821Y-64589413D01*
X151340378Y-64606457D01*
X151480031Y-64769969D01*
X151619797Y-64889340D01*
X151660586Y-64924178D01*
X151660589Y-64924179D01*
X151863037Y-65048240D01*
X151863040Y-65048242D01*
X152082403Y-65139104D01*
X152082404Y-65139104D01*
X152082406Y-65139105D01*
X152313289Y-65194535D01*
X152550000Y-65213165D01*
X152786711Y-65194535D01*
X153017594Y-65139105D01*
X153017596Y-65139104D01*
X153017597Y-65139104D01*
X153236959Y-65048242D01*
X153236960Y-65048241D01*
X153236963Y-65048240D01*
X153439416Y-64924176D01*
X153619969Y-64769969D01*
X153774176Y-64589416D01*
X153898240Y-64386963D01*
X153902906Y-64375700D01*
X153989104Y-64167597D01*
X153989104Y-64167596D01*
X153989105Y-64167594D01*
X154044535Y-63936711D01*
X154063165Y-63700000D01*
X157536835Y-63700000D01*
X157555465Y-63936714D01*
X157610895Y-64167595D01*
X157610895Y-64167597D01*
X157701757Y-64386959D01*
X157701759Y-64386962D01*
X157825820Y-64589410D01*
X157825821Y-64589413D01*
X157840378Y-64606457D01*
X157980031Y-64769969D01*
X158119797Y-64889340D01*
X158160586Y-64924178D01*
X158160589Y-64924179D01*
X158363037Y-65048240D01*
X158363040Y-65048242D01*
X158582403Y-65139104D01*
X158582404Y-65139104D01*
X158582406Y-65139105D01*
X158813289Y-65194535D01*
X159050000Y-65213165D01*
X159286711Y-65194535D01*
X159517594Y-65139105D01*
X159517596Y-65139104D01*
X159517597Y-65139104D01*
X159736959Y-65048242D01*
X159736960Y-65048241D01*
X159736963Y-65048240D01*
X159939416Y-64924176D01*
X160119969Y-64769969D01*
X160274176Y-64589416D01*
X160398240Y-64386963D01*
X160402906Y-64375700D01*
X160489104Y-64167597D01*
X160489104Y-64167596D01*
X160489105Y-64167594D01*
X160544535Y-63936711D01*
X160563165Y-63700000D01*
X160544535Y-63463289D01*
X160489105Y-63232406D01*
X160489104Y-63232403D01*
X160489104Y-63232402D01*
X160398242Y-63013040D01*
X160398240Y-63013037D01*
X160274179Y-62810589D01*
X160274178Y-62810586D01*
X160239340Y-62769797D01*
X160119969Y-62630031D01*
X159997703Y-62525606D01*
X159939413Y-62475821D01*
X159939410Y-62475820D01*
X159736962Y-62351759D01*
X159736959Y-62351757D01*
X159517596Y-62260895D01*
X159286714Y-62205465D01*
X159050000Y-62186835D01*
X158813285Y-62205465D01*
X158582404Y-62260895D01*
X158582402Y-62260895D01*
X158363040Y-62351757D01*
X158363037Y-62351759D01*
X158160589Y-62475820D01*
X158160586Y-62475821D01*
X157980031Y-62630031D01*
X157825821Y-62810586D01*
X157825820Y-62810589D01*
X157701759Y-63013037D01*
X157701757Y-63013040D01*
X157610895Y-63232402D01*
X157610895Y-63232404D01*
X157555465Y-63463285D01*
X157536835Y-63700000D01*
X154063165Y-63700000D01*
X154044535Y-63463289D01*
X153989105Y-63232406D01*
X153989104Y-63232403D01*
X153989104Y-63232402D01*
X153898242Y-63013040D01*
X153898240Y-63013037D01*
X153774179Y-62810589D01*
X153774178Y-62810586D01*
X153739340Y-62769797D01*
X153619969Y-62630031D01*
X153497703Y-62525606D01*
X153439413Y-62475821D01*
X153439410Y-62475820D01*
X153236962Y-62351759D01*
X153236959Y-62351757D01*
X153017596Y-62260895D01*
X152786714Y-62205465D01*
X152550000Y-62186835D01*
X152313285Y-62205465D01*
X152082404Y-62260895D01*
X152082402Y-62260895D01*
X151863040Y-62351757D01*
X151863037Y-62351759D01*
X151660589Y-62475820D01*
X151660586Y-62475821D01*
X151480031Y-62630031D01*
X151325821Y-62810586D01*
X151325820Y-62810589D01*
X151201759Y-63013037D01*
X151201757Y-63013040D01*
X151110895Y-63232402D01*
X151110895Y-63232404D01*
X151055465Y-63463285D01*
X151036835Y-63700000D01*
X100075500Y-63700000D01*
X100075500Y-62029999D01*
X161971127Y-62029999D01*
X161971128Y-62030000D01*
X162934314Y-62030000D01*
X162929920Y-62034394D01*
X162877259Y-62125606D01*
X162850000Y-62227339D01*
X162850000Y-62332661D01*
X162877259Y-62434394D01*
X162929920Y-62525606D01*
X162934314Y-62530000D01*
X161971128Y-62530000D01*
X162023730Y-62726317D01*
X162023734Y-62726326D01*
X162119865Y-62932482D01*
X162250342Y-63118820D01*
X162411179Y-63279657D01*
X162597517Y-63410134D01*
X162803673Y-63506265D01*
X162803682Y-63506269D01*
X162999999Y-63558872D01*
X163000000Y-63558871D01*
X163000000Y-62595686D01*
X163004394Y-62600080D01*
X163095606Y-62652741D01*
X163197339Y-62680000D01*
X163302661Y-62680000D01*
X163404394Y-62652741D01*
X163495606Y-62600080D01*
X163500000Y-62595686D01*
X163500000Y-63558872D01*
X163696317Y-63506269D01*
X163696326Y-63506265D01*
X163902482Y-63410134D01*
X164088820Y-63279657D01*
X164249657Y-63118820D01*
X164380134Y-62932482D01*
X164476265Y-62726326D01*
X164476269Y-62726317D01*
X164528872Y-62530000D01*
X163565686Y-62530000D01*
X163570080Y-62525606D01*
X163622741Y-62434394D01*
X163650000Y-62332661D01*
X163650000Y-62227339D01*
X163622741Y-62125606D01*
X163570080Y-62034394D01*
X163565686Y-62030000D01*
X164528872Y-62030000D01*
X164528872Y-62029999D01*
X164476269Y-61833682D01*
X164476265Y-61833673D01*
X164380134Y-61627517D01*
X164249657Y-61441179D01*
X164088820Y-61280342D01*
X163902482Y-61149865D01*
X163696328Y-61053734D01*
X163500000Y-61001127D01*
X163500000Y-61964314D01*
X163495606Y-61959920D01*
X163404394Y-61907259D01*
X163302661Y-61880000D01*
X163197339Y-61880000D01*
X163095606Y-61907259D01*
X163004394Y-61959920D01*
X163000000Y-61964314D01*
X163000000Y-61001127D01*
X162803671Y-61053734D01*
X162597517Y-61149865D01*
X162411179Y-61280342D01*
X162250342Y-61441179D01*
X162119865Y-61627517D01*
X162023734Y-61833673D01*
X162023730Y-61833682D01*
X161971127Y-62029999D01*
X100075500Y-62029999D01*
X100075500Y-59302155D01*
X132110000Y-59302155D01*
X132110000Y-60000000D01*
X133134722Y-60000000D01*
X133090667Y-60076306D01*
X133060000Y-60190756D01*
X133060000Y-60309244D01*
X133090667Y-60423694D01*
X133134722Y-60500000D01*
X132110000Y-60500000D01*
X132110000Y-61197844D01*
X132116401Y-61257372D01*
X132116403Y-61257379D01*
X132166645Y-61392086D01*
X132166649Y-61392093D01*
X132252809Y-61507187D01*
X132252812Y-61507190D01*
X132367906Y-61593350D01*
X132367913Y-61593354D01*
X132502620Y-61643596D01*
X132502627Y-61643598D01*
X132562155Y-61649999D01*
X132562172Y-61650000D01*
X133260000Y-61650000D01*
X133260000Y-60625277D01*
X133336306Y-60669333D01*
X133450756Y-60700000D01*
X133569244Y-60700000D01*
X133683694Y-60669333D01*
X133760000Y-60625277D01*
X133760000Y-61650000D01*
X134457828Y-61650000D01*
X134457844Y-61649999D01*
X134517372Y-61643598D01*
X134517379Y-61643596D01*
X134652086Y-61593354D01*
X134652093Y-61593350D01*
X134767187Y-61507190D01*
X134767190Y-61507187D01*
X134853350Y-61392093D01*
X134853355Y-61392084D01*
X134878940Y-61323486D01*
X134920810Y-61267552D01*
X134986274Y-61243134D01*
X135054547Y-61257985D01*
X135086349Y-61282832D01*
X135092780Y-61289818D01*
X135276983Y-61433190D01*
X135276985Y-61433191D01*
X135276988Y-61433193D01*
X135291745Y-61441179D01*
X135482273Y-61544287D01*
X135596914Y-61583643D01*
X135703045Y-61620079D01*
X135703047Y-61620079D01*
X135703049Y-61620080D01*
X135933288Y-61658500D01*
X135933289Y-61658500D01*
X136166711Y-61658500D01*
X136166712Y-61658500D01*
X136396951Y-61620080D01*
X136617727Y-61544287D01*
X136823017Y-61433190D01*
X137007220Y-61289818D01*
X137165314Y-61118083D01*
X137292984Y-60922669D01*
X137386749Y-60708907D01*
X137444051Y-60482626D01*
X137463327Y-60250000D01*
X137461068Y-60222740D01*
X137444051Y-60017377D01*
X137444051Y-60017374D01*
X137386749Y-59791093D01*
X137292984Y-59577331D01*
X137165314Y-59381917D01*
X137165313Y-59381915D01*
X137007223Y-59210185D01*
X137007222Y-59210184D01*
X137007220Y-59210182D01*
X136823017Y-59066810D01*
X136823015Y-59066809D01*
X136823014Y-59066808D01*
X136823011Y-59066806D01*
X136617733Y-58955716D01*
X136617730Y-58955715D01*
X136617727Y-58955713D01*
X136617721Y-58955711D01*
X136617719Y-58955710D01*
X136396954Y-58879920D01*
X136217650Y-58850000D01*
X136166712Y-58841500D01*
X135933288Y-58841500D01*
X135887240Y-58849184D01*
X135703045Y-58879920D01*
X135482280Y-58955710D01*
X135482266Y-58955716D01*
X135276988Y-59066806D01*
X135276985Y-59066808D01*
X135092781Y-59210181D01*
X135092776Y-59210185D01*
X135086346Y-59217170D01*
X135026457Y-59253157D01*
X134956619Y-59251052D01*
X134899005Y-59211524D01*
X134878940Y-59176513D01*
X134853355Y-59107915D01*
X134853350Y-59107906D01*
X134767190Y-58992812D01*
X134767187Y-58992809D01*
X134652093Y-58906649D01*
X134652086Y-58906645D01*
X134517379Y-58856403D01*
X134517372Y-58856401D01*
X134457844Y-58850000D01*
X133760000Y-58850000D01*
X133760000Y-59874722D01*
X133683694Y-59830667D01*
X133569244Y-59800000D01*
X133450756Y-59800000D01*
X133336306Y-59830667D01*
X133260000Y-59874722D01*
X133260000Y-58850000D01*
X132562155Y-58850000D01*
X132502627Y-58856401D01*
X132502620Y-58856403D01*
X132367913Y-58906645D01*
X132367906Y-58906649D01*
X132252812Y-58992809D01*
X132252809Y-58992812D01*
X132166649Y-59107906D01*
X132166645Y-59107913D01*
X132116403Y-59242620D01*
X132116401Y-59242627D01*
X132110000Y-59302155D01*
X100075500Y-59302155D01*
X100075500Y-56693084D01*
X140066500Y-56693084D01*
X140066500Y-56906915D01*
X140099951Y-57118117D01*
X140166026Y-57321480D01*
X140166027Y-57321483D01*
X140263106Y-57512009D01*
X140388794Y-57685004D01*
X140388796Y-57685006D01*
X140520893Y-57817103D01*
X140554378Y-57878426D01*
X140549394Y-57948118D01*
X140507522Y-58004051D01*
X140498309Y-58010322D01*
X140351351Y-58100967D01*
X140351347Y-58100970D01*
X140225971Y-58226346D01*
X140132886Y-58377259D01*
X140132884Y-58377264D01*
X140077113Y-58545572D01*
X140066500Y-58649447D01*
X140066500Y-59950537D01*
X140066501Y-59950553D01*
X140077113Y-60054427D01*
X140132884Y-60222735D01*
X140132886Y-60222740D01*
X140168142Y-60279898D01*
X140225970Y-60373652D01*
X140351348Y-60499030D01*
X140502262Y-60592115D01*
X140670574Y-60647887D01*
X140774455Y-60658500D01*
X142325544Y-60658499D01*
X142429426Y-60647887D01*
X142597738Y-60592115D01*
X142748652Y-60499030D01*
X142874030Y-60373652D01*
X142967115Y-60222738D01*
X143022887Y-60054426D01*
X143033500Y-59950545D01*
X143033499Y-58649456D01*
X143022887Y-58545574D01*
X142967115Y-58377262D01*
X142874030Y-58226348D01*
X142748652Y-58100970D01*
X142748648Y-58100967D01*
X142601690Y-58010322D01*
X142554965Y-57958374D01*
X142543744Y-57889412D01*
X142571587Y-57825330D01*
X142579084Y-57817125D01*
X142711206Y-57685004D01*
X142836894Y-57512009D01*
X142868489Y-57450000D01*
X150936835Y-57450000D01*
X150955465Y-57686714D01*
X151010895Y-57917595D01*
X151010895Y-57917597D01*
X151101757Y-58136959D01*
X151101759Y-58136962D01*
X151225820Y-58339410D01*
X151225821Y-58339413D01*
X151258149Y-58377264D01*
X151380031Y-58519969D01*
X151410011Y-58545574D01*
X151560586Y-58674178D01*
X151560589Y-58674179D01*
X151763037Y-58798240D01*
X151763040Y-58798242D01*
X151982403Y-58889104D01*
X151982404Y-58889104D01*
X151982406Y-58889105D01*
X152213289Y-58944535D01*
X152450000Y-58963165D01*
X152686711Y-58944535D01*
X152917594Y-58889105D01*
X152917596Y-58889104D01*
X152917597Y-58889104D01*
X153136959Y-58798242D01*
X153136960Y-58798241D01*
X153136963Y-58798240D01*
X153339416Y-58674176D01*
X153519969Y-58519969D01*
X153674176Y-58339416D01*
X153798240Y-58136963D01*
X153851706Y-58007885D01*
X153889104Y-57917597D01*
X153889104Y-57917596D01*
X153889105Y-57917594D01*
X153944535Y-57686711D01*
X153963165Y-57450000D01*
X157436835Y-57450000D01*
X157455465Y-57686714D01*
X157510895Y-57917595D01*
X157510895Y-57917597D01*
X157601757Y-58136959D01*
X157601759Y-58136962D01*
X157725820Y-58339410D01*
X157725821Y-58339413D01*
X157758149Y-58377264D01*
X157880031Y-58519969D01*
X157910011Y-58545574D01*
X158060586Y-58674178D01*
X158060589Y-58674179D01*
X158263037Y-58798240D01*
X158263040Y-58798242D01*
X158482403Y-58889104D01*
X158482404Y-58889104D01*
X158482406Y-58889105D01*
X158713289Y-58944535D01*
X158950000Y-58963165D01*
X159186711Y-58944535D01*
X159417594Y-58889105D01*
X159417596Y-58889104D01*
X159417597Y-58889104D01*
X159636959Y-58798242D01*
X159636960Y-58798241D01*
X159636963Y-58798240D01*
X159839416Y-58674176D01*
X160019969Y-58519969D01*
X160174176Y-58339416D01*
X160298240Y-58136963D01*
X160351706Y-58007885D01*
X160389104Y-57917597D01*
X160389104Y-57917596D01*
X160389105Y-57917594D01*
X160444535Y-57686711D01*
X160463165Y-57450000D01*
X160444535Y-57213289D01*
X160389105Y-56982406D01*
X160389104Y-56982403D01*
X160389104Y-56982402D01*
X160298242Y-56763040D01*
X160298240Y-56763037D01*
X160174179Y-56560589D01*
X160174178Y-56560586D01*
X160106958Y-56481882D01*
X160019969Y-56380031D01*
X159900596Y-56278076D01*
X159839413Y-56225821D01*
X159839410Y-56225820D01*
X159636962Y-56101759D01*
X159636959Y-56101757D01*
X159417596Y-56010895D01*
X159186714Y-55955465D01*
X158950000Y-55936835D01*
X158713285Y-55955465D01*
X158482404Y-56010895D01*
X158482402Y-56010895D01*
X158263040Y-56101757D01*
X158263037Y-56101759D01*
X158060589Y-56225820D01*
X158060586Y-56225821D01*
X157880031Y-56380031D01*
X157725821Y-56560586D01*
X157725820Y-56560589D01*
X157601759Y-56763037D01*
X157601757Y-56763040D01*
X157510895Y-56982402D01*
X157510895Y-56982404D01*
X157455465Y-57213285D01*
X157436835Y-57450000D01*
X153963165Y-57450000D01*
X153944535Y-57213289D01*
X153889105Y-56982406D01*
X153889104Y-56982403D01*
X153889104Y-56982402D01*
X153798242Y-56763040D01*
X153798240Y-56763037D01*
X153674179Y-56560589D01*
X153674178Y-56560586D01*
X153606958Y-56481882D01*
X153519969Y-56380031D01*
X153400596Y-56278076D01*
X153339413Y-56225821D01*
X153339410Y-56225820D01*
X153136962Y-56101759D01*
X153136959Y-56101757D01*
X152917596Y-56010895D01*
X152686714Y-55955465D01*
X152450000Y-55936835D01*
X152213285Y-55955465D01*
X151982404Y-56010895D01*
X151982402Y-56010895D01*
X151763040Y-56101757D01*
X151763037Y-56101759D01*
X151560589Y-56225820D01*
X151560586Y-56225821D01*
X151380031Y-56380031D01*
X151225821Y-56560586D01*
X151225820Y-56560589D01*
X151101759Y-56763037D01*
X151101757Y-56763040D01*
X151010895Y-56982402D01*
X151010895Y-56982404D01*
X150955465Y-57213285D01*
X150936835Y-57450000D01*
X142868489Y-57450000D01*
X142933972Y-57321483D01*
X143000049Y-57118116D01*
X143033500Y-56906916D01*
X143033500Y-56693084D01*
X143000049Y-56481884D01*
X142933972Y-56278517D01*
X142933972Y-56278516D01*
X142884507Y-56181438D01*
X142836894Y-56087991D01*
X142711206Y-55914996D01*
X142560004Y-55763794D01*
X142396586Y-55645064D01*
X142353921Y-55589734D01*
X142347942Y-55520121D01*
X142380548Y-55458326D01*
X142396587Y-55444428D01*
X142554459Y-55329727D01*
X142554464Y-55329723D01*
X142704723Y-55179464D01*
X142704727Y-55179459D01*
X142829620Y-55007557D01*
X142926095Y-54818217D01*
X142991757Y-54616129D01*
X142991757Y-54616126D01*
X143002231Y-54550000D01*
X141954146Y-54550000D01*
X141992630Y-54483343D01*
X142025000Y-54362535D01*
X142025000Y-54237465D01*
X141992630Y-54116657D01*
X141954146Y-54050000D01*
X143002231Y-54050000D01*
X142991757Y-53983873D01*
X142991757Y-53983870D01*
X142926095Y-53781782D01*
X142829620Y-53592442D01*
X142704727Y-53420540D01*
X142704723Y-53420535D01*
X142554464Y-53270276D01*
X142554459Y-53270272D01*
X142382557Y-53145379D01*
X142193217Y-53048904D01*
X141991128Y-52983242D01*
X141800000Y-52952969D01*
X141800000Y-53895854D01*
X141733343Y-53857370D01*
X141612535Y-53825000D01*
X141487465Y-53825000D01*
X141366657Y-53857370D01*
X141300000Y-53895854D01*
X141300000Y-52952969D01*
X141108872Y-52983242D01*
X141108869Y-52983242D01*
X140906782Y-53048904D01*
X140717442Y-53145379D01*
X140545540Y-53270272D01*
X140545535Y-53270276D01*
X140395276Y-53420535D01*
X140395272Y-53420540D01*
X140270379Y-53592442D01*
X140173904Y-53781782D01*
X140108242Y-53983870D01*
X140108242Y-53983873D01*
X140097769Y-54050000D01*
X141145854Y-54050000D01*
X141107370Y-54116657D01*
X141075000Y-54237465D01*
X141075000Y-54362535D01*
X141107370Y-54483343D01*
X141145854Y-54550000D01*
X140097769Y-54550000D01*
X140108242Y-54616126D01*
X140108242Y-54616129D01*
X140173904Y-54818217D01*
X140270379Y-55007557D01*
X140395272Y-55179459D01*
X140395276Y-55179464D01*
X140545535Y-55329723D01*
X140545540Y-55329727D01*
X140703412Y-55444428D01*
X140746078Y-55499758D01*
X140752057Y-55569371D01*
X140719451Y-55631166D01*
X140703413Y-55645064D01*
X140605769Y-55716006D01*
X140539996Y-55763794D01*
X140539994Y-55763796D01*
X140539993Y-55763796D01*
X140388796Y-55914993D01*
X140263106Y-56087990D01*
X140166027Y-56278516D01*
X140166026Y-56278519D01*
X140099951Y-56481882D01*
X140066500Y-56693084D01*
X100075500Y-56693084D01*
X100075500Y-52040487D01*
X110881668Y-52040487D01*
X110881668Y-52688332D01*
X111798656Y-52688332D01*
X111765743Y-52745339D01*
X111731668Y-52872506D01*
X111731668Y-53004158D01*
X111765743Y-53131325D01*
X111798656Y-53188332D01*
X110881668Y-53188332D01*
X110881668Y-53836176D01*
X110888069Y-53895704D01*
X110888071Y-53895711D01*
X110938313Y-54030418D01*
X110938317Y-54030425D01*
X111024477Y-54145519D01*
X111024480Y-54145522D01*
X111139574Y-54231682D01*
X111139581Y-54231686D01*
X111274288Y-54281928D01*
X111274295Y-54281930D01*
X111333823Y-54288331D01*
X111333840Y-54288332D01*
X111981668Y-54288332D01*
X111981668Y-53371344D01*
X112038675Y-53404257D01*
X112165842Y-53438332D01*
X112297494Y-53438332D01*
X112424661Y-53404257D01*
X112481668Y-53371344D01*
X112481668Y-54288332D01*
X113129496Y-54288332D01*
X113129512Y-54288331D01*
X113189040Y-54281930D01*
X113189047Y-54281928D01*
X113323754Y-54231686D01*
X113323761Y-54231682D01*
X113438855Y-54145522D01*
X113438858Y-54145519D01*
X113525018Y-54030425D01*
X113525022Y-54030418D01*
X113571349Y-53906209D01*
X113613220Y-53850275D01*
X113678684Y-53825858D01*
X113746957Y-53840709D01*
X113778757Y-53865555D01*
X113848428Y-53941238D01*
X114026092Y-54079521D01*
X114026093Y-54079521D01*
X114026095Y-54079523D01*
X114148046Y-54145519D01*
X114224094Y-54186674D01*
X114437033Y-54259776D01*
X114659099Y-54296832D01*
X114884237Y-54296832D01*
X115106303Y-54259776D01*
X115319242Y-54186674D01*
X115517244Y-54079521D01*
X115694908Y-53941238D01*
X115847390Y-53775600D01*
X115937861Y-53637122D01*
X115991006Y-53591769D01*
X116060237Y-53582345D01*
X116123573Y-53611847D01*
X116145472Y-53637119D01*
X116235946Y-53775600D01*
X116235951Y-53775605D01*
X116235952Y-53775608D01*
X116356181Y-53906209D01*
X116388428Y-53941238D01*
X116566092Y-54079521D01*
X116566093Y-54079521D01*
X116566095Y-54079523D01*
X116688046Y-54145519D01*
X116764094Y-54186674D01*
X116977033Y-54259776D01*
X117199099Y-54296832D01*
X117424237Y-54296832D01*
X117646303Y-54259776D01*
X117859242Y-54186674D01*
X118057244Y-54079521D01*
X118234908Y-53941238D01*
X118387390Y-53775600D01*
X118477861Y-53637122D01*
X118531006Y-53591769D01*
X118600237Y-53582345D01*
X118663573Y-53611847D01*
X118685472Y-53637119D01*
X118775946Y-53775600D01*
X118775951Y-53775605D01*
X118775952Y-53775608D01*
X118896181Y-53906209D01*
X118928428Y-53941238D01*
X119106092Y-54079521D01*
X119106093Y-54079521D01*
X119106095Y-54079523D01*
X119228046Y-54145519D01*
X119304094Y-54186674D01*
X119517033Y-54259776D01*
X119739099Y-54296832D01*
X119964237Y-54296832D01*
X120186303Y-54259776D01*
X120399242Y-54186674D01*
X120597244Y-54079521D01*
X120774908Y-53941238D01*
X120927390Y-53775600D01*
X121050528Y-53587123D01*
X121140964Y-53380948D01*
X121196232Y-53162700D01*
X121196233Y-53162691D01*
X121213858Y-52950000D01*
X150936835Y-52950000D01*
X150955465Y-53186714D01*
X151010895Y-53417595D01*
X151010895Y-53417597D01*
X151101757Y-53636959D01*
X151101759Y-53636962D01*
X151225820Y-53839410D01*
X151225821Y-53839413D01*
X151278076Y-53900596D01*
X151380031Y-54019969D01*
X151449760Y-54079523D01*
X151560586Y-54174178D01*
X151560588Y-54174178D01*
X151654425Y-54231682D01*
X151763037Y-54298240D01*
X151763040Y-54298242D01*
X151982403Y-54389104D01*
X151982404Y-54389104D01*
X151982406Y-54389105D01*
X152213289Y-54444535D01*
X152450000Y-54463165D01*
X152686711Y-54444535D01*
X152917594Y-54389105D01*
X152917596Y-54389104D01*
X152917597Y-54389104D01*
X153136959Y-54298242D01*
X153136960Y-54298241D01*
X153136963Y-54298240D01*
X153339416Y-54174176D01*
X153519969Y-54019969D01*
X153674176Y-53839416D01*
X153798240Y-53636963D01*
X153808644Y-53611847D01*
X153889104Y-53417597D01*
X153889104Y-53417596D01*
X153889105Y-53417594D01*
X153944535Y-53186711D01*
X153963165Y-52950000D01*
X157436835Y-52950000D01*
X157455465Y-53186714D01*
X157510895Y-53417595D01*
X157510895Y-53417597D01*
X157601757Y-53636959D01*
X157601759Y-53636962D01*
X157725820Y-53839410D01*
X157725821Y-53839413D01*
X157778076Y-53900596D01*
X157880031Y-54019969D01*
X157949760Y-54079523D01*
X158060586Y-54174178D01*
X158060588Y-54174178D01*
X158154425Y-54231682D01*
X158263037Y-54298240D01*
X158263040Y-54298242D01*
X158482403Y-54389104D01*
X158482404Y-54389104D01*
X158482406Y-54389105D01*
X158713289Y-54444535D01*
X158950000Y-54463165D01*
X159186711Y-54444535D01*
X159417594Y-54389105D01*
X159417596Y-54389104D01*
X159417597Y-54389104D01*
X159636959Y-54298242D01*
X159636960Y-54298241D01*
X159636963Y-54298240D01*
X159839416Y-54174176D01*
X160019969Y-54019969D01*
X160174176Y-53839416D01*
X160298240Y-53636963D01*
X160308644Y-53611847D01*
X160389104Y-53417597D01*
X160389104Y-53417596D01*
X160389105Y-53417594D01*
X160444535Y-53186711D01*
X160463165Y-52950000D01*
X160444535Y-52713289D01*
X160389105Y-52482406D01*
X160389104Y-52482403D01*
X160389104Y-52482402D01*
X160298242Y-52263040D01*
X160298240Y-52263037D01*
X160210585Y-52119998D01*
X161936502Y-52119998D01*
X161936502Y-52120001D01*
X161956456Y-52348081D01*
X161956457Y-52348089D01*
X162015714Y-52569238D01*
X162015718Y-52569249D01*
X162097830Y-52745339D01*
X162112477Y-52776749D01*
X162243802Y-52964300D01*
X162405700Y-53126198D01*
X162593251Y-53257523D01*
X162718091Y-53315736D01*
X162800750Y-53354281D01*
X162800752Y-53354281D01*
X162800757Y-53354284D01*
X163021913Y-53413543D01*
X163184832Y-53427796D01*
X163249998Y-53433498D01*
X163250000Y-53433498D01*
X163250002Y-53433498D01*
X163307021Y-53428509D01*
X163478087Y-53413543D01*
X163699243Y-53354284D01*
X163906749Y-53257523D01*
X164094300Y-53126198D01*
X164256198Y-52964300D01*
X164387523Y-52776749D01*
X164484284Y-52569243D01*
X164543543Y-52348087D01*
X164563498Y-52120000D01*
X164561841Y-52101066D01*
X164556936Y-52044994D01*
X164543543Y-51891913D01*
X164484284Y-51670757D01*
X164387523Y-51463251D01*
X164256198Y-51275700D01*
X164094300Y-51113802D01*
X163906749Y-50982477D01*
X163906745Y-50982475D01*
X163699249Y-50885718D01*
X163699238Y-50885714D01*
X163478089Y-50826457D01*
X163478081Y-50826456D01*
X163250002Y-50806502D01*
X163249998Y-50806502D01*
X163021918Y-50826456D01*
X163021910Y-50826457D01*
X162800761Y-50885714D01*
X162800750Y-50885718D01*
X162593254Y-50982475D01*
X162593252Y-50982476D01*
X162593251Y-50982477D01*
X162405700Y-51113802D01*
X162405698Y-51113803D01*
X162405695Y-51113806D01*
X162243806Y-51275695D01*
X162112476Y-51463252D01*
X162112475Y-51463254D01*
X162015718Y-51670750D01*
X162015714Y-51670761D01*
X161956457Y-51891910D01*
X161956456Y-51891918D01*
X161936502Y-52119998D01*
X160210585Y-52119998D01*
X160174178Y-52060588D01*
X160174178Y-52060586D01*
X160127103Y-52005469D01*
X160019969Y-51880031D01*
X159845645Y-51731144D01*
X159839413Y-51725821D01*
X159839410Y-51725820D01*
X159636962Y-51601759D01*
X159636959Y-51601757D01*
X159417596Y-51510895D01*
X159186714Y-51455465D01*
X158950000Y-51436835D01*
X158713285Y-51455465D01*
X158482404Y-51510895D01*
X158482402Y-51510895D01*
X158263040Y-51601757D01*
X158263037Y-51601759D01*
X158060589Y-51725820D01*
X158060586Y-51725821D01*
X157880031Y-51880031D01*
X157725821Y-52060586D01*
X157725820Y-52060589D01*
X157601759Y-52263037D01*
X157601757Y-52263040D01*
X157510895Y-52482402D01*
X157510895Y-52482404D01*
X157455465Y-52713285D01*
X157436835Y-52950000D01*
X153963165Y-52950000D01*
X153944535Y-52713289D01*
X153889105Y-52482406D01*
X153889104Y-52482403D01*
X153889104Y-52482402D01*
X153798242Y-52263040D01*
X153798240Y-52263037D01*
X153710585Y-52119998D01*
X153674178Y-52060588D01*
X153674178Y-52060586D01*
X153627103Y-52005469D01*
X153519969Y-51880031D01*
X153345645Y-51731144D01*
X153339413Y-51725821D01*
X153339410Y-51725820D01*
X153136962Y-51601759D01*
X153136959Y-51601757D01*
X152917596Y-51510895D01*
X152686714Y-51455465D01*
X152450000Y-51436835D01*
X152213285Y-51455465D01*
X151982404Y-51510895D01*
X151982402Y-51510895D01*
X151763040Y-51601757D01*
X151763037Y-51601759D01*
X151560589Y-51725820D01*
X151560586Y-51725821D01*
X151380031Y-51880031D01*
X151225821Y-52060586D01*
X151225820Y-52060589D01*
X151101759Y-52263037D01*
X151101757Y-52263040D01*
X151010895Y-52482402D01*
X151010895Y-52482404D01*
X150955465Y-52713285D01*
X150936835Y-52950000D01*
X121213858Y-52950000D01*
X121214824Y-52938337D01*
X121214824Y-52938326D01*
X121196233Y-52713972D01*
X121196231Y-52713960D01*
X121159585Y-52569249D01*
X121140964Y-52495716D01*
X121050528Y-52289541D01*
X121034374Y-52264816D01*
X120927391Y-52101066D01*
X120927383Y-52101055D01*
X120774911Y-51935429D01*
X120774906Y-51935424D01*
X120597245Y-51797144D01*
X120597240Y-51797140D01*
X120399248Y-51689993D01*
X120399245Y-51689991D01*
X120399242Y-51689990D01*
X120399239Y-51689989D01*
X120399237Y-51689988D01*
X120186305Y-51616888D01*
X119964237Y-51579832D01*
X119739099Y-51579832D01*
X119517030Y-51616888D01*
X119304098Y-51689988D01*
X119304087Y-51689993D01*
X119106095Y-51797140D01*
X119106090Y-51797144D01*
X118928429Y-51935424D01*
X118928424Y-51935429D01*
X118775952Y-52101055D01*
X118775944Y-52101066D01*
X118685476Y-52239538D01*
X118632330Y-52284894D01*
X118563099Y-52294318D01*
X118499763Y-52264816D01*
X118477860Y-52239538D01*
X118387391Y-52101066D01*
X118387383Y-52101055D01*
X118234911Y-51935429D01*
X118234906Y-51935424D01*
X118057245Y-51797144D01*
X118057240Y-51797140D01*
X117859248Y-51689993D01*
X117859245Y-51689991D01*
X117859242Y-51689990D01*
X117859239Y-51689989D01*
X117859237Y-51689988D01*
X117646305Y-51616888D01*
X117424237Y-51579832D01*
X117199099Y-51579832D01*
X116977030Y-51616888D01*
X116764098Y-51689988D01*
X116764087Y-51689993D01*
X116566095Y-51797140D01*
X116566090Y-51797144D01*
X116388429Y-51935424D01*
X116388424Y-51935429D01*
X116235952Y-52101055D01*
X116235944Y-52101066D01*
X116145476Y-52239538D01*
X116092330Y-52284894D01*
X116023099Y-52294318D01*
X115959763Y-52264816D01*
X115937860Y-52239538D01*
X115847391Y-52101066D01*
X115847383Y-52101055D01*
X115694911Y-51935429D01*
X115694906Y-51935424D01*
X115517245Y-51797144D01*
X115517240Y-51797140D01*
X115319248Y-51689993D01*
X115319245Y-51689991D01*
X115319242Y-51689990D01*
X115319239Y-51689989D01*
X115319237Y-51689988D01*
X115106305Y-51616888D01*
X114884237Y-51579832D01*
X114659099Y-51579832D01*
X114437030Y-51616888D01*
X114224098Y-51689988D01*
X114224087Y-51689993D01*
X114026095Y-51797140D01*
X114026090Y-51797144D01*
X113848429Y-51935424D01*
X113778760Y-52011105D01*
X113718873Y-52047095D01*
X113649035Y-52044994D01*
X113591419Y-52005469D01*
X113571349Y-51970454D01*
X113525022Y-51846245D01*
X113525018Y-51846238D01*
X113438858Y-51731144D01*
X113438855Y-51731141D01*
X113323761Y-51644981D01*
X113323754Y-51644977D01*
X113189047Y-51594735D01*
X113189040Y-51594733D01*
X113129512Y-51588332D01*
X112481668Y-51588332D01*
X112481668Y-52505320D01*
X112424661Y-52472407D01*
X112297494Y-52438332D01*
X112165842Y-52438332D01*
X112038675Y-52472407D01*
X111981668Y-52505320D01*
X111981668Y-51588332D01*
X111333823Y-51588332D01*
X111274295Y-51594733D01*
X111274288Y-51594735D01*
X111139581Y-51644977D01*
X111139574Y-51644981D01*
X111024480Y-51731141D01*
X111024477Y-51731144D01*
X110938317Y-51846238D01*
X110938313Y-51846245D01*
X110888071Y-51980952D01*
X110888069Y-51980959D01*
X110881668Y-52040487D01*
X100075500Y-52040487D01*
X100075500Y-48301345D01*
X117437500Y-48301345D01*
X117437500Y-50098654D01*
X117444011Y-50159202D01*
X117444011Y-50159204D01*
X117495111Y-50296204D01*
X117582739Y-50413261D01*
X117699796Y-50500889D01*
X117836799Y-50551989D01*
X117864050Y-50554918D01*
X117897345Y-50558499D01*
X117897362Y-50558500D01*
X119694638Y-50558500D01*
X119694654Y-50558499D01*
X119721692Y-50555591D01*
X119755201Y-50551989D01*
X119892204Y-50500889D01*
X120009261Y-50413261D01*
X120096889Y-50296204D01*
X120142138Y-50174887D01*
X120184009Y-50118956D01*
X120249474Y-50094539D01*
X120317746Y-50109391D01*
X120349545Y-50134236D01*
X120412760Y-50202906D01*
X120590424Y-50341189D01*
X120590425Y-50341189D01*
X120590427Y-50341191D01*
X120650314Y-50373600D01*
X120788426Y-50448342D01*
X121001365Y-50521444D01*
X121223431Y-50558500D01*
X121448569Y-50558500D01*
X121670635Y-50521444D01*
X121883574Y-50448342D01*
X122081576Y-50341189D01*
X122259240Y-50202906D01*
X122380594Y-50071082D01*
X122411715Y-50037276D01*
X122411715Y-50037275D01*
X122411722Y-50037268D01*
X122502193Y-49898790D01*
X122555338Y-49853437D01*
X122624569Y-49844013D01*
X122687905Y-49873515D01*
X122709804Y-49898787D01*
X122800278Y-50037268D01*
X122800283Y-50037273D01*
X122800284Y-50037276D01*
X122926968Y-50174889D01*
X122952760Y-50202906D01*
X123130424Y-50341189D01*
X123130425Y-50341189D01*
X123130427Y-50341191D01*
X123190314Y-50373600D01*
X123328426Y-50448342D01*
X123541365Y-50521444D01*
X123763431Y-50558500D01*
X123988569Y-50558500D01*
X124210635Y-50521444D01*
X124423574Y-50448342D01*
X124621576Y-50341189D01*
X124799240Y-50202906D01*
X124920594Y-50071082D01*
X124951715Y-50037276D01*
X124951715Y-50037275D01*
X124951722Y-50037268D01*
X125045749Y-49893347D01*
X125098894Y-49847994D01*
X125168125Y-49838570D01*
X125231461Y-49868072D01*
X125251130Y-49890048D01*
X125377890Y-50071078D01*
X125544917Y-50238105D01*
X125738421Y-50373600D01*
X125952507Y-50473429D01*
X125952516Y-50473433D01*
X126166000Y-50530634D01*
X126166000Y-49633012D01*
X126223007Y-49665925D01*
X126350174Y-49700000D01*
X126481826Y-49700000D01*
X126608993Y-49665925D01*
X126666000Y-49633012D01*
X126666000Y-50530633D01*
X126879483Y-50473433D01*
X126879492Y-50473429D01*
X127093578Y-50373600D01*
X127287082Y-50238105D01*
X127454105Y-50071082D01*
X127580868Y-49890048D01*
X127635445Y-49846423D01*
X127704944Y-49839231D01*
X127767298Y-49870753D01*
X127786251Y-49893350D01*
X127880276Y-50037265D01*
X127880284Y-50037276D01*
X128006968Y-50174889D01*
X128032760Y-50202906D01*
X128210424Y-50341189D01*
X128210425Y-50341189D01*
X128210427Y-50341191D01*
X128270314Y-50373600D01*
X128408426Y-50448342D01*
X128621365Y-50521444D01*
X128843431Y-50558500D01*
X129068569Y-50558500D01*
X129290635Y-50521444D01*
X129503574Y-50448342D01*
X129701576Y-50341189D01*
X129879240Y-50202906D01*
X130000594Y-50071082D01*
X130031715Y-50037276D01*
X130031715Y-50037275D01*
X130031722Y-50037268D01*
X130122193Y-49898790D01*
X130175338Y-49853437D01*
X130244569Y-49844013D01*
X130307905Y-49873515D01*
X130329804Y-49898787D01*
X130420278Y-50037268D01*
X130420283Y-50037273D01*
X130420284Y-50037276D01*
X130546968Y-50174889D01*
X130572760Y-50202906D01*
X130750424Y-50341189D01*
X130750425Y-50341189D01*
X130750427Y-50341191D01*
X130810314Y-50373600D01*
X130948426Y-50448342D01*
X131161365Y-50521444D01*
X131383431Y-50558500D01*
X131608569Y-50558500D01*
X131830635Y-50521444D01*
X132043574Y-50448342D01*
X132241576Y-50341189D01*
X132419240Y-50202906D01*
X132540594Y-50071082D01*
X132571715Y-50037276D01*
X132571715Y-50037275D01*
X132571722Y-50037268D01*
X132662193Y-49898790D01*
X132715338Y-49853437D01*
X132784569Y-49844013D01*
X132847905Y-49873515D01*
X132869804Y-49898787D01*
X132960278Y-50037268D01*
X132960283Y-50037273D01*
X132960284Y-50037276D01*
X133086968Y-50174889D01*
X133112760Y-50202906D01*
X133290424Y-50341189D01*
X133290425Y-50341189D01*
X133290427Y-50341191D01*
X133350314Y-50373600D01*
X133488426Y-50448342D01*
X133701365Y-50521444D01*
X133923431Y-50558500D01*
X134148569Y-50558500D01*
X134370635Y-50521444D01*
X134583574Y-50448342D01*
X134781576Y-50341189D01*
X134959240Y-50202906D01*
X135080594Y-50071082D01*
X135111715Y-50037276D01*
X135111715Y-50037275D01*
X135111722Y-50037268D01*
X135202193Y-49898790D01*
X135255338Y-49853437D01*
X135324569Y-49844013D01*
X135387905Y-49873515D01*
X135409804Y-49898787D01*
X135500278Y-50037268D01*
X135500283Y-50037273D01*
X135500284Y-50037276D01*
X135626968Y-50174889D01*
X135652760Y-50202906D01*
X135830424Y-50341189D01*
X135830425Y-50341189D01*
X135830427Y-50341191D01*
X135890314Y-50373600D01*
X136028426Y-50448342D01*
X136241365Y-50521444D01*
X136463431Y-50558500D01*
X136688569Y-50558500D01*
X136910635Y-50521444D01*
X137123574Y-50448342D01*
X137321576Y-50341189D01*
X137499240Y-50202906D01*
X137620594Y-50071082D01*
X137651715Y-50037276D01*
X137651715Y-50037275D01*
X137651722Y-50037268D01*
X137742193Y-49898790D01*
X137795338Y-49853437D01*
X137864569Y-49844013D01*
X137927905Y-49873515D01*
X137949804Y-49898787D01*
X138040278Y-50037268D01*
X138040283Y-50037273D01*
X138040284Y-50037276D01*
X138166968Y-50174889D01*
X138192760Y-50202906D01*
X138370424Y-50341189D01*
X138370425Y-50341189D01*
X138370427Y-50341191D01*
X138430314Y-50373600D01*
X138568426Y-50448342D01*
X138781365Y-50521444D01*
X139003431Y-50558500D01*
X139228569Y-50558500D01*
X139450635Y-50521444D01*
X139663574Y-50448342D01*
X139861576Y-50341189D01*
X140039240Y-50202906D01*
X140160594Y-50071082D01*
X140191715Y-50037276D01*
X140191715Y-50037275D01*
X140191722Y-50037268D01*
X140282193Y-49898790D01*
X140335338Y-49853437D01*
X140404569Y-49844013D01*
X140467905Y-49873515D01*
X140489804Y-49898787D01*
X140580278Y-50037268D01*
X140580283Y-50037273D01*
X140580284Y-50037276D01*
X140706968Y-50174889D01*
X140732760Y-50202906D01*
X140910424Y-50341189D01*
X140910425Y-50341189D01*
X140910427Y-50341191D01*
X140970314Y-50373600D01*
X141108426Y-50448342D01*
X141321365Y-50521444D01*
X141543431Y-50558500D01*
X141768569Y-50558500D01*
X141990635Y-50521444D01*
X142203574Y-50448342D01*
X142401576Y-50341189D01*
X142579240Y-50202906D01*
X142700594Y-50071082D01*
X142731715Y-50037276D01*
X142731717Y-50037273D01*
X142731722Y-50037268D01*
X142854860Y-49848791D01*
X142945296Y-49642616D01*
X143000564Y-49424368D01*
X143012309Y-49282635D01*
X143019156Y-49200005D01*
X143019156Y-49199994D01*
X143000565Y-48975640D01*
X143000563Y-48975628D01*
X142945296Y-48757385D01*
X142935071Y-48734075D01*
X142854860Y-48551209D01*
X142838706Y-48526484D01*
X142731723Y-48362734D01*
X142731715Y-48362723D01*
X142675212Y-48301345D01*
X144361500Y-48301345D01*
X144361500Y-50098654D01*
X144368011Y-50159202D01*
X144368011Y-50159204D01*
X144419111Y-50296204D01*
X144506739Y-50413261D01*
X144623796Y-50500889D01*
X144760799Y-50551989D01*
X144788050Y-50554918D01*
X144821345Y-50558499D01*
X144821362Y-50558500D01*
X146618638Y-50558500D01*
X146618654Y-50558499D01*
X146645692Y-50555591D01*
X146679201Y-50551989D01*
X146816204Y-50500889D01*
X146933261Y-50413261D01*
X147020889Y-50296204D01*
X147066138Y-50174887D01*
X147108009Y-50118956D01*
X147173474Y-50094539D01*
X147241746Y-50109391D01*
X147273545Y-50134236D01*
X147336760Y-50202906D01*
X147514424Y-50341189D01*
X147514425Y-50341189D01*
X147514427Y-50341191D01*
X147574314Y-50373600D01*
X147712426Y-50448342D01*
X147925365Y-50521444D01*
X148147431Y-50558500D01*
X148372569Y-50558500D01*
X148594635Y-50521444D01*
X148807574Y-50448342D01*
X149005576Y-50341189D01*
X149183240Y-50202906D01*
X149304594Y-50071082D01*
X149335715Y-50037276D01*
X149335715Y-50037275D01*
X149335722Y-50037268D01*
X149426193Y-49898790D01*
X149479338Y-49853437D01*
X149548569Y-49844013D01*
X149611905Y-49873515D01*
X149633804Y-49898787D01*
X149724278Y-50037268D01*
X149724283Y-50037273D01*
X149724284Y-50037276D01*
X149850968Y-50174889D01*
X149876760Y-50202906D01*
X150054424Y-50341189D01*
X150054425Y-50341189D01*
X150054427Y-50341191D01*
X150114314Y-50373600D01*
X150252426Y-50448342D01*
X150465365Y-50521444D01*
X150687431Y-50558500D01*
X150912569Y-50558500D01*
X151134635Y-50521444D01*
X151347574Y-50448342D01*
X151545576Y-50341189D01*
X151723240Y-50202906D01*
X151844594Y-50071082D01*
X151875715Y-50037276D01*
X151875715Y-50037275D01*
X151875722Y-50037268D01*
X151966193Y-49898790D01*
X152019338Y-49853437D01*
X152088569Y-49844013D01*
X152151905Y-49873515D01*
X152173804Y-49898787D01*
X152264278Y-50037268D01*
X152264283Y-50037273D01*
X152264284Y-50037276D01*
X152390968Y-50174889D01*
X152416760Y-50202906D01*
X152594424Y-50341189D01*
X152594425Y-50341189D01*
X152594427Y-50341191D01*
X152654314Y-50373600D01*
X152792426Y-50448342D01*
X153005365Y-50521444D01*
X153227431Y-50558500D01*
X153452569Y-50558500D01*
X153674635Y-50521444D01*
X153887574Y-50448342D01*
X154085576Y-50341189D01*
X154263240Y-50202906D01*
X154384594Y-50071082D01*
X154415715Y-50037276D01*
X154415715Y-50037275D01*
X154415722Y-50037268D01*
X154506193Y-49898790D01*
X154559338Y-49853437D01*
X154628569Y-49844013D01*
X154691905Y-49873515D01*
X154713804Y-49898787D01*
X154804278Y-50037268D01*
X154804283Y-50037273D01*
X154804284Y-50037276D01*
X154930968Y-50174889D01*
X154956760Y-50202906D01*
X155134424Y-50341189D01*
X155134425Y-50341189D01*
X155134427Y-50341191D01*
X155194314Y-50373600D01*
X155332426Y-50448342D01*
X155545365Y-50521444D01*
X155767431Y-50558500D01*
X155992569Y-50558500D01*
X156214635Y-50521444D01*
X156427574Y-50448342D01*
X156625576Y-50341189D01*
X156803240Y-50202906D01*
X156924594Y-50071082D01*
X156955715Y-50037276D01*
X156955715Y-50037275D01*
X156955722Y-50037268D01*
X157046193Y-49898790D01*
X157099338Y-49853437D01*
X157168569Y-49844013D01*
X157231905Y-49873515D01*
X157253804Y-49898787D01*
X157344278Y-50037268D01*
X157344283Y-50037273D01*
X157344284Y-50037276D01*
X157470968Y-50174889D01*
X157496760Y-50202906D01*
X157674424Y-50341189D01*
X157674425Y-50341189D01*
X157674427Y-50341191D01*
X157734314Y-50373600D01*
X157872426Y-50448342D01*
X158085365Y-50521444D01*
X158307431Y-50558500D01*
X158532569Y-50558500D01*
X158754635Y-50521444D01*
X158967574Y-50448342D01*
X159165576Y-50341189D01*
X159343240Y-50202906D01*
X159464594Y-50071082D01*
X159495715Y-50037276D01*
X159495715Y-50037275D01*
X159495722Y-50037268D01*
X159586193Y-49898790D01*
X159639338Y-49853437D01*
X159708569Y-49844013D01*
X159771905Y-49873515D01*
X159793804Y-49898787D01*
X159884278Y-50037268D01*
X159884283Y-50037273D01*
X159884284Y-50037276D01*
X160010968Y-50174889D01*
X160036760Y-50202906D01*
X160214424Y-50341189D01*
X160214425Y-50341189D01*
X160214427Y-50341191D01*
X160274314Y-50373600D01*
X160412426Y-50448342D01*
X160625365Y-50521444D01*
X160847431Y-50558500D01*
X161072569Y-50558500D01*
X161294635Y-50521444D01*
X161507574Y-50448342D01*
X161705576Y-50341189D01*
X161883240Y-50202906D01*
X162004594Y-50071082D01*
X162035715Y-50037276D01*
X162035715Y-50037275D01*
X162035722Y-50037268D01*
X162126193Y-49898790D01*
X162179338Y-49853437D01*
X162248569Y-49844013D01*
X162311905Y-49873515D01*
X162333804Y-49898787D01*
X162424278Y-50037268D01*
X162424283Y-50037273D01*
X162424284Y-50037276D01*
X162550968Y-50174889D01*
X162576760Y-50202906D01*
X162754424Y-50341189D01*
X162754425Y-50341189D01*
X162754427Y-50341191D01*
X162814314Y-50373600D01*
X162952426Y-50448342D01*
X163165365Y-50521444D01*
X163387431Y-50558500D01*
X163612569Y-50558500D01*
X163834635Y-50521444D01*
X164047574Y-50448342D01*
X164245576Y-50341189D01*
X164423240Y-50202906D01*
X164544594Y-50071082D01*
X164575715Y-50037276D01*
X164575717Y-50037273D01*
X164575722Y-50037268D01*
X164698860Y-49848791D01*
X164789296Y-49642616D01*
X164844564Y-49424368D01*
X164856309Y-49282635D01*
X164863156Y-49200005D01*
X164863156Y-49199994D01*
X164844565Y-48975640D01*
X164844563Y-48975628D01*
X164789296Y-48757385D01*
X164779071Y-48734075D01*
X164698860Y-48551209D01*
X164682706Y-48526484D01*
X164575723Y-48362734D01*
X164575715Y-48362723D01*
X164423243Y-48197097D01*
X164423238Y-48197092D01*
X164245577Y-48058812D01*
X164245572Y-48058808D01*
X164047580Y-47951661D01*
X164047577Y-47951659D01*
X164047574Y-47951658D01*
X164047571Y-47951657D01*
X164047569Y-47951656D01*
X163834637Y-47878556D01*
X163612569Y-47841500D01*
X163387431Y-47841500D01*
X163165362Y-47878556D01*
X162952430Y-47951656D01*
X162952419Y-47951661D01*
X162754427Y-48058808D01*
X162754422Y-48058812D01*
X162576761Y-48197092D01*
X162576756Y-48197097D01*
X162424284Y-48362723D01*
X162424276Y-48362734D01*
X162333808Y-48501206D01*
X162280662Y-48546562D01*
X162211431Y-48555986D01*
X162148095Y-48526484D01*
X162126192Y-48501206D01*
X162035723Y-48362734D01*
X162035715Y-48362723D01*
X161883243Y-48197097D01*
X161883238Y-48197092D01*
X161705577Y-48058812D01*
X161705572Y-48058808D01*
X161507580Y-47951661D01*
X161507577Y-47951659D01*
X161507574Y-47951658D01*
X161507571Y-47951657D01*
X161507569Y-47951656D01*
X161294637Y-47878556D01*
X161072569Y-47841500D01*
X160847431Y-47841500D01*
X160625362Y-47878556D01*
X160412430Y-47951656D01*
X160412419Y-47951661D01*
X160214427Y-48058808D01*
X160214422Y-48058812D01*
X160036761Y-48197092D01*
X160036756Y-48197097D01*
X159884284Y-48362723D01*
X159884276Y-48362734D01*
X159793808Y-48501206D01*
X159740662Y-48546562D01*
X159671431Y-48555986D01*
X159608095Y-48526484D01*
X159586192Y-48501206D01*
X159495723Y-48362734D01*
X159495715Y-48362723D01*
X159343243Y-48197097D01*
X159343238Y-48197092D01*
X159165577Y-48058812D01*
X159165572Y-48058808D01*
X158967580Y-47951661D01*
X158967577Y-47951659D01*
X158967574Y-47951658D01*
X158967571Y-47951657D01*
X158967569Y-47951656D01*
X158754637Y-47878556D01*
X158532569Y-47841500D01*
X158307431Y-47841500D01*
X158085362Y-47878556D01*
X157872430Y-47951656D01*
X157872419Y-47951661D01*
X157674427Y-48058808D01*
X157674422Y-48058812D01*
X157496761Y-48197092D01*
X157496756Y-48197097D01*
X157344284Y-48362723D01*
X157344276Y-48362734D01*
X157253808Y-48501206D01*
X157200662Y-48546562D01*
X157131431Y-48555986D01*
X157068095Y-48526484D01*
X157046192Y-48501206D01*
X156955723Y-48362734D01*
X156955715Y-48362723D01*
X156803243Y-48197097D01*
X156803238Y-48197092D01*
X156625577Y-48058812D01*
X156625572Y-48058808D01*
X156427580Y-47951661D01*
X156427577Y-47951659D01*
X156427574Y-47951658D01*
X156427571Y-47951657D01*
X156427569Y-47951656D01*
X156214637Y-47878556D01*
X155992569Y-47841500D01*
X155767431Y-47841500D01*
X155545362Y-47878556D01*
X155332430Y-47951656D01*
X155332419Y-47951661D01*
X155134427Y-48058808D01*
X155134422Y-48058812D01*
X154956761Y-48197092D01*
X154956756Y-48197097D01*
X154804284Y-48362723D01*
X154804276Y-48362734D01*
X154713808Y-48501206D01*
X154660662Y-48546562D01*
X154591431Y-48555986D01*
X154528095Y-48526484D01*
X154506192Y-48501206D01*
X154415723Y-48362734D01*
X154415715Y-48362723D01*
X154263243Y-48197097D01*
X154263238Y-48197092D01*
X154085577Y-48058812D01*
X154085572Y-48058808D01*
X153887580Y-47951661D01*
X153887577Y-47951659D01*
X153887574Y-47951658D01*
X153887571Y-47951657D01*
X153887569Y-47951656D01*
X153674637Y-47878556D01*
X153452569Y-47841500D01*
X153227431Y-47841500D01*
X153005362Y-47878556D01*
X152792430Y-47951656D01*
X152792419Y-47951661D01*
X152594427Y-48058808D01*
X152594422Y-48058812D01*
X152416761Y-48197092D01*
X152416756Y-48197097D01*
X152264284Y-48362723D01*
X152264276Y-48362734D01*
X152173808Y-48501206D01*
X152120662Y-48546562D01*
X152051431Y-48555986D01*
X151988095Y-48526484D01*
X151966192Y-48501206D01*
X151875723Y-48362734D01*
X151875715Y-48362723D01*
X151723243Y-48197097D01*
X151723238Y-48197092D01*
X151545577Y-48058812D01*
X151545572Y-48058808D01*
X151347580Y-47951661D01*
X151347577Y-47951659D01*
X151347574Y-47951658D01*
X151347571Y-47951657D01*
X151347569Y-47951656D01*
X151134637Y-47878556D01*
X150912569Y-47841500D01*
X150687431Y-47841500D01*
X150465362Y-47878556D01*
X150252430Y-47951656D01*
X150252419Y-47951661D01*
X150054427Y-48058808D01*
X150054422Y-48058812D01*
X149876761Y-48197092D01*
X149876756Y-48197097D01*
X149724284Y-48362723D01*
X149724276Y-48362734D01*
X149633808Y-48501206D01*
X149580662Y-48546562D01*
X149511431Y-48555986D01*
X149448095Y-48526484D01*
X149426192Y-48501206D01*
X149335723Y-48362734D01*
X149335715Y-48362723D01*
X149183243Y-48197097D01*
X149183238Y-48197092D01*
X149005577Y-48058812D01*
X149005572Y-48058808D01*
X148807580Y-47951661D01*
X148807577Y-47951659D01*
X148807574Y-47951658D01*
X148807571Y-47951657D01*
X148807569Y-47951656D01*
X148594637Y-47878556D01*
X148372569Y-47841500D01*
X148147431Y-47841500D01*
X147925362Y-47878556D01*
X147712430Y-47951656D01*
X147712419Y-47951661D01*
X147514427Y-48058808D01*
X147514422Y-48058812D01*
X147336761Y-48197092D01*
X147273548Y-48265760D01*
X147213661Y-48301750D01*
X147143823Y-48299649D01*
X147086207Y-48260124D01*
X147066138Y-48225110D01*
X147020889Y-48103796D01*
X146987214Y-48058812D01*
X146933261Y-47986739D01*
X146816204Y-47899111D01*
X146679203Y-47848011D01*
X146618654Y-47841500D01*
X146618638Y-47841500D01*
X144821362Y-47841500D01*
X144821345Y-47841500D01*
X144760797Y-47848011D01*
X144760795Y-47848011D01*
X144623795Y-47899111D01*
X144506739Y-47986739D01*
X144419111Y-48103795D01*
X144368011Y-48240795D01*
X144368011Y-48240797D01*
X144361500Y-48301345D01*
X142675212Y-48301345D01*
X142579243Y-48197097D01*
X142579238Y-48197092D01*
X142401577Y-48058812D01*
X142401572Y-48058808D01*
X142203580Y-47951661D01*
X142203577Y-47951659D01*
X142203574Y-47951658D01*
X142203571Y-47951657D01*
X142203569Y-47951656D01*
X141990637Y-47878556D01*
X141768569Y-47841500D01*
X141543431Y-47841500D01*
X141321362Y-47878556D01*
X141108430Y-47951656D01*
X141108419Y-47951661D01*
X140910427Y-48058808D01*
X140910422Y-48058812D01*
X140732761Y-48197092D01*
X140732756Y-48197097D01*
X140580284Y-48362723D01*
X140580276Y-48362734D01*
X140489808Y-48501206D01*
X140436662Y-48546562D01*
X140367431Y-48555986D01*
X140304095Y-48526484D01*
X140282192Y-48501206D01*
X140191723Y-48362734D01*
X140191715Y-48362723D01*
X140039243Y-48197097D01*
X140039238Y-48197092D01*
X139861577Y-48058812D01*
X139861572Y-48058808D01*
X139663580Y-47951661D01*
X139663577Y-47951659D01*
X139663574Y-47951658D01*
X139663571Y-47951657D01*
X139663569Y-47951656D01*
X139450637Y-47878556D01*
X139228569Y-47841500D01*
X139003431Y-47841500D01*
X138781362Y-47878556D01*
X138568430Y-47951656D01*
X138568419Y-47951661D01*
X138370427Y-48058808D01*
X138370422Y-48058812D01*
X138192761Y-48197092D01*
X138192756Y-48197097D01*
X138040284Y-48362723D01*
X138040276Y-48362734D01*
X137949808Y-48501206D01*
X137896662Y-48546562D01*
X137827431Y-48555986D01*
X137764095Y-48526484D01*
X137742192Y-48501206D01*
X137651723Y-48362734D01*
X137651715Y-48362723D01*
X137499243Y-48197097D01*
X137499238Y-48197092D01*
X137321577Y-48058812D01*
X137321572Y-48058808D01*
X137123580Y-47951661D01*
X137123577Y-47951659D01*
X137123574Y-47951658D01*
X137123571Y-47951657D01*
X137123569Y-47951656D01*
X136910637Y-47878556D01*
X136688569Y-47841500D01*
X136463431Y-47841500D01*
X136241362Y-47878556D01*
X136028430Y-47951656D01*
X136028419Y-47951661D01*
X135830427Y-48058808D01*
X135830422Y-48058812D01*
X135652761Y-48197092D01*
X135652756Y-48197097D01*
X135500284Y-48362723D01*
X135500276Y-48362734D01*
X135409808Y-48501206D01*
X135356662Y-48546562D01*
X135287431Y-48555986D01*
X135224095Y-48526484D01*
X135202192Y-48501206D01*
X135111723Y-48362734D01*
X135111715Y-48362723D01*
X134959243Y-48197097D01*
X134959238Y-48197092D01*
X134781577Y-48058812D01*
X134781572Y-48058808D01*
X134583580Y-47951661D01*
X134583577Y-47951659D01*
X134583574Y-47951658D01*
X134583571Y-47951657D01*
X134583569Y-47951656D01*
X134370637Y-47878556D01*
X134148569Y-47841500D01*
X133923431Y-47841500D01*
X133701362Y-47878556D01*
X133488430Y-47951656D01*
X133488419Y-47951661D01*
X133290427Y-48058808D01*
X133290422Y-48058812D01*
X133112761Y-48197092D01*
X133112756Y-48197097D01*
X132960284Y-48362723D01*
X132960276Y-48362734D01*
X132869808Y-48501206D01*
X132816662Y-48546562D01*
X132747431Y-48555986D01*
X132684095Y-48526484D01*
X132662192Y-48501206D01*
X132571723Y-48362734D01*
X132571715Y-48362723D01*
X132419243Y-48197097D01*
X132419238Y-48197092D01*
X132241577Y-48058812D01*
X132241572Y-48058808D01*
X132043580Y-47951661D01*
X132043577Y-47951659D01*
X132043574Y-47951658D01*
X132043571Y-47951657D01*
X132043569Y-47951656D01*
X131830637Y-47878556D01*
X131608569Y-47841500D01*
X131383431Y-47841500D01*
X131161362Y-47878556D01*
X130948430Y-47951656D01*
X130948419Y-47951661D01*
X130750427Y-48058808D01*
X130750422Y-48058812D01*
X130572761Y-48197092D01*
X130572756Y-48197097D01*
X130420284Y-48362723D01*
X130420276Y-48362734D01*
X130329808Y-48501206D01*
X130276662Y-48546562D01*
X130207431Y-48555986D01*
X130144095Y-48526484D01*
X130122192Y-48501206D01*
X130031723Y-48362734D01*
X130031715Y-48362723D01*
X129879243Y-48197097D01*
X129879238Y-48197092D01*
X129701577Y-48058812D01*
X129701572Y-48058808D01*
X129503580Y-47951661D01*
X129503577Y-47951659D01*
X129503574Y-47951658D01*
X129503571Y-47951657D01*
X129503569Y-47951656D01*
X129290637Y-47878556D01*
X129068569Y-47841500D01*
X128843431Y-47841500D01*
X128621362Y-47878556D01*
X128408430Y-47951656D01*
X128408419Y-47951661D01*
X128210427Y-48058808D01*
X128210422Y-48058812D01*
X128032761Y-48197092D01*
X128032756Y-48197097D01*
X127880284Y-48362723D01*
X127880276Y-48362734D01*
X127786251Y-48506650D01*
X127733105Y-48552007D01*
X127663873Y-48561430D01*
X127600538Y-48531928D01*
X127580868Y-48509951D01*
X127454113Y-48328926D01*
X127454108Y-48328920D01*
X127287082Y-48161894D01*
X127093578Y-48026399D01*
X126879492Y-47926570D01*
X126879486Y-47926567D01*
X126666000Y-47869364D01*
X126666000Y-48766988D01*
X126608993Y-48734075D01*
X126481826Y-48700000D01*
X126350174Y-48700000D01*
X126223007Y-48734075D01*
X126166000Y-48766988D01*
X126166000Y-47869364D01*
X126165999Y-47869364D01*
X125952513Y-47926567D01*
X125952507Y-47926570D01*
X125738422Y-48026399D01*
X125738420Y-48026400D01*
X125544926Y-48161886D01*
X125544920Y-48161891D01*
X125377891Y-48328920D01*
X125377890Y-48328922D01*
X125251131Y-48509952D01*
X125196554Y-48553577D01*
X125127055Y-48560769D01*
X125064701Y-48529247D01*
X125045752Y-48506656D01*
X124951722Y-48362732D01*
X124951715Y-48362725D01*
X124951715Y-48362723D01*
X124799243Y-48197097D01*
X124799238Y-48197092D01*
X124621577Y-48058812D01*
X124621572Y-48058808D01*
X124423580Y-47951661D01*
X124423577Y-47951659D01*
X124423574Y-47951658D01*
X124423571Y-47951657D01*
X124423569Y-47951656D01*
X124210637Y-47878556D01*
X123988569Y-47841500D01*
X123763431Y-47841500D01*
X123541362Y-47878556D01*
X123328430Y-47951656D01*
X123328419Y-47951661D01*
X123130427Y-48058808D01*
X123130422Y-48058812D01*
X122952761Y-48197092D01*
X122952756Y-48197097D01*
X122800284Y-48362723D01*
X122800276Y-48362734D01*
X122709808Y-48501206D01*
X122656662Y-48546562D01*
X122587431Y-48555986D01*
X122524095Y-48526484D01*
X122502192Y-48501206D01*
X122411723Y-48362734D01*
X122411715Y-48362723D01*
X122259243Y-48197097D01*
X122259238Y-48197092D01*
X122081577Y-48058812D01*
X122081572Y-48058808D01*
X121883580Y-47951661D01*
X121883577Y-47951659D01*
X121883574Y-47951658D01*
X121883571Y-47951657D01*
X121883569Y-47951656D01*
X121670637Y-47878556D01*
X121448569Y-47841500D01*
X121223431Y-47841500D01*
X121001362Y-47878556D01*
X120788430Y-47951656D01*
X120788419Y-47951661D01*
X120590427Y-48058808D01*
X120590422Y-48058812D01*
X120412761Y-48197092D01*
X120349548Y-48265760D01*
X120289661Y-48301750D01*
X120219823Y-48299649D01*
X120162207Y-48260124D01*
X120142138Y-48225110D01*
X120096889Y-48103796D01*
X120063214Y-48058812D01*
X120009261Y-47986739D01*
X119892204Y-47899111D01*
X119755203Y-47848011D01*
X119694654Y-47841500D01*
X119694638Y-47841500D01*
X117897362Y-47841500D01*
X117897345Y-47841500D01*
X117836797Y-47848011D01*
X117836795Y-47848011D01*
X117699795Y-47899111D01*
X117582739Y-47986739D01*
X117495111Y-48103795D01*
X117444011Y-48240795D01*
X117444011Y-48240797D01*
X117437500Y-48301345D01*
X100075500Y-48301345D01*
X100075500Y-47428092D01*
X100076097Y-47415938D01*
X100087494Y-47300222D01*
X100092234Y-47276389D01*
X100124216Y-47170959D01*
X100133508Y-47148526D01*
X100185442Y-47051365D01*
X100198938Y-47031166D01*
X100268827Y-46946006D01*
X100286006Y-46928827D01*
X100371166Y-46858938D01*
X100391365Y-46845442D01*
X100488526Y-46793508D01*
X100510959Y-46784216D01*
X100616389Y-46752234D01*
X100640220Y-46747494D01*
X100755939Y-46736097D01*
X100768093Y-46735500D01*
X100786531Y-46735500D01*
X163417365Y-46735500D01*
X163484404Y-46755185D01*
G37*
%TD.AperFunction*%
%TD*%
M02*
